<svg width="55" height="20" viewBox="0 0 55 20" fill="none" xmlns="http://www.w3.org/2000/svg">
<path d="M2.48295 19.6952V13.9211H0.789058V12.1341H6.23772V13.9211H4.5437V19.6952H2.48295Z" fill="white"/>
<path d="M7.24479 19.6952V12.1341H9.39851C10.242 12.1341 10.8299 12.1728 11.1622 12.2502C11.4945 12.3278 11.7811 12.4577 12.0222 12.6401C12.2942 12.8468 12.5033 13.1102 12.6497 13.4303C12.7961 13.7505 12.8693 14.1035 12.8693 14.489C12.8693 15.0743 12.7255 15.5505 12.4381 15.917C12.1504 16.2838 11.7312 16.5273 11.1803 16.648L13.2411 19.6952H10.9118L9.17645 16.7358V19.6952H7.24479ZM9.17645 15.708H9.55863C10.0028 15.708 10.3272 15.6321 10.5321 15.4806C10.7371 15.3292 10.8396 15.0917 10.8396 14.7679C10.8396 14.3891 10.7441 14.1197 10.5529 13.9597C10.3619 13.7995 10.0408 13.7195 9.58967 13.7195H9.17658L9.17645 15.708Z" fill="white"/>
<path d="M13.1377 19.6952L15.7458 12.1341H18.3282L20.9415 19.6952H18.8911L18.509 18.3419H15.5805L15.1879 19.6952H13.1377ZM16.0247 16.8701H18.0751L17.3056 14.3755C17.2815 14.2997 17.2488 14.1776 17.2074 14.0087C17.1661 13.8401 17.1128 13.6233 17.0473 13.358C17.0024 13.544 16.9586 13.7212 16.9156 13.8899C16.8726 14.0585 16.8286 14.2204 16.7839 14.3753L16.0247 16.8701Z" fill="white"/>
<path d="M21.6647 19.6952V12.1341H23.6531L26.5092 16.023C26.5642 16.1024 26.6544 16.2614 26.7802 16.5008C26.9059 16.7401 27.0447 17.025 27.1961 17.3555C27.1548 17.0422 27.1246 16.7634 27.1058 16.5189C27.0868 16.2743 27.0773 16.0575 27.0773 15.8681V12.134H29.0553V19.695H27.0773L24.2211 15.7905C24.1625 15.7112 24.0705 15.5521 23.9448 15.3129C23.819 15.0733 23.6822 14.7921 23.5343 14.4683C23.5756 14.7851 23.6055 15.0657 23.6246 15.3102C23.6434 15.5548 23.6531 15.7718 23.6531 15.9611V19.6952H21.6647Z" fill="white"/>
<path d="M31.0128 17.2522C31.3192 17.6001 31.6213 17.86 31.9191 18.0321C32.217 18.2042 32.5139 18.2903 32.81 18.2903C33.0854 18.2903 33.3118 18.2162 33.4892 18.0683C33.6664 17.9203 33.7552 17.7326 33.7552 17.5053C33.7552 17.254 33.6785 17.0603 33.5255 16.9243C33.3721 16.7882 33.0254 16.648 32.4847 16.5033C31.7445 16.3037 31.221 16.0436 30.9146 15.7235C30.6082 15.4034 30.4549 14.9644 30.4549 14.4066C30.4549 13.6836 30.6967 13.094 31.1806 12.6377C31.6641 12.1813 32.2917 11.9534 33.063 11.9534C33.4796 11.9534 33.8746 12.0093 34.2483 12.1213C34.6216 12.2331 34.9756 12.4026 35.3096 12.63L34.6639 14.1122C34.4297 13.9127 34.1895 13.7618 33.9434 13.6605C33.6973 13.5589 33.4537 13.508 33.2125 13.508C32.9646 13.508 32.7632 13.5675 32.6083 13.6861C32.4532 13.805 32.3758 13.9573 32.3758 14.1433C32.3758 14.3326 32.4437 14.484 32.5798 14.5977C32.7157 14.7113 32.9783 14.8197 33.3674 14.923L33.4604 14.9488C34.3004 15.176 34.8531 15.4258 35.1182 15.6977C35.2972 15.8838 35.4332 16.1066 35.5262 16.3665C35.6192 16.6266 35.6658 16.9148 35.6658 17.2316C35.6658 18.034 35.4023 18.6785 34.8756 19.1659C34.3489 19.6531 33.6464 19.8967 32.7684 19.8967C32.2415 19.8967 31.7621 19.807 31.33 19.6282C30.8979 19.4492 30.4823 19.1685 30.0827 18.7863L31.0128 17.2522Z" fill="white"/>
<path d="M36.823 19.6952V12.1341H41.4557V13.792H38.832V15.1037H41.3059V16.7255H38.832V19.6952H36.823Z" fill="white"/>
<path d="M42.5766 19.6952V12.1341H47.2092V13.792H44.5855V15.1037H47.0594V16.7255H44.5855V18.001H47.2092V19.6952H42.5766Z" fill="white"/>
<path d="M48.5727 19.6952V12.1341H50.7264C51.57 12.1341 52.1579 12.1728 52.4901 12.2502C52.8224 12.3278 53.1092 12.4577 53.35 12.6401C53.6221 12.8468 53.8312 13.1102 53.9775 13.4303C54.1237 13.7505 54.1971 14.1035 54.1971 14.489C54.1971 15.0743 54.0532 15.5505 53.7659 15.917C53.4782 16.2838 53.0592 16.5273 52.5082 16.648L54.569 19.6952H52.2397L50.5042 16.7358V19.6952H48.5727ZM50.5042 15.708H50.8866C51.3308 15.708 51.6552 15.6321 51.86 15.4806C52.0649 15.3292 52.1675 15.0917 52.1675 14.7679C52.1675 14.3891 52.072 14.1197 51.8808 13.9597C51.6897 13.7995 51.3687 13.7195 50.9176 13.7195H50.5042V15.708Z" fill="white"/>
<path d="M13.3694 0.68166H16.1308C17.2693 0.68166 18.0647 0.718522 18.5168 0.791867C18.9689 0.865338 19.3581 0.991507 19.6841 1.17063C20.0559 1.37723 20.3393 1.65376 20.5345 2.00047C20.7297 2.34705 20.8272 2.7476 20.8272 3.20211C20.8272 3.77607 20.6814 4.23159 20.39 4.56906C20.0984 4.90652 19.6335 5.1624 18.9955 5.33683C19.7116 5.39194 20.2718 5.64326 20.6757 6.09093C21.0796 6.5386 21.2818 7.1365 21.2818 7.88477C21.2818 8.42187 21.1681 8.89487 20.9409 9.30327C20.7136 9.71205 20.3888 10.0287 19.9665 10.2536C19.6222 10.4373 19.1976 10.568 18.6925 10.6462C18.1875 10.7243 17.361 10.7633 16.2135 10.7633H13.3694V0.68166ZM15.9173 4.71017H16.4682C17.1475 4.71017 17.6136 4.63569 17.8661 4.48634C18.1184 4.33724 18.2449 4.07895 18.2449 3.71159C18.2449 3.33068 18.1267 3.06327 17.8903 2.90936C17.6538 2.75571 17.1936 2.67869 16.5095 2.67869H15.9173V4.71017ZM15.9173 8.7041H16.8813C17.5332 8.7041 17.9945 8.62265 18.2655 8.45962C18.5365 8.29672 18.6717 8.02462 18.6717 7.64371C18.6717 7.22137 18.5479 6.92635 18.2998 6.75876C18.0519 6.59129 17.5929 6.50743 16.9226 6.50743H15.9172L15.9173 8.7041Z" fill="white"/>
<path d="M21.7499 10.7632L25.2275 0.68166H28.6707L32.1551 10.7632H29.4214L28.9118 8.95897H25.0074L24.4838 10.7632H21.7499ZM25.5992 6.9964H28.3332L27.307 3.6703C27.2749 3.56946 27.2313 3.40644 27.1762 3.18146C27.1211 2.95661 27.0499 2.66729 26.9626 2.31374C26.9029 2.56164 26.8444 2.79814 26.787 3.02299C26.7295 3.24797 26.671 3.46369 26.6115 3.6703L25.5992 6.9964Z" fill="white"/>
<path d="M33.1193 10.7632V0.68166H35.7704L39.5785 5.86697C39.6518 5.97261 39.7722 6.18492 39.9401 6.50401C40.1075 6.82311 40.2922 7.20301 40.4945 7.64371C40.4393 7.22593 40.399 6.85414 40.3739 6.52808C40.3487 6.20215 40.3361 5.91308 40.3361 5.66049V0.68166H42.9734V10.7632H40.3361L36.528 5.55712C36.4498 5.4516 36.3272 5.23929 36.1596 4.92007C35.992 4.60098 35.8093 4.22577 35.6121 3.79419C35.6673 4.21665 35.7075 4.59084 35.7327 4.91665C35.7578 5.24259 35.7706 5.53191 35.7706 5.78438V10.7632H33.1193Z" fill="white"/>
<path d="M45.1356 10.7632V0.68166H47.8557V5.26095L51.0441 0.68166H54.2462L50.5207 5.59842L54.5699 10.7631H51.1405L47.8557 6.23876V10.7631L45.1356 10.7632Z" fill="white"/>
<path d="M11.165 0.655945H0V2.65386H11.165V0.655945Z" fill="white"/>
<path d="M11.165 4.53435H0V6.53226H11.165V4.53435Z" fill="white"/>
<path d="M11.165 8.76516H0V10.7632H11.165V8.76516Z" fill="white"/>
</svg>
