<svg width="55" height="12" viewBox="0 0 55 12" fill="none" xmlns="http://www.w3.org/2000/svg">
<path d="M11.2227 7.07552C10.4618 10.1276 7.37051 11.9851 4.31805 11.224C1.26683 10.4631 -0.590649 7.3716 0.170643 4.31967C0.931222 1.2672 4.0225 -0.590447 7.07408 0.170489C10.1264 0.931424 11.9837 4.02324 11.2227 7.07552Z" fill="white"/>
<path d="M8.20848 4.88578C8.32189 4.12769 7.74469 3.72016 6.95545 3.44829L7.21147 2.42137L6.58638 2.26558L6.33712 3.26545C6.1728 3.2245 6.00401 3.18587 5.8363 3.14759L6.08733 2.14114L5.4626 1.98535L5.2064 3.01192C5.07038 2.98094 4.93685 2.95032 4.80724 2.9181L4.80795 2.91489L3.94589 2.69964L3.77961 3.36728C3.77961 3.36728 4.24339 3.47357 4.2336 3.48016C4.48677 3.54336 4.53253 3.7109 4.52487 3.84371L4.23324 5.0136C4.25069 5.01806 4.27331 5.02447 4.29823 5.03444C4.2774 5.02927 4.25515 5.02357 4.23218 5.01805L3.8234 6.6569C3.79242 6.73381 3.71391 6.84918 3.53694 6.80538C3.54317 6.81446 3.08259 6.69197 3.08259 6.69197L2.77226 7.40751L3.58572 7.61029C3.73705 7.64821 3.88536 7.68792 4.03135 7.7253L3.77266 8.76398L4.39704 8.91976L4.65324 7.89213C4.8238 7.93842 4.98937 7.98115 5.15139 8.02139L4.89608 9.04421L5.52117 9.2L5.77986 8.16328C6.84578 8.365 7.64731 8.28363 7.98469 7.31956C8.25656 6.54331 7.97116 6.09555 7.41034 5.80356C7.81876 5.70938 8.12641 5.44072 8.20848 4.88578ZM6.78026 6.88853C6.58709 7.66477 5.28011 7.24514 4.85638 7.13991L5.19964 5.76386C5.62337 5.86961 6.98215 6.07899 6.78026 6.88853ZM6.97361 4.87456C6.79735 5.58066 5.70954 5.22191 5.35666 5.13396L5.66788 3.88591C6.02075 3.97386 7.15717 4.13801 6.97361 4.87456Z" fill="#031B44"/>
<path d="M16.6956 3.4471C17.1576 3.4471 17.5567 3.52989 17.8922 3.69244C18.2292 3.85659 18.5073 4.07772 18.7304 4.35581C18.9504 4.63533 19.1142 4.96203 19.22 5.33645C19.325 5.71193 19.3777 6.11554 19.3777 6.54764C19.3777 7.21137 19.2561 7.83842 19.0106 8.42951C18.7651 9.02149 18.432 9.53494 18.0082 9.97292C17.5849 10.4104 17.0849 10.7552 16.5084 11.01C15.9329 11.2649 15.307 11.3924 14.6351 11.3924C14.5482 11.3924 14.3955 11.3899 14.1797 11.3855C13.9639 11.381 13.7159 11.3588 13.4382 11.3212C13.1587 11.2822 12.8631 11.2245 12.551 11.1473C12.2391 11.0714 11.9428 10.9651 11.6638 10.8302L14.1585 0.347995L16.3929 0.00170898L15.4997 3.72146C15.6909 3.63529 15.8835 3.56853 16.0758 3.51992C16.2683 3.47203 16.4748 3.4471 16.6956 3.4471ZM14.8214 9.61987C15.1578 9.61987 15.4749 9.53708 15.7728 9.37453C16.0715 9.21181 16.3293 8.99211 16.5453 8.71846C16.7613 8.44357 16.9322 8.13397 17.0568 7.78804C17.1814 7.44211 17.2445 7.08122 17.2445 6.70574C17.2445 6.24444 17.1674 5.88463 17.0137 5.62451C16.8601 5.36547 16.5757 5.23514 16.1629 5.23514C16.0276 5.23514 15.8533 5.26096 15.6371 5.30707C15.4203 5.35603 15.2262 5.45769 15.0523 5.61063L14.1012 9.56094C14.1585 9.57109 14.2093 9.5807 14.2525 9.58978C14.2949 9.59958 14.3417 9.60652 14.3884 9.61133C14.4377 9.61685 14.4941 9.61969 14.5623 9.61969C14.6305 9.61969 14.7158 9.61987 14.8214 9.61987Z" fill="white"/>
<path d="M21.6949 11.1918H19.5608L21.3631 3.60791H23.5118L21.6949 11.1918ZM22.7334 2.6839C22.4356 2.6839 22.1655 2.59523 21.9259 2.41755C21.6843 2.24094 21.5646 1.96907 21.5646 1.60267C21.5646 1.40113 21.6056 1.21205 21.6868 1.03366C21.7692 0.855619 21.8769 0.70233 22.0119 0.572006C22.1466 0.44275 22.3028 0.339486 22.4801 0.261683C22.6585 0.185127 22.8483 0.146851 23.0505 0.146851C23.3482 0.146851 23.6169 0.235514 23.8574 0.413196C24.097 0.591769 24.2176 0.863632 24.2176 1.22808C24.2176 1.43033 24.1768 1.62012 24.0949 1.79815C24.0135 1.97619 23.9058 2.12948 23.7709 2.25981C23.6372 2.38924 23.4796 2.49215 23.3026 2.56924C23.1241 2.64704 22.935 2.6839 22.7334 2.6839Z" fill="white"/>
<path d="M25.3822 1.90549L27.6175 1.5592L27.0686 3.79465H29.4625L29.0302 5.55331H26.6507L26.0169 8.20609C25.9585 8.42721 25.9254 8.63373 25.9161 8.82566C25.9056 9.01847 25.93 9.18405 25.9877 9.32346C26.045 9.46322 26.1481 9.57093 26.2977 9.64713C26.4465 9.72458 26.6596 9.76356 26.9391 9.76356C27.1693 9.76356 27.3937 9.74166 27.6105 9.69822C27.8261 9.65549 28.0446 9.59603 28.2657 9.51823L28.4249 11.1626C28.1364 11.2683 27.8242 11.3593 27.4877 11.4359C27.1506 11.5135 26.7517 11.5509 26.2905 11.5509C25.6275 11.5509 25.1135 11.4524 24.7473 11.2564C24.3816 11.059 24.1231 10.7892 23.9684 10.4478C23.8158 10.1075 23.7476 9.71532 23.7667 9.27343C23.7864 8.83047 23.8532 8.3649 23.9684 7.87458L25.3822 1.90549Z" fill="white"/>
<path d="M29.3682 8.16331C29.3682 7.51009 29.474 6.89408 29.6853 6.31742C29.8963 5.74022 30.2002 5.23548 30.5946 4.80231C30.9875 4.37128 31.4662 4.0298 32.0297 3.77912C32.5905 3.52987 33.2185 3.40417 33.9105 3.40417C34.3437 3.40417 34.7306 3.44513 35.071 3.5272C35.4128 3.60999 35.7221 3.71699 36.0018 3.85123L35.2658 5.52479C35.0735 5.44681 34.8739 5.37809 34.6675 5.31577C34.461 5.25221 34.2089 5.22159 33.9107 5.22159C33.1984 5.22159 32.6352 5.4671 32.2161 5.95653C31.7986 6.44631 31.5884 7.10559 31.5884 7.93258C31.5884 8.42272 31.6941 8.81903 31.9063 9.12223C32.1175 9.42543 32.5076 9.57623 33.0739 9.57623C33.3534 9.57623 33.6232 9.54703 33.8815 9.49006C34.1418 9.43237 34.3716 9.35973 34.5741 9.27392L34.7334 10.9895C34.4635 11.0942 34.1658 11.1887 33.8393 11.2715C33.5121 11.3514 33.1225 11.3929 32.6708 11.3929C32.0746 11.3929 31.5699 11.3057 31.157 11.1339C30.7439 10.9594 30.4026 10.7278 30.1338 10.4344C29.8635 10.1403 29.6695 9.79682 29.5495 9.40264C29.4295 9.00882 29.3682 8.59506 29.3682 8.16331Z" fill="white"/>
<path d="M38.849 11.3929C38.3397 11.3929 37.8972 11.3153 37.5219 11.1617C37.1477 11.008 36.8377 10.7924 36.5926 10.5129C36.3471 10.2348 36.1633 9.90524 36.0375 9.52548C35.9116 9.14591 35.8511 8.72556 35.8511 8.26498C35.8511 7.68724 35.9438 7.10969 36.1313 6.53373C36.3179 5.95653 36.5947 5.43791 36.9611 4.97697C37.3247 4.51531 37.7732 4.13787 38.3012 3.84357C38.8287 3.55123 39.4355 3.40417 40.117 3.40417C40.6171 3.40417 41.0572 3.48198 41.4377 3.63562C41.8164 3.78891 42.1283 4.0063 42.3749 4.2844C42.6188 4.56392 42.8042 4.89204 42.9288 5.27233C43.0543 5.6512 43.1163 6.07261 43.1163 6.53355C43.1163 7.10951 43.0248 7.68706 42.8432 8.2648C42.6614 8.83968 42.3917 9.35956 42.0356 9.82157C41.6802 10.2825 41.2358 10.6598 40.7021 10.9528C40.169 11.2459 39.5509 11.3929 38.849 11.3929ZM39.9157 5.22177C39.5993 5.22177 39.3196 5.31363 39.0801 5.49505C38.8398 5.67861 38.6379 5.90935 38.4752 6.18763C38.3107 6.46715 38.1887 6.77195 38.1063 7.10328C38.0245 7.43532 37.9845 7.7492 37.9845 8.04742C37.9845 8.52865 38.0621 8.90342 38.2147 9.17315C38.3694 9.44146 38.6473 9.57641 39.0513 9.57641C39.3687 9.57641 39.647 9.48525 39.8879 9.30187C40.1268 9.11974 40.3289 8.88882 40.4929 8.61001C40.6563 8.33192 40.7793 8.02623 40.8618 7.69437C40.9424 7.36339 40.9835 7.04773 40.9835 6.75005C40.9835 6.27006 40.9063 5.8944 40.7523 5.62502C40.5984 5.35672 40.3193 5.22177 39.9157 5.22177Z" fill="white"/>
<path d="M45.4416 11.1918H43.3057L45.108 3.60791H47.2578L45.4416 11.1918ZM46.4785 2.6839C46.1808 2.6839 45.9109 2.59523 45.6716 2.41755C45.4313 2.24094 45.3106 1.96907 45.3106 1.60267C45.3106 1.40113 45.3521 1.21205 45.4334 1.03366C45.5148 0.855619 45.6232 0.70233 45.7582 0.572006C45.8922 0.44275 46.0498 0.339486 46.2268 0.261683C46.4041 0.185127 46.5939 0.146851 46.7954 0.146851C47.0938 0.146851 47.3634 0.235514 47.6034 0.413196C47.8435 0.591769 47.9648 0.863632 47.9648 1.22808C47.9648 1.43033 47.9217 1.62012 47.841 1.79815C47.7604 1.97619 47.652 2.12948 47.5175 2.25981C47.3822 2.38924 47.2266 2.49215 47.0493 2.56924C46.8706 2.64704 46.6811 2.6839 46.4785 2.6839Z" fill="white"/>
<path d="M48.7958 3.9528C48.9578 3.90544 49.1387 3.84847 49.3354 3.78651C49.5329 3.72456 49.7535 3.66687 49.9999 3.61489C50.2436 3.5613 50.5187 3.51785 50.8212 3.48421C51.1237 3.44984 51.4683 3.43311 51.8513 3.43311C52.9769 3.43311 53.7527 3.76088 54.1811 4.41446C54.6091 5.06804 54.6832 5.9625 54.4054 7.09625L53.4237 11.1911H51.2755L52.227 7.18242C52.285 6.9321 52.3306 6.69014 52.3642 6.4537C52.3982 6.2194 52.3963 6.01288 52.3566 5.83413C52.3186 5.65752 52.2293 5.51295 52.0906 5.40096C51.9497 5.29076 51.737 5.23539 51.4484 5.23539C51.1701 5.23539 50.887 5.2653 50.5981 5.32299L49.1992 11.1909H47.0501L48.7958 3.9528Z" fill="white"/>
</svg>
