<svg width="70" height="70" viewBox="0 0 70 70" fill="none" xmlns="http://www.w3.org/2000/svg">
<circle cx="35" cy="35" r="33.5" stroke="url(#paint0_linear_58473_3)" stroke-width="3"/>
<path d="M19 42H51.6667V44.3333H19V42Z" fill="url(#paint1_linear_58473_3)"/>
<path d="M19 46.6667H51.6667V49H19V46.6667Z" fill="url(#paint2_linear_58473_3)"/>
<path d="M49.3333 39.6667H21.3333C20.715 39.6651 20.1224 39.4188 19.6851 38.9816C19.2479 38.5443 19.0015 37.9517 19 37.3333V23.3333C19.0015 22.715 19.2479 22.1224 19.6851 21.6851C20.1224 21.2479 20.715 21.0015 21.3333 21H49.3333C49.9517 21.0015 50.5443 21.2479 50.9815 21.6851C51.4188 22.1224 51.6651 22.715 51.6667 23.3333V37.3333C51.6657 37.9519 51.4196 38.5448 50.9822 38.9822C50.5448 39.4196 49.9519 39.6657 49.3333 39.6667ZM49.3333 23.3333H21.3333V37.3333H49.3333V23.3333Z" fill="url(#paint3_linear_58473_3)"/>
<path d="M35.5232 34.2841C35.5498 34.9123 35.5896 35.4475 35.6426 35.8899C35.4303 35.9607 35.2489 35.996 35.0985 35.996C34.7004 35.996 34.5014 35.8235 34.5014 35.4785C34.5014 35.1157 34.5146 34.7353 34.5412 34.3372C33.7892 34.3106 33.1522 34.1204 32.6302 33.7665C32.1082 33.4038 31.8472 32.8995 31.8472 32.2537C31.8472 31.8998 31.9622 31.6122 32.1922 31.3911C32.4223 31.1699 32.6965 31.0593 33.015 31.0593C33.3424 31.0593 33.5724 31.0947 33.7051 31.1655C33.6343 31.4928 33.5989 31.7096 33.5989 31.8157C33.5989 32.2581 33.7405 32.6031 34.0236 32.8509C34.3067 33.0897 34.6783 33.2092 35.1384 33.2092C35.5984 33.2092 35.9744 33.1074 36.2664 32.9039C36.5583 32.6916 36.7043 32.4085 36.7043 32.0546C36.7043 31.7007 36.5849 31.4132 36.346 31.192C36.116 30.962 35.824 30.7895 35.4701 30.6744C35.1251 30.5594 34.7491 30.4311 34.3421 30.2896C33.9351 30.1392 33.5547 29.9888 33.2008 29.8384C32.8558 29.688 32.5638 29.4668 32.3249 29.1748C32.0949 28.874 31.9799 28.5201 31.9799 28.1132C31.9799 27.4762 32.2365 26.9321 32.7496 26.4809C33.2716 26.0208 33.913 25.72 34.6739 25.5784L34.581 24.4239C34.7402 24.3531 34.9083 24.3177 35.0853 24.3177C35.2711 24.3177 35.4215 24.3885 35.5365 24.53C35.6603 24.6627 35.7223 24.8353 35.7223 25.0476C35.7223 25.2511 35.7178 25.3971 35.709 25.4855C36.346 25.5121 36.899 25.6448 37.3679 25.8837C37.8368 26.1225 38.0712 26.4853 38.0712 26.9719C38.0712 27.3435 37.9385 27.6575 37.6731 27.9141C37.4165 28.1618 37.098 28.2857 36.7176 28.2857C36.6026 28.2857 36.4787 28.2724 36.346 28.2459C36.3902 28.0955 36.4124 27.9318 36.4124 27.7549C36.4124 27.3656 36.3062 27.0913 36.0939 26.9321C35.8815 26.764 35.5719 26.6799 35.1649 26.6799C34.7668 26.6799 34.4217 26.7463 34.1298 26.879C33.882 27.109 33.7582 27.3744 33.7582 27.6752C33.7582 27.976 33.9174 28.2238 34.2359 28.4184C34.5544 28.6042 34.9393 28.7634 35.3905 28.8961C35.8417 29.0289 36.2929 29.1837 36.7441 29.3606C37.1953 29.5287 37.5802 29.7897 37.8987 30.1436C38.2172 30.4975 38.3764 30.9354 38.3764 31.4574C38.3764 32.1917 38.1066 32.8155 37.5669 33.3286C37.0272 33.8329 36.346 34.1514 35.5232 34.2841Z" fill="url(#paint4_linear_58473_3)"/>
<path d="M28.1875 30.1875C28.1875 31.3151 27.2734 32.2292 26.1458 32.2292C25.0183 32.2292 24.1042 31.3151 24.1042 30.1875C24.1042 29.0599 25.0183 28.1458 26.1458 28.1458C27.2734 28.1458 28.1875 29.0599 28.1875 30.1875Z" fill="url(#paint5_linear_58473_3)"/>
<path d="M46.5625 30.1875C46.5625 31.3151 45.6484 32.2292 44.5208 32.2292C43.3933 32.2292 42.4792 31.3151 42.4792 30.1875C42.4792 29.0599 43.3933 28.1458 44.5208 28.1458C45.6484 28.1458 46.5625 29.0599 46.5625 30.1875Z" fill="url(#paint6_linear_58473_3)"/>
<defs>
<linearGradient id="paint0_linear_58473_3" x1="0" y1="35" x2="75.1471" y2="35" gradientUnits="userSpaceOnUse">
<stop stop-color="#FF27A4"/>
<stop offset="1" stop-color="#8BC1FF"/>
</linearGradient>
<linearGradient id="paint1_linear_58473_3" x1="19" y1="35" x2="54.0686" y2="35" gradientUnits="userSpaceOnUse">
<stop stop-color="#FF27A4"/>
<stop offset="1" stop-color="#8BC1FF"/>
</linearGradient>
<linearGradient id="paint2_linear_58473_3" x1="19" y1="35" x2="54.0686" y2="35" gradientUnits="userSpaceOnUse">
<stop stop-color="#FF27A4"/>
<stop offset="1" stop-color="#8BC1FF"/>
</linearGradient>
<linearGradient id="paint3_linear_58473_3" x1="19" y1="35" x2="54.0686" y2="35" gradientUnits="userSpaceOnUse">
<stop stop-color="#FF27A4"/>
<stop offset="1" stop-color="#8BC1FF"/>
</linearGradient>
<linearGradient id="paint4_linear_58473_3" x1="19" y1="35" x2="54.0686" y2="35" gradientUnits="userSpaceOnUse">
<stop stop-color="#FF27A4"/>
<stop offset="1" stop-color="#8BC1FF"/>
</linearGradient>
<linearGradient id="paint5_linear_58473_3" x1="19" y1="35" x2="54.0686" y2="35" gradientUnits="userSpaceOnUse">
<stop stop-color="#FF27A4"/>
<stop offset="1" stop-color="#8BC1FF"/>
</linearGradient>
<linearGradient id="paint6_linear_58473_3" x1="19" y1="35" x2="54.0686" y2="35" gradientUnits="userSpaceOnUse">
<stop stop-color="#FF27A4"/>
<stop offset="1" stop-color="#8BC1FF"/>
</linearGradient>
</defs>
</svg>
