<svg width="55" height="10" viewBox="0 0 55 10" fill="none" xmlns="http://www.w3.org/2000/svg">
<path d="M53.5728 0.909306C52.8774 0.431066 51.825 0.189873 50.4454 0.189873H46.8325L45.4893 7.50965H40.7562L41.0605 5.84894H43.9116L44.2494 3.98371L41.3999 3.98783L41.705 2.33454H44.6418L45.0325 0.190301H39.0685L37.7934 7.13356H35.6048L36.8885 0.189935H33.7709L32.4958 7.13319H30.3638L31.6487 0.189935H28.5328L27.188 7.50971H22.4209L22.7222 5.84901H25.5848L25.9231 3.99437L23.0632 3.99149L23.3666 2.33491H26.3364L26.7246 0.189758H8.13983L7.08203 5.99014L4.97544 0.189758H1.74088L0 9.65596H3.08904L4.14275 3.69562L6.18695 9.65596H17.2578L18.6038 2.334H20.3353L18.9892 9.65596H48.1188L48.9634 5.03406L50.3295 9.65596H53.4202L52.0045 5.8793L52.3284 5.80934C53.0418 5.65582 53.5982 5.32615 53.9856 4.83186C54.3727 4.33304 54.5699 3.69262 54.5699 2.92335C54.5699 2.02777 54.2435 1.36885 53.5719 0.908757L53.5728 0.909306ZM14.5697 7.50965H9.84117L10.1466 5.84894H13.1125L13.4487 3.97842H10.5114L10.7943 2.33501H15.5159L14.5688 7.50963L14.5697 7.50965ZM51.0262 4.32113C50.7154 4.53926 50.2648 4.64545 49.6486 4.64545H49.0377L49.5063 2.10515H49.9557C50.4674 2.10515 50.8405 2.18747 51.0979 2.35538C51.2988 2.48709 51.5379 2.74762 51.5379 3.24027C51.5371 3.83623 51.2591 4.15643 51.0254 4.32106L51.0262 4.32113Z" fill="white"/>
</svg>
