<svg width="61" height="13" viewBox="0 0 61 13" fill="none" xmlns="http://www.w3.org/2000/svg">
<path d="M12.443 7.65702C11.5994 10.96 8.17196 12.9701 4.78758 12.1464C1.40458 11.323 -0.654874 7.97743 0.189198 4.67468C1.03248 1.37135 4.4599 -0.638972 7.84329 0.1845C11.2275 1.00797 13.2867 4.35388 12.443 7.65702Z" fill="#E27D43"/>
<path d="M9.10107 5.28723C9.22681 4.46684 8.58685 4.02582 7.71178 3.73161L7.99564 2.62029L7.30258 2.4517L7.02622 3.53374C6.84403 3.48942 6.65689 3.44762 6.47094 3.40619L6.74927 2.31702L6.0566 2.14844L5.77255 3.25937C5.62174 3.22585 5.47369 3.19271 5.32998 3.15784L5.33077 3.15437L4.37498 2.92143L4.19061 3.64394C4.19061 3.64394 4.70483 3.75897 4.69397 3.7661C4.97467 3.83449 5.0254 4.0158 5.01691 4.15953L4.69357 5.42557C4.71292 5.43038 4.73799 5.43732 4.76563 5.44811C4.74253 5.44252 4.71786 5.43635 4.69239 5.43038L4.23916 7.20391C4.20482 7.28715 4.11777 7.41199 3.92156 7.3646C3.92846 7.37442 3.4178 7.24187 3.4178 7.24187L3.07373 8.01621L3.97564 8.23566C4.14343 8.2767 4.30786 8.31966 4.46972 8.36012L4.18291 9.48416L4.87518 9.65275L5.15924 8.54066C5.34834 8.59075 5.53192 8.637 5.71156 8.68054L5.42849 9.78743L6.12155 9.95602L6.40837 8.8341C7.59019 9.05239 8.47887 8.96434 8.85294 7.92103C9.15437 7.08099 8.83793 6.59643 8.21613 6.28045C8.66896 6.17852 9.01007 5.88778 9.10107 5.28723ZM7.51754 7.45458C7.30337 8.29462 5.85427 7.84049 5.38446 7.72662L5.76505 6.23748C6.23486 6.35192 7.74139 6.57851 7.51754 7.45458ZM7.73192 5.27509C7.53649 6.03922 6.33039 5.65099 5.93915 5.55581L6.28421 4.2052C6.67545 4.30037 7.93543 4.47801 7.73192 5.27509Z" fill="white"/>
<path d="M18.5115 3.73051C19.0237 3.73051 19.4663 3.8201 19.8382 3.996C20.2118 4.17365 20.5202 4.41294 20.7675 4.7139C21.0115 5.01639 21.1931 5.36994 21.3104 5.77512C21.4268 6.18146 21.4853 6.61825 21.4853 7.08586C21.4853 7.80413 21.3504 8.48272 21.0782 9.12239C20.806 9.76301 20.4367 10.3187 19.9669 10.7926C19.4975 11.266 18.9432 11.6392 18.304 11.9149C17.6658 12.1908 16.972 12.3288 16.227 12.3288C16.1307 12.3288 15.9613 12.3261 15.722 12.3213C15.4828 12.3165 15.2078 12.2924 14.8999 12.2517C14.59 12.2095 14.2623 12.1471 13.9162 12.0635C13.5704 11.9814 13.2419 11.8664 12.9326 11.7203L15.6985 0.376698L18.1759 0.00195312L17.1855 4.02741C17.3975 3.93416 17.6111 3.86191 17.8243 3.80931C18.0377 3.75748 18.2667 3.73051 18.5115 3.73051ZM16.4335 10.4106C16.8065 10.4106 17.1581 10.321 17.4884 10.1451C17.8196 9.96898 18.1054 9.73122 18.3449 9.43509C18.5843 9.1376 18.7738 8.80255 18.912 8.42819C19.0502 8.05384 19.12 7.66329 19.12 7.25695C19.12 6.75774 19.0346 6.36836 18.8642 6.08686C18.6939 5.80653 18.3786 5.66549 17.9209 5.66549C17.7708 5.66549 17.5776 5.69343 17.3379 5.74333C17.0975 5.79631 16.8823 5.90633 16.6895 6.07184L15.635 10.3468C15.6986 10.3578 15.7548 10.3682 15.8028 10.378C15.8498 10.3886 15.9017 10.3961 15.9534 10.4013C16.0081 10.4073 16.0706 10.4104 16.1462 10.4104C16.2219 10.4104 16.3164 10.4106 16.4335 10.4106Z" fill="white"/>
<path d="M24.0537 12.1109H21.6875L23.6858 3.90371H26.0681L24.0537 12.1109ZM25.2051 2.90375C24.8749 2.90375 24.5754 2.8078 24.3097 2.61552C24.0419 2.42439 23.9092 2.13018 23.9092 1.73367C23.9092 1.51557 23.9546 1.31095 24.0446 1.11789C24.136 0.925221 24.2554 0.759334 24.4051 0.6183C24.5545 0.478421 24.7276 0.36667 24.9242 0.282473C25.122 0.199625 25.3324 0.158203 25.5567 0.158203C25.8867 0.158203 26.1846 0.254153 26.4513 0.446438C26.717 0.639686 26.8506 0.933893 26.8506 1.32829C26.8506 1.54716 26.8054 1.75255 26.7146 1.94522C26.6244 2.13789 26.505 2.30377 26.3554 2.44481C26.2071 2.58488 26.0324 2.69625 25.8362 2.77967C25.6382 2.86387 25.4286 2.90375 25.2051 2.90375Z" fill="white"/>
<path d="M28.1423 2.06225L30.6206 1.6875L30.0121 4.10667H32.6663L32.187 6.00986H29.5488L28.846 8.88065C28.7813 9.11995 28.7446 9.34344 28.7343 9.55114C28.7227 9.7598 28.7497 9.93899 28.8137 10.0899C28.8772 10.2411 28.9915 10.3577 29.1573 10.4401C29.3223 10.5239 29.5586 10.5661 29.8685 10.5661C30.1238 10.5661 30.3725 10.5424 30.6129 10.4954C30.852 10.4492 31.0942 10.3848 31.3394 10.3006L31.5158 12.0801C31.196 12.1946 30.8498 12.293 30.4767 12.3759C30.1031 12.4599 29.6607 12.5003 29.1494 12.5003C28.4143 12.5003 27.8444 12.3938 27.4384 12.1817C27.0329 11.968 26.7463 11.6761 26.5748 11.3066C26.4056 10.9384 26.33 10.5139 26.3511 10.0357C26.373 9.55635 26.4471 9.05252 26.5748 8.5219L28.1423 2.06225Z" fill="white"/>
<path d="M32.5615 8.83386C32.5615 8.12695 32.6788 7.46032 32.9131 6.83626C33.147 6.21162 33.484 5.6654 33.9212 5.19663C34.3569 4.73018 34.8877 4.36063 35.5124 4.08935C36.1342 3.81962 36.8304 3.68359 37.5977 3.68359C38.078 3.68359 38.5069 3.72791 38.8844 3.81673C39.2634 3.90632 39.6062 4.02212 39.9164 4.16739L39.1003 5.97849C38.8871 5.8941 38.6658 5.81973 38.4371 5.75229C38.2081 5.68351 37.9286 5.65037 37.5979 5.65037C36.8081 5.65037 36.1838 5.91606 35.7191 6.44571C35.2562 6.97575 35.0231 7.68921 35.0231 8.58416C35.0231 9.11458 35.1403 9.54347 35.3756 9.87158C35.6097 10.1997 36.0422 10.3629 36.6702 10.3629C36.9801 10.3629 37.2791 10.3313 37.5656 10.2696C37.8541 10.2072 38.109 10.1286 38.3334 10.0357L38.5101 11.8923C38.2108 12.0056 37.8808 12.1079 37.5188 12.1975C37.156 12.284 36.724 12.3289 36.2232 12.3289C35.5622 12.3289 35.0025 12.2345 34.5448 12.0486C34.0868 11.8598 33.7084 11.6091 33.4103 11.2916C33.1107 10.9733 32.8955 10.6016 32.7625 10.175C32.6294 9.74886 32.5615 9.30108 32.5615 8.83386Z" fill="white"/>
<path d="M43.073 12.3289C42.5082 12.3289 42.0177 12.2449 41.6016 12.0786C41.1867 11.9123 40.843 11.679 40.5712 11.3765C40.299 11.0756 40.0953 10.7189 39.9557 10.308C39.8161 9.89721 39.749 9.44232 39.749 8.94388C39.749 8.31866 39.8519 7.69364 40.0597 7.07035C40.2666 6.44571 40.5735 5.88447 40.9798 5.38565C41.3829 4.88605 41.8801 4.47759 42.4656 4.1591C43.0505 3.84274 43.7232 3.68359 44.4789 3.68359C45.0334 3.68359 45.5213 3.76779 45.9432 3.93406C46.363 4.09995 46.7089 4.3352 46.9823 4.63616C47.2527 4.93865 47.4582 5.29374 47.5964 5.70528C47.7355 6.11529 47.8042 6.57133 47.8042 7.07016C47.8042 7.69345 47.7028 8.31847 47.5014 8.94368C47.2999 9.56582 47.0008 10.1284 46.606 10.6284C46.212 11.1272 45.7193 11.5355 45.1275 11.8526C44.5365 12.1698 43.8511 12.3289 43.073 12.3289ZM44.2556 5.65057C43.9048 5.65057 43.5947 5.74998 43.3292 5.94631C43.0627 6.14495 42.8389 6.39466 42.6585 6.6958C42.4761 6.99829 42.3409 7.32815 42.2495 7.68671C42.1589 8.04603 42.1144 8.38571 42.1144 8.70844C42.1144 9.22922 42.2005 9.6348 42.3697 9.92669C42.5412 10.217 42.8494 10.3631 43.2972 10.3631C43.6492 10.3631 43.9577 10.2644 44.2248 10.066C44.4897 9.86889 44.7138 9.61899 44.8956 9.31727C45.0768 9.01632 45.2132 8.68551 45.3046 8.32637C45.394 7.9682 45.4396 7.62659 45.4396 7.30445C45.4396 6.78501 45.3539 6.37847 45.1832 6.08696C45.0126 5.79661 44.7031 5.65057 44.2556 5.65057Z" fill="white"/>
<path d="M50.3828 12.1109H48.0146L50.0129 3.90371H52.3965L50.3828 12.1109ZM51.5325 2.90375C51.2024 2.90375 50.9032 2.8078 50.6379 2.61552C50.3714 2.42439 50.2375 2.13018 50.2375 1.73367C50.2375 1.51557 50.2835 1.31095 50.3737 1.11789C50.464 0.925221 50.5842 0.759334 50.7338 0.6183C50.8824 0.478421 51.0571 0.36667 51.2533 0.282473C51.45 0.199625 51.6604 0.158203 51.8838 0.158203C52.2147 0.158203 52.5135 0.254153 52.7796 0.446438C53.0459 0.639686 53.1803 0.933893 53.1803 1.32829C53.1803 1.54716 53.1326 1.75255 53.0432 1.94522C52.9537 2.13789 52.8335 2.30377 52.6845 2.44481C52.5345 2.58488 52.3619 2.69625 52.1653 2.77967C51.9671 2.86387 51.7571 2.90375 51.5325 2.90375Z" fill="white"/>
<path d="M54.1015 4.27725C54.2811 4.226 54.4817 4.16435 54.6998 4.0973C54.9187 4.03025 55.1633 3.96782 55.4365 3.91157C55.7067 3.85357 56.0117 3.80656 56.3471 3.77014C56.6825 3.73296 57.0646 3.71484 57.4892 3.71484C58.7372 3.71484 59.5974 4.06955 60.0724 4.77685C60.5469 5.48414 60.629 6.45211 60.3211 7.67904L59.2327 12.1105H56.8508L57.9057 7.77229C57.9701 7.5014 58.0206 7.23955 58.0579 6.98369C58.0956 6.73013 58.0935 6.50664 58.0494 6.3132C58.0074 6.12207 57.9083 5.96562 57.7545 5.84443C57.5984 5.72517 57.3625 5.66525 57.0425 5.66525C56.734 5.66525 56.4201 5.69762 56.0997 5.76004L54.5488 12.1103H52.166L54.1015 4.27725Z" fill="white"/>
</svg>
