<svg width="61" height="21" viewBox="0 0 61 21" fill="none" xmlns="http://www.w3.org/2000/svg">
<path d="M2.76036 20.78V14.478H0.877215V12.5276H6.93463V14.478H5.05134V20.78H2.76036Z" fill="#9AC9FF"/>
<path d="M8.05421 20.78V12.5276H10.4486C11.3863 12.5276 12.0399 12.5699 12.4093 12.6544C12.7787 12.739 13.0974 12.8809 13.3654 13.0799C13.6677 13.3054 13.9002 13.593 14.063 13.9424C14.2257 14.2918 14.3071 14.6771 14.3071 15.0978C14.3071 15.7367 14.1473 16.2564 13.8277 16.6564C13.5079 17.0568 13.0419 17.3225 12.4294 17.4543L14.7204 20.78H12.1309L10.2017 17.5501V20.78H8.05421ZM10.2017 16.4283H10.6266C11.1203 16.4283 11.481 16.3454 11.7088 16.1801C11.9367 16.0149 12.0506 15.7556 12.0506 15.4022C12.0506 14.9889 11.9444 14.6948 11.7319 14.5202C11.5196 14.3453 11.1626 14.258 10.6611 14.258H10.2018L10.2017 16.4283Z" fill="#9AC9FF"/>
<path d="M14.6055 20.78L17.505 12.5276H20.3759L23.2812 20.78H21.0018L20.5769 19.303H17.3212L16.8848 20.78H14.6055ZM17.8151 17.6966H20.0945L19.239 14.9739C19.2123 14.8913 19.1759 14.758 19.1299 14.5737C19.084 14.3897 19.0247 14.153 18.9519 13.8634C18.902 14.0664 18.8533 14.2598 18.8055 14.444C18.7577 14.628 18.7088 14.8047 18.6591 14.9738L17.8151 17.6966Z" fill="#9AC9FF"/>
<path d="M24.0852 20.78V12.5276H26.2957L29.471 16.7721C29.5321 16.8588 29.6324 17.0323 29.7722 17.2936C29.9119 17.5548 30.0663 17.8657 30.2345 18.2264C30.1886 17.8845 30.1551 17.5802 30.1341 17.3134C30.113 17.0464 30.1024 16.8097 30.1024 16.603V12.5275H32.3015V20.7799H30.1024L26.9272 16.5184C26.862 16.4318 26.7598 16.2582 26.6201 15.997C26.4802 15.7356 26.3281 15.4287 26.1636 15.0753C26.2096 15.4211 26.2428 15.7273 26.2641 15.9941C26.2849 16.2611 26.2957 16.4979 26.2957 16.7045V20.78H24.0852Z" fill="#9AC9FF"/>
<path d="M34.4777 18.1137C34.8183 18.4934 35.1542 18.7771 35.4853 18.9649C35.8164 19.1527 36.1465 19.2468 36.4757 19.2468C36.7819 19.2468 37.0336 19.1659 37.2307 19.0044C37.4277 18.8429 37.5265 18.638 37.5265 18.39C37.5265 18.1157 37.4413 17.9043 37.2711 17.7558C37.1006 17.6073 36.7151 17.4543 36.1141 17.2964C35.2911 17.0785 34.7092 16.7946 34.3685 16.4453C34.0279 16.0959 33.8575 15.6167 33.8575 15.0079C33.8575 14.2188 34.1263 13.5753 34.6643 13.0773C35.2018 12.5792 35.8995 12.3305 36.757 12.3305C37.2202 12.3305 37.6593 12.3914 38.0747 12.5136C38.4897 12.6357 38.8832 12.8207 39.2545 13.0689L38.5368 14.6866C38.2764 14.4689 38.0094 14.3042 37.7357 14.1936C37.4621 14.0827 37.1913 14.0271 36.9231 14.0271C36.6475 14.0271 36.4236 14.0921 36.2514 14.2215C36.079 14.3514 35.993 14.5175 35.993 14.7205C35.993 14.9272 36.0685 15.0924 36.2197 15.2164C36.3708 15.3404 36.6628 15.4588 37.0954 15.5715L37.1987 15.5997C38.1326 15.8477 38.747 16.1204 39.0418 16.4171C39.2407 16.6202 39.392 16.8633 39.4954 17.1471C39.5987 17.4309 39.6506 17.7454 39.6506 18.0912C39.6506 18.9669 39.3576 19.6704 38.7721 20.2024C38.1865 20.7341 37.4055 21 36.4294 21C35.8437 21 35.3107 20.9021 34.8303 20.7069C34.3499 20.5115 33.8879 20.2052 33.4437 19.788L34.4777 18.1137Z" fill="#9AC9FF"/>
<path d="M40.937 20.78V12.5276H46.0874V14.3371H43.1705V15.7688H45.9208V17.5389H43.1705V20.78H40.937Z" fill="#9AC9FF"/>
<path d="M47.3334 20.78V12.5276H52.4836V14.3371H49.5668V15.7688H52.3172V17.5389H49.5668V18.931H52.4836V20.78H47.3334Z" fill="#9AC9FF"/>
<path d="M53.9995 20.78V12.5276H56.3938C57.3316 12.5276 57.9852 12.5699 58.3546 12.6544C58.724 12.739 59.0428 12.8809 59.3105 13.0799C59.613 13.3054 59.8455 13.593 60.0082 13.9424C60.1707 14.2918 60.2522 14.6771 60.2522 15.0978C60.2522 15.7367 60.0922 16.2564 59.7728 16.6564C59.453 17.0568 58.9872 17.3225 58.3747 17.4543L60.6657 20.78H58.0762L56.1468 17.5501V20.78H53.9995ZM56.1468 16.4283H56.5718C57.0657 16.4283 57.4264 16.3454 57.6541 16.1801C57.8818 16.0149 57.9959 15.7556 57.9959 15.4022C57.9959 14.9889 57.8897 14.6948 57.6772 14.5202C57.4647 14.3453 57.1078 14.258 56.6063 14.258H56.1468V16.4283Z" fill="#9AC9FF"/>
<path d="M14.8631 0.0280666H17.933C19.1987 0.0280666 20.083 0.0682987 20.5856 0.14835C21.0882 0.228539 21.5208 0.366243 21.8833 0.561739C22.2967 0.787236 22.6117 1.08905 22.8287 1.46746C23.0457 1.84573 23.1542 2.2829 23.1542 2.77896C23.1542 3.40541 22.9921 3.90258 22.668 4.2709C22.3438 4.63921 21.827 4.91849 21.1178 5.10887C21.9139 5.16901 22.5366 5.44332 22.9857 5.93192C23.4347 6.42052 23.6594 7.07309 23.6594 7.88977C23.6594 8.47598 23.5331 8.99224 23.2805 9.43798C23.0278 9.88413 22.6668 10.2298 22.1972 10.4752C21.8145 10.6757 21.3424 10.8183 20.7809 10.9036C20.2195 10.9889 19.3007 11.0315 18.0249 11.0315H14.8631V0.0280666ZM17.6957 4.42492H18.3081C19.0633 4.42492 19.5815 4.34362 19.8622 4.18061C20.1427 4.01789 20.2833 3.73598 20.2833 3.33504C20.2833 2.9193 20.1519 2.62744 19.8891 2.45945C19.6261 2.29175 19.1145 2.20769 18.3541 2.20769H17.6957V4.42492ZM17.6957 8.78402H18.7674C19.4921 8.78402 20.005 8.69512 20.3062 8.51719C20.6074 8.33939 20.7578 8.04241 20.7578 7.62667C20.7578 7.16572 20.6201 6.84372 20.3444 6.66081C20.0688 6.47803 19.5584 6.38651 18.8133 6.38651H17.6955L17.6957 8.78402Z" fill="#9AC9FF"/>
<path d="M24.1799 11.0314L28.0461 0.0280666H31.8739L35.7477 11.0314H32.7085L32.1419 9.06219H27.8013L27.2193 11.0314H24.1799ZM28.4593 6.92018H31.4988L30.3579 3.28996C30.3221 3.17991 30.2737 3.00197 30.2124 2.75643C30.1512 2.51102 30.072 2.19524 29.975 1.80937C29.9087 2.07994 29.8436 2.33807 29.7798 2.58347C29.7159 2.82902 29.6508 3.06447 29.5846 3.28996L28.4593 6.92018Z" fill="#9AC9FF"/>
<path d="M36.8195 11.0314V0.0280666H39.7669L44.0004 5.68748C44.0818 5.80278 44.2158 6.0345 44.4024 6.38277C44.5885 6.73104 44.7939 7.14568 45.0188 7.62667C44.9574 7.1707 44.9126 6.76492 44.8847 6.40904C44.8567 6.05331 44.8426 5.73781 44.8426 5.46212V0.0280666H47.7746V11.0314H44.8426L40.609 5.3493C40.5221 5.23413 40.3858 5.00242 40.1995 4.65401C40.0132 4.30574 39.8101 3.89622 39.5908 3.42518C39.6522 3.88627 39.6969 4.29468 39.7249 4.65027C39.7528 5.00601 39.767 5.32179 39.767 5.59734V11.0314H36.8195Z" fill="#9AC9FF"/>
<path d="M50.1784 11.0314V0.0280666H53.2024V5.02606L56.747 0.0280666H60.3069L56.1651 5.39437L60.6667 11.0313H56.8542L53.2024 6.09326V11.0313L50.1784 11.0314Z" fill="#9AC9FF"/>
<path d="M12.4124 0H0V2.18059H12.4124V0Z" fill="#9AC9FF"/>
<path d="M12.4124 4.23302H0V6.4136H12.4124V4.23302Z" fill="#9AC9FF"/>
<path d="M12.4124 8.85066H0V11.0314H12.4124V8.85066Z" fill="#9AC9FF"/>
</svg>
