<svg width="61" height="11" viewBox="0 0 61 11" fill="none" xmlns="http://www.w3.org/2000/svg">
<path d="M59.7247 0.798129C58.9516 0.267661 57.7816 0.000127599 56.2479 0.000127599H52.2313L50.7381 8.11929H45.4762L45.8144 6.27722H48.9841L49.3597 4.20829L46.1918 4.21286L46.531 2.37901H49.7959L50.2303 0.000601539H43.6L42.1824 7.70213H39.7492L41.1764 0.000196462H37.7105L36.2929 7.70172H33.9227L35.3512 0.000196462H31.8871L30.392 8.11936H25.0924L25.4274 6.27729H28.6098L28.9858 4.22011L25.8065 4.21691L26.1438 2.37942H29.4453L29.8769 0H9.21576L8.03977 6.43384L5.69782 0H2.10188L0.166504 10.5H3.60066L4.7721 3.88874L7.04469 10.5H19.3524L20.8488 2.37841H22.7737L21.2773 10.5H53.6614L54.6003 5.37335L56.1191 10.5H59.5551L57.9812 6.3109L58.3413 6.23329C59.1344 6.06301 59.7529 5.69733 60.1836 5.14906C60.6139 4.59576 60.8332 3.8854 60.8332 3.03213C60.8332 2.03874 60.4703 1.30786 59.7237 0.79752L59.7247 0.798129ZM16.364 8.11929H11.1072L11.4467 6.27722H14.744L15.1178 4.20242H11.8523L12.1668 2.37953H17.4159L16.363 8.11927L16.364 8.11929ZM56.8936 4.58256C56.5481 4.82451 56.0471 4.94229 55.3621 4.94229H54.6829L55.2039 2.12457H55.7034C56.2723 2.12457 56.6871 2.21588 56.9733 2.40213C57.1967 2.54822 57.4624 2.83721 57.4624 3.38365C57.4616 4.0447 57.1525 4.39987 56.8926 4.58248L56.8936 4.58256Z" fill="#B6ED87"/>
</svg>
