<svg width="62" height="20" viewBox="0 0 62 20" fill="none" xmlns="http://www.w3.org/2000/svg">
<path fill-rule="evenodd" clip-rule="evenodd" d="M44.0766 4.932C45.4519 4.932 46.5667 3.86551 46.5667 2.55039C46.5667 1.2345 45.4519 0.166992 44.0766 0.166992C42.7028 0.166992 41.5886 1.2345 41.5886 2.55039C41.5886 3.86551 42.7028 4.932 44.0766 4.932ZM25.0057 6.21819C24.8933 6.48833 24.0846 8.67482 22.1287 10.9409V1.2514L16.9174 2.23723V19.8006H22.1287V14.3716C23.6381 16.5384 24.3834 19.8006 24.3834 19.8006H30.6255C30.0081 17.3437 27.3072 12.8135 27.3072 12.8135C29.7312 9.8719 30.7959 6.73747 30.9653 6.21819H25.0057ZM38.706 6.03485C34.0383 6.17824 31.6689 8.18267 31.6689 12.1672V19.8006H36.7612V13.5758C36.7612 11.1898 37.0875 10.1671 40.0455 10.0696V6.10475C39.5477 6.00361 38.706 6.03485 38.706 6.03485ZM8.17741 8.1522C7.53911 8.112 6.06131 8.02059 6.06131 6.74721C6.06131 5.21059 8.18892 5.21059 8.98694 5.21059C10.3901 5.21059 12.2074 5.60749 13.5051 5.97903C13.5051 5.97903 14.229 6.22331 14.8452 6.47348L14.9024 6.48833V2.27999L14.8237 2.25772C13.2922 1.74483 11.5113 1.2514 8.20952 1.2514C2.51663 1.2514 0.499512 4.42577 0.499512 7.14512C0.499512 8.71272 1.20149 12.402 7.72129 12.8276C8.27399 12.8601 9.74082 12.941 9.74082 14.2569C9.74082 15.3434 8.53991 15.984 6.52011 15.984C4.30663 15.984 2.15949 15.4437 0.855317 14.9314V19.2657C2.8077 19.7555 5.00861 20.0003 7.58806 20.0003C13.1544 20.0003 15.6475 16.997 15.6475 14.0203C15.6475 10.6452 12.8577 8.4523 8.17741 8.1522ZM41.5522 19.8006H46.6033V6.23355H41.5522V19.8006ZM56.1143 2.11637V19.8006H61.1662V1.2514L56.1143 2.11637ZM48.743 2.11637L53.79 1.2514V19.8006H48.743V2.11637Z" fill="#C483EC"/>
</svg>
