<svg width="55" height="20" viewBox="0 0 55 20" fill="none" xmlns="http://www.w3.org/2000/svg">
<path fill-rule="evenodd" clip-rule="evenodd" d="M39.1977 5.02893C40.4348 5.02893 41.4376 4.02667 41.4376 2.79076C41.4376 1.55412 40.4348 0.550903 39.1977 0.550903C37.962 0.550903 36.9598 1.55412 36.9598 2.79076C36.9598 4.02667 37.962 5.02893 39.1977 5.02893ZM22.0434 6.23765C21.9423 6.49152 21.2149 8.54633 19.4555 10.676V1.57L14.7679 2.49646V19.002H19.4555V13.9C20.8132 15.9363 21.4836 19.002 21.4836 19.002H27.0984C26.543 16.6931 24.1136 12.4358 24.1136 12.4358C26.294 9.67131 27.2517 6.72566 27.404 6.23765H22.0434ZM34.3669 6.06535C30.1683 6.20011 28.0369 8.08382 28.0369 11.8284V19.002H32.6175V13.1521C32.6175 10.9099 32.911 9.94876 35.5718 9.85708V6.13105C35.1239 6.036 34.3669 6.06535 34.3669 6.06535ZM6.9063 8.05519C6.33214 8.01741 5.00286 7.9315 5.00286 6.73481C5.00286 5.29074 6.91665 5.29074 7.63447 5.29074C8.89661 5.29074 10.5313 5.66373 11.6986 6.0129C11.6986 6.0129 12.3498 6.24246 12.904 6.47757L12.9554 6.49152V2.53664L12.8847 2.51571C11.507 2.03371 9.90512 1.57 6.93518 1.57C1.81441 1.57 0 4.55319 0 7.10876C0 8.58194 0.631433 12.049 6.49601 12.449C6.99317 12.4795 8.31258 12.5556 8.31258 13.7922C8.31258 14.8133 7.23236 15.4153 5.41555 15.4153C3.42451 15.4153 1.49316 14.9076 0.320048 14.4261V18.4993C2.07622 18.9597 4.05595 19.1897 6.37617 19.1897C11.3831 19.1897 13.6256 16.3673 13.6256 13.5699C13.6256 10.398 11.1163 8.33721 6.9063 8.05519ZM36.927 19.002H41.4705V6.25209H36.927V19.002ZM50.0257 2.38288V19.002H54.5699V1.57L50.0257 2.38288ZM43.3951 2.38288L47.935 1.57V19.002H43.3951V2.38288Z" fill="white"/>
</svg>
