<svg width="2000" height="438" fill="none" xmlns="http://www.w3.org/2000/svg"><path d="M1169 234.5C827.8 317.3 425.5 246-2.5 336v102H2002V43c-349 0-393.5 84.845-833 191.5z" fill="url(#paint0_linear_58513_2)" fill-opacity=".16"/><path d="M.5 333c420.5-83.5 807.002-15.658 1166.29-96.984C1526.08 154.689 1570 62 2000 42" stroke="url(#paint1_linear_58513_2)" stroke-width="14" stroke-linecap="round"/><circle cx="433.5" cy="288.5" r="15.5" fill="#000616" stroke="#5540B2" stroke-width="6"/><circle cx="767.5" cy="283.5" r="15.5" fill="#000616" stroke="#8546C1" stroke-width="6"/><circle cx="1167.5" cy="235.5" r="15.5" fill="#000616" stroke="#AD48C0" stroke-width="6"/><circle cx="1568.5" cy="110.5" r="15.5" fill="#000616" stroke="#C747B1" stroke-width="6"/><path d="M438.424 233.28c.8 0 1.432.224 1.896.672.464.432.696 1.008.696 1.728V240H416.44v-2.4c0-.464.096-.96.288-1.488.192-.528.528-1.008 1.008-1.44l10.08-10.152a33.422 33.422 0 002.256-2.472 15.66 15.66 0 001.584-2.304c.416-.768.728-1.528.936-2.28a9.234 9.234 0 00.312-2.424c0-1.392-.336-2.456-1.008-3.192-.656-.752-1.664-1.128-3.024-1.128-1.104 0-2.04.296-2.808.888a4.445 4.445 0 00-1.56 2.16c-.336.88-.776 1.464-1.32 1.752-.544.288-1.32.352-2.328.192l-3.936-.696c.256-1.744.744-3.264 1.464-4.56.736-1.296 1.64-2.376 2.712-3.24a10.967 10.967 0 013.72-1.92c1.392-.432 2.888-.648 4.488-.648 1.728 0 3.28.256 4.656.768 1.392.496 2.576 1.192 3.552 2.088a8.888 8.888 0 012.232 3.216c.528 1.232.792 2.592.792 4.08 0 1.28-.184 2.464-.552 3.552a13.848 13.848 0 01-1.464 3.12 22.196 22.196 0 01-2.184 2.856 81.455 81.455 0 01-2.616 2.784l-6.84 7.008c.88-.272 1.752-.48 2.616-.624a14.666 14.666 0 012.4-.216h6.528zm13.636-15.936a16.826 16.826 0 011.896-.264c.608-.048 1.2-.072 1.776-.072 1.84 0 3.464.28 4.872.84 1.408.56 2.592 1.328 3.552 2.304.96.96 1.68 2.096 2.16 3.408.496 1.296.744 2.688.744 4.176 0 1.872-.336 3.584-1.008 5.136a11.796 11.796 0 01-2.76 3.984c-1.184 1.12-2.6 1.992-4.248 2.616-1.632.608-3.424.912-5.376.912-1.136 0-2.224-.12-3.264-.36a16.701 16.701 0 01-2.904-.96 17.121 17.121 0 01-2.496-1.416 17.372 17.372 0 01-2.088-1.728l2.304-3.072c.24-.32.52-.56.84-.72.32-.176.664-.264 1.032-.264.48 0 .928.136 1.344.408.432.256.896.544 1.392.864.512.304 1.104.584 1.776.84.672.256 1.504.384 2.496.384s1.84-.16 2.544-.48c.704-.336 1.272-.784 1.704-1.344.448-.576.768-1.24.96-1.992a9.329 9.329 0 00.312-2.448c0-1.696-.48-2.984-1.44-3.864-.96-.896-2.32-1.344-4.08-1.344a12.48 12.48 0 00-4.608.888l-4.608-1.248 2.976-17.496h17.904v3.072c0 .512-.08.976-.24 1.392-.16.416-.416.784-.768 1.104-.336.304-.784.544-1.344.72-.56.16-1.232.24-2.016.24h-8.352l-.984 5.784zm34.131-3.84c0 1.28-.232 2.448-.695 3.504a8.891 8.891 0 01-1.849 2.736 8.214 8.214 0 01-2.688 1.752 8.224 8.224 0 01-3.168.624c-1.216 0-2.336-.208-3.36-.624a8.018 8.018 0 01-2.64-1.752 8.303 8.303 0 01-1.728-2.736c-.416-1.056-.624-2.224-.624-3.504 0-1.328.208-2.528.624-3.6.416-1.088.992-2.016 1.728-2.784a7.84 7.84 0 012.64-1.776c1.024-.432 2.144-.648 3.36-.648 1.216 0 2.336.216 3.361.648a7.49 7.49 0 012.664 1.776c.752.768 1.335 1.696 1.751 2.784.416 1.072.624 2.272.624 3.6zm-5.712 0c0-.816-.072-1.488-.215-2.016-.129-.544-.313-.976-.553-1.296a1.935 1.935 0 00-.864-.672 2.819 2.819 0 00-1.056-.192c-.384 0-.736.064-1.056.192-.32.128-.592.352-.816.672-.224.32-.4.752-.528 1.296-.128.528-.192 1.2-.192 2.016 0 .768.064 1.408.192 1.92s.304.92.528 1.224c.224.304.496.52.816.648.32.128.672.192 1.056.192s.736-.064 1.056-.192c.336-.128.624-.344.864-.648.24-.304.424-.712.553-1.224.143-.512.215-1.152.215-1.92zm16.705-7.368c.24-.272.536-.52.887-.744.353-.24.841-.36 1.464-.36h5.425l-26.353 33.912c-.24.304-.544.56-.912.768-.352.192-.784.288-1.296.288h-5.568l26.353-33.864zm9.12 25.656c0 1.28-.232 2.456-.696 3.528a8.856 8.856 0 01-1.849 2.736 8.224 8.224 0 01-2.688 1.752 8.215 8.215 0 01-3.167.624c-1.216 0-2.336-.208-3.36-.624a7.997 7.997 0 01-2.64-1.752 8.322 8.322 0 01-1.729-2.736c-.416-1.072-.624-2.248-.624-3.528 0-1.328.208-2.528.624-3.6.417-1.088.993-2.016 1.729-2.784a7.82 7.82 0 012.64-1.776c1.024-.432 2.144-.648 3.36-.648 1.216 0 2.336.216 3.36.648a7.49 7.49 0 012.664 1.776c.752.768 1.336 1.696 1.752 2.784.416 1.072.624 2.272.624 3.6zm-5.712 0c0-.8-.072-1.464-.216-1.992-.128-.544-.312-.976-.552-1.296a1.946 1.946 0 00-.864-.672 2.819 2.819 0 00-1.056-.192 2.82 2.82 0 00-1.057.192 1.823 1.823 0 00-.816.672c-.224.32-.399.752-.528 1.296-.128.528-.192 1.192-.192 1.992 0 .768.064 1.408.192 1.92.129.512.304.92.528 1.224.224.304.497.52.816.648.32.128.672.192 1.057.192.384 0 .736-.064 1.056-.192.335-.128.623-.344.864-.648.24-.304.424-.712.552-1.224.144-.512.216-1.152.216-1.92z" fill="#fff"/><path d="M420.562 190.565c-.306.15-.654.27-1.044.36.39.09.738.21 1.044.36l2.556 1.386a.736.736 0 01.342.297c.072.114.108.24.108.378v1.935l-7.29-3.807v-1.089l7.29-3.816v1.935a.74.74 0 01-.108.387.81.81 0 01-.342.297l-2.556 1.377zm8.226-2.115h1.08c.15-.708.381-1.35.693-1.926a5.665 5.665 0 011.125-1.485 4.707 4.707 0 013.258-1.278c.852 0 1.587.171 2.205.513a4.166 4.166 0 011.503 1.341l-.99 1.026c-.072.084-.15.159-.234.225a.578.578 0 01-.342.09.538.538 0 01-.369-.135 6.803 6.803 0 00-.342-.297 2.052 2.052 0 00-.495-.306c-.198-.09-.468-.135-.81-.135-.564 0-1.047.201-1.449.603-.396.396-.687.984-.873 1.764h4.14v.828a.554.554 0 01-.054.234.749.749 0 01-.153.216.885.885 0 01-.243.153.818.818 0 01-.306.054h-3.573a3.536 3.536 0 00-.009.252v.567h3.474v.828a.554.554 0 01-.054.234.749.749 0 01-.153.216.885.885 0 01-.243.153.818.818 0 01-.306.054h-2.574c.156.87.429 1.515.819 1.935.39.42.867.63 1.431.63.252 0 .468-.024.648-.072.18-.054.333-.117.459-.189s.231-.153.315-.243l.243-.243c.078-.072.153-.132.225-.18a.463.463 0 01.27-.081c.084 0 .153.012.207.036.06.024.123.069.189.135l1.224 1.089a4.157 4.157 0 01-1.629 1.548c-.672.348-1.437.522-2.295.522-.714 0-1.356-.117-1.926-.351a4.554 4.554 0 01-1.476-.999 5.308 5.308 0 01-1.026-1.539 8 8 0 01-.567-1.998h-1.017v-1.485h.882v-.567c0-.084.003-.168.009-.252h-.891v-1.485zm13.637.054a6.31 6.31 0 01.711-.099c.228-.018.45-.027.666-.027.69 0 1.299.105 1.827.315.528.21.972.498 1.332.864.36.36.63.786.81 1.278.186.486.279 1.008.279 1.566 0 .702-.126 1.344-.378 1.926a4.423 4.423 0 01-1.035 1.494c-.444.42-.975.747-1.593.981a5.733 5.733 0 01-2.016.342c-.426 0-.834-.045-1.224-.135a6.263 6.263 0 01-1.089-.36 6.42 6.42 0 01-.936-.531 6.514 6.514 0 01-.783-.648l.864-1.152c.09-.12.195-.21.315-.27a.79.79 0 01.387-.099c.18 0 .348.051.504.153.162.096.336.204.522.324.192.114.414.219.666.315.252.096.564.144.936.144.372 0 .69-.06.954-.18.264-.126.477-.294.639-.504.168-.216.288-.465.36-.747.078-.288.117-.594.117-.918 0-.636-.18-1.119-.54-1.449-.36-.336-.87-.504-1.53-.504a4.68 4.68 0 00-1.728.333l-1.728-.468 1.116-6.561h6.714v1.152c0 .192-.03.366-.09.522-.06.156-.156.294-.288.414a1.339 1.339 0 01-.504.27c-.21.06-.462.09-.756.09h-3.132l-.369 2.169zm6.868 10.719a.494.494 0 01-.198-.396.4.4 0 01.063-.198.87.87 0 01.153-.18c.072-.072.156-.162.252-.27a4.31 4.31 0 00.288-.342c.096-.126.183-.264.261-.414a1.93 1.93 0 00.189-.477 1.538 1.538 0 01-.558-.153 1.459 1.459 0 01-.432-.324 1.539 1.539 0 01-.378-1.053 1.293 1.293 0 01.414-.963 1.56 1.56 0 01.477-.297c.186-.072.393-.108.621-.108.27 0 .504.048.702.144.198.09.363.216.495.378.132.156.228.339.288.549.066.204.099.42.099.648 0 .3-.048.621-.144.963-.096.336-.24.675-.432 1.017a5.885 5.885 0 01-1.674 1.908l-.486-.432zm12.901-8.784c0 1.146-.123 2.139-.369 2.979-.246.84-.588 1.536-1.026 2.088a4.074 4.074 0 01-1.548 1.233 4.62 4.62 0 01-1.935.405 4.62 4.62 0 01-1.935-.405 4.112 4.112 0 01-1.53-1.233c-.432-.552-.771-1.248-1.017-2.088-.24-.84-.36-1.833-.36-2.979 0-1.146.12-2.139.36-2.979.246-.84.585-1.536 1.017-2.088.432-.552.942-.96 1.53-1.224a4.62 4.62 0 011.935-.405 4.62 4.62 0 011.935.405c.6.264 1.116.672 1.548 1.224.438.552.78 1.248 1.026 2.088.246.84.369 1.833.369 2.979zm-2.88 0c0-.906-.057-1.647-.171-2.223-.114-.582-.267-1.038-.459-1.368-.186-.33-.399-.555-.639-.675a1.553 1.553 0 00-.729-.189c-.246 0-.489.063-.729.189-.234.12-.444.345-.63.675-.18.33-.327.786-.441 1.368-.108.576-.162 1.317-.162 2.223 0 .912.054 1.656.162 2.232.114.576.261 1.032.441 1.368.186.33.396.558.63.684.24.12.483.18.729.18s.489-.06.729-.18c.24-.126.453-.354.639-.684.192-.336.345-.792.459-1.368.114-.576.171-1.32.171-2.232zm12.782 0c0 1.146-.123 2.139-.369 2.979-.246.84-.588 1.536-1.026 2.088a4.074 4.074 0 01-1.548 1.233 4.62 4.62 0 01-1.935.405 4.62 4.62 0 01-1.935-.405 4.112 4.112 0 01-1.53-1.233c-.432-.552-.771-1.248-1.017-2.088-.24-.84-.36-1.833-.36-2.979 0-1.146.12-2.139.36-2.979.246-.84.585-1.536 1.017-2.088.432-.552.942-.96 1.53-1.224a4.62 4.62 0 011.935-.405 4.62 4.62 0 011.935.405c.6.264 1.116.672 1.548 1.224.438.552.78 1.248 1.026 2.088.246.84.369 1.833.369 2.979zm-2.88 0c0-.906-.057-1.647-.171-2.223-.114-.582-.267-1.038-.459-1.368-.186-.33-.399-.555-.639-.675a1.553 1.553 0 00-.729-.189c-.246 0-.489.063-.729.189-.234.12-.444.345-.63.675-.18.33-.327.786-.441 1.368-.108.576-.162 1.317-.162 2.223 0 .912.054 1.656.162 2.232.114.576.261 1.032.441 1.368.186.33.396.558.63.684.24.12.483.18.729.18s.489-.06.729-.18c.24-.126.453-.354.639-.684.192-.336.345-.792.459-1.368.114-.576.171-1.32.171-2.232zm12.781 0c0 1.146-.123 2.139-.369 2.979-.246.84-.588 1.536-1.026 2.088a4.074 4.074 0 01-1.548 1.233 4.62 4.62 0 01-1.935.405 4.62 4.62 0 01-1.935-.405 4.112 4.112 0 01-1.53-1.233c-.432-.552-.771-1.248-1.017-2.088-.24-.84-.36-1.833-.36-2.979 0-1.146.12-2.139.36-2.979.246-.84.585-1.536 1.017-2.088.432-.552.942-.96 1.53-1.224a4.62 4.62 0 011.935-.405 4.62 4.62 0 011.935.405c.6.264 1.116.672 1.548 1.224.438.552.78 1.248 1.026 2.088.246.84.369 1.833.369 2.979zm-2.88 0c0-.906-.057-1.647-.171-2.223-.114-.582-.267-1.038-.459-1.368-.186-.33-.399-.555-.639-.675a1.553 1.553 0 00-.729-.189c-.246 0-.489.063-.729.189-.234.12-.444.345-.63.675-.18.33-.327.786-.441 1.368-.108.576-.162 1.317-.162 2.223 0 .912.054 1.656.162 2.232.114.576.261 1.032.441 1.368.186.33.396.558.63.684.24.12.483.18.729.18s.489-.06.729-.18c.24-.126.453-.354.639-.684.192-.336.345-.792.459-1.368.114-.576.171-1.32.171-2.232z" fill="#9CF"/><path d="M751.112 211.016c.256-1.744.744-3.264 1.464-4.56.736-1.296 1.64-2.376 2.712-3.24a10.967 10.967 0 013.72-1.92c1.392-.432 2.888-.648 4.488-.648 1.728 0 3.264.248 4.608.744 1.344.48 2.48 1.136 3.408 1.968a8.326 8.326 0 012.112 2.904c.48 1.088.72 2.24.72 3.456 0 1.104-.112 2.08-.336 2.928-.224.832-.56 1.56-1.008 2.184a6.077 6.077 0 01-1.632 1.56c-.64.416-1.376.768-2.208 1.056 3.872 1.36 5.808 4 5.808 7.92 0 1.856-.336 3.472-1.008 4.848-.672 1.376-1.576 2.52-2.712 3.432-1.12.912-2.424 1.6-3.912 2.064-1.488.448-3.04.672-4.656.672-1.664 0-3.144-.176-4.44-.528-1.296-.368-2.448-.928-3.456-1.68-1.008-.768-1.896-1.744-2.664-2.928-.752-1.184-1.408-2.592-1.968-4.224l3.312-1.344c.864-.336 1.664-.424 2.4-.264.736.16 1.264.528 1.584 1.104.72 1.328 1.48 2.296 2.28 2.904.816.592 1.768.888 2.856.888.832 0 1.552-.136 2.16-.408.624-.288 1.136-.648 1.536-1.08.416-.448.728-.952.936-1.512a4.86 4.86 0 00.312-1.704c0-.752-.056-1.424-.168-2.016a2.595 2.595 0 00-.864-1.56c-.48-.432-1.208-.76-2.184-.984-.96-.24-2.304-.36-4.032-.36v-5.136c1.456 0 2.632-.112 3.528-.336.896-.224 1.584-.528 2.064-.912.496-.4.824-.88.984-1.44.16-.56.24-1.176.24-1.848 0-1.376-.336-2.432-1.008-3.168-.656-.752-1.664-1.128-3.024-1.128-1.104 0-2.04.296-2.808.888a4.445 4.445 0 00-1.56 2.16c-.336.88-.776 1.464-1.32 1.752-.544.288-1.32.352-2.328.192l-3.936-.696zm51.172 7.488c0 3.056-.328 5.704-.984 7.944-.656 2.24-1.568 4.096-2.736 5.568-1.152 1.472-2.528 2.568-4.128 3.288-1.584.72-3.304 1.08-5.16 1.08-1.856 0-3.576-.36-5.16-1.08-1.568-.72-2.928-1.816-4.08-3.288-1.152-1.472-2.056-3.328-2.712-5.568-.64-2.24-.96-4.888-.96-7.944s.32-5.704.96-7.944c.656-2.24 1.56-4.096 2.712-5.568 1.152-1.472 2.512-2.56 4.08-3.264 1.584-.72 3.304-1.08 5.16-1.08 1.856 0 3.576.36 5.16 1.08 1.6.704 2.976 1.792 4.128 3.264 1.168 1.472 2.08 3.328 2.736 5.568.656 2.24.984 4.888.984 7.944zm-7.68 0c0-2.416-.152-4.392-.456-5.928-.304-1.552-.712-2.768-1.224-3.648-.496-.88-1.064-1.48-1.704-1.8-.64-.336-1.288-.504-1.944-.504-.656 0-1.304.168-1.944.504-.624.32-1.184.92-1.68 1.8-.48.88-.872 2.096-1.176 3.648-.288 1.536-.432 3.512-.432 5.928 0 2.432.144 4.416.432 5.952.304 1.536.696 2.752 1.176 3.648.496.88 1.056 1.488 1.68 1.824.64.32 1.288.48 1.944.48.656 0 1.304-.16 1.944-.48.64-.336 1.208-.944 1.704-1.824.512-.896.92-2.112 1.224-3.648.304-1.536.456-3.52.456-5.952zm25.587-9c0 1.28-.232 2.448-.695 3.504a8.891 8.891 0 01-1.849 2.736 8.214 8.214 0 01-2.688 1.752 8.224 8.224 0 01-3.168.624c-1.216 0-2.336-.208-3.36-.624a8.018 8.018 0 01-2.64-1.752 8.303 8.303 0 01-1.728-2.736c-.416-1.056-.624-2.224-.624-3.504 0-1.328.208-2.528.624-3.6.416-1.088.992-2.016 1.728-2.784a7.84 7.84 0 012.64-1.776c1.024-.432 2.144-.648 3.36-.648 1.216 0 2.336.216 3.361.648a7.49 7.49 0 012.664 1.776c.752.768 1.335 1.696 1.751 2.784.416 1.072.624 2.272.624 3.6zm-5.712 0c0-.816-.072-1.488-.215-2.016-.129-.544-.313-.976-.553-1.296a1.935 1.935 0 00-.864-.672 2.819 2.819 0 00-1.056-.192c-.384 0-.736.064-1.056.192-.32.128-.592.352-.816.672-.224.32-.4.752-.528 1.296-.128.528-.192 1.2-.192 2.016 0 .768.064 1.408.192 1.92s.304.92.528 1.224c.224.304.496.52.816.648.32.128.672.192 1.056.192s.736-.064 1.056-.192c.336-.128.624-.344.864-.648.24-.304.424-.712.553-1.224.143-.512.215-1.152.215-1.92zm16.705-7.368c.24-.272.536-.52.887-.744.353-.24.841-.36 1.464-.36h5.425l-26.353 33.912c-.24.304-.544.56-.912.768-.352.192-.784.288-1.296.288h-5.568l26.353-33.864zm9.12 25.656c0 1.28-.232 2.456-.696 3.528a8.856 8.856 0 01-1.849 2.736 8.224 8.224 0 01-2.688 1.752 8.215 8.215 0 01-3.167.624c-1.216 0-2.336-.208-3.36-.624a7.997 7.997 0 01-2.64-1.752 8.322 8.322 0 01-1.729-2.736c-.416-1.072-.624-2.248-.624-3.528 0-1.328.208-2.528.624-3.6.417-1.088.993-2.016 1.729-2.784a7.82 7.82 0 012.64-1.776c1.024-.432 2.144-.648 3.36-.648 1.216 0 2.336.216 3.36.648a7.49 7.49 0 012.664 1.776c.752.768 1.336 1.696 1.752 2.784.416 1.072.624 2.272.624 3.6zm-5.712 0c0-.8-.072-1.464-.216-1.992-.128-.544-.312-.976-.552-1.296a1.946 1.946 0 00-.864-.672 2.819 2.819 0 00-1.056-.192 2.82 2.82 0 00-1.057.192 1.823 1.823 0 00-.816.672c-.224.32-.399.752-.528 1.296-.128.528-.192 1.192-.192 1.992 0 .768.064 1.408.192 1.92.129.512.304.92.528 1.224.224.304.497.52.816.648.32.128.672.192 1.057.192.384 0 .736-.064 1.056-.192.335-.128.623-.344.864-.648.24-.304.424-.712.552-1.224.144-.512.216-1.152.216-1.92z" fill="#fff"/><path d="M749.261 184.45h1.08c.15-.708.381-1.35.693-1.926a5.665 5.665 0 011.125-1.485 4.707 4.707 0 013.258-1.278c.852 0 1.587.171 2.205.513a4.166 4.166 0 011.503 1.341l-.99 1.026c-.072.084-.15.159-.234.225a.578.578 0 01-.342.09.538.538 0 01-.369-.135 6.803 6.803 0 00-.342-.297 2.052 2.052 0 00-.495-.306c-.198-.09-.468-.135-.81-.135-.564 0-1.047.201-1.449.603-.396.396-.687.984-.873 1.764h4.14v.828a.554.554 0 01-.054.234.749.749 0 01-.153.216.885.885 0 01-.243.153.818.818 0 01-.306.054h-3.573a3.536 3.536 0 00-.009.252v.567h3.474v.828a.554.554 0 01-.054.234.749.749 0 01-.153.216.885.885 0 01-.243.153.818.818 0 01-.306.054h-2.574c.156.87.429 1.515.819 1.935.39.42.867.63 1.431.63.252 0 .468-.024.648-.072.18-.054.333-.117.459-.189s.231-.153.315-.243l.243-.243c.078-.072.153-.132.225-.18a.463.463 0 01.27-.081c.084 0 .153.012.207.036.06.024.123.069.189.135l1.224 1.089a4.157 4.157 0 01-1.629 1.548c-.672.348-1.437.522-2.295.522-.714 0-1.356-.117-1.926-.351a4.554 4.554 0 01-1.476-.999 5.308 5.308 0 01-1.026-1.539 8 8 0 01-.567-1.998h-1.017v-1.485h.882v-.567c0-.084.003-.168.009-.252h-.891v-1.485zm13.636.054a6.31 6.31 0 01.711-.099c.228-.018.45-.027.666-.027.69 0 1.299.105 1.827.315.528.21.972.498 1.332.864.36.36.63.786.81 1.278.186.486.279 1.008.279 1.566 0 .702-.126 1.344-.378 1.926a4.423 4.423 0 01-1.035 1.494c-.444.42-.975.747-1.593.981a5.733 5.733 0 01-2.016.342c-.426 0-.834-.045-1.224-.135a6.263 6.263 0 01-1.089-.36 6.42 6.42 0 01-.936-.531 6.514 6.514 0 01-.783-.648l.864-1.152c.09-.12.195-.21.315-.27a.79.79 0 01.387-.099c.18 0 .348.051.504.153.162.096.336.204.522.324.192.114.414.219.666.315.252.096.564.144.936.144.372 0 .69-.06.954-.18.264-.126.477-.294.639-.504.168-.216.288-.465.36-.747.078-.288.117-.594.117-.918 0-.636-.18-1.119-.54-1.449-.36-.336-.87-.504-1.53-.504a4.68 4.68 0 00-1.728.333l-1.728-.468 1.116-6.561h6.714v1.152c0 .192-.03.366-.09.522-.06.156-.156.294-.288.414a1.339 1.339 0 01-.504.27c-.21.06-.462.09-.756.09h-3.132l-.369 2.169zm6.869 10.719a.494.494 0 01-.198-.396.4.4 0 01.063-.198.87.87 0 01.153-.18c.072-.072.156-.162.252-.27a4.31 4.31 0 00.288-.342c.096-.126.183-.264.261-.414a1.93 1.93 0 00.189-.477 1.538 1.538 0 01-.558-.153 1.459 1.459 0 01-.432-.324 1.539 1.539 0 01-.378-1.053 1.293 1.293 0 01.414-.963 1.56 1.56 0 01.477-.297c.186-.072.393-.108.621-.108.27 0 .504.048.702.144.198.09.363.216.495.378.132.156.228.339.288.549.066.204.099.42.099.648 0 .3-.048.621-.144.963-.096.336-.24.675-.432 1.017a5.885 5.885 0 01-1.674 1.908l-.486-.432zm12.901-8.784c0 1.146-.123 2.139-.369 2.979-.246.84-.588 1.536-1.026 2.088a4.074 4.074 0 01-1.548 1.233 4.62 4.62 0 01-1.935.405 4.62 4.62 0 01-1.935-.405 4.112 4.112 0 01-1.53-1.233c-.432-.552-.771-1.248-1.017-2.088-.24-.84-.36-1.833-.36-2.979 0-1.146.12-2.139.36-2.979.246-.84.585-1.536 1.017-2.088.432-.552.942-.96 1.53-1.224a4.62 4.62 0 011.935-.405 4.62 4.62 0 011.935.405c.6.264 1.116.672 1.548 1.224.438.552.78 1.248 1.026 2.088.246.84.369 1.833.369 2.979zm-2.88 0c0-.906-.057-1.647-.171-2.223-.114-.582-.267-1.038-.459-1.368-.186-.33-.399-.555-.639-.675a1.553 1.553 0 00-.729-.189c-.246 0-.489.063-.729.189-.234.12-.444.345-.63.675-.18.33-.327.786-.441 1.368-.108.576-.162 1.317-.162 2.223 0 .912.054 1.656.162 2.232.114.576.261 1.032.441 1.368.186.33.396.558.63.684.24.12.483.18.729.18s.489-.06.729-.18c.24-.126.453-.354.639-.684.192-.336.345-.792.459-1.368.114-.576.171-1.32.171-2.232zm12.781 0c0 1.146-.123 2.139-.369 2.979-.246.84-.588 1.536-1.026 2.088a4.074 4.074 0 01-1.548 1.233 4.62 4.62 0 01-1.935.405 4.62 4.62 0 01-1.935-.405 4.112 4.112 0 01-1.53-1.233c-.432-.552-.771-1.248-1.017-2.088-.24-.84-.36-1.833-.36-2.979 0-1.146.12-2.139.36-2.979.246-.84.585-1.536 1.017-2.088.432-.552.942-.96 1.53-1.224a4.62 4.62 0 011.935-.405 4.62 4.62 0 011.935.405c.6.264 1.116.672 1.548 1.224.438.552.78 1.248 1.026 2.088.246.84.369 1.833.369 2.979zm-2.88 0c0-.906-.057-1.647-.171-2.223-.114-.582-.267-1.038-.459-1.368-.186-.33-.399-.555-.639-.675a1.553 1.553 0 00-.729-.189c-.246 0-.489.063-.729.189-.234.12-.444.345-.63.675-.18.33-.327.786-.441 1.368-.108.576-.162 1.317-.162 2.223 0 .912.054 1.656.162 2.232.114.576.261 1.032.441 1.368.186.33.396.558.63.684.24.12.483.18.729.18s.489-.06.729-.18c.24-.126.453-.354.639-.684.192-.336.345-.792.459-1.368.114-.576.171-1.32.171-2.232zm12.782 0c0 1.146-.123 2.139-.369 2.979-.246.84-.588 1.536-1.026 2.088a4.074 4.074 0 01-1.548 1.233 4.62 4.62 0 01-1.935.405 4.62 4.62 0 01-1.935-.405 4.112 4.112 0 01-1.53-1.233c-.432-.552-.771-1.248-1.017-2.088-.24-.84-.36-1.833-.36-2.979 0-1.146.12-2.139.36-2.979.246-.84.585-1.536 1.017-2.088.432-.552.942-.96 1.53-1.224a4.62 4.62 0 011.935-.405 4.62 4.62 0 011.935.405c.6.264 1.116.672 1.548 1.224.438.552.78 1.248 1.026 2.088.246.84.369 1.833.369 2.979zm-2.88 0c0-.906-.057-1.647-.171-2.223-.114-.582-.267-1.038-.459-1.368-.186-.33-.399-.555-.639-.675a1.553 1.553 0 00-.729-.189c-.246 0-.489.063-.729.189-.234.12-.444.345-.63.675-.18.33-.327.786-.441 1.368-.108.576-.162 1.317-.162 2.223 0 .912.054 1.656.162 2.232.114.576.261 1.032.441 1.368.186.33.396.558.63.684.24.12.483.18.729.18s.489-.06.729-.18c.24-.126.453-.354.639-.684.192-.336.345-.792.459-1.368.114-.576.171-1.32.171-2.232zm10.611 6.705c-.444 0-.837-.063-1.179-.189a2.467 2.467 0 01-.855-.549 2.416 2.416 0 01-.522-.864 3.327 3.327 0 01-.18-1.125v-4.824h-.792a.538.538 0 01-.369-.135c-.102-.096-.153-.234-.153-.414v-1.089l1.485-.288.549-2.277c.072-.288.276-.432.612-.432h1.458v2.727h2.313v1.908h-2.313v4.635c0 .216.051.396.153.54a.549.549 0 00.459.207.98.98 0 00.252-.027c.072-.024.132-.048.18-.072.054-.03.102-.054.144-.072a.357.357 0 01.162-.036.29.29 0 01.198.063.608.608 0 01.162.18l.846 1.323c-.36.27-.765.474-1.215.612a4.93 4.93 0 01-1.395.198zm7.244-9.621a5.39 5.39 0 011.935.333c.582.222 1.08.54 1.494.954.42.414.744.918.972 1.512.234.588.351 1.251.351 1.989 0 .744-.117 1.416-.351 2.016a4.298 4.298 0 01-.972 1.521 4.303 4.303 0 01-1.494.963 5.39 5.39 0 01-1.935.333 5.49 5.49 0 01-1.953-.333 4.495 4.495 0 01-1.512-.963 4.402 4.402 0 01-.981-1.521c-.228-.6-.342-1.272-.342-2.016 0-.738.114-1.401.342-1.989a4.309 4.309 0 01.981-1.512c.426-.414.93-.732 1.512-.954a5.49 5.49 0 011.953-.333zm0 7.551c.642 0 1.113-.225 1.413-.675.306-.456.459-1.146.459-2.07 0-.924-.153-1.611-.459-2.061-.3-.45-.771-.675-1.413-.675-.66 0-1.143.225-1.449.675-.306.45-.459 1.137-.459 2.061 0 .924.153 1.614.459 2.07.306.45.789.675 1.449.675zm8.559-6.624h1.08c.15-.708.381-1.35.693-1.926a5.665 5.665 0 011.125-1.485 4.707 4.707 0 013.258-1.278c.852 0 1.587.171 2.205.513a4.166 4.166 0 011.503 1.341l-.99 1.026c-.072.084-.15.159-.234.225a.578.578 0 01-.342.09.538.538 0 01-.369-.135 6.803 6.803 0 00-.342-.297 2.052 2.052 0 00-.495-.306c-.198-.09-.468-.135-.81-.135-.564 0-1.047.201-1.449.603-.396.396-.687.984-.873 1.764h4.14v.828a.554.554 0 01-.054.234.749.749 0 01-.153.216.885.885 0 01-.243.153.818.818 0 01-.306.054h-3.573a3.536 3.536 0 00-.009.252v.567h3.474v.828a.554.554 0 01-.054.234.749.749 0 01-.153.216.885.885 0 01-.243.153.818.818 0 01-.306.054h-2.574c.156.87.429 1.515.819 1.935.39.42.867.63 1.431.63.252 0 .468-.024.648-.072.18-.054.333-.117.459-.189s.231-.153.315-.243l.243-.243c.078-.072.153-.132.225-.18a.463.463 0 01.27-.081c.084 0 .153.012.207.036.06.024.123.069.189.135l1.224 1.089a4.157 4.157 0 01-1.629 1.548c-.672.348-1.437.522-2.295.522-.714 0-1.356-.117-1.926-.351a4.554 4.554 0 01-1.476-.999 5.308 5.308 0 01-1.026-1.539 8 8 0 01-.567-1.998h-1.017v-1.485h.882v-.567c0-.084.003-.168.009-.252h-.891v-1.485zm19.099 6.534V193h-7.47v-2.016h2.52v-6.615a14.12 14.12 0 01.036-1.026l-1.494 1.242a.922.922 0 01-.396.189 1.206 1.206 0 01-.36 0 .984.984 0 01-.306-.117.738.738 0 01-.198-.18l-.882-1.17 4.086-3.429h2.304v11.106h2.16zm10.522-4.545c0 1.146-.123 2.139-.369 2.979-.246.84-.588 1.536-1.026 2.088a4.074 4.074 0 01-1.548 1.233 4.62 4.62 0 01-1.935.405 4.62 4.62 0 01-1.935-.405 4.112 4.112 0 01-1.53-1.233c-.432-.552-.771-1.248-1.017-2.088-.24-.84-.36-1.833-.36-2.979 0-1.146.12-2.139.36-2.979.246-.84.585-1.536 1.017-2.088.432-.552.942-.96 1.53-1.224a4.62 4.62 0 011.935-.405 4.62 4.62 0 011.935.405c.6.264 1.116.672 1.548 1.224.438.552.78 1.248 1.026 2.088.246.84.369 1.833.369 2.979zm-2.88 0c0-.906-.057-1.647-.171-2.223-.114-.582-.267-1.038-.459-1.368-.186-.33-.399-.555-.639-.675a1.553 1.553 0 00-.729-.189c-.246 0-.489.063-.729.189-.234.12-.444.345-.63.675-.18.33-.327.786-.441 1.368-.108.576-.162 1.317-.162 2.223 0 .912.054 1.656.162 2.232.114.576.261 1.032.441 1.368.186.33.396.558.63.684.24.12.483.18.729.18s.489-.06.729-.18c.24-.126.453-.354.639-.684.192-.336.345-.792.459-1.368.114-.576.171-1.32.171-2.232zm3.665 8.784a.494.494 0 01-.198-.396.4.4 0 01.063-.198.87.87 0 01.153-.18c.072-.072.156-.162.252-.27a4.31 4.31 0 00.288-.342c.096-.126.183-.264.261-.414a1.93 1.93 0 00.189-.477 1.538 1.538 0 01-.558-.153 1.459 1.459 0 01-.432-.324 1.539 1.539 0 01-.378-1.053 1.293 1.293 0 01.414-.963 1.56 1.56 0 01.477-.297c.186-.072.393-.108.621-.108.27 0 .504.048.702.144.198.09.363.216.495.378.132.156.228.339.288.549.066.204.099.42.099.648 0 .3-.048.621-.144.963-.096.336-.24.675-.432 1.017a5.885 5.885 0 01-1.674 1.908l-.486-.432zm12.901-8.784c0 1.146-.123 2.139-.369 2.979-.246.84-.588 1.536-1.026 2.088a4.074 4.074 0 01-1.548 1.233 4.62 4.62 0 01-1.935.405 4.62 4.62 0 01-1.935-.405 4.112 4.112 0 01-1.53-1.233c-.432-.552-.771-1.248-1.017-2.088-.24-.84-.36-1.833-.36-2.979 0-1.146.12-2.139.36-2.979.246-.84.585-1.536 1.017-2.088.432-.552.942-.96 1.53-1.224a4.62 4.62 0 011.935-.405 4.62 4.62 0 011.935.405c.6.264 1.116.672 1.548 1.224.438.552.78 1.248 1.026 2.088.246.84.369 1.833.369 2.979zm-2.88 0c0-.906-.057-1.647-.171-2.223-.114-.582-.267-1.038-.459-1.368-.186-.33-.399-.555-.639-.675a1.553 1.553 0 00-.729-.189c-.246 0-.489.063-.729.189-.234.12-.444.345-.63.675-.18.33-.327.786-.441 1.368-.108.576-.162 1.317-.162 2.223 0 .912.054 1.656.162 2.232.114.576.261 1.032.441 1.368.186.33.396.558.63.684.24.12.483.18.729.18s.489-.06.729-.18c.24-.126.453-.354.639-.684.192-.336.345-.792.459-1.368.114-.576.171-1.32.171-2.232zm12.781 0c0 1.146-.123 2.139-.369 2.979-.246.84-.588 1.536-1.026 2.088a4.074 4.074 0 01-1.548 1.233 4.62 4.62 0 01-1.935.405 4.62 4.62 0 01-1.935-.405 4.112 4.112 0 01-1.53-1.233c-.432-.552-.771-1.248-1.017-2.088-.24-.84-.36-1.833-.36-2.979 0-1.146.12-2.139.36-2.979.246-.84.585-1.536 1.017-2.088.432-.552.942-.96 1.53-1.224a4.62 4.62 0 011.935-.405 4.62 4.62 0 011.935.405c.6.264 1.116.672 1.548 1.224.438.552.78 1.248 1.026 2.088.246.84.369 1.833.369 2.979zm-2.88 0c0-.906-.057-1.647-.171-2.223-.114-.582-.267-1.038-.459-1.368-.186-.33-.399-.555-.639-.675a1.553 1.553 0 00-.729-.189c-.246 0-.489.063-.729.189-.234.12-.444.345-.63.675-.18.33-.327.786-.441 1.368-.108.576-.162 1.317-.162 2.223 0 .912.054 1.656.162 2.232.114.576.261 1.032.441 1.368.186.33.396.558.63.684.24.12.483.18.729.18s.489-.06.729-.18c.24-.126.453-.354.639-.684.192-.336.345-.792.459-1.368.114-.576.171-1.32.171-2.232zm12.782 0c0 1.146-.123 2.139-.369 2.979-.246.84-.588 1.536-1.026 2.088a4.074 4.074 0 01-1.548 1.233 4.62 4.62 0 01-1.935.405 4.62 4.62 0 01-1.935-.405 4.112 4.112 0 01-1.53-1.233c-.432-.552-.771-1.248-1.017-2.088-.24-.84-.36-1.833-.36-2.979 0-1.146.12-2.139.36-2.979.246-.84.585-1.536 1.017-2.088.432-.552.942-.96 1.53-1.224a4.62 4.62 0 011.935-.405 4.62 4.62 0 011.935.405c.6.264 1.116.672 1.548 1.224.438.552.78 1.248 1.026 2.088.246.84.369 1.833.369 2.979zm-2.88 0c0-.906-.057-1.647-.171-2.223-.114-.582-.267-1.038-.459-1.368-.186-.33-.399-.555-.639-.675a1.553 1.553 0 00-.729-.189c-.246 0-.489.063-.729.189-.234.12-.444.345-.63.675-.18.33-.327.786-.441 1.368-.108.576-.162 1.317-.162 2.223 0 .912.054 1.656.162 2.232.114.576.261 1.032.441 1.368.186.33.396.558.63.684.24.12.483.18.729.18s.489-.06.729-.18c.24-.126.453-.354.639-.684.192-.336.345-.792.459-1.368.114-.576.171-1.32.171-2.232z" fill="#9CF"/><path d="M1151.11 162.016c.26-1.744.75-3.264 1.47-4.56.73-1.296 1.64-2.376 2.71-3.24a11.004 11.004 0 013.72-1.92c1.39-.432 2.89-.648 4.49-.648 1.72 0 3.26.248 4.6.744 1.35.48 2.48 1.136 3.41 1.968.93.832 1.63 1.8 2.11 2.904.48 1.088.72 2.24.72 3.456 0 1.104-.11 2.08-.33 2.928-.23.832-.56 1.56-1.01 2.184a6.128 6.128 0 01-1.63 1.56c-.64.416-1.38.768-2.21 1.056 3.87 1.36 5.81 4 5.81 7.92 0 1.856-.34 3.472-1.01 4.848a9.948 9.948 0 01-2.71 3.432c-1.12.912-2.43 1.6-3.91 2.064a16.08 16.08 0 01-4.66.672c-1.66 0-3.14-.176-4.44-.528-1.3-.368-2.45-.928-3.46-1.68-1-.768-1.89-1.744-2.66-2.928-.75-1.184-1.41-2.592-1.97-4.224l3.31-1.344c.87-.336 1.67-.424 2.4-.264.74.16 1.27.528 1.59 1.104.72 1.328 1.48 2.296 2.28 2.904.81.592 1.77.888 2.85.888.84 0 1.56-.136 2.16-.408.63-.288 1.14-.648 1.54-1.08.42-.448.73-.952.94-1.512.2-.56.31-1.128.31-1.704 0-.752-.06-1.424-.17-2.016a2.61 2.61 0 00-.86-1.56c-.48-.432-1.21-.76-2.19-.984-.96-.24-2.3-.36-4.03-.36v-5.136c1.46 0 2.63-.112 3.53-.336.89-.224 1.58-.528 2.06-.912.5-.4.83-.88.99-1.44.16-.56.24-1.176.24-1.848 0-1.376-.34-2.432-1.01-3.168-.66-.752-1.67-1.128-3.03-1.128-1.1 0-2.04.296-2.8.888-.76.576-1.28 1.296-1.56 2.16-.34.88-.78 1.464-1.32 1.752-.55.288-1.32.352-2.33.192l-3.94-.696zm34.95 2.328c.66-.128 1.29-.216 1.9-.264.6-.048 1.2-.072 1.77-.072 1.84 0 3.47.28 4.87.84 1.41.56 2.6 1.328 3.56 2.304.96.96 1.68 2.096 2.16 3.408.49 1.296.74 2.688.74 4.176 0 1.872-.34 3.584-1.01 5.136a11.629 11.629 0 01-2.76 3.984c-1.18 1.12-2.6 1.992-4.25 2.616-1.63.608-3.42.912-5.37.912-1.14 0-2.23-.12-3.27-.36-1.02-.24-1.99-.56-2.9-.96-.9-.416-1.73-.888-2.5-1.416-.76-.544-1.46-1.12-2.08-1.728l2.3-3.072c.24-.32.52-.56.84-.72.32-.176.66-.264 1.03-.264.48 0 .93.136 1.35.408.43.256.89.544 1.39.864.51.304 1.1.584 1.77.84.68.256 1.51.384 2.5.384s1.84-.16 2.54-.48c.71-.336 1.28-.784 1.71-1.344.45-.576.77-1.24.96-1.992.21-.768.31-1.584.31-2.448 0-1.696-.48-2.984-1.44-3.864-.96-.896-2.32-1.344-4.08-1.344-1.57 0-3.1.296-4.61.888l-4.61-1.248 2.98-17.496h17.9v3.072c0 .512-.08.976-.24 1.392-.16.416-.41.784-.76 1.104-.34.304-.79.544-1.35.72-.56.16-1.23.24-2.01.24h-8.36l-.98 5.784zm34.13-3.84c0 1.28-.23 2.448-.69 3.504-.47 1.056-1.08 1.968-1.85 2.736a8.296 8.296 0 01-2.69 1.752 8.22 8.22 0 01-3.17.624c-1.21 0-2.33-.208-3.36-.624-1.01-.416-1.89-1-2.64-1.752a8.473 8.473 0 01-1.73-2.736c-.41-1.056-.62-2.224-.62-3.504 0-1.328.21-2.528.62-3.6.42-1.088 1-2.016 1.73-2.784a7.8 7.8 0 012.64-1.776c1.03-.432 2.15-.648 3.36-.648 1.22 0 2.34.216 3.36.648a7.549 7.549 0 012.67 1.776c.75.768 1.33 1.696 1.75 2.784.41 1.072.62 2.272.62 3.6zm-5.71 0c0-.816-.07-1.488-.22-2.016-.12-.544-.31-.976-.55-1.296-.24-.32-.53-.544-.86-.672a2.818 2.818 0 00-1.06-.192c-.38 0-.73.064-1.05.192-.32.128-.6.352-.82.672-.22.32-.4.752-.53 1.296-.13.528-.19 1.2-.19 2.016 0 .768.06 1.408.19 1.92s.31.92.53 1.224c.22.304.5.52.82.648.32.128.67.192 1.05.192.39 0 .74-.064 1.06-.192.33-.128.62-.344.86-.648.24-.304.43-.712.55-1.224.15-.512.22-1.152.22-1.92zm16.7-7.368c.24-.272.54-.52.89-.744.35-.24.84-.36 1.47-.36h5.42l-26.35 33.912c-.24.304-.55.56-.91.768-.36.192-.79.288-1.3.288h-5.57l26.35-33.864zm9.12 25.656c0 1.28-.23 2.456-.69 3.528-.47 1.056-1.08 1.968-1.85 2.736a8.191 8.191 0 01-2.69 1.752 8.22 8.22 0 01-3.17.624c-1.21 0-2.33-.208-3.36-.624-1-.416-1.88-1-2.64-1.752a8.284 8.284 0 01-1.72-2.736c-.42-1.072-.63-2.248-.63-3.528 0-1.328.21-2.528.63-3.6a8.183 8.183 0 011.72-2.784 8.001 8.001 0 012.64-1.776c1.03-.432 2.15-.648 3.36-.648 1.22 0 2.34.216 3.36.648a7.549 7.549 0 012.67 1.776c.75.768 1.33 1.696 1.75 2.784.42 1.072.62 2.272.62 3.6zm-5.71 0c0-.8-.07-1.464-.21-1.992-.13-.544-.32-.976-.56-1.296-.24-.32-.52-.544-.86-.672a2.818 2.818 0 00-1.06-.192c-.38 0-.73.064-1.05.192-.32.128-.59.352-.82.672-.22.32-.4.752-.53 1.296-.12.528-.19 1.192-.19 1.992 0 .768.07 1.408.19 1.92.13.512.31.92.53 1.224.23.304.5.52.82.648.32.128.67.192 1.05.192.39 0 .74-.064 1.06-.192.34-.128.62-.344.86-.648.24-.304.43-.712.56-1.224.14-.512.21-1.152.21-1.92z" fill="#fff"/><path d="M1149.26 135.45h1.08c.15-.708.38-1.35.69-1.926.32-.582.69-1.077 1.13-1.485a4.8 4.8 0 011.48-.945 4.773 4.773 0 011.78-.333c.85 0 1.58.171 2.2.513.63.336 1.13.783 1.5 1.341l-.98 1.026c-.08.084-.15.159-.24.225-.08.06-.2.09-.34.09a.545.545 0 01-.37-.135c-.1-.09-.21-.189-.34-.297-.13-.114-.3-.216-.5-.306-.19-.09-.46-.135-.81-.135-.56 0-1.04.201-1.45.603-.39.396-.68.984-.87 1.764h4.14v.828c0 .078-.02.156-.05.234a.776.776 0 01-.4.369.801.801 0 01-.3.054h-3.58c0 .084-.01.168-.01.252v.567h3.48v.828c0 .078-.02.156-.06.234a.587.587 0 01-.15.216c-.07.06-.15.111-.24.153a.818.818 0 01-.31.054h-2.57c.15.87.43 1.515.82 1.935.39.42.86.63 1.43.63.25 0 .47-.024.65-.072.18-.054.33-.117.45-.189.13-.072.24-.153.32-.243l.24-.243c.08-.072.16-.132.23-.18a.472.472 0 01.27-.081c.08 0 .15.012.2.036.06.024.13.069.19.135l1.23 1.089a4.213 4.213 0 01-1.63 1.548c-.67.348-1.44.522-2.3.522-.71 0-1.35-.117-1.92-.351a4.508 4.508 0 01-1.48-.999 5.375 5.375 0 01-1.02-1.539 7.6 7.6 0 01-.57-1.998h-1.02v-1.485h.88v-.567c0-.084.01-.168.01-.252h-.89v-1.485zm19.1 6.534V144h-7.47v-2.016h2.52v-6.615c0-.168 0-.336.01-.504.01-.174.01-.348.03-.522l-1.5 1.242a.902.902 0 01-.39.189c-.13.018-.25.018-.36 0a.952.952 0 01-.31-.117.72.72 0 01-.2-.18l-.88-1.17 4.09-3.429h2.3v11.106h2.16zm10.52-4.545c0 1.146-.12 2.139-.37 2.979-.24.84-.58 1.536-1.02 2.088-.43.552-.95.963-1.55 1.233-.59.27-1.24.405-1.94.405-.69 0-1.34-.135-1.93-.405a4.08 4.08 0 01-1.53-1.233c-.43-.552-.77-1.248-1.02-2.088-.24-.84-.36-1.833-.36-2.979 0-1.146.12-2.139.36-2.979.25-.84.59-1.536 1.02-2.088.43-.552.94-.96 1.53-1.224.59-.27 1.24-.405 1.93-.405.7 0 1.35.135 1.94.405.6.264 1.12.672 1.55 1.224.44.552.78 1.248 1.02 2.088.25.84.37 1.833.37 2.979zm-2.88 0c0-.906-.05-1.647-.17-2.223-.11-.582-.27-1.038-.46-1.368-.18-.33-.4-.555-.64-.675a1.545 1.545 0 00-.73-.189c-.24 0-.48.063-.72.189-.24.12-.45.345-.63.675-.18.33-.33.786-.45 1.368-.1.576-.16 1.317-.16 2.223 0 .912.06 1.656.16 2.232.12.576.27 1.032.45 1.368.18.33.39.558.63.684.24.12.48.18.72.18.25 0 .49-.06.73-.18.24-.126.46-.354.64-.684.19-.336.35-.792.46-1.368.12-.576.17-1.32.17-2.232zm3.67 8.784a.502.502 0 01-.2-.396c0-.06.02-.126.06-.198.04-.066.1-.126.16-.18.07-.072.15-.162.25-.27.09-.102.19-.216.29-.342.09-.126.18-.264.26-.414.08-.15.14-.309.19-.477a1.527 1.527 0 01-.56-.153 1.425 1.425 0 01-.71-.792c-.07-.18-.1-.375-.1-.585 0-.192.03-.369.11-.531.07-.168.17-.312.3-.432.14-.126.3-.225.48-.297.18-.072.39-.108.62-.108.27 0 .5.048.7.144.2.09.36.216.5.378.13.156.22.339.28.549.07.204.1.42.1.648 0 .3-.04.621-.14.963-.1.336-.24.675-.43 1.017-.19.342-.42.678-.7 1.008-.29.33-.61.63-.98.9l-.48-.432zm12.9-8.784c0 1.146-.12 2.139-.37 2.979-.25.84-.59 1.536-1.03 2.088-.43.552-.94.963-1.54 1.233-.6.27-1.24.405-1.94.405s-1.34-.135-1.93-.405a4.08 4.08 0 01-1.53-1.233c-.44-.552-.78-1.248-1.02-2.088-.24-.84-.36-1.833-.36-2.979 0-1.146.12-2.139.36-2.979.24-.84.58-1.536 1.02-2.088.43-.552.94-.96 1.53-1.224.59-.27 1.23-.405 1.93-.405s1.34.135 1.94.405c.6.264 1.11.672 1.54 1.224.44.552.78 1.248 1.03 2.088.25.84.37 1.833.37 2.979zm-2.88 0c0-.906-.06-1.647-.17-2.223-.12-.582-.27-1.038-.46-1.368-.19-.33-.4-.555-.64-.675a1.545 1.545 0 00-.73-.189c-.25 0-.49.063-.73.189-.23.12-.44.345-.63.675-.18.33-.33.786-.44 1.368-.11.576-.16 1.317-.16 2.223 0 .912.05 1.656.16 2.232.11.576.26 1.032.44 1.368.19.33.4.558.63.684.24.12.48.18.73.18s.49-.06.73-.18c.24-.126.45-.354.64-.684.19-.336.34-.792.46-1.368.11-.576.17-1.32.17-2.232zm12.78 0c0 1.146-.12 2.139-.37 2.979-.25.84-.59 1.536-1.03 2.088-.43.552-.94.963-1.54 1.233-.6.27-1.24.405-1.94.405-.69 0-1.34-.135-1.93-.405a4.08 4.08 0 01-1.53-1.233c-.44-.552-.77-1.248-1.02-2.088-.24-.84-.36-1.833-.36-2.979 0-1.146.12-2.139.36-2.979.25-.84.58-1.536 1.02-2.088.43-.552.94-.96 1.53-1.224.59-.27 1.24-.405 1.93-.405.7 0 1.34.135 1.94.405.6.264 1.11.672 1.54 1.224.44.552.78 1.248 1.03 2.088.25.84.37 1.833.37 2.979zm-2.88 0c0-.906-.06-1.647-.17-2.223-.12-.582-.27-1.038-.46-1.368-.19-.33-.4-.555-.64-.675a1.545 1.545 0 00-.73-.189c-.24 0-.49.063-.73.189-.23.12-.44.345-.63.675-.18.33-.32.786-.44 1.368-.11.576-.16 1.317-.16 2.223 0 .912.05 1.656.16 2.232.12.576.26 1.032.44 1.368.19.33.4.558.63.684.24.12.49.18.73.18.25 0 .49-.06.73-.18.24-.126.45-.354.64-.684.19-.336.34-.792.46-1.368.11-.576.17-1.32.17-2.232zm12.78 0c0 1.146-.12 2.139-.37 2.979-.24.84-.59 1.536-1.02 2.088-.44.552-.95.963-1.55 1.233-.6.27-1.24.405-1.94.405-.69 0-1.34-.135-1.93-.405a4.08 4.08 0 01-1.53-1.233c-.43-.552-.77-1.248-1.02-2.088-.24-.84-.36-1.833-.36-2.979 0-1.146.12-2.139.36-2.979.25-.84.59-1.536 1.02-2.088.43-.552.94-.96 1.53-1.224.59-.27 1.24-.405 1.93-.405.7 0 1.34.135 1.94.405.6.264 1.11.672 1.55 1.224.43.552.78 1.248 1.02 2.088.25.84.37 1.833.37 2.979zm-2.88 0c0-.906-.06-1.647-.17-2.223-.11-.582-.27-1.038-.46-1.368-.18-.33-.4-.555-.64-.675a1.545 1.545 0 00-.73-.189c-.24 0-.49.063-.73.189-.23.12-.44.345-.63.675-.18.33-.32.786-.44 1.368-.1.576-.16 1.317-.16 2.223 0 .912.06 1.656.16 2.232.12.576.26 1.032.44 1.368.19.33.4.558.63.684.24.12.49.18.73.18.25 0 .49-.06.73-.18.24-.126.46-.354.64-.684.19-.336.35-.792.46-1.368.11-.576.17-1.32.17-2.232zm10.61 6.705c-.44 0-.83-.063-1.18-.189a2.464 2.464 0 01-.85-.549c-.23-.24-.4-.528-.52-.864a3.327 3.327 0 01-.18-1.125v-4.824h-.8a.52.52 0 01-.36-.135c-.11-.096-.16-.234-.16-.414v-1.089l1.49-.288.55-2.277c.07-.288.27-.432.61-.432h1.46v2.727h2.31v1.908h-2.31v4.635c0 .216.05.396.15.54a.55.55 0 00.46.207c.1 0 .18-.009.25-.027.07-.024.13-.048.18-.072.05-.03.1-.054.14-.072a.399.399 0 01.17-.036c.08 0 .15.021.19.063a.62.62 0 01.17.18l.84 1.323c-.36.27-.76.474-1.21.612-.45.132-.92.198-1.4.198zm7.25-9.621c.7 0 1.35.111 1.93.333.58.222 1.08.54 1.49.954.42.414.75.918.98 1.512.23.588.35 1.251.35 1.989 0 .744-.12 1.416-.35 2.016a4.343 4.343 0 01-.98 1.521c-.41.414-.91.735-1.49.963-.58.222-1.23.333-1.93.333-.72 0-1.37-.111-1.96-.333a4.546 4.546 0 01-1.51-.963c-.42-.42-.75-.927-.98-1.521-.23-.6-.34-1.272-.34-2.016 0-.738.11-1.401.34-1.989.23-.594.56-1.098.98-1.512.43-.414.93-.732 1.51-.954a5.514 5.514 0 011.96-.333zm0 7.551c.64 0 1.11-.225 1.41-.675.3-.456.46-1.146.46-2.07 0-.924-.16-1.611-.46-2.061-.3-.45-.77-.675-1.41-.675-.66 0-1.15.225-1.45.675-.31.45-.46 1.137-.46 2.061 0 .924.15 1.614.46 2.07.3.45.79.675 1.45.675zm8.55-6.624h1.08c.15-.708.39-1.35.7-1.926.31-.582.68-1.077 1.12-1.485.44-.408.94-.723 1.49-.945a4.684 4.684 0 011.77-.333c.85 0 1.59.171 2.21.513.62.336 1.12.783 1.5 1.341l-.99 1.026a1.35 1.35 0 01-.24.225c-.08.06-.19.09-.34.09a.563.563 0 01-.37-.135c-.09-.09-.21-.189-.34-.297-.13-.114-.3-.216-.49-.306-.2-.09-.47-.135-.81-.135-.57 0-1.05.201-1.45.603-.4.396-.69.984-.88 1.764h4.14v.828c0 .078-.01.156-.05.234a.995.995 0 01-.15.216.801.801 0 01-.55.207h-3.57c-.01.084-.01.168-.01.252v.567h3.47v.828c0 .078-.02.156-.05.234a.776.776 0 01-.4.369.818.818 0 01-.31.054h-2.57c.16.87.43 1.515.82 1.935.39.42.87.63 1.43.63.25 0 .47-.024.65-.072.18-.054.33-.117.46-.189.12-.072.23-.153.31-.243.09-.09.17-.171.25-.243.07-.072.15-.132.22-.18a.472.472 0 01.27-.081c.08 0 .15.012.21.036.06.024.12.069.19.135l1.22 1.089a4.146 4.146 0 01-1.63 1.548c-.67.348-1.44.522-2.29.522-.72 0-1.36-.117-1.93-.351a4.615 4.615 0 01-1.48-.999 5.375 5.375 0 01-1.02-1.539c-.27-.6-.45-1.266-.57-1.998h-1.02v-1.485h.89v-.567c0-.084 0-.168.01-.252h-.9v-1.485zm18.43 6.03c.3 0 .54.084.71.252.17.162.26.378.26.648V144h-9.21v-.9c0-.174.03-.36.1-.558.08-.198.2-.378.38-.54l3.78-3.807c.33-.324.61-.633.85-.927.24-.294.44-.582.59-.864.16-.288.27-.573.35-.855.08-.288.12-.591.12-.909 0-.522-.13-.921-.38-1.197-.24-.282-.62-.423-1.13-.423-.42 0-.77.111-1.06.333-.28.216-.47.486-.58.81-.13.33-.29.549-.5.657-.2.108-.49.132-.87.072l-1.47-.261c.09-.654.27-1.224.54-1.71.28-.486.62-.891 1.02-1.215.41-.324.87-.564 1.4-.72a5.62 5.62 0 011.68-.243c.65 0 1.23.096 1.75.288.52.186.96.447 1.33.783.36.336.64.738.83 1.206.2.462.3.972.3 1.53 0 .48-.07.924-.21 1.332-.13.408-.31.798-.54 1.17-.24.366-.51.723-.82 1.071-.31.342-.64.69-.98 1.044l-2.57 2.628c.33-.102.66-.18.98-.234.33-.054.63-.081.9-.081h2.45zm11.2-4.041c0 1.146-.13 2.139-.37 2.979-.25.84-.59 1.536-1.03 2.088-.43.552-.95.963-1.55 1.233-.59.27-1.24.405-1.93.405-.7 0-1.34-.135-1.94-.405-.58-.27-1.09-.681-1.53-1.233-.43-.552-.77-1.248-1.01-2.088-.24-.84-.36-1.833-.36-2.979 0-1.146.12-2.139.36-2.979.24-.84.58-1.536 1.01-2.088.44-.552.95-.96 1.53-1.224a4.65 4.65 0 011.94-.405c.69 0 1.34.135 1.93.405.6.264 1.12.672 1.55 1.224.44.552.78 1.248 1.03 2.088.24.84.37 1.833.37 2.979zm-2.88 0c0-.906-.06-1.647-.17-2.223-.12-.582-.27-1.038-.46-1.368-.19-.33-.4-.555-.64-.675a1.575 1.575 0 00-.73-.189c-.25 0-.49.063-.73.189-.23.12-.44.345-.63.675-.18.33-.33.786-.44 1.368-.11.576-.16 1.317-.16 2.223 0 .912.05 1.656.16 2.232.11.576.26 1.032.44 1.368.19.33.4.558.63.684.24.12.48.18.73.18.24 0 .49-.06.73-.18.24-.126.45-.354.64-.684.19-.336.34-.792.46-1.368.11-.576.17-1.32.17-2.232zm3.66 8.784a.502.502 0 01-.2-.396c0-.06.02-.126.07-.198a.798.798 0 01.15-.18c.07-.072.16-.162.25-.27.1-.102.19-.216.29-.342.1-.126.18-.264.26-.414.08-.15.15-.309.19-.477-.2-.018-.39-.069-.56-.153a1.425 1.425 0 01-.43-.324 1.626 1.626 0 01-.28-.468c-.07-.18-.1-.375-.1-.585 0-.192.04-.369.11-.531.07-.168.17-.312.31-.432.13-.126.29-.225.47-.297.19-.072.4-.108.62-.108.27 0 .51.048.71.144.19.09.36.216.49.378.13.156.23.339.29.549.06.204.1.42.1.648 0 .3-.05.621-.15.963a4.54 4.54 0 01-.43 1.017 5.95 5.95 0 01-1.67 1.908l-.49-.432zm12.9-8.784c0 1.146-.12 2.139-.37 2.979-.24.84-.58 1.536-1.02 2.088-.43.552-.95.963-1.55 1.233-.59.27-1.24.405-1.94.405-.69 0-1.34-.135-1.93-.405a4.08 4.08 0 01-1.53-1.233c-.43-.552-.77-1.248-1.02-2.088-.24-.84-.36-1.833-.36-2.979 0-1.146.12-2.139.36-2.979.25-.84.59-1.536 1.02-2.088.43-.552.94-.96 1.53-1.224.59-.27 1.24-.405 1.93-.405.7 0 1.35.135 1.94.405.6.264 1.12.672 1.55 1.224.44.552.78 1.248 1.02 2.088.25.84.37 1.833.37 2.979zm-2.88 0c0-.906-.05-1.647-.17-2.223-.11-.582-.27-1.038-.46-1.368-.18-.33-.4-.555-.64-.675a1.545 1.545 0 00-.73-.189c-.24 0-.48.063-.72.189-.24.12-.45.345-.63.675-.18.33-.33.786-.45 1.368-.1.576-.16 1.317-.16 2.223 0 .912.06 1.656.16 2.232.12.576.27 1.032.45 1.368.18.33.39.558.63.684.24.12.48.18.72.18.25 0 .49-.06.73-.18.24-.126.46-.354.64-.684.19-.336.35-.792.46-1.368.12-.576.17-1.32.17-2.232zm12.78 0c0 1.146-.12 2.139-.37 2.979-.24.84-.58 1.536-1.02 2.088-.43.552-.95.963-1.55 1.233-.59.27-1.24.405-1.93.405-.7 0-1.35-.135-1.94-.405a4.08 4.08 0 01-1.53-1.233c-.43-.552-.77-1.248-1.02-2.088-.24-.84-.36-1.833-.36-2.979 0-1.146.12-2.139.36-2.979.25-.84.59-1.536 1.02-2.088.43-.552.94-.96 1.53-1.224.59-.27 1.24-.405 1.94-.405.69 0 1.34.135 1.93.405.6.264 1.12.672 1.55 1.224.44.552.78 1.248 1.02 2.088.25.84.37 1.833.37 2.979zm-2.88 0c0-.906-.05-1.647-.17-2.223-.11-.582-.26-1.038-.46-1.368-.18-.33-.4-.555-.64-.675a1.537 1.537 0 00-.72-.189c-.25 0-.49.063-.73.189-.24.12-.45.345-.63.675-.18.33-.33.786-.44 1.368-.11.576-.17 1.317-.17 2.223 0 .912.06 1.656.17 2.232.11.576.26 1.032.44 1.368.18.33.39.558.63.684.24.12.48.18.73.18.24 0 .48-.06.72-.18.24-.126.46-.354.64-.684.2-.336.35-.792.46-1.368.12-.576.17-1.32.17-2.232zm12.79 0c0 1.146-.13 2.139-.37 2.979-.25.84-.59 1.536-1.03 2.088-.43.552-.95.963-1.55 1.233-.59.27-1.24.405-1.93.405-.7 0-1.34-.135-1.94-.405a4.08 4.08 0 01-1.53-1.233c-.43-.552-.77-1.248-1.01-2.088-.24-.84-.36-1.833-.36-2.979 0-1.146.12-2.139.36-2.979.24-.84.58-1.536 1.01-2.088.43-.552.94-.96 1.53-1.224a4.65 4.65 0 011.94-.405c.69 0 1.34.135 1.93.405.6.264 1.12.672 1.55 1.224.44.552.78 1.248 1.03 2.088.24.84.37 1.833.37 2.979zm-2.88 0c0-.906-.06-1.647-.18-2.223-.11-.582-.26-1.038-.45-1.368-.19-.33-.4-.555-.64-.675a1.575 1.575 0 00-.73-.189c-.25 0-.49.063-.73.189-.24.12-.45.345-.63.675-.18.33-.33.786-.44 1.368-.11.576-.16 1.317-.16 2.223 0 .912.05 1.656.16 2.232.11.576.26 1.032.44 1.368.18.33.39.558.63.684.24.12.48.18.73.18.24 0 .49-.06.73-.18.24-.126.45-.354.64-.684.19-.336.34-.792.45-1.368.12-.576.18-1.32.18-2.232z" fill="#9CF"/><path d="M1509.75 47.416v-9.12c0-.56.01-1.16.05-1.8.04-.656.11-1.336.19-2.04l-9.24 12.96h9zm10.08 0v4.176c0 .368-.13.688-.39.96-.24.272-.59.408-1.05.408h-2.16V61h-6.48v-8.04h-14.07c-.46 0-.88-.144-1.27-.432-.37-.288-.6-.648-.69-1.08l-.77-3.672 16.17-21.744h7.11v21.384h3.6zm26.52-3.912c0 3.056-.33 5.704-.98 7.944-.66 2.24-1.57 4.096-2.74 5.568-1.15 1.472-2.53 2.568-4.13 3.288-1.58.72-3.3 1.08-5.16 1.08-1.85 0-3.57-.36-5.16-1.08-1.56-.72-2.92-1.816-4.08-3.288-1.15-1.472-2.05-3.328-2.71-5.568-.64-2.24-.96-4.888-.96-7.944s.32-5.704.96-7.944c.66-2.24 1.56-4.096 2.71-5.568 1.16-1.472 2.52-2.56 4.08-3.264 1.59-.72 3.31-1.08 5.16-1.08 1.86 0 3.58.36 5.16 1.08 1.6.704 2.98 1.792 4.13 3.264 1.17 1.472 2.08 3.328 2.74 5.568.65 2.24.98 4.888.98 7.944zm-7.68 0c0-2.416-.15-4.392-.45-5.928-.31-1.552-.72-2.768-1.23-3.648-.49-.88-1.06-1.48-1.7-1.8-.64-.336-1.29-.504-1.95-.504-.65 0-1.3.168-1.94.504-.62.32-1.18.92-1.68 1.8-.48.88-.87 2.096-1.18 3.648-.28 1.536-.43 3.512-.43 5.928 0 2.432.15 4.416.43 5.952.31 1.536.7 2.752 1.18 3.648.5.88 1.06 1.488 1.68 1.824.64.32 1.29.48 1.94.48.66 0 1.31-.16 1.95-.48.64-.336 1.21-.944 1.7-1.824.51-.896.92-2.112 1.23-3.648.3-1.536.45-3.52.45-5.952zm25.59-9c0 1.28-.23 2.448-.7 3.504a8.773 8.773 0 01-1.85 2.736 8.148 8.148 0 01-2.68 1.752 8.256 8.256 0 01-3.17.624c-1.22 0-2.34-.208-3.36-.624-1.01-.416-1.89-1-2.64-1.752-.74-.768-1.31-1.68-1.73-2.736-.42-1.056-.62-2.224-.62-3.504 0-1.328.2-2.528.62-3.6.42-1.088.99-2.016 1.73-2.784a7.8 7.8 0 012.64-1.776c1.02-.432 2.14-.648 3.36-.648 1.21 0 2.33.216 3.36.648a7.42 7.42 0 012.66 1.776 7.95 7.95 0 011.75 2.784c.42 1.072.63 2.272.63 3.6zm-5.71 0c0-.816-.08-1.488-.22-2.016-.13-.544-.31-.976-.55-1.296a1.93 1.93 0 00-.87-.672 2.802 2.802 0 00-1.05-.192c-.39 0-.74.064-1.06.192-.32.128-.59.352-.81.672-.23.32-.4.752-.53 1.296-.13.528-.19 1.2-.19 2.016 0 .768.06 1.408.19 1.92s.3.92.53 1.224c.22.304.49.52.81.648.32.128.67.192 1.06.192.38 0 .73-.064 1.05-.192.34-.128.63-.344.87-.648.24-.304.42-.712.55-1.224.14-.512.22-1.152.22-1.92zm16.7-7.368c.24-.272.54-.52.89-.744.35-.24.84-.36 1.46-.36h5.43l-26.36 33.912c-.24.304-.54.56-.91.768-.35.192-.78.288-1.29.288h-5.57l26.35-33.864zm9.12 25.656c0 1.28-.23 2.456-.7 3.528a8.92 8.92 0 01-1.84 2.736 8.296 8.296 0 01-2.69 1.752 8.256 8.256 0 01-3.17.624c-1.22 0-2.34-.208-3.36-.624-1.01-.416-1.89-1-2.64-1.752-.74-.768-1.31-1.68-1.73-2.736-.41-1.072-.62-2.248-.62-3.528 0-1.328.21-2.528.62-3.6.42-1.088.99-2.016 1.73-2.784a7.8 7.8 0 012.64-1.776c1.02-.432 2.14-.648 3.36-.648 1.22 0 2.34.216 3.36.648a7.42 7.42 0 012.66 1.776c.76.768 1.34 1.696 1.76 2.784.41 1.072.62 2.272.62 3.6zm-5.71 0c0-.8-.07-1.464-.22-1.992-.13-.544-.31-.976-.55-1.296-.24-.32-.53-.544-.86-.672a2.855 2.855 0 00-1.06-.192c-.38 0-.74.064-1.06.192-.32.128-.59.352-.81.672-.23.32-.4.752-.53 1.296-.13.528-.19 1.192-.19 1.992 0 .768.06 1.408.19 1.92s.3.92.53 1.224c.22.304.49.52.81.648.32.128.68.192 1.06.192s.74-.064 1.06-.192c.33-.128.62-.344.86-.648.24-.304.42-.712.55-1.224.15-.512.22-1.152.22-1.92z" fill="#fff"/><path d="M1509 9.45h1.08c.15-.708.38-1.35.69-1.926.32-.582.69-1.077 1.13-1.485a4.8 4.8 0 011.48-.945 4.773 4.773 0 011.78-.333c.85 0 1.58.171 2.2.513.63.336 1.13.783 1.5 1.341l-.99 1.026c-.07.084-.15.159-.23.225-.08.06-.2.09-.34.09a.527.527 0 01-.37-.135c-.1-.09-.21-.189-.34-.297-.13-.114-.3-.216-.5-.306s-.47-.135-.81-.135c-.56 0-1.04.201-1.45.603-.39.396-.68.984-.87 1.764h4.14v.828c0 .078-.02.156-.05.234a.776.776 0 01-.4.369.818.818 0 01-.31.054h-3.57c0 .084-.01.168-.01.252v.567h3.48v.828c0 .078-.02.156-.06.234a.587.587 0 01-.15.216c-.07.06-.15.111-.24.153a.855.855 0 01-.31.054h-2.57c.15.87.43 1.515.82 1.935.39.42.86.63 1.43.63.25 0 .46-.024.64-.072.18-.054.34-.117.46-.189.13-.072.23-.153.32-.243l.24-.243c.08-.072.15-.132.23-.18a.43.43 0 01.27-.081c.08 0 .15.012.2.036.06.024.13.069.19.135l1.23 1.089a4.213 4.213 0 01-1.63 1.548c-.67.348-1.44.522-2.3.522-.71 0-1.35-.117-1.92-.351a4.508 4.508 0 01-1.48-.999 5.4 5.4 0 01-1.03-1.539c-.26-.6-.45-1.266-.56-1.998H1509v-1.485h.88v-.567c0-.084.01-.168.01-.252h-.89V9.45zm18.43 6.03c.3 0 .53.084.71.252.17.162.26.378.26.648V18h-9.22v-.9c0-.174.04-.36.11-.558.07-.198.2-.378.38-.54l3.78-3.807c.32-.324.6-.633.84-.927.24-.294.44-.582.6-.864.15-.288.27-.573.35-.855.08-.288.12-.591.12-.909 0-.522-.13-.921-.38-1.197-.25-.282-.63-.423-1.14-.423-.41 0-.76.111-1.05.333a1.62 1.62 0 00-.58.81c-.13.33-.3.549-.5.657-.2.108-.49.132-.87.072l-1.48-.261c.1-.654.28-1.224.55-1.71.28-.486.62-.891 1.02-1.215.41-.324.87-.564 1.39-.72a5.687 5.687 0 011.69-.243c.64 0 1.23.096 1.74.288.52.186.97.447 1.33.783.37.336.65.738.84 1.206.2.462.3.972.3 1.53 0 .48-.07.924-.21 1.332-.13.408-.31.798-.55 1.17-.23.366-.51.723-.82 1.071-.3.342-.63.69-.98 1.044l-2.56 2.628c.33-.102.65-.18.98-.234.32-.054.62-.081.9-.081h2.45zm11.19-4.041c0 1.146-.12 2.139-.37 2.979-.24.84-.58 1.536-1.02 2.088-.43.552-.95.963-1.55 1.233-.59.27-1.24.405-1.94.405-.69 0-1.34-.135-1.93-.405a4.08 4.08 0 01-1.53-1.233c-.43-.552-.77-1.248-1.02-2.088-.24-.84-.36-1.833-.36-2.979 0-1.146.12-2.139.36-2.979.25-.84.59-1.536 1.02-2.088.43-.552.94-.96 1.53-1.224.59-.27 1.24-.405 1.93-.405.7 0 1.35.135 1.94.405.6.264 1.12.672 1.55 1.224.44.552.78 1.248 1.02 2.088.25.84.37 1.833.37 2.979zm-2.88 0c0-.906-.05-1.647-.17-2.223-.11-.582-.27-1.038-.46-1.368-.18-.33-.4-.555-.64-.675a1.545 1.545 0 00-.73-.189c-.24 0-.48.063-.72.189-.24.12-.45.345-.63.675-.18.33-.33.786-.45 1.368-.1.576-.16 1.317-.16 2.223 0 .912.06 1.656.16 2.232.12.576.27 1.032.45 1.368.18.33.39.558.63.684.24.12.48.18.72.18.25 0 .49-.06.73-.18.24-.126.46-.354.64-.684.19-.336.35-.792.46-1.368.12-.576.17-1.32.17-2.232zm3.67 8.784a.502.502 0 01-.2-.396c0-.06.02-.126.06-.198.04-.066.1-.126.16-.18.07-.072.15-.162.25-.27.09-.102.19-.216.29-.342.09-.126.18-.264.26-.414.08-.15.14-.309.19-.477a1.527 1.527 0 01-.56-.153 1.425 1.425 0 01-.71-.792c-.07-.18-.1-.375-.1-.585 0-.192.03-.369.11-.531.07-.168.17-.312.3-.432.14-.126.3-.225.48-.297.18-.072.39-.108.62-.108.27 0 .5.048.7.144.2.09.36.216.5.378.13.156.22.339.28.549.07.204.1.42.1.648 0 .3-.04.621-.14.963-.1.336-.24.675-.43 1.017-.19.342-.42.678-.7 1.008-.29.33-.61.63-.98.9l-.48-.432zm12.9-8.784c0 1.146-.12 2.139-.37 2.979-.25.84-.59 1.536-1.03 2.088-.43.552-.94.963-1.54 1.233-.6.27-1.24.405-1.94.405s-1.34-.135-1.93-.405a4.08 4.08 0 01-1.53-1.233c-.44-.552-.78-1.248-1.02-2.088-.24-.84-.36-1.833-.36-2.979 0-1.146.12-2.139.36-2.979.24-.84.58-1.536 1.02-2.088.43-.552.94-.96 1.53-1.224.59-.27 1.23-.405 1.93-.405s1.34.135 1.94.405c.6.264 1.11.672 1.54 1.224.44.552.78 1.248 1.03 2.088.25.84.37 1.833.37 2.979zm-2.88 0c0-.906-.06-1.647-.17-2.223-.12-.582-.27-1.038-.46-1.368-.19-.33-.4-.555-.64-.675a1.545 1.545 0 00-.73-.189c-.25 0-.49.063-.73.189-.23.12-.44.345-.63.675-.18.33-.33.786-.44 1.368-.11.576-.16 1.317-.16 2.223 0 .912.05 1.656.16 2.232.11.576.26 1.032.44 1.368.19.33.4.558.63.684.24.12.48.18.73.18s.49-.06.73-.18c.24-.126.45-.354.64-.684.19-.336.34-.792.46-1.368.11-.576.17-1.32.17-2.232zm12.78 0c0 1.146-.12 2.139-.37 2.979-.25.84-.59 1.536-1.03 2.088-.43.552-.94.963-1.54 1.233-.6.27-1.24.405-1.94.405-.69 0-1.34-.135-1.93-.405a4.08 4.08 0 01-1.53-1.233c-.44-.552-.77-1.248-1.02-2.088-.24-.84-.36-1.833-.36-2.979 0-1.146.12-2.139.36-2.979.25-.84.58-1.536 1.02-2.088.43-.552.94-.96 1.53-1.224.59-.27 1.24-.405 1.93-.405.7 0 1.34.135 1.94.405.6.264 1.11.672 1.54 1.224.44.552.78 1.248 1.03 2.088.25.84.37 1.833.37 2.979zm-2.88 0c0-.906-.06-1.647-.17-2.223-.12-.582-.27-1.038-.46-1.368-.19-.33-.4-.555-.64-.675a1.545 1.545 0 00-.73-.189c-.24 0-.49.063-.73.189-.23.12-.44.345-.63.675-.18.33-.32.786-.44 1.368-.11.576-.16 1.317-.16 2.223 0 .912.05 1.656.16 2.232.12.576.26 1.032.44 1.368.19.33.4.558.63.684.24.12.49.18.73.18.25 0 .49-.06.73-.18.24-.126.45-.354.64-.684.19-.336.34-.792.46-1.368.11-.576.17-1.32.17-2.232zm12.78 0c0 1.146-.12 2.139-.37 2.979-.24.84-.59 1.536-1.02 2.088-.44.552-.95.963-1.55 1.233-.6.27-1.24.405-1.94.405-.69 0-1.34-.135-1.93-.405a4.08 4.08 0 01-1.53-1.233c-.43-.552-.77-1.248-1.02-2.088-.24-.84-.36-1.833-.36-2.979 0-1.146.12-2.139.36-2.979.25-.84.59-1.536 1.02-2.088.43-.552.94-.96 1.53-1.224.59-.27 1.24-.405 1.93-.405.7 0 1.34.135 1.94.405.6.264 1.11.672 1.55 1.224.43.552.78 1.248 1.02 2.088.25.84.37 1.833.37 2.979zm-2.88 0c0-.906-.06-1.647-.17-2.223-.11-.582-.27-1.038-.46-1.368-.18-.33-.4-.555-.64-.675a1.545 1.545 0 00-.73-.189c-.24 0-.49.063-.73.189-.23.12-.44.345-.63.675-.18.33-.32.786-.44 1.368-.1.576-.16 1.317-.16 2.223 0 .912.06 1.656.16 2.232.12.576.26 1.032.44 1.368.19.33.4.558.63.684.24.12.49.18.73.18.25 0 .49-.06.73-.18.24-.126.46-.354.64-.684.19-.336.35-.792.46-1.368.11-.576.17-1.32.17-2.232zm16 1.512h-3.33v3.582h-2.26v-3.582h-3.32v-1.998h3.32V7.389h2.26v3.564h3.33v1.998z" fill="#9CF"/><defs><linearGradient id="paint0_linear_58513_2" x1="-3" y1="192.002" x2="2002" y2="183.002" gradientUnits="userSpaceOnUse"><stop stop-color="#0E399B"/><stop offset=".5" stop-color="#8748CD"/><stop offset="1" stop-color="#D81887"/></linearGradient><linearGradient id="paint1_linear_58513_2" x1="-1" y1="252.501" x2="2000" y2="252.501" gradientUnits="userSpaceOnUse"><stop stop-color="#11399D"/><stop offset=".484" stop-color="#9F48C8"/><stop offset="1" stop-color="#DF46A1"/></linearGradient></defs></svg>