<?xml version="1.0" standalone="no"?>
<!DOCTYPE svg PUBLIC "-//W3C//DTD SVG 20010904//EN"
 "http://www.w3.org/TR/2001/REC-SVG-20010904/DTD/svg10.dtd">
<svg version="1.0" xmlns="http://www.w3.org/2000/svg"
 width="512.000000pt" height="512.000000pt" viewBox="0 0 512.000000 512.000000"
 preserveAspectRatio="xMidYMid meet">
<metadata>
Created by potrace 1.14, written by Peter Selinger 2001-2017
</metadata>
<g transform="translate(0.000000,512.000000) scale(0.100000,-0.100000)"
fill="#000000" stroke="none">
<path d="M2391 4729 c-167 -13 -377 -54 -526 -104 -55 -18 -221 -102 -243
-122 -7 -7 -25 -15 -40 -18 -205 -43 -637 -453 -808 -769 -174 -319 -249 -535
-294 -840 -22 -154 -27 -409 -10 -561 13 -113 47 -280 65 -320 7 -16 18 -54
24 -83 24 -118 134 -371 229 -530 54 -88 85 -121 117 -122 11 0 33 -7 49 -15
15 -8 37 -15 48 -15 12 0 50 -30 92 -73 94 -96 234 -220 321 -284 81 -59 210
-143 220 -143 4 0 19 -8 33 -19 38 -26 262 -123 357 -154 111 -37 229 -64 392
-89 124 -20 184 -22 590 -25 438 -3 454 -3 490 17 21 11 45 20 53 20 35 0 57
37 69 116 6 43 16 83 22 90 6 8 50 37 98 65 47 29 100 63 117 75 49 38 96 53
142 47 23 -3 39 -9 37 -13 -3 -4 11 -11 30 -14 33 -7 40 -3 92 46 61 59 213
239 233 278 7 14 19 29 26 33 8 4 14 16 14 26 0 10 7 24 15 31 21 18 98 152
149 261 54 116 123 322 131 391 3 28 10 59 16 69 15 30 46 196 58 313 13 134
14 405 1 466 -6 25 -12 74 -15 110 -8 103 -43 253 -92 400 -47 141 -151 371
-174 386 -8 5 -29 39 -47 75 -54 107 -186 275 -336 425 -113 112 -168 158
-277 231 -75 50 -151 94 -168 98 -18 4 -44 13 -59 21 -15 8 -34 14 -42 14 -9
0 -32 11 -52 25 -19 13 -73 40 -119 59 -268 110 -639 155 -1028 125z m804
-328 c-55 -27 -129 -70 -165 -96 -47 -35 -57 -40 -37 -18 15 16 27 32 27 35 0
3 -28 9 -62 13 -98 10 -124 16 -107 25 8 5 52 1 98 -8 80 -15 85 -15 115 3 71
44 183 95 206 95 17 0 -9 -17 -75 -49z m-1222 -30 c37 -18 55 -35 78 -77 28
-49 33 -53 59 -47 54 10 77 -3 94 -54 9 -25 16 -54 16 -64 0 -23 19 -34 33
-20 6 6 17 11 25 11 8 0 1 -12 -17 -29 -51 -48 -65 -103 -30 -122 18 -9 32 -5
85 22 35 17 67 30 69 27 3 -3 -8 -20 -25 -38 -51 -55 -54 -67 -26 -95 31 -31
42 -31 99 -1 l46 25 -10 -26 c-9 -24 -8 -25 18 -19 16 4 24 3 18 -1 -5 -4 -10
-23 -11 -40 0 -32 0 -33 40 -27 27 4 37 3 31 -3 -9 -9 -27 -17 -97 -42 l-27
-10 33 -33 c26 -27 32 -40 30 -70 -1 -21 1 -38 6 -38 4 0 28 18 53 40 70 62
77 50 21 -42 -30 -48 -34 -62 -23 -69 21 -13 21 -13 73 41 26 28 52 50 57 50
12 0 12 0 -6 -50 -15 -44 -13 -60 9 -60 21 0 54 43 86 113 31 69 35 73 60 57
13 -8 13 -17 -3 -72 -27 -91 -27 -112 0 -116 17 -3 32 12 71 70 59 88 78 106
94 90 8 -8 4 -32 -15 -92 -32 -97 -32 -97 -8 -110 17 -8 26 -3 61 34 51 54
115 100 129 92 14 -9 -1 -55 -39 -122 -31 -53 -31 -56 -14 -69 29 -22 37 -19
116 40 40 30 80 55 89 55 39 0 31 -23 -38 -108 l-45 -55 22 -21 21 -21 50 28
c28 15 72 36 99 47 42 17 50 17 69 4 26 -19 27 -31 2 -39 -10 -3 -47 -24 -80
-45 l-62 -40 23 -30 c12 -16 28 -30 35 -30 8 0 55 12 105 26 72 21 95 24 114
15 13 -6 24 -14 24 -19 0 -5 -38 -26 -85 -47 -47 -21 -85 -41 -85 -45 0 -4 8
-18 19 -31 l18 -23 100 18 c78 15 104 16 121 7 28 -15 28 -28 0 -36 -13 -4
-51 -21 -86 -37 l-63 -29 20 -33 c12 -18 18 -36 14 -40 -4 -4 5 -2 20 3 16 6
66 11 113 11 77 0 84 -2 84 -20 0 -14 -11 -22 -42 -30 -90 -23 -107 -31 -101
-46 3 -8 -1 -22 -8 -32 -12 -15 -12 -16 1 -6 24 18 170 35 213 25 73 -17 94
-61 29 -61 -35 0 -137 -22 -172 -37 -8 -3 -21 -5 -29 -4 -9 2 -12 -3 -7 -14 4
-11 2 -15 -6 -12 -7 2 -12 11 -10 21 2 9 -4 16 -13 16 -10 0 -13 5 -9 12 4 7
3 8 -5 4 -6 -4 -14 0 -17 8 -3 9 -10 16 -16 16 -5 0 -6 -4 -3 -10 3 -5 1 -10
-4 -10 -6 0 -11 5 -11 11 0 8 -4 9 -13 0 -8 -6 -18 -7 -23 -3 -4 4 -2 -1 6
-12 8 -10 16 -13 18 -8 2 6 10 8 18 5 7 -3 11 -9 8 -14 -3 -5 0 -8 8 -7 7 2
12 -5 11 -15 -1 -12 4 -17 14 -13 8 3 12 2 8 -3 -3 -5 -2 -11 2 -14 5 -2 2 -2
-4 -1 -16 4 -17 -12 -2 -21 12 -8 33 -56 30 -69 -1 -5 5 -6 13 -3 9 4 15 3 14
-1 -5 -17 15 -52 28 -52 8 0 13 4 10 9 -3 4 1 17 8 27 10 13 11 24 4 37 -5 10
-7 22 -3 25 4 4 51 9 106 10 82 3 99 1 99 -11 0 -16 -75 -52 -133 -62 -28 -6
-37 -11 -33 -22 3 -8 6 -20 6 -27 0 -9 13 -11 53 -5 90 13 107 11 107 -10 0
-15 -11 -22 -50 -30 -28 -6 -60 -11 -71 -11 -19 0 -46 -46 -34 -58 3 -3 5 1 5
8 0 10 14 11 58 7 31 -3 66 -9 78 -12 13 -4 21 -2 22 7 1 7 8 45 16 83 8 39
24 138 36 220 12 83 28 178 35 213 11 53 11 75 -1 129 -17 82 -33 100 -151
169 -51 30 -95 59 -98 64 -16 26 115 1 183 -34 17 -9 34 -16 37 -16 12 0 -19
47 -58 88 -23 23 -38 42 -35 42 22 0 98 -54 139 -98 43 -47 49 -51 49 -30 0
21 -31 175 -46 226 -5 18 -2 22 15 22 28 0 37 24 22 58 l-11 27 19 -23 c28
-32 87 -219 108 -337 14 -83 17 -166 18 -480 l0 -380 25 30 c75 89 155 209
175 264 l14 36 0 -45 c1 -39 -7 -57 -62 -137 -34 -50 -87 -121 -117 -158 -49
-59 -57 -76 -77 -158 -13 -51 -37 -121 -55 -157 l-33 -65 -83 3 -83 2 27 -47
27 -48 -39 35 c-21 19 -41 38 -44 42 -13 17 -94 19 -223 7 -123 -11 -152 -11
-231 3 -105 18 -260 74 -250 90 4 6 2 8 -4 5 -12 -8 -44 2 -38 12 3 4 -4 7
-15 7 -22 0 -28 9 86 -133 44 -54 97 -124 118 -154 21 -30 65 -92 98 -138 57
-80 59 -86 59 -145 0 -38 -6 -70 -15 -82 -15 -22 -73 -37 -195 -49 -95 -10
-316 -54 -362 -72 -34 -14 -41 -14 -49 -2 -6 10 -31 14 -93 14 -46 0 -82 -3
-79 -7 2 -5 -3 -8 -11 -8 -9 0 -16 4 -16 9 0 18 -44 -3 -79 -38 -20 -20 -49
-62 -66 -93 -25 -49 -34 -58 -57 -58 -16 0 -28 3 -28 6 0 21 34 133 47 152 8
13 13 25 11 26 -2 2 -66 -3 -143 -10 -235 -22 -264 -19 -250 25 12 39 183 94
333 108 39 3 72 9 72 13 0 4 -32 19 -71 35 -94 37 -163 98 -183 163 l-7 22 33
-19 c39 -23 209 -88 326 -125 126 -39 173 -33 90 12 -24 12 -54 31 -68 42
l-25 20 53 0 c39 0 66 -7 108 -30 31 -16 60 -28 64 -25 5 3 -1 28 -13 55 -17
40 -19 52 -8 63 10 10 19 5 44 -23 18 -19 39 -46 47 -59 l15 -23 80 27 c47 15
89 24 104 20 l26 -5 -26 16 c-14 9 -31 31 -37 48 -10 26 -68 73 -81 66 -2 -1
-22 18 -46 43 -57 60 -145 193 -189 287 -84 175 -23 274 208 335 58 15 106 32
106 36 0 5 -6 6 -13 3 -37 -14 -247 57 -248 84 0 12 -2 13 -6 4 -4 -10 -9 -9
-20 5 -8 10 -12 12 -8 6 7 -15 4 -16 -19 -7 -9 3 -16 14 -17 23 0 9 -3 11 -5
4 -7 -17 -74 24 -74 45 0 15 -2 15 -10 2 -8 -12 -10 -12 -10 5 0 13 -3 16 -8
8 -5 -9 -19 -2 -45 22 -21 19 -42 35 -46 35 -4 0 -16 8 -27 18 -11 9 -29 22
-40 29 -10 6 -18 16 -16 22 1 6 -1 10 -5 10 -22 -4 -33 3 -33 19 0 14 -2 15
-10 2 -9 -13 -14 -7 -11 13 0 4 -5 6 -11 5 -7 -2 -12 3 -10 10 1 8 -2 11 -8 7
-14 -9 -42 14 -33 28 3 5 1 7 -4 4 -6 -4 -21 6 -34 22 -13 16 -27 27 -31 25
-19 -12 -5 14 34 60 24 28 47 57 53 64 5 7 25 29 43 48 36 40 40 54 15 49 -12
-1 -17 -9 -15 -21 2 -11 1 -16 -3 -12 -8 7 -114 -100 -114 -115 0 -12 -88
-114 -146 -170 -119 -115 -197 -144 -400 -152 -127 -5 -109 8 -226 -158 -76
-109 -84 -135 -84 -254 1 -80 0 -82 -18 -65 -66 60 -63 218 8 332 12 19 25 41
29 48 5 8 -31 -16 -79 -52 -62 -47 -105 -71 -152 -85 l-65 -20 -144 141 c-79
78 -144 148 -144 157 0 9 65 -50 144 -130 l144 -146 64 55 c78 67 208 192 208
200 0 3 -48 2 -108 -1 l-107 -5 -22 38 c-25 47 -28 46 107 56 129 9 136 15 59
52 -78 38 -99 54 -99 76 0 25 60 20 167 -14 85 -27 143 -38 143 -25 0 2 -9 22
-21 44 -12 24 -18 48 -14 60 6 19 10 18 59 -19 29 -22 57 -40 62 -40 6 0 26
12 45 26 49 37 144 82 205 95 52 12 55 14 121 108 37 53 83 115 100 138 18 24
31 43 29 43 -2 0 -23 -16 -46 -35 -45 -38 -55 -38 -115 -7 l-30 16 44 8 c67
12 61 18 -17 18 l-70 0 -57 51 c-30 29 -54 54 -51 56 3 3 34 -4 70 -16 78 -25
86 -25 133 -6 49 21 38 28 -15 10 -39 -14 -47 -13 -119 10 -42 13 -80 22 -85
19 -4 -3 -8 0 -8 5 0 6 -5 11 -11 11 -19 0 -199 151 -257 217 -75 85 -105 142
-110 214 -7 91 -1 93 70 26 144 -136 305 -253 424 -309 178 -83 337 9 275 160
-19 45 -23 35 -6 -15 16 -46 7 -99 -23 -126 -32 -29 -101 -41 -163 -28 -46 10
-79 28 -180 103 -260 191 -387 304 -374 335 4 10 11 33 15 51 4 18 14 40 22
49 18 22 87 53 120 53 l27 0 -6 98 c-5 89 -4 99 16 124 29 37 70 48 166 45 61
-2 92 -8 128 -26z m1396 -9 c14 -27 31 -164 31 -254 0 -99 -17 -200 -37 -225
-13 -17 -14 -16 -7 7 14 50 16 227 4 328 -7 56 -15 102 -17 102 -14 0 -131
-114 -244 -237 -122 -132 -165 -171 -140 -124 27 49 373 421 393 421 4 0 12
-8 17 -18z m-1019 -22 c-97 -17 -220 -43 -264 -56 -11 -4 -16 -2 -13 4 14 22
239 70 332 70 39 0 28 -4 -55 -18z m1270 -160 c109 -66 173 -116 244 -188 91
-93 97 -113 8 -31 -45 42 -143 120 -217 174 -74 54 -135 103 -135 109 0 8 2 8
8 0 4 -7 45 -35 92 -64z m-2160 -234 c0 -2 -8 -10 -17 -17 -16 -13 -17 -12 -4
4 13 16 21 21 21 13z m-127 -133 c-287 -322 -381 -535 -447 -1016 l-5 -38 51
46 c76 68 281 214 265 189 -7 -12 66 -88 75 -79 3 4 9 2 13 -4 11 -19 -42 -12
-77 9 l-32 19 -65 -34 c-105 -55 -261 -202 -261 -245 0 -10 7 -23 15 -30 12
-10 15 -38 15 -129 l0 -116 134 -85 c74 -47 129 -88 123 -92 -12 -8 -27 0
-157 81 -52 32 -97 55 -98 50 -6 -16 38 -209 70 -304 35 -108 140 -324 202
-417 28 -43 41 -70 34 -74 -7 -4 -8 -2 -4 4 4 7 3 12 -1 12 -5 0 -22 20 -38
45 -50 79 -39 40 16 -57 29 -51 61 -106 72 -123 l19 -30 -21 24 c-41 46 -131
218 -124 237 4 12 3 15 -5 10 -8 -5 -10 -1 -5 10 4 12 3 15 -5 10 -8 -5 -10
-1 -5 11 3 10 2 15 -2 10 -17 -15 -169 343 -205 483 -10 41 -22 99 -26 127 -6
49 -10 55 -53 82 -25 17 -62 42 -81 57 l-35 26 30 -7 c17 -3 51 -20 78 -36
l47 -29 0 110 c0 91 -3 110 -15 110 -22 0 -18 22 11 66 22 31 29 57 36 129 38
392 189 724 457 1008 80 85 84 69 4 -20z m2180 41 c51 -26 117 -74 117 -84 0
-20 -29 -8 -98 40 -40 28 -72 53 -72 55 0 9 21 5 53 -11z m367 -22 c0 -28 -59
-42 -90 -22 -13 9 -13 11 0 20 18 12 90 13 90 2z m375 -352 c51 -60 89 -128
135 -244 47 -119 69 -220 85 -384 8 -85 17 -158 21 -163 10 -17 -11 -8 -41 17
-23 20 -25 23 -7 14 l23 -11 -6 73 c-26 303 -85 486 -227 698 -55 82 -53 82
17 0z m-2917 38 c-5 -15 -50 -22 -85 -13 -39 9 -16 25 38 25 36 0 49 -4 47
-12z m-230 -503 c0 -14 -4 -28 -9 -31 -10 -6 -12 17 -3 40 9 22 12 20 12 -9z
m175 -192 c-7 -2 -19 -2 -25 0 -7 3 -2 5 12 5 14 0 19 -2 13 -5z m2487 -233
c0 -5 -2 -10 -4 -10 -3 0 -8 5 -11 10 -3 6 -1 10 4 10 6 0 11 -4 11 -10z
m-2088 -151 l-8 -144 -19 40 c-13 27 -19 64 -19 115 -1 64 3 80 23 108 13 18
25 32 27 30 2 -2 0 -69 -4 -149z m2118 126 c0 -2 -9 -9 -20 -15 -16 -9 -18 -8
-14 5 5 13 34 22 34 10z m217 -87 c-3 -7 -5 -2 -5 12 0 14 2 19 5 13 2 -7 2
-19 0 -25z m-1475 -285 c162 -160 163 -144 -20 -355 -138 -159 -168 -152 -363
81 -62 73 -79 101 -79 125 0 39 -5 33 127 159 l111 107 53 0 52 0 119 -117z
m-1182 -99 c0 -2 -4 -4 -10 -4 -5 0 -9 3 -8 8 1 4 -6 21 -15 39 -9 18 -17 40
-16 50 0 14 49 -78 49 -93z m-165 69 c1 -10 8 -17 15 -15 6 1 9 -2 5 -8 -4 -7
-12 -7 -25 0 -27 14 -35 31 -19 41 16 9 19 7 24 -18z m3124 -120 c-48 -138
-198 -435 -199 -394 0 8 27 67 60 133 52 100 79 164 141 326 5 12 13 22 18 22
6 0 -3 -39 -20 -87z m-2985 -79 c11 -30 6 -34 -95 -82 l-100 -49 -15 29 c-14
27 -14 28 11 28 14 0 60 20 103 45 42 25 80 45 83 45 4 0 10 -7 13 -16z m61
-118 c25 -46 27 -56 16 -70 -8 -9 -19 -15 -25 -13 -6 2 -22 -4 -35 -14 -13
-11 -28 -19 -32 -19 -5 0 -19 20 -32 46 l-23 45 -29 -23 c-24 -18 -27 -18 -15
-3 14 17 13 18 -5 11 -18 -6 -18 -5 -5 8 19 19 132 85 145 86 6 0 24 -24 40
-54z m-125 -117 c0 -10 -9 -23 -20 -29 -21 -11 -29 3 -9 16 6 3 9 17 6 30 -3
20 -2 22 9 13 8 -6 14 -20 14 -30z m2851 -284 c-10 -50 -22 -111 -26 -137 -6
-49 -17 -60 -32 -33 -9 16 -79 55 -99 55 -7 0 -38 -23 -69 -52 l-56 -51 -22
23 c-12 13 -15 18 -6 12 14 -10 24 -5 65 31 29 26 45 48 40 55 -12 19 -40 14
-77 -13 -65 -49 -381 -255 -390 -255 -26 0 -1 24 64 61 137 81 389 271 472
358 36 38 65 52 65 33 0 -5 -34 -41 -75 -82 -42 -40 -74 -74 -72 -76 2 -3 28
-11 58 -19 30 -8 64 -17 75 -21 20 -5 23 0 38 65 21 91 46 155 57 144 5 -5 1
-48 -10 -98z m-2885 63 l29 -33 -32 29 c-31 28 -38 36 -30 36 2 0 16 -15 33
-32z m2079 -203 c-38 -19 -74 -34 -80 -34 -5 0 21 16 60 35 38 19 74 34 80 33
5 0 -21 -16 -60 -34z m-70 -136 c0 -20 -5 -24 -37 -27 -28 -2 -37 1 -40 15 -3
13 5 22 27 30 39 15 50 11 50 -18z m-1213 -161 c18 -28 99 -55 265 -90 72 -15
103 -26 103 -36 0 -11 -9 -12 -41 -7 -38 7 -232 54 -286 71 -22 6 -21 1 17
-80 69 -148 91 -176 159 -197 l26 -7 -25 -1 c-42 -1 -107 35 -125 68 -8 17
-20 31 -26 31 -6 0 -8 4 -4 10 3 5 -17 54 -45 110 -39 77 -57 103 -78 111 -78
29 -308 166 -298 177 3 3 32 -11 63 -30 58 -35 140 -79 221 -118 40 -19 43
-19 38 -3 -9 32 -26 136 -25 157 0 12 11 -16 23 -60 12 -45 29 -93 38 -106z
m878 2 c24 -24 25 -49 6 -76 -13 -17 -14 -15 -6 19 7 32 5 39 -13 52 -25 18
-60 19 -88 5 -20 -11 -20 -13 2 -101 l9 -36 62 13 c78 17 162 18 135 3 -9 -5
-22 -7 -27 -4 -6 4 -9 1 -8 -6 2 -9 -9 -12 -38 -10 -23 1 -57 -4 -77 -13 -33
-13 -35 -17 -27 -43 5 -15 14 -47 21 -70 7 -24 16 -40 22 -36 6 3 7 1 3 -5
-10 -17 -36 -3 -36 20 0 10 -4 17 -9 14 -9 -6 -21 16 -21 37 0 7 4 6 10 -3 8
-12 10 -12 10 5 0 11 -5 27 -10 35 -8 12 -10 12 -11 -5 -1 -23 -2 -20 -43 119
-31 104 -30 106 57 106 44 0 62 -5 77 -20z m-970 -165 c0 -8 -4 -16 -9 -19 -5
-3 -8 5 -7 18 1 25 16 26 16 1z m840 15 c0 -6 -16 -10 -35 -10 -45 0 -45 14 0
17 19 2 35 -2 35 -7z m-800 -34 c0 -8 -3 -16 -7 -19 -5 -2 -2 -2 5 -1 22 6 13
-4 -20 -20 -34 -18 -53 -21 -25 -5 19 11 24 34 5 24 -7 -4 -5 0 4 8 10 8 15
17 11 20 -3 4 1 7 10 7 10 0 17 -6 17 -14z m30 -6 c-11 -7 -11 -10 -2 -10 7 0
10 -5 6 -11 -4 -8 -9 -7 -15 2 -13 21 -11 29 9 29 14 0 15 -2 2 -10z m40 -20
c0 -5 -2 -10 -4 -10 -3 0 -8 5 -11 10 -3 6 -1 10 4 10 6 0 11 -4 11 -10z m-55
-50 c3 -6 -1 -7 -9 -4 -18 7 -21 14 -7 14 6 0 13 -4 16 -10z m49 -12 c-3 -4
-9 -8 -15 -8 -5 0 -9 4 -9 8 0 5 7 9 15 9 8 0 12 -4 9 -9z m889 -45 c-7 -2
-19 -2 -25 0 -7 3 -2 5 12 5 14 0 19 -2 13 -5z"/>
<path d="M1738 4363 c-65 -26 -50 -44 65 -80 56 -18 125 -46 154 -63 47 -27
120 -103 164 -169 13 -21 18 -22 37 -12 51 27 64 110 25 170 -15 23 -24 24
-90 5 -17 -5 -26 2 -48 40 -34 58 -84 102 -132 115 -54 15 -132 13 -175 -6z"/>
<path d="M1692 4236 c8 -67 38 -122 66 -119 13 2 41 -6 62 -17 31 -16 44 -18
63 -9 19 9 31 7 55 -5 48 -25 90 -21 104 9 13 30 -4 54 -67 90 -47 27 -238 95
-267 95 -18 0 -20 -5 -16 -44z"/>
<path d="M1600 4073 c0 -5 13 -17 28 -27 l27 -19 -24 26 c-26 28 -31 32 -31
20z"/>
<path d="M1754 3975 c-9 -23 3 -45 24 -45 28 0 56 25 49 44 -8 21 -65 22 -73
1z"/>
<path d="M1870 3908 c-61 -9 -147 -47 -175 -78 -32 -35 -10 -32 61 10 79 45
167 63 251 50 56 -9 79 -19 133 -59 l35 -25 -24 26 c-52 58 -174 91 -281 76z"/>
<path d="M1981 3796 c-29 -16 -50 -52 -51 -86 0 -54 64 -120 132 -135 37 -9
95 20 114 56 13 26 13 32 0 58 -51 98 -131 142 -195 107z m116 -28 c30 -27 53
-70 53 -96 0 -20 -31 -52 -67 -71 -53 -27 -133 49 -133 128 0 67 91 91 147 39z"/>
<path d="M2014 3715 c-8 -31 19 -75 45 -75 20 0 51 30 51 48 0 21 -39 52 -65
52 -18 0 -26 -7 -31 -25z"/>
<path d="M2185 3776 c10 -14 19 -26 22 -26 7 0 -17 39 -28 46 -6 3 -3 -5 6
-20z"/>
<path d="M1705 3586 c58 -52 124 -93 191 -120 100 -40 113 -39 27 3 -45 21
-101 52 -125 69 -24 16 -63 41 -88 56 l-45 28 40 -36z"/>
<path d="M2600 3494 c-6 -15 -13 -31 -16 -35 -3 -5 2 -9 11 -9 8 0 20 12 25
26 6 15 15 22 21 18 7 -4 10 -1 7 7 -9 26 -37 22 -48 -7z"/>
<path d="M2085 3440 l-70 -6 65 -2 c36 -1 72 3 80 8 8 5 11 9 5 8 -5 -1 -41
-4 -80 -8z"/>
<path d="M2750 3400 c8 -5 20 -10 25 -10 6 0 3 5 -5 10 -8 5 -19 10 -25 10 -5
0 -3 -5 5 -10z"/>
<path d="M2830 3366 c0 -2 7 -7 16 -10 8 -3 12 -2 9 4 -6 10 -25 14 -25 6z"/>
<path d="M2910 3326 c0 -2 7 -7 16 -10 8 -3 12 -2 9 4 -6 10 -25 14 -25 6z"/>
<path d="M2485 3100 c-3 -5 1 -10 10 -10 9 0 13 5 10 10 -3 6 -8 10 -10 10 -2
0 -7 -4 -10 -10z"/>
<path d="M3310 3005 c19 -19 36 -35 39 -35 3 0 -10 16 -29 35 -19 19 -36 35
-39 35 -3 0 10 -16 29 -35z"/>
<path d="M3530 3026 c0 -2 8 -10 18 -17 15 -13 16 -12 3 4 -13 16 -21 21 -21
13z"/>
<path d="M3440 2928 c41 -45 50 -53 50 -45 0 2 -21 23 -47 47 l-48 45 45 -47z"/>
<path d="M3539 2813 c24 -29 46 -53 48 -53 7 0 -54 75 -74 91 -10 8 2 -10 26
-38z"/>
<path d="M3660 2856 c0 -2 8 -10 18 -17 15 -13 16 -12 3 4 -13 16 -21 21 -21
13z"/>
<path d="M3626 2777 c3 -10 9 -15 12 -12 3 3 0 11 -7 18 -10 9 -11 8 -5 -6z"/>
<path d="M3706 2737 c3 -10 9 -15 12 -12 3 3 0 11 -7 18 -10 9 -11 8 -5 -6z"/>
<path d="M2627 2639 c4 -13 8 -18 11 -10 2 7 -1 18 -6 23 -8 8 -9 4 -5 -13z"/>
<path d="M3531 2634 c0 -11 3 -14 6 -6 3 7 2 16 -1 19 -3 4 -6 -2 -5 -13z"/>
<path d="M3872 2356 c10 -7 15 -16 11 -19 -3 -4 1 -7 10 -7 11 0 14 -5 10 -17
-3 -10 -4 -16 -2 -13 2 3 17 20 33 38 l30 32 -55 0 c-47 -1 -52 -2 -37 -14z"/>
<path d="M4002 2325 c0 -16 2 -22 5 -12 2 9 2 23 0 30 -3 6 -5 -1 -5 -18z"/>
<path d="M3957 2318 c-6 -23 17 -78 33 -78 14 0 13 4 -9 28 -11 14 -16 31 -13
47 5 31 -3 33 -11 3z"/>
<path d="M3134 2086 c11 -9 24 -16 30 -16 12 0 7 5 -24 19 -24 11 -24 11 -6
-3z"/>
<path d="M3150 1653 c0 -8 51 -35 56 -30 2 2 -10 11 -26 21 -17 9 -30 14 -30
9z"/>
<path d="M2363 1839 l-32 -9 21 -40 c23 -42 42 -51 52 -24 3 9 13 14 20 11 14
-6 36 19 49 56 5 14 0 17 -36 16 -23 0 -56 -5 -74 -10z"/>
<path d="M1307 1843 l-28 -14 26 -30 c14 -17 25 -35 25 -41 0 -6 9 -3 20 7 20
18 25 49 14 79 -7 19 -20 19 -57 -1z"/>
<path d="M1380 1821 c0 -6 5 -13 10 -16 6 -3 10 1 10 9 0 9 -4 16 -10 16 -5 0
-10 -4 -10 -9z"/>
</g>
</svg>
