<svg width="40" height="31" viewBox="0 0 40 31" fill="none" xmlns="http://www.w3.org/2000/svg">
<path d="M24.7329 0.000658912C23.94 0.0063732 23.1529 0.044945 22.3214 0.267802C21.4157 0.513667 20.5563 0.905986 19.7771 1.42923C18.6829 0.786373 17.6229 0.257802 16.6071 0.133516C15.3457 -0.0221983 14.1743 0.0620878 12.8129 0.0906592C11.1986 0.123516 10.1457 0.947802 8.43714 1.6078C6.73 2.26494 4.53143 2.90209 1.42857 2.90209H0V16.6521L0.804286 17.0535L3.43714 18.3492L12.8129 28.7949L12.8571 28.8392C13.9286 29.8992 15.3743 30.1621 16.6514 30.0892C17.93 30.0178 19.13 29.6435 20.0886 29.0635C22.1986 27.7907 27.9457 23.7949 27.9457 23.7949L28.08 23.7049L28.17 23.6164C28.85 22.9407 29.1914 22.1164 29.42 21.2507L34.91 18.4821L39.0171 17.0992L40 16.7849V2.90209H38.5714C36.17 2.91851 33.7888 2.46323 31.5629 1.56209C29.8543 0.894945 28.8171 0.0792305 27.1857 0.0449448C26.3143 0.027802 25.5229 -0.00505537 24.7314 0.000658912H24.7329ZM24.7757 2.8578C25.4186 2.85209 26.1614 2.88637 27.0986 2.90209C27.2486 2.9078 28.6214 3.49352 30.5357 4.24209C32.1543 4.8778 34.4029 5.44209 37.1429 5.62494V14.7321L33.8386 15.8492H33.75L33.66 15.8921L29.3314 18.0807C29.1017 17.4177 28.7368 16.8097 28.26 16.2949L28.17 16.1607L22.0986 8.70637L21.2057 7.58923L20.0886 8.48209L16.25 11.6078C14.9614 12.5007 13.9171 12.2435 12.8571 11.7421C12.55 11.5964 12.5671 11.5521 12.3214 11.3849L18.84 5.98209L18.9286 5.89352C20.8643 3.97352 22.0543 3.30923 23.08 3.03637C23.5943 2.89637 24.1357 2.86352 24.7771 2.8578H24.7757ZM14.8229 2.90209C15.2995 2.88412 15.7768 2.89892 16.2514 2.94637C16.6257 2.99066 17.05 3.30923 17.4129 3.4378C17.2671 3.57209 17.1614 3.64923 17.01 3.79494L16.9214 3.88494L9.10857 10.3564L7.90286 11.3392L8.97429 12.4549C8.97429 12.4549 10.0071 13.5721 11.6086 14.3307C13.21 15.0892 15.6829 15.5192 17.9029 13.9735L17.9929 13.8835L20.76 11.6078L26.0286 18.0807L26.0729 18.1707L26.1171 18.2135C27.06 19.1464 27.0386 20.6135 26.1171 21.5635C26.1057 21.5735 26.1286 21.5964 26.1171 21.6064C26.1057 21.6135 25.9171 21.7249 25.8943 21.7421L24.0186 19.1964L21.6971 20.8935L23.5286 23.3478C22.7857 23.8507 22.4514 24.1135 21.6529 24.6435L19.7343 22.0535L17.4114 23.7507L19.2429 26.2049C19.08 26.3049 18.7457 26.5292 18.6171 26.6078C18.1657 26.8807 17.2943 27.1878 16.5186 27.2321C15.7886 27.2721 15.23 27.1035 14.9571 26.8749L14.9129 26.8307L5.35857 16.2507L5.18 16.0264L2.85714 14.8664V5.62494C5.58571 5.44637 7.85143 4.90494 9.46429 4.28637C11.3729 3.55494 12.7357 2.95209 12.9014 2.94637L14.8214 2.90209H14.8229Z" fill="url(#paint0_linear_57641_68)"/>
<defs>
<linearGradient id="paint0_linear_57641_68" x1="0" y1="15.0503" x2="42.9412" y2="15.0503" gradientUnits="userSpaceOnUse">
<stop stop-color="#FF27A4"/>
<stop offset="1" stop-color="#8BC1FF"/>
</linearGradient>
</defs>
</svg>
