<svg width="16" height="16" viewBox="0 0 16 16" fill="none" xmlns="http://www.w3.org/2000/svg">
<path d="M15.4359 9.31315C15.5179 8.86309 15.5619 8.40304 15.5619 7.94298C15.5619 6.92285 15.3619 5.93273 14.9679 5.00262C14.5878 4.10251 14.0417 3.29441 13.3477 2.60032C12.6594 1.91028 11.8435 1.36068 10.9454 0.982121C10.0132 0.588073 9.02513 0.388048 8.005 0.388048C7.52494 0.388048 7.04288 0.434053 6.57482 0.524064C5.92717 0.180869 5.20553 0.000972508 4.47256 0C3.27842 0 2.15428 0.466057 1.31017 1.31016C0.893648 1.72455 0.563397 2.21739 0.338515 2.7602C0.113633 3.30301 -0.00141812 3.88501 1.31922e-05 4.47255C1.31922e-05 5.23264 0.196037 5.98074 0.562083 6.64082C0.488073 7.06887 0.448068 7.50692 0.448068 7.94298C0.448068 8.9631 0.648093 9.95323 1.04214 10.8833C1.42219 11.7835 1.96626 12.5916 2.66034 13.2856C3.35443 13.9797 4.16253 14.5238 5.06264 14.9038C5.99475 15.2979 6.98287 15.4979 8.003 15.4979C8.44705 15.4979 8.89111 15.4579 9.32716 15.3799C9.99724 15.7579 10.7533 15.96 11.5274 15.96C12.7216 15.96 13.8457 15.4959 14.6898 14.6498C15.5359 13.8057 16 12.6816 16 11.4874C16.002 10.7273 15.806 9.97723 15.4359 9.31315ZM13.6737 13.6337C13.0996 14.2098 12.3415 14.5218 11.5294 14.5218C11.0074 14.5218 10.4933 14.3858 10.0372 14.1277L9.58719 13.8737L9.07713 13.9637C8.72109 14.0277 8.36104 14.0597 8.005 14.0597C7.1769 14.0597 6.3788 13.8977 5.62271 13.5777C4.89662 13.2716 4.24254 12.8316 3.67847 12.2675C3.12009 11.7111 2.67513 11.0514 2.3683 10.3253C2.04827 9.57118 1.88825 8.77308 1.88825 7.94498C1.88825 7.59694 1.92025 7.24089 1.98026 6.88885L2.06827 6.38679L1.82024 5.94073C1.57007 5.49181 1.43857 4.98648 1.43819 4.47255C1.43819 3.66045 1.75223 2.90236 2.3263 2.32829C2.90237 1.75422 3.66046 1.44018 4.47256 1.44018C4.97067 1.44152 5.46091 1.56443 5.90074 1.79822L6.3488 2.03425L6.84486 1.93824C7.2229 1.86623 7.61295 1.82823 8.005 1.82823C8.8331 1.82823 9.6312 1.99024 10.3853 2.30828C11.1154 2.61632 11.7675 3.05638 12.3295 3.61845C12.8936 4.18051 13.3337 4.8346 13.6417 5.56269C13.9617 6.31678 14.1218 7.11488 14.1218 7.94298C14.1218 8.31102 14.0877 8.68307 14.0197 9.05311L13.9257 9.56318L14.1778 10.0152C14.4298 10.4653 14.5618 10.9754 14.5618 11.4894C14.5618 12.3035 14.2478 13.0596 13.6737 13.6337ZM9.42918 7.06487L7.66096 6.67282C6.98887 6.5188 6.21478 6.31678 6.21478 5.6827C6.21478 5.04862 6.75685 4.60457 7.73697 4.60457C9.71121 4.60457 9.53119 5.96073 10.5113 5.96073C11.0274 5.96073 11.4794 5.6567 11.4794 5.13663C11.4794 3.92048 9.53119 3.00637 7.87898 3.00637C6.08476 3.00637 4.17453 3.76846 4.17453 5.79671C4.17453 6.77283 4.52257 7.81296 6.44681 8.29502L8.8351 8.8911C9.55719 9.06912 9.73921 9.47517 9.73921 9.84321C9.73921 10.4533 9.13314 11.0494 8.035 11.0494C5.89074 11.0494 6.18878 9.39916 5.04063 9.39916C4.52457 9.39916 4.15052 9.7552 4.15052 10.2613C4.15052 11.2494 5.35067 12.5695 8.035 12.5695C10.5893 12.5695 11.8555 11.3394 11.8555 9.68919C11.8555 8.62706 11.3654 7.49692 9.42918 7.06487Z" fill="white"/>
</svg>
