<svg width="18" height="18" viewBox="0 0 18 18" fill="none" xmlns="http://www.w3.org/2000/svg">
<path d="M7.22222 17H10.7778M15.2222 17V2.77778C15.2222 2.30628 15.0349 1.8541 14.7015 1.5207C14.3681 1.1873 13.9159 1 13.4444 1H4.55556C4.08406 1 3.63187 1.1873 3.29848 1.5207C2.96508 1.8541 2.77778 2.30628 2.77778 2.77778V17H15.2222ZM15.2222 17H17H15.2222ZM15.2222 17H10.7778H15.2222ZM2.77778 17H1H2.77778ZM2.77778 17H7.22222H2.77778ZM6.33333 4.55556H7.22222H6.33333ZM6.33333 8.11111H7.22222H6.33333ZM10.7778 4.55556H11.6667H10.7778ZM10.7778 8.11111H11.6667H10.7778ZM7.22222 17V12.5556C7.22222 12.3198 7.31587 12.0937 7.48257 11.927C7.64927 11.7603 7.87536 11.6667 8.11111 11.6667H9.88889C10.1246 11.6667 10.3507 11.7603 10.5174 11.927C10.6841 12.0937 10.7778 12.3198 10.7778 12.5556V17H7.22222Z" stroke="white" stroke-width="1.5" stroke-linecap="round" stroke-linejoin="round"/>
</svg>
