<svg width="16" height="16" viewBox="0 0 16 16" fill="none" xmlns="http://www.w3.org/2000/svg">
<path d="M14.1545 15.9941H14.0499C1.96206 15.299 0.245771 5.09966 0.00585927 1.98696C-0.0134719 1.74495 0.0151412 1.50149 0.090059 1.27055C0.164977 1.03962 0.284727 0.825729 0.442448 0.64115C0.600169 0.456571 0.792761 0.304926 1.00919 0.194906C1.22562 0.0848863 1.46163 0.0186527 1.7037 5.76766e-07H5.09322C5.33962 -0.000237959 5.58042 0.0735179 5.78443 0.211714C5.98843 0.349911 6.14624 0.546181 6.23741 0.7751L7.17245 3.07579C7.26248 3.29943 7.28482 3.54459 7.2367 3.78082C7.18858 4.01705 7.07212 4.23393 6.90178 4.40453L5.5915 5.72712C5.79617 6.89023 6.35317 7.9624 7.18715 8.79858C8.02113 9.63476 9.09183 10.1946 10.2544 10.4023L11.5893 9.07973C11.7625 8.91128 11.9814 8.79753 12.2188 8.75268C12.4562 8.70783 12.7015 8.73386 12.9242 8.82752L15.2433 9.75641C15.4688 9.85046 15.6612 10.0095 15.7959 10.2133C15.9307 10.417 16.0017 10.6563 16 10.9006V14.1486C16 14.6381 15.8055 15.1075 15.4594 15.4536C15.1133 15.7997 14.6439 15.9941 14.1545 15.9941ZM1.85133 1.23032C1.68818 1.23032 1.53172 1.29513 1.41635 1.41049C1.30099 1.52586 1.23618 1.68232 1.23618 1.84547V1.89469C1.51915 5.53642 3.33386 14.1486 14.1176 14.7638C14.1984 14.7688 14.2794 14.7578 14.356 14.7314C14.4325 14.705 14.5031 14.6638 14.5637 14.6101C14.6243 14.5563 14.6736 14.4912 14.709 14.4183C14.7443 14.3455 14.7649 14.2664 14.7697 14.1855V10.9006L12.4505 9.97171L10.685 11.7249L10.3897 11.688C5.03785 11.0175 4.31197 5.66561 4.31197 5.61024L4.27506 5.31497L6.02211 3.54946L5.09937 1.23032H1.85133Z" fill="white"/>
</svg>
