<svg width="16" height="9" viewBox="0 0 16 9" fill="none" xmlns="http://www.w3.org/2000/svg">
<path d="M1.45455 7.07718H14.5455C14.9455 7.07718 15.2727 7.40445 15.2727 7.80445C15.2727 8.20445 14.9455 8.53173 14.5455 8.53173H1.45455C1.05455 8.53173 0.727273 8.20445 0.727273 7.80445C0.727273 7.40445 1.05455 7.07718 1.45455 7.07718ZM1.09091 3.85536C1.35273 4.00809 1.68727 3.91354 1.84 3.65173L2.18182 3.05536L2.53091 3.659C2.68364 3.92082 3.01818 4.00809 3.28 3.86263C3.54182 3.70991 3.62909 3.38264 3.48364 3.12082L3.12727 2.50991H3.81818C4.11636 2.50991 4.36364 2.26263 4.36364 1.96445C4.36364 1.66627 4.11636 1.419 3.81818 1.419H3.12727L3.46909 0.822634C3.62182 0.560816 3.53455 0.226271 3.27273 0.0735438C3.14599 0.002996 2.99669 -0.0151961 2.85672 0.0228537C2.71675 0.0609035 2.59721 0.152178 2.52364 0.27718L2.18182 0.873544L1.84 0.27718C1.76642 0.152178 1.64688 0.0609035 1.50691 0.0228537C1.36694 -0.0151961 1.21765 0.002996 1.09091 0.0735438C0.829091 0.226271 0.741818 0.560816 0.894545 0.822634L1.23636 1.419H0.545455C0.247273 1.419 0 1.66627 0 1.96445C0 2.26263 0.247273 2.50991 0.545455 2.50991H1.23636L0.887273 3.11354C0.741818 3.37536 0.829091 3.70991 1.09091 3.85536ZM6.90909 3.85536C7.17091 4.00809 7.50545 3.91354 7.65818 3.65173L8 3.05536L8.34909 3.659C8.50182 3.92082 8.83636 4.00809 9.09818 3.86263C9.36 3.70991 9.44727 3.38264 9.30182 3.12082L8.95273 2.51718H9.64364C9.94182 2.51718 10.1891 2.26991 10.1891 1.97173C10.1891 1.67354 9.94182 1.42627 9.64364 1.42627H8.94545L9.28727 0.829907C9.3592 0.704214 9.37893 0.555312 9.3422 0.415226C9.30548 0.27514 9.21525 0.155061 9.09091 0.0808166C9.02931 0.044993 8.96126 0.0216548 8.89064 0.0121355C8.82001 0.00261611 8.74821 0.00710207 8.67933 0.0253367C8.61044 0.0435714 8.54582 0.0751977 8.48916 0.118409C8.4325 0.161621 8.3849 0.215572 8.34909 0.27718L8 0.873544L7.65818 0.27718C7.62265 0.215285 7.5752 0.161052 7.51857 0.117621C7.46194 0.0741894 7.39725 0.042423 7.32826 0.0241604C7.25927 0.00589787 7.18734 0.00150214 7.11664 0.0112272C7.04593 0.0209523 6.97786 0.0446052 6.91636 0.0808166C6.65455 0.233544 6.56727 0.568089 6.72 0.829907L7.06182 1.42627H6.36364C6.29235 1.42531 6.22159 1.43852 6.15545 1.46513C6.08931 1.49175 6.02912 1.53124 5.97837 1.58131C5.92763 1.63138 5.88733 1.69103 5.85983 1.75681C5.83233 1.82258 5.81818 1.89316 5.81818 1.96445C5.81818 2.26263 6.06545 2.50991 6.36364 2.50991H7.05455L6.70545 3.11354C6.56 3.37536 6.64727 3.70991 6.90909 3.85536ZM16 1.96445C16 1.66627 15.7527 1.419 15.4545 1.419H14.7636L15.1055 0.822634C15.1774 0.696941 15.1971 0.548039 15.1604 0.407953C15.1237 0.267867 15.0334 0.147788 14.9091 0.0735438C14.8475 0.0377201 14.7794 0.0143823 14.7088 0.00486291C14.6382 -0.00465644 14.5664 -0.000170828 14.4975 0.0180638C14.4286 0.0362985 14.364 0.0679248 14.3073 0.111137C14.2507 0.154348 14.2031 0.208299 14.1673 0.269907L13.8182 0.873544L13.4764 0.27718C13.4408 0.215285 13.3934 0.161052 13.3367 0.117621C13.2801 0.0741894 13.2154 0.042423 13.1464 0.0241604C13.0774 0.00589787 13.0055 0.00150214 12.9348 0.0112272C12.8641 0.0209523 12.796 0.0446052 12.7345 0.0808166C12.4727 0.233544 12.3855 0.568089 12.5382 0.829907L12.88 1.42627H12.1891C12.1173 1.42463 12.0459 1.43732 11.979 1.4636C11.9122 1.48988 11.8512 1.52923 11.7998 1.57934C11.7483 1.62945 11.7073 1.68932 11.6793 1.75544C11.6512 1.82157 11.6366 1.89262 11.6364 1.96445C11.6364 2.26263 11.8836 2.50991 12.1818 2.50991H12.8727L12.5236 3.11354C12.4875 3.17543 12.4641 3.2439 12.4548 3.31494C12.4455 3.38599 12.4505 3.45818 12.4695 3.52727C12.4884 3.59637 12.521 3.66098 12.5653 3.71732C12.6096 3.77366 12.6646 3.82059 12.7273 3.85536C12.9891 4.00809 13.3236 3.91354 13.4764 3.65173L13.8182 3.05536L14.1673 3.659C14.32 3.92082 14.6545 4.00809 14.9164 3.86263C15.1782 3.70991 15.2655 3.38264 15.12 3.12082L14.7709 2.51718H15.4618C15.7527 2.50991 16 2.26263 16 1.96445Z" fill="white"/>
</svg>
