<svg width="20" height="20" viewBox="0 0 20 20" fill="none" xmlns="http://www.w3.org/2000/svg">
<path d="M9.99973 16.707C10.9457 16.707 11.8097 16.604 12.5977 16.426L10.8407 14.669C10.5677 14.69 10.2907 14.707 9.99973 14.707C4.64874 14.707 2.57573 10.861 2.07373 9.707C2.45068 8.86581 2.95978 8.09034 3.58173 7.41L2.18373 6.012C0.645735 7.679 0.0627348 9.358 0.0517348 9.391C-0.0172449 9.59636 -0.0172449 9.81864 0.0517348 10.024C0.0727348 10.09 2.36673 16.707 9.99973 16.707ZM9.99973 2.707C8.16273 2.707 6.65373 3.103 5.39573 3.688L1.70673 0L0.292735 1.414L18.2927 19.414L19.7067 18L16.3877 14.681C19.0017 12.73 19.9347 10.066 19.9487 10.024C20.0177 9.81864 20.0177 9.59636 19.9487 9.391C19.9267 9.324 17.6327 2.707 9.99973 2.707ZM14.9717 13.265L12.6917 10.985C12.8817 10.595 12.9997 10.166 12.9997 9.707C12.9997 8.066 11.6407 6.707 9.99973 6.707C9.54073 6.707 9.11173 6.825 8.72273 7.016L6.91473 5.208C7.90725 4.86741 8.95044 4.698 9.99973 4.707C15.3507 4.707 17.4237 8.553 17.9257 9.707C17.6237 10.399 16.7597 12.049 14.9717 13.265Z" fill="#74B5FF"/>
</svg>
