<svg width="16" height="15" viewBox="0 0 16 15" fill="none" xmlns="http://www.w3.org/2000/svg">
<path d="M14.8155 0.00147151C14.6179 0.0158476 14.4239 0.0622045 14.2412 0.138734H14.2387C14.0633 0.208288 13.2293 0.559138 11.9613 1.09095L7.41748 3.00462C4.15703 4.37725 0.951991 5.72894 0.951991 5.72894L0.990154 5.71417C0.990154 5.71417 0.76918 5.7868 0.538358 5.94499C0.395758 6.03573 0.27305 6.15446 0.17766 6.29399C0.0644027 6.46019 -0.0266951 6.7144 0.00715884 6.97723C0.0625562 7.42164 0.350622 7.68816 0.557439 7.83527C0.766718 7.98423 0.966148 8.05378 0.966148 8.05378H0.971073L3.97669 9.06632C4.11149 9.49904 4.89259 12.067 5.08032 12.6585C5.19112 13.0118 5.29884 13.2328 5.43364 13.4015C5.49888 13.4876 5.57521 13.5597 5.66692 13.6175C5.7146 13.6453 5.76544 13.6672 5.81834 13.6828L5.78756 13.6754C5.7968 13.6778 5.80418 13.6852 5.81095 13.6877C5.83557 13.6945 5.85219 13.6969 5.88359 13.7018C6.35939 13.8459 6.74163 13.5504 6.74163 13.5504L6.76317 13.5332L8.53773 11.9174L11.512 14.1992L11.5797 14.2281C12.1995 14.5002 12.8273 14.3488 13.1591 14.0816C13.4933 13.8126 13.6232 13.4686 13.6232 13.4686L13.6448 13.4132L15.9431 1.63877C16.0084 1.34824 16.025 1.07618 15.953 0.812119C15.8787 0.544874 15.7072 0.315025 15.4722 0.167663C15.2749 0.0477067 15.0461 -0.0101936 14.8155 0.00147151ZM14.7533 1.2633C14.7509 1.30208 14.7582 1.29777 14.741 1.37225V1.37902L12.4642 13.0309C12.4543 13.0475 12.4377 13.0839 12.3922 13.1202C12.3441 13.1583 12.306 13.1823 12.1059 13.1029L8.46818 10.314L6.27075 12.3169L6.7324 9.36855L12.6759 3.82881C12.9209 3.60107 12.839 3.55306 12.839 3.55306C12.8563 3.27361 12.4691 3.47119 12.4691 3.47119L4.97445 8.11411L4.97199 8.10179L1.37978 6.89229V6.88982L1.37055 6.88798C1.37685 6.88589 1.38301 6.88342 1.38901 6.88059L1.40871 6.87074L1.42779 6.86397C1.42779 6.86397 4.6353 5.51228 7.89574 4.13965C9.52812 3.45211 11.1728 2.75964 12.4377 2.22537C13.1879 1.9096 13.9388 1.59569 14.6905 1.28361C14.741 1.26392 14.717 1.26392 14.7533 1.26392V1.2633Z" fill="white"/>
</svg>
