<svg width="16" height="16" viewBox="0 0 16 16" fill="none" xmlns="http://www.w3.org/2000/svg">
<path d="M5.50146 3.75071C5.50146 3.15397 5.73852 2.58167 6.16047 2.15972C6.58243 1.73776 7.15473 1.50071 7.75146 1.50071C8.3482 1.50071 8.9205 1.73776 9.34245 2.15972C9.76441 2.58167 10.0015 3.15397 10.0015 3.75071C10.0015 3.94962 10.0805 4.14038 10.2211 4.28104C10.3618 4.42169 10.5526 4.50071 10.7515 4.50071C10.9504 4.50071 11.1411 4.42169 11.2818 4.28104C11.4224 4.14038 11.5015 3.94962 11.5015 3.75071C11.5016 3.11901 11.3421 2.49752 11.0379 1.94392C10.7336 1.39031 10.2945 0.922535 9.76117 0.583996C9.22785 0.245457 8.61765 0.0471287 7.9872 0.00741789C7.35676 -0.032293 6.7265 0.0879003 6.15491 0.356843C5.58333 0.625786 5.08894 1.03476 4.71764 1.54581C4.34634 2.05687 4.11016 2.65344 4.03101 3.28015C3.95187 3.90687 4.03232 4.54343 4.26491 5.13074C4.4975 5.71806 4.87469 6.23711 5.36146 6.63971L3.08946 10.8977C2.99584 11.0733 2.9758 11.2789 3.03375 11.4692C3.0917 11.6596 3.22289 11.8191 3.39846 11.9127C3.57404 12.0063 3.77961 12.0264 3.96996 11.9684C4.16031 11.9105 4.31984 11.7793 4.41346 11.6037L7.00146 6.75071C7.04785 6.66378 7.07666 6.56856 7.08623 6.4705C7.09581 6.37243 7.08597 6.27344 7.05727 6.17918C7.02857 6.08492 6.98159 5.99724 6.91899 5.92115C6.8564 5.84505 6.77942 5.78204 6.69246 5.73571C6.33272 5.5438 6.03188 5.25775 5.8221 4.90812C5.61233 4.5585 5.5015 4.15844 5.50146 3.75071Z" fill="white"/>
<path d="M7.36546 3.10771C7.44994 3.05687 7.54362 3.02318 7.64114 3.00858C7.73865 2.99398 7.83809 2.99875 7.93375 3.02263C8.02942 3.0465 8.11944 3.089 8.19867 3.14769C8.27789 3.20639 8.34477 3.28014 8.39546 3.36471L11.0035 7.71371C11.5966 7.50474 12.2327 7.44828 12.8534 7.54954C13.474 7.65079 14.0593 7.9065 14.5552 8.29314C15.0512 8.67979 15.4419 9.18494 15.6915 9.76214C15.9411 10.3393 16.0416 10.97 15.9836 11.5962C15.9257 12.2224 15.7112 12.824 15.3599 13.3455C15.0086 13.8671 14.5317 14.292 13.9732 14.581C13.4147 14.8701 12.7925 15.014 12.1638 14.9996C11.5351 14.9852 10.9202 14.813 10.3755 14.4987C10.2032 14.399 10.0776 14.2349 10.0263 14.0426C9.97503 13.8503 10.0022 13.6455 10.102 13.4732C10.2017 13.3009 10.3658 13.1754 10.5581 13.1241C10.7504 13.0728 10.9552 13.1 11.1275 13.1997C11.4709 13.3976 11.8606 13.5011 12.257 13.5C12.6534 13.4989 13.0424 13.393 13.3848 13.1932C13.7271 12.9934 14.0106 12.7067 14.2065 12.3621C14.4024 12.0175 14.5038 11.6273 14.5004 11.2309C14.497 10.8345 14.389 10.4461 14.1873 10.1049C13.9855 9.76365 13.6972 9.48179 13.3515 9.28782C13.0059 9.09385 12.6151 8.99464 12.2187 9.00024C11.8224 9.00584 11.4345 9.11605 11.0945 9.31971C11.01 9.37059 10.9164 9.40434 10.8189 9.41901C10.7215 9.43368 10.6221 9.429 10.5264 9.40522C10.4307 9.38144 10.3407 9.33904 10.2614 9.28044C10.1822 9.22184 10.1152 9.14819 10.0645 9.06371L7.10846 4.13671C7.05762 4.05222 7.02394 3.95855 7.00934 3.86103C6.99474 3.76352 6.99951 3.66408 7.02338 3.56842C7.04725 3.47275 7.08975 3.38273 7.14845 3.3035C7.20715 3.22428 7.28089 3.1574 7.36546 3.10671V3.10771Z" fill="white"/>
<path d="M2.90146 8.27671C3.00071 8.44898 3.0275 8.65361 2.97593 8.84563C2.92437 9.03765 2.79867 9.20133 2.62646 9.30071C2.28447 9.49815 2.00047 9.78213 1.803 10.1241C1.60552 10.4661 1.50153 10.854 1.50146 11.2489C1.5014 11.6438 1.60527 12.0318 1.80264 12.3738C2 12.7158 2.28391 12.9999 2.62584 13.1975C2.96777 13.395 3.35567 13.4991 3.75056 13.4993C4.14546 13.4994 4.53344 13.3956 4.87553 13.1984C5.21761 13.0011 5.50175 12.7172 5.69939 12.3754C5.89703 12.0335 6.00121 11.6456 6.00146 11.2507C6.00133 11.1521 6.02063 11.0545 6.05827 10.9634C6.0959 10.8723 6.15112 10.7895 6.22078 10.7197C6.29044 10.65 6.37316 10.5946 6.46422 10.5569C6.55528 10.5191 6.65289 10.4997 6.75146 10.4997H12.2515C12.4504 10.4997 12.6411 10.5787 12.7818 10.7194C12.9224 10.86 13.0015 11.0508 13.0015 11.2497C13.0015 11.4486 12.9224 11.6394 12.7818 11.78C12.6411 11.9207 12.4504 11.9997 12.2515 11.9997H7.42646C7.30136 12.6136 7.02446 13.1864 6.62105 13.6658C6.21764 14.1452 5.70057 14.516 5.11705 14.7441C4.53353 14.9723 3.90214 15.0507 3.28054 14.9721C2.65894 14.8935 2.06693 14.6605 1.55855 14.2943C1.05017 13.9281 0.641627 13.4403 0.370214 12.8756C0.0987996 12.3109 -0.0268354 11.6872 0.00477858 11.0615C0.0363926 10.4357 0.224249 9.82784 0.551195 9.29337C0.878142 8.75889 1.33376 8.31482 1.87646 8.00171C2.04862 7.90237 2.25316 7.87543 2.44516 7.92681C2.63716 7.97818 2.80092 8.10367 2.90046 8.27571L2.90146 8.27671Z" fill="white"/>
</svg>
