<svg width="20" height="20" viewBox="0 0 20 15" fill="none" xmlns="http://www.w3.org/2000/svg">
<ellipse cx="10" cy="7.5" rx="3" ry="2.5" fill="#74B5FF"/>
<path d="M9.99973 14.707C10.9457 14.707 11.8097 14.604 12.5977 14.426L10.8407 12.669C10.5677 12.69 10.2907 12.707 9.99973 12.707C4.64874 12.707 2.57573 8.86103 2.07373 7.70703C2.45068 6.86584 2.95978 6.09037 3.58173 5.41003L2.18373 4.01203C0.645735 5.67903 0.0627348 7.35803 0.0517348 7.39103C-0.0172449 7.59639 -0.0172449 7.81867 0.0517348 8.02403C0.0727348 8.09003 2.36673 14.707 9.99973 14.707ZM9.99973 0.707031C8.16273 0.707031 6.65373 1.10303 5.39573 1.68803L16.3877 12.681C19.0017 10.73 19.9347 8.06603 19.9487 8.02403C20.0177 7.81867 20.0177 7.59639 19.9487 7.39103C19.9267 7.32403 17.6327 0.707031 9.99973 0.707031ZM14.9717 11.265C12.9106 9.20356 9.57247 5.86515 7 3.29244C7.99252 2.95185 8.95044 2.69803 9.99973 2.70703C15.3507 2.70703 17.4237 6.55303 17.9257 7.70703C17.6237 8.39903 16.7597 10.049 14.9717 11.265Z" fill="#74B5FF"/>
</svg>
