<svg width="37" height="40" viewBox="0 0 37 40" fill="none" xmlns="http://www.w3.org/2000/svg">
<path d="M33.2076 10.3583H29.0385C30.014 8.93238 30.3898 7.19111 30.087 5.49924C29.7842 3.80738 28.8264 2.29618 27.4143 1.2822C26.0021 0.268216 24.2451 -0.169883 22.5113 0.0596677C20.7775 0.289219 19.2014 1.16861 18.1132 2.51364C17.025 1.16861 15.4489 0.289219 13.7151 0.0596677C11.9813 -0.169883 10.2243 0.268216 8.81217 1.2822C7.39999 2.29618 6.44221 3.80738 6.13943 5.49924C5.83666 7.19111 6.21239 8.93238 7.18793 10.3583H3.01887C2.21846 10.3591 1.45106 10.6716 0.885089 11.2274C0.319115 11.7831 0.00079921 12.5366 0 13.3225V19.2508C0.00079921 20.0367 0.319115 20.7902 0.885089 21.3459C1.45106 21.9017 2.21846 22.2142 3.01887 22.215V37.0358C3.01967 37.8217 3.33798 38.5752 3.90396 39.1309C4.46993 39.6867 5.23733 39.9992 6.03774 40H30.1887C30.9891 39.9992 31.7565 39.6867 32.3225 39.1309C32.8884 38.5752 33.2068 37.8217 33.2076 37.0358V22.215C34.008 22.2142 34.7754 21.9017 35.3413 21.3459C35.9073 20.7902 36.2256 20.0367 36.2264 19.2508V13.3225C36.2256 12.5366 35.9073 11.7831 35.3413 11.2274C34.7754 10.6716 34.008 10.3591 33.2076 10.3583ZM19.6226 6.6531C19.6226 5.92028 19.844 5.20392 20.2586 4.5946C20.6733 3.98528 21.2626 3.51037 21.9521 3.22993C22.6417 2.94949 23.4004 2.87612 24.1324 3.01909C24.8644 3.16205 25.5368 3.51494 26.0646 4.03312C26.5923 4.5513 26.9517 5.21151 27.0973 5.93025C27.2429 6.64899 27.1682 7.39399 26.8826 8.07102C26.597 8.74806 26.1133 9.32674 25.4927 9.73387C24.8722 10.141 24.1426 10.3583 23.3962 10.3583H19.6226V6.6531ZM12.8302 2.94789C13.8306 2.94907 14.7898 3.33981 15.4972 4.03442C16.2046 4.72903 16.6026 5.67078 16.6038 6.6531V10.3583H12.8302C11.8294 10.3583 10.8695 9.96794 10.1619 9.27308C9.45418 8.57822 9.0566 7.63578 9.0566 6.6531C9.0566 5.67042 9.45418 4.72798 10.1619 4.03312C10.8695 3.33826 11.8294 2.94789 12.8302 2.94789ZM3.01887 13.3225H16.6038V19.2508H3.01887V13.3225ZM6.03774 22.215H16.6038V37.0358H6.03774V22.215ZM30.1902 37.0358H19.6226V22.215H30.1887L30.1902 37.0358ZM19.6226 19.2508V13.3225H33.2076L33.2091 19.2508H19.6226Z" fill="url(#paint0_linear_57639_14)"/>
<defs>
<linearGradient id="paint0_linear_57639_14" x1="0" y1="20" x2="38.8901" y2="20" gradientUnits="userSpaceOnUse">
<stop stop-color="#FF27A4"/>
<stop offset="1" stop-color="#8BC1FF"/>
</linearGradient>
</defs>
</svg>
