<svg width="42" height="40" viewBox="0 0 42 40" fill="none" xmlns="http://www.w3.org/2000/svg">
<path d="M8.6981 0C8.23672 0 7.79424 0.17555 7.468 0.488033C7.14176 0.800515 6.95848 1.22433 6.95848 1.66625V2.74265C2.95039 3.77572 0 7.27485 0 11.4405V11.7537C0 15.4261 2.25107 18.752 5.7477 20.2549L6.95848 20.7748V33.6882C4.90573 32.7985 3.47924 30.8223 3.47924 28.5229V26.1135C3.47924 25.6716 3.29596 25.2477 2.96972 24.9353C2.64347 24.6228 2.201 24.4472 1.73962 24.4472C1.27824 24.4472 0.835765 24.6228 0.509523 24.9353C0.183281 25.2477 0 25.6716 0 26.1135V28.5195C0 32.6852 2.95387 36.1843 6.95848 37.2174V38.3338C6.95848 38.7757 7.14176 39.1995 7.468 39.512C7.79424 39.8244 8.23672 40 8.6981 40C9.15947 40 9.60195 39.8244 9.92819 39.512C10.2544 39.1995 10.4377 38.7757 10.4377 38.3338V37.4673C12.7358 37.2214 14.8586 36.1728 16.4004 34.5221C17.9421 32.8714 18.7946 30.7344 18.7948 28.5195V28.2263C18.7951 26.433 18.254 24.678 17.2367 23.1726C16.2194 21.6672 14.7692 20.4757 13.0611 19.7417L10.4377 18.6153V5.85853C11.8058 6.09319 13.0442 6.7813 13.936 7.80241C14.8278 8.82352 15.3161 10.1125 15.3156 11.4438V13.8899C15.3156 14.3318 15.4989 14.7556 15.8251 15.0681C16.1514 15.3806 16.5939 15.5561 17.0552 15.5561C17.5166 15.5561 17.9591 15.3806 18.2853 15.0681C18.6116 14.7556 18.7948 14.3318 18.7948 13.8899V11.4438C18.7955 9.22839 17.9433 7.09051 16.4015 5.43911C14.8597 3.7877 12.7364 2.73869 10.4377 2.49271V1.66625C10.4377 1.22433 10.2544 0.800515 9.92819 0.488033C9.60195 0.17555 9.15947 0 8.6981 0ZM3.47924 11.4405C3.47924 9.14105 4.90573 7.16488 6.95848 6.2751V17.1191C4.83614 16.1126 3.47924 14.0365 3.47924 11.7537V11.4405ZM10.4377 34.1015V22.2711L11.6381 22.7843C12.7335 23.2553 13.6635 24.0195 14.316 24.9851C14.9684 25.9506 15.3156 27.0762 15.3156 28.2263V28.5195C15.3156 31.3122 13.2107 33.6316 10.4377 34.1048V34.1015ZM24.5982 23.3208C24.4325 22.2171 24.3488 21.1034 24.3477 19.9883H22.6011C22.1398 19.9883 21.6973 19.8128 21.371 19.5003C21.0448 19.1878 20.8615 18.764 20.8615 18.3221C20.8615 17.8802 21.0448 17.4564 21.371 17.1439C21.6973 16.8314 22.1398 16.6558 22.6011 16.6558H24.5913C25.0575 13.5233 26.1743 10.684 27.7748 8.43123C29.918 5.41531 33.0632 3.30917 36.7512 3.30917C38.1464 3.30917 39.7086 3.68908 40.9715 4.50221C41.3545 4.74968 41.6191 5.13273 41.7072 5.56708C41.7952 6.00143 41.6996 6.4515 41.4412 6.81829C41.1828 7.18509 40.7829 7.43855 40.3295 7.52292C39.876 7.60729 39.4061 7.51566 39.0231 7.26818C38.3431 6.85747 37.5552 6.64021 36.7512 6.64167C34.5523 6.64167 32.3674 7.89469 30.6486 10.3074C29.4518 11.9903 28.5472 14.1731 28.1123 16.6558H29.5631C30.0245 16.6558 30.4669 16.8314 30.7932 17.1439C31.1194 17.4564 31.3027 17.8802 31.3027 18.3221C31.3027 18.764 31.1194 19.1878 30.7932 19.5003C30.4669 19.8128 30.0245 19.9883 29.5631 19.9883H27.827C27.827 21.1414 27.9313 22.2578 28.1157 23.3208H29.5631C30.0245 23.3208 30.4669 23.4964 30.7932 23.8089C31.1194 24.1214 31.3027 24.5452 31.3027 24.9871C31.3027 25.429 31.1194 25.8528 30.7932 26.1653C30.4669 26.4778 30.0245 26.6533 29.5631 26.6533H29.0447C29.4865 27.7664 30.0293 28.7728 30.6486 29.6493C32.3639 32.062 34.5523 33.315 36.7512 33.315C37.6001 33.315 38.4352 33.1017 38.9953 32.7218C39.3714 32.482 39.8302 32.3917 40.2745 32.4701C40.7189 32.5485 41.114 32.7894 41.3762 33.1419C41.6384 33.4943 41.7471 33.9307 41.6794 34.3586C41.6116 34.7864 41.3728 35.1723 41.0133 35.4345C39.7051 36.3276 38.0977 36.6475 36.7512 36.6475C33.0632 36.6475 29.918 34.5414 27.7748 31.5255C26.7263 30.0246 25.9172 28.3826 25.3741 26.6533H22.6011C22.1398 26.6533 21.6973 26.4778 21.371 26.1653C21.0448 25.8528 20.8615 25.429 20.8615 24.9871C20.8615 24.5452 21.0448 24.1214 21.371 23.8089C21.6973 23.4964 22.1398 23.3208 22.6011 23.3208H24.5947H24.5982Z" fill="url(#paint0_linear_57641_29)"/>
<defs>
<linearGradient id="paint0_linear_57641_29" x1="0" y1="20" x2="44.8082" y2="20" gradientUnits="userSpaceOnUse">
<stop stop-color="#FF27A4"/>
<stop offset="1" stop-color="#8BC1FF"/>
</linearGradient>
</defs>
</svg>
