<svg width="33" height="40" viewBox="0 0 33 40" fill="none" xmlns="http://www.w3.org/2000/svg">
<path d="M29.3377 27.3047L22.8948 23.3602L24.0685 21.3333H26.1413C26.844 21.3333 27.5358 21.1691 28.1545 20.8553C28.7733 20.5415 29.2997 20.0879 29.6866 19.5353C30.0734 18.9827 30.3087 18.3483 30.3711 17.689C30.4336 17.0297 30.3214 16.3661 30.0446 15.7577L25.6202 6.21419C24.9354 4.39637 23.6698 2.82294 21.9971 1.71019C20.3244 0.597439 18.3269 0 16.2791 0C14.2313 0 12.2337 0.597439 10.5611 1.71019C8.88839 2.82294 7.6227 4.39637 6.93799 6.21419L2.51353 15.7577C2.23671 16.3661 2.12451 17.0297 2.18699 17.689C2.24948 18.3483 2.4847 18.9827 2.87156 19.5353C3.25842 20.0879 3.78483 20.5415 4.40359 20.8553C5.02235 21.1691 5.71413 21.3333 6.41688 21.3333H8.48963L9.66332 23.3602L3.22043 27.3047C2.23025 27.9084 1.41662 28.7365 0.854018 29.713C0.291411 30.6895 -0.00221306 31.7833 1.25586e-05 32.8943V40H32.5581V32.8943C32.5603 31.7833 32.2667 30.6895 31.7041 29.713C31.1415 28.7365 30.3279 27.9085 29.3377 27.3047ZM29.727 37.3333H2.83115V32.8943C2.82983 32.2277 3.00602 31.5714 3.3436 30.9855C3.68118 30.3996 4.16937 29.9028 4.76349 29.5405L13.4038 24.2506L10.1703 18.6667H6.41688C6.1829 18.6667 5.95256 18.612 5.74648 18.5077C5.54041 18.4033 5.36501 18.2524 5.23599 18.0686C5.10697 17.8847 5.02835 17.6736 5.00715 17.4541C4.98596 17.2346 5.02286 17.0136 5.11456 16.8109L9.55343 7.23586L9.59307 7.14061C10.0767 5.83348 10.9802 4.70049 12.1782 3.89877C13.3763 3.09705 14.8095 2.66632 16.2791 2.66632C17.7487 2.66632 19.1819 3.09705 20.3799 3.89877C21.5779 4.70049 22.4814 5.83348 22.9651 7.14061L22.9828 7.18894L27.4436 16.8109C27.5353 17.0136 27.5722 17.2346 27.551 17.4541C27.5298 17.6736 27.4512 17.8847 27.3222 18.0686C27.1931 18.2524 27.0177 18.4033 26.8117 18.5077C26.6056 18.612 26.3752 18.6667 26.1413 18.6667H22.3879L19.1544 24.2506L27.7948 29.5405C28.3889 29.9028 28.8771 30.3996 29.2146 30.9855C29.5522 31.5714 29.7283 32.2277 29.727 32.8943V37.3333Z" fill="url(#paint0_linear_57641_41)"/>
<defs>
<linearGradient id="paint0_linear_57641_41" x1="0" y1="20" x2="34.9521" y2="20" gradientUnits="userSpaceOnUse">
<stop stop-color="#FF27A4"/>
<stop offset="1" stop-color="#8BC1FF"/>
</linearGradient>
</defs>
</svg>
