<svg width="40" height="35" viewBox="0 0 40 35" fill="none" xmlns="http://www.w3.org/2000/svg">
<path d="M35.7568 0H3.97297C1.76797 0 0.0198648 1.77165 0.0198648 3.98123L0 27.8686C0 30.0782 1.76797 31.8498 3.97297 31.8498H11.9189C13.0115 31.8498 13.9054 30.9541 13.9054 29.8592C13.9054 28.7644 13.0115 27.8686 11.9189 27.8686H3.97297V15.9249H39.7297V3.98123C39.7297 1.79155 37.9419 0 35.7568 0ZM35.7568 10.8003H3.97297V3.98123H35.7568V10.8003ZM25.6853 30.1976L21.4739 25.9775C21.29 25.7932 21.0717 25.647 20.8314 25.5473C20.5911 25.4476 20.3335 25.3962 20.0734 25.3962C19.8134 25.3962 19.5558 25.4476 19.3155 25.5473C19.0752 25.647 18.8569 25.7932 18.673 25.9775C18.4891 26.1618 18.3432 26.3806 18.2436 26.6214C18.1441 26.8622 18.0929 27.1203 18.0929 27.3809C18.0929 27.6415 18.1441 27.8996 18.2436 28.1404C18.3432 28.3812 18.4891 28.6 18.673 28.7843L24.2947 34.4177C25.0695 35.1941 26.3209 35.1941 27.0957 34.4177L38.3392 23.1509C38.7106 22.7787 38.9193 22.2738 38.9193 21.7475C38.9193 21.2211 38.7106 20.7163 38.3392 20.3441C37.9678 19.9719 37.464 19.7628 36.9387 19.7628C36.4134 19.7628 35.9097 19.9719 35.5382 20.3441L25.6853 30.1976Z" fill="url(#paint0_linear_57641_47)"/>
<defs>
<linearGradient id="paint0_linear_57641_47" x1="0" y1="17.5" x2="42.651" y2="17.5" gradientUnits="userSpaceOnUse">
<stop stop-color="#FF27A4"/>
<stop offset="1" stop-color="#8BC1FF"/>
</linearGradient>
</defs>
</svg>
