<svg width="22" height="24" viewBox="0 0 22 24" fill="none" xmlns="http://www.w3.org/2000/svg">
<path fill-rule="evenodd" clip-rule="evenodd" d="M20.2894 6.74931V16.4983H18.7287V6.74931H15.6073C14.9864 6.74931 14.3909 6.51228 13.9519 6.09037C13.5128 5.66845 13.2662 5.09621 13.2662 4.49954V1.49985H4.68218C4.26825 1.49985 3.87127 1.65787 3.57858 1.93914C3.28589 2.22042 3.12145 2.60191 3.12145 2.99969V16.4983H1.56073V2.99969C1.56073 2.20412 1.88959 1.44114 2.47498 0.87859C3.06036 0.316038 3.85432 0 4.68218 0L13.2662 0L20.2894 6.74931ZM9.61564 21.2798V20.4969C9.62682 20.1676 9.56456 19.8398 9.43303 19.5355C9.32943 19.2982 9.15443 19.0961 8.93048 18.9551C8.71087 18.8244 8.45676 18.7572 8.1985 18.7616C7.93909 18.7576 7.68395 18.8253 7.46339 18.9566C7.24128 19.0981 7.06755 19.2995 6.96396 19.5355C6.83243 19.8398 6.77017 20.1676 6.78136 20.4969V21.2798C6.78136 21.6638 6.84379 21.9847 6.96396 22.2412C7.06729 22.4778 7.24104 22.6797 7.46339 22.8217C7.68512 22.9497 7.93986 23.0152 8.1985 23.0106C8.45614 23.0151 8.70986 22.9496 8.93048 22.8217C9.15419 22.681 9.32917 22.4794 9.43303 22.2427C9.56431 21.9378 9.62656 21.6096 9.61564 21.2798ZM10.8689 20.5059V21.2753C10.8689 21.8378 10.7628 22.3252 10.549 22.7347C10.347 23.1292 10.0268 23.4567 9.62968 23.6751C9.23326 23.8911 8.75568 23.999 8.1985 23.999C7.69883 24.0116 7.20425 23.9001 6.76263 23.6751C6.36506 23.4572 6.04479 23.1296 5.84336 22.7347C5.61957 22.2789 5.50999 21.7791 5.52341 21.2753V20.5059C5.52341 19.9375 5.6311 19.45 5.84336 19.0435C6.05718 18.6326 6.36308 18.3191 6.76419 18.1031C7.1653 17.8827 7.64444 17.7732 8.20006 17.7732C8.75724 17.7732 9.23326 17.8827 9.62968 18.1031C10.0292 18.3221 10.3351 18.6371 10.5505 19.048C10.7628 19.4545 10.8689 19.9405 10.8689 20.5059ZM0 23.8851V17.8872H2.2771C2.91076 17.8872 3.4336 18.0042 3.84563 18.2396C4.25766 18.4736 4.56356 18.8126 4.7649 19.2595C4.96779 19.7035 5.0708 20.2419 5.0708 20.8704C5.0708 21.5033 4.96935 22.0462 4.7649 22.4962C4.56044 22.9476 4.24986 23.2911 3.83627 23.5296C3.42423 23.7666 2.90451 23.8851 2.2771 23.8851H0ZM2.11322 18.8546H1.23297V22.9146H2.11166C2.4004 22.9146 2.65167 22.8727 2.86549 22.7917C3.07107 22.7123 3.25098 22.5819 3.38678 22.4137C3.52412 22.2427 3.62557 22.0327 3.69268 21.7808C3.76797 21.4905 3.80365 21.192 3.79881 20.8929C3.79881 20.4429 3.73638 20.0649 3.61464 19.7635C3.51406 19.4839 3.31973 19.2444 3.06215 19.0825C2.81555 18.9296 2.49872 18.8546 2.1101 18.8546H2.11322ZM12.6575 20.5284C12.6575 20.1564 12.7106 19.8385 12.8182 19.579C12.9107 19.3401 13.074 19.1326 13.288 18.9821C13.5068 18.8408 13.7659 18.7685 14.0294 18.7751C14.2635 18.7751 14.4711 18.8231 14.6505 18.9206C14.827 19.0107 14.9744 19.1455 15.0766 19.3105C15.1854 19.484 15.2496 19.6799 15.2639 19.882H16.4579V19.7725C16.4475 19.4962 16.3775 19.225 16.2523 18.9761C16.1271 18.7272 15.9494 18.506 15.7306 18.3266C15.5059 18.1438 15.2461 18.0052 14.9658 17.9187C14.6613 17.8195 14.3415 17.7703 14.02 17.7732C13.4659 17.7732 12.9899 17.8842 12.5982 18.1076C12.208 18.3296 11.9115 18.6461 11.707 19.057C11.5026 19.4665 11.3995 19.957 11.3995 20.5239V21.2708C11.3995 21.8393 11.501 22.3267 11.7023 22.7347C11.9052 23.1411 12.2033 23.4546 12.5935 23.6751C12.9837 23.8911 13.4597 23.999 14.02 23.999C14.4773 23.999 14.8862 23.918 15.2452 23.7531C15.6041 23.5881 15.8913 23.3631 16.1051 23.0721C16.3205 22.7743 16.4428 22.4236 16.4579 22.0612V21.9473H15.2639C15.2498 22.1407 15.1872 22.3281 15.0813 22.4932C14.9765 22.6516 14.8293 22.7801 14.6552 22.8652C14.4605 22.9563 14.2459 23.0015 14.0294 22.9971C13.7658 23.0048 13.506 22.9363 13.2833 22.8007C13.07 22.6537 12.9079 22.4483 12.8182 22.2112C12.7036 21.9102 12.6491 21.5912 12.6575 21.2708V20.5284ZM20.6047 17.8887H22L20.0101 20.8974L21.9672 23.8851H20.5501L19.2235 21.7628H19.1688L17.8391 23.8851H16.4938L18.4291 20.8629L16.5125 17.8872H17.9671L19.2656 20.0454H19.3202L20.6047 17.8872V17.8887Z" fill="white"/>
</svg>
