<svg width="34" height="34" viewBox="0 0 34 34" fill="none" xmlns="http://www.w3.org/2000/svg">
<path d="M17 34H25.5V30.6H17C9.622 30.6 3.4 24.378 3.4 17C3.4 9.622 9.622 3.4 17 3.4C24.378 3.4 30.6 9.622 30.6 17V19.431C30.6 20.774 29.393 22.1 28.05 22.1C26.707 22.1 25.5 20.774 25.5 19.431V17C25.5 12.308 21.692 8.5 17 8.5C12.308 8.5 8.5 12.308 8.5 17C8.5 21.692 12.308 25.5 17 25.5C19.346 25.5 21.488 24.548 23.018 23.001C24.123 24.514 26.027 25.5 28.05 25.5C31.399 25.5 34 22.78 34 19.431V17C34 7.616 26.384 0 17 0C7.616 0 0 7.616 0 17C0 26.384 7.616 34 17 34ZM17 22.1C14.178 22.1 11.9 19.822 11.9 17C11.9 14.178 14.178 11.9 17 11.9C19.822 11.9 22.1 14.178 22.1 17C22.1 19.822 19.822 22.1 17 22.1Z" fill="url(#paint0_linear_57469_508)"/>
<defs>
<linearGradient id="paint0_linear_57469_508" x1="0" y1="17" x2="36.5" y2="17" gradientUnits="userSpaceOnUse">
<stop stop-color="#FF27A4"/>
<stop offset="1" stop-color="#8BC1FF"/>
</linearGradient>
</defs>
</svg>
