<svg width="30" height="30" viewBox="0 0 30 30" fill="none" xmlns="http://www.w3.org/2000/svg">
<circle cx="15" cy="15" r="14.5" stroke="#99CCFF"/>
<path fill-rule="evenodd" clip-rule="evenodd" d="M15 9C14.7727 9 14.5547 9.08559 14.394 9.23795C14.2333 9.3903 14.143 9.59695 14.143 9.81241L14.143 19.225L10.4648 15.7365C10.3851 15.661 10.2905 15.601 10.1864 15.5602C10.0823 15.5193 9.97075 15.4982 9.85807 15.4982C9.74539 15.4982 9.63381 15.5193 9.5297 15.5602C9.4256 15.601 9.331 15.661 9.25132 15.7365C9.17164 15.812 9.10844 15.9017 9.06532 16.0004C9.02219 16.0991 9 16.2049 9 16.3117C9 16.4185 9.02219 16.5243 9.06532 16.623C9.10844 16.7217 9.17164 16.8113 9.25132 16.8869L14.3933 21.7613C14.4729 21.837 14.5674 21.897 14.6715 21.938C14.7757 21.9789 14.8873 22 15 22C15.1127 22 15.2243 21.9789 15.3285 21.938C15.4326 21.897 15.5271 21.837 15.6067 21.7613L20.7487 16.8869C20.9096 16.7343 21 16.5274 21 16.3117C21 16.0959 20.9096 15.889 20.7487 15.7365C20.5878 15.5839 20.3695 15.4982 20.1419 15.4982C19.9144 15.4982 19.6961 15.5839 19.5352 15.7365L15.857 19.225L15.857 9.81241C15.857 9.59695 15.7667 9.3903 15.606 9.23795C15.4453 9.08559 15.2273 9 15 9Z" fill="#99CCFF"/>
</svg>
