<svg width="40" height="40" viewBox="0 0 40 40" fill="none" xmlns="http://www.w3.org/2000/svg">
<path d="M39.9374 20.9656L35.7562 2.08951C35.6025 1.39936 35.1813 0.798363 34.585 0.418366C33.9888 0.0383688 33.2661 -0.089592 32.5756 0.0625569L13.6997 4.2438C13.3578 4.31954 13.0341 4.46189 12.7472 4.66272C12.4602 4.86355 12.2157 5.11893 12.0275 5.41428C11.8393 5.70962 11.7111 6.03915 11.6502 6.38405C11.5894 6.72894 11.597 7.08244 11.6728 7.42437L13.4246 15.3329H2.66672C1.9597 15.3336 1.28188 15.6149 0.781941 16.1148C0.282006 16.6147 0.000794052 17.2926 0 17.9996V37.3333C0.000794052 38.0403 0.282006 38.7181 0.781941 39.2181C1.28188 39.718 1.9597 39.9992 2.66672 40H22.0004C22.7074 39.9992 23.3853 39.718 23.8852 39.2181C24.3851 38.7181 24.6664 38.0403 24.6671 37.3333V27.0795L37.9105 24.1461C38.6006 23.9924 39.2016 23.5712 39.5816 22.975C39.9616 22.3787 40.0896 21.6561 39.9374 20.9656ZM2.66672 37.3333V17.9996H14.0154L15.854 26.3002C15.9853 26.892 16.3141 27.4215 16.7864 27.8015C17.2586 28.1816 17.8462 28.3896 18.4524 28.3913C18.6481 28.3911 18.8433 28.3696 19.0344 28.3272L22.0011 27.67L22.0021 37.3333H2.66672ZM37.3341 21.5424L18.4576 25.7236L14.2764 6.84736L33.1526 2.66594L37.3355 21.5417L37.3341 21.5424Z" fill="url(#paint0_linear_57641_39)"/>
<path d="M5.33344 20.6663H8.66684V23.9997H5.33344V20.6663Z" fill="url(#paint1_linear_57641_39)"/>
<path d="M5.33344 31.3332H8.66684V34.6666H5.33344V31.3332Z" fill="url(#paint2_linear_57641_39)"/>
<path d="M16.0003 31.3332H19.3337V34.6666H16.0003V31.3332Z" fill="url(#paint3_linear_57641_39)"/>
<path d="M10.6669 25.9997H14.0003V29.3331H10.6669V25.9997Z" fill="url(#paint4_linear_57641_39)"/>
<path d="M17.455 8.87998L20.7096 8.15963L21.4299 11.4143L18.1754 12.1346L17.455 8.87998Z" fill="url(#paint5_linear_57641_39)"/>
<path d="M30.1779 16.9821L33.4325 16.2612L34.1533 19.5158L30.8988 20.2366L30.1779 16.9821Z" fill="url(#paint6_linear_57641_39)"/>
<path d="M23.8175 12.9279L27.0719 12.207L27.7928 15.4615L24.5384 16.1824L23.8175 12.9279Z" fill="url(#paint7_linear_57641_39)"/>
<defs>
<linearGradient id="paint0_linear_57641_39" x1="0" y1="20" x2="42.9412" y2="20" gradientUnits="userSpaceOnUse">
<stop stop-color="#FF27A4"/>
<stop offset="1" stop-color="#8BC1FF"/>
</linearGradient>
<linearGradient id="paint1_linear_57641_39" x1="0" y1="20" x2="42.9412" y2="20" gradientUnits="userSpaceOnUse">
<stop stop-color="#FF27A4"/>
<stop offset="1" stop-color="#8BC1FF"/>
</linearGradient>
<linearGradient id="paint2_linear_57641_39" x1="0" y1="20" x2="42.9412" y2="20" gradientUnits="userSpaceOnUse">
<stop stop-color="#FF27A4"/>
<stop offset="1" stop-color="#8BC1FF"/>
</linearGradient>
<linearGradient id="paint3_linear_57641_39" x1="0" y1="20" x2="42.9412" y2="20" gradientUnits="userSpaceOnUse">
<stop stop-color="#FF27A4"/>
<stop offset="1" stop-color="#8BC1FF"/>
</linearGradient>
<linearGradient id="paint4_linear_57641_39" x1="0" y1="20" x2="42.9412" y2="20" gradientUnits="userSpaceOnUse">
<stop stop-color="#FF27A4"/>
<stop offset="1" stop-color="#8BC1FF"/>
</linearGradient>
<linearGradient id="paint5_linear_57641_39" x1="0" y1="20" x2="42.9412" y2="20" gradientUnits="userSpaceOnUse">
<stop stop-color="#FF27A4"/>
<stop offset="1" stop-color="#8BC1FF"/>
</linearGradient>
<linearGradient id="paint6_linear_57641_39" x1="0" y1="20" x2="42.9412" y2="20" gradientUnits="userSpaceOnUse">
<stop stop-color="#FF27A4"/>
<stop offset="1" stop-color="#8BC1FF"/>
</linearGradient>
<linearGradient id="paint7_linear_57641_39" x1="0" y1="20" x2="42.9412" y2="20" gradientUnits="userSpaceOnUse">
<stop stop-color="#FF27A4"/>
<stop offset="1" stop-color="#8BC1FF"/>
</linearGradient>
</defs>
</svg>
