<svg width="24" height="15" viewBox="0 0 24 15" fill="none" xmlns="http://www.w3.org/2000/svg">
<path d="M24 12.4453H0V14.0016H24V12.4453Z" fill="#2A2874"/>
<path d="M24 10.8887H0V12.4449H24V10.8887Z" fill="white"/>
<path d="M24 9.33301H0V10.8893H24V9.33301Z" fill="#2A2874"/>
<path d="M24 7.77637H0V9.33262H24V7.77637Z" fill="white"/>
<path d="M24 6.2207H0V7.77695H24V6.2207Z" fill="#2A2874"/>
<path d="M24 4.66406H0V6.22031H24V4.66406Z" fill="white"/>
<path d="M24 3.10742H0V4.66367H24V3.10742Z" fill="#2A2874"/>
<path d="M24 1.55176H0V3.10801H24V1.55176Z" fill="white"/>
<path d="M24 0H0V1.55625H24V0Z" fill="#2A2874"/>
<path d="M7.77656 0H0V7.77656H7.77656V0Z" fill="#2A2874"/>
<path d="M7.77656 3.10742H0V4.66367H7.77656V3.10742Z" fill="white"/>
<path d="M4.66929 0H3.11304V7.77656H4.66929V0Z" fill="white"/>
</svg>
