<svg width="40" height="40" viewBox="0 0 40 40" fill="none" xmlns="http://www.w3.org/2000/svg">
<path d="M19.3427 6.66882e-06C19.0965 -0.00065009 18.8527 0.0472085 18.625 0.14085C18.3973 0.234491 18.1903 0.372082 18.0158 0.545766C17.8412 0.719449 17.7026 0.925824 17.6078 1.15311C17.513 1.38039 17.4638 1.62413 17.4632 1.87042C17.4625 2.1167 17.5104 2.3607 17.604 2.58849C17.6976 2.81627 17.8351 3.02338 18.0087 3.198C18.1823 3.37261 18.3886 3.5113 18.6157 3.60616C18.8429 3.70101 19.0866 3.75017 19.3327 3.75083L26.231 3.77083V6.89652C26.231 8.28682 25.7561 9.35956 25.0363 10.0797C24.3165 10.7999 23.2467 11.28 21.8596 11.28C21.3624 11.28 20.8856 11.4776 20.5341 11.8293C20.1825 12.181 19.9851 12.658 19.9851 13.1554C19.9851 13.6528 20.1825 14.1298 20.5341 14.4815C20.8856 14.8332 21.3624 15.0308 21.8596 15.0308C24.1465 15.0308 26.201 14.2206 27.6881 12.7303C29.1752 11.2425 29.9825 9.18452 29.9825 6.89402V1.90042C29.9825 1.4039 29.7857 0.927637 29.4353 0.576072C29.0848 0.224508 28.6093 0.0263362 28.113 0.0250121L19.3427 6.66882e-06ZM15.4687 8.68691C15.3269 8.34408 15.0866 8.05105 14.7783 7.84487C14.47 7.63869 14.1075 7.52864 13.7366 7.52864C13.3658 7.52864 13.0033 7.63869 12.695 7.84487C12.3866 8.05105 12.1464 8.34408 12.0046 8.68691L3.76414 28.6313C3.75272 28.6577 3.74189 28.6844 3.73165 28.7113L0.13006 37.4382C-0.0498381 37.8958 -0.0428694 38.4059 0.149464 38.8584C0.341798 39.311 0.704106 39.6698 1.15835 39.8577C1.61259 40.0456 2.12243 40.0475 2.57803 39.8629C3.03363 39.6784 3.39855 39.3222 3.59419 38.871L6.73839 31.2644H20.7349L23.8741 38.8635C24.0697 39.3147 24.4346 39.6709 24.8902 39.8554C25.3458 40.04 25.8557 40.0381 26.3099 39.8502C26.7641 39.6623 27.1265 39.3035 27.3188 38.8509C27.5111 38.3984 27.5181 37.8883 27.3382 37.4307L15.4687 8.68691ZM19.1878 27.516H8.288L13.7366 14.3131L19.1878 27.516ZM34.3639 0.0250121C34.8611 0.0250121 35.3379 0.222599 35.6894 0.574307C36.041 0.926015 36.2385 1.40303 36.2385 1.90042V10.0372H38.1255C38.6226 10.0372 39.0994 10.2348 39.451 10.5865C39.8025 10.9382 40 11.4152 40 11.9126C40 12.41 39.8025 12.887 39.451 13.2387C39.0994 13.5904 38.6226 13.788 38.1255 13.788H36.2385V28.1587C36.2385 28.6561 36.041 29.1331 35.6894 29.4848C35.3379 29.8365 34.8611 30.0341 34.3639 30.0341C33.8668 30.0341 33.39 29.8365 33.0384 29.4848C32.6869 29.1331 32.4894 28.6561 32.4894 28.1587V1.90042C32.4894 1.40303 32.6869 0.926015 33.0384 0.574307C33.39 0.222599 33.8668 0.0250121 34.3639 0.0250121Z" fill="url(#paint0_linear_57641_23)"/>
<defs>
<linearGradient id="paint0_linear_57641_23" x1="0" y1="20" x2="42.9412" y2="20" gradientUnits="userSpaceOnUse">
<stop stop-color="#FF27A4"/>
<stop offset="1" stop-color="#8BC1FF"/>
</linearGradient>
</defs>
</svg>
