<svg width="39" height="35" viewBox="0 0 39 35" fill="none" xmlns="http://www.w3.org/2000/svg">
<path d="M24.5 17.5H27.125V22.435L31.395 24.9025L30.0825 27.1775L24.5 23.9575V17.5ZM38.5 22.75C38.5 25.9989 37.2094 29.1147 34.9121 31.4121C32.6147 33.7094 29.4989 35 26.25 35C21.3675 35 17.15 32.13 15.1725 28H3.5C2.57174 28 1.6815 27.6313 1.02513 26.9749C0.368749 26.3185 0 25.4283 0 24.5V3.5C0 1.5575 1.5575 0 3.5 0H31.5C32.4283 0 33.3185 0.368749 33.9749 1.02513C34.6312 1.6815 35 2.57174 35 3.5V14.175C37.17 16.38 38.5 19.4075 38.5 22.75ZM14 22.75C14 19.32 15.4175 16.2225 17.675 14H3.5V24.5H14.1225C14 23.9225 14 23.345 14 22.75ZM26.25 14C23.9294 14 21.7038 14.9219 20.0628 16.5628C18.4219 18.2038 17.5 20.4294 17.5 22.75C17.5 25.0706 18.4219 27.2962 20.0628 28.9372C21.7038 30.5781 23.9294 31.5 26.25 31.5C28.5706 31.5 30.7962 30.5781 32.4372 28.9372C34.0781 27.2962 35 25.0706 35 22.75C35 20.4294 34.0781 18.2038 32.4372 16.5628C30.7962 14.9219 28.5706 14 26.25 14ZM31.5 8.89189V3.5H3.5V8.89189H31.5Z" fill="url(#paint0_linear_57641_64)"/>
<defs>
<linearGradient id="paint0_linear_57641_64" x1="0" y1="17.5" x2="41.3309" y2="17.5" gradientUnits="userSpaceOnUse">
<stop stop-color="#FF27A4"/>
<stop offset="1" stop-color="#8BC1FF"/>
</linearGradient>
</defs>
</svg>
