<svg width="30" height="30" viewBox="0 0 30 30" fill="none" xmlns="http://www.w3.org/2000/svg">
<path d="M13.5847 15L10.7785 12.2014C10.5978 12.0148 10.4978 11.7648 10.5 11.5053C10.5023 11.2459 10.6067 10.9976 10.7906 10.8142C10.9746 10.6307 11.2235 10.5266 11.4837 10.5244C11.7438 10.5221 11.9945 10.6219 12.1816 10.8021L14.9878 13.6007L17.794 10.8021C17.8855 10.7076 17.995 10.6322 18.1161 10.5803C18.2371 10.5285 18.3673 10.5012 18.4991 10.5C18.6309 10.4989 18.7615 10.5239 18.8835 10.5737C19.0054 10.6235 19.1162 10.6969 19.2094 10.7898C19.3025 10.8828 19.3762 10.9933 19.4261 11.1149C19.476 11.2365 19.5011 11.3668 19.5 11.4982C19.4988 11.6296 19.4714 11.7595 19.4194 11.8802C19.3674 12.0009 19.2918 12.1101 19.1971 12.2014L16.3909 15L19.1971 17.7986C19.2918 17.8899 19.3674 17.9991 19.4194 18.1198C19.4714 18.2405 19.4988 18.3704 19.5 18.5018C19.5011 18.6332 19.476 18.7635 19.4261 18.8851C19.3762 19.0067 19.3025 19.1172 19.2094 19.2102C19.1162 19.3031 19.0054 19.3766 18.8835 19.4263C18.7615 19.4761 18.6309 19.5011 18.4991 19.5C18.3673 19.4988 18.2371 19.4715 18.1161 19.4197C17.995 19.3678 17.8855 19.2924 17.794 19.1979L14.9878 16.3993L12.1816 19.1979C11.9945 19.3782 11.7438 19.4779 11.4837 19.4756C11.2235 19.4734 10.9746 19.3693 10.7906 19.1858C10.6067 19.0024 10.5023 18.7541 10.5 18.4947C10.4978 18.2352 10.5978 17.9852 10.7785 17.7986L13.5847 15Z" fill="#74B5FF"/>
<path d="M15 27.8571C16.6884 27.8571 18.3603 27.5246 19.9202 26.8784C21.4801 26.2323 22.8975 25.2853 24.0914 24.0914C25.2853 22.8975 26.2323 21.4801 26.8785 19.9202C27.5246 18.3603 27.8571 16.6884 27.8571 15C27.8571 13.3116 27.5246 11.6397 26.8785 10.0798C26.2323 8.51988 25.2853 7.10252 24.0914 5.90863C22.8975 4.71473 21.4801 3.76768 19.9202 3.12155C18.3603 2.47542 16.6884 2.14286 15 2.14286C11.5901 2.14286 8.31981 3.49744 5.90863 5.90863C3.49744 8.31981 2.14286 11.5901 2.14286 15C2.14286 18.4099 3.49744 21.6802 5.90863 24.0914C8.31981 26.5026 11.5901 27.8571 15 27.8571ZM15 30C11.0218 30 7.20644 28.4196 4.3934 25.6066C1.58035 22.7936 0 18.9782 0 15C0 11.0218 1.58035 7.20644 4.3934 4.3934C7.20644 1.58035 11.0218 0 15 0C18.9782 0 22.7936 1.58035 25.6066 4.3934C28.4196 7.20644 30 11.0218 30 15C30 18.9782 28.4196 22.7936 25.6066 25.6066C22.7936 28.4196 18.9782 30 15 30Z" fill="#74B5FF"/>
</svg>
