<svg width="23" height="24" viewBox="0 0 23 24" fill="none" xmlns="http://www.w3.org/2000/svg">
<path d="M11.4737 0C5.14709 0 0 5.37536 0 11.9825C0 18.5897 5.14709 23.9651 11.4737 23.9651C17.8003 23.9651 22.9474 18.5897 22.9474 11.9825C22.9474 5.37536 17.8003 0 11.4737 0ZM11.4737 21.5686C6.41264 21.5686 2.29474 17.268 2.29474 11.9825C2.29474 6.69704 6.41264 2.39651 11.4737 2.39651C16.5347 2.39651 20.6526 6.69704 20.6526 11.9825C20.6526 17.268 16.5347 21.5686 11.4737 21.5686Z" fill="#9F9F9F"/>
<path d="M10.3262 10.7842H12.6209V17.9737H10.3262V10.7842ZM10.3262 5.99121H12.6209V8.38772H10.3262V5.99121Z" fill="#9F9F9F"/>
</svg>
