<svg width="10" height="6" viewBox="0 0 10 6" fill="none" xmlns="http://www.w3.org/2000/svg">
<path fill-rule="evenodd" clip-rule="evenodd" d="M1.22068 0.202066C1.15428 0.138152 1.07545 0.0874528 0.9887 0.052863C0.901945 0.0182732 0.808961 0.000469575 0.715058 0.000469574C0.621156 0.000469573 0.528173 0.0182732 0.441418 0.052863C0.354663 0.0874528 0.275835 0.138152 0.209436 0.202066C0.143036 0.26598 0.0903655 0.341856 0.0544301 0.425364C0.0184947 0.508871 -8.952e-07 0.598374 -8.96278e-07 0.688762C-8.97355e-07 0.779149 0.0184947 0.868652 0.0544301 0.95216C0.0903655 1.03567 0.143036 1.11154 0.209436 1.17546L4.49438 5.3C4.56072 5.36401 4.63952 5.4148 4.72629 5.44946C4.81305 5.48411 4.90606 5.50195 5 5.50195C5.09394 5.50195 5.18695 5.48411 5.27371 5.44946C5.36048 5.4148 5.43928 5.36401 5.50562 5.3L9.79056 1.17546C9.92466 1.04638 10 0.871308 10 0.688762C10 0.506216 9.92466 0.331146 9.79056 0.202066C9.65646 0.0729861 9.47459 0.000469678 9.28494 0.000469676C9.0953 0.000469674 8.91342 0.0729861 8.77932 0.202066C6.80557 2.10282 3.41834 2.31844 1.22068 0.202066Z" fill="#74B5FF"/>
</svg>
