<svg width="39" height="40" viewBox="0 0 39 40" fill="none" xmlns="http://www.w3.org/2000/svg">
<path d="M15 4.28571H38.5714V7.14286H15V4.28571Z" fill="url(#paint0_linear_57641_62)"/>
<path d="M0 5.71429C0 6.84446 0.335137 7.94926 0.963031 8.88897C1.59092 9.82868 2.48337 10.5611 3.52752 10.9936C4.57167 11.4261 5.72062 11.5393 6.82909 11.3188C7.93755 11.0983 8.95574 10.5541 9.7549 9.7549C10.5541 8.95574 11.0983 7.93755 11.3188 6.82909C11.5393 5.72062 11.4261 4.57167 10.9936 3.52752C10.5611 2.48337 9.82868 1.59092 8.88897 0.963031C7.94926 0.335137 6.84447 0 5.71429 0C4.19929 0.00170151 2.74682 0.604287 1.67555 1.67555C0.604287 2.74682 0.00170151 4.19929 0 5.71429ZM5.71429 2.85714C6.27938 2.85714 6.83177 3.02471 7.30163 3.33866C7.77148 3.65261 8.13769 4.09883 8.35394 4.6209C8.57019 5.14298 8.62677 5.71745 8.51653 6.27169C8.40629 6.82592 8.13417 7.33501 7.73459 7.73459C7.33501 8.13417 6.82592 8.40629 6.27169 8.51653C5.71746 8.62677 5.14298 8.57019 4.6209 8.35394C4.09883 8.13769 3.65261 7.77148 3.33866 7.30163C3.02471 6.83177 2.85714 6.27938 2.85714 5.71429C2.85799 4.95679 3.15929 4.23055 3.69492 3.69492C4.23055 3.15929 4.95679 2.85799 5.71429 2.85714Z" fill="url(#paint1_linear_57641_62)"/>
<path d="M15 18.5714H38.5714V21.4286H15V18.5714Z" fill="url(#paint2_linear_57641_62)"/>
<path d="M5.71429 25.7143C6.84447 25.7143 7.94926 25.3791 8.88897 24.7513C9.82868 24.1234 10.5611 23.2309 10.9936 22.1868C11.4261 21.1426 11.5393 19.9937 11.3188 18.8852C11.0983 17.7767 10.5541 16.7585 9.7549 15.9594C8.95574 15.1602 7.93755 14.616 6.82909 14.3955C5.72062 14.175 4.57167 14.2882 3.52752 14.7207C2.48337 15.1532 1.59092 15.8856 0.963031 16.8253C0.335137 17.765 0 18.8698 0 20C0.00170151 21.515 0.604287 22.9675 1.67555 24.0387C2.74682 25.11 4.19929 25.7126 5.71429 25.7143ZM5.71429 17.1429C6.27938 17.1429 6.83177 17.3104 7.30163 17.6244C7.77148 17.9383 8.13769 18.3845 8.35394 18.9066C8.57019 19.4287 8.62677 20.0032 8.51653 20.5574C8.40629 21.1116 8.13417 21.6207 7.73459 22.0203C7.33501 22.4199 6.82592 22.692 6.27169 22.8022C5.71746 22.9125 5.14298 22.8559 4.6209 22.6397C4.09883 22.4234 3.65261 22.0572 3.33866 21.5873C3.02471 21.1175 2.85714 20.5651 2.85714 20C2.85799 19.2425 3.15929 18.5163 3.69492 17.9806C4.23055 17.445 4.95679 17.1437 5.71429 17.1429Z" fill="url(#paint3_linear_57641_62)"/>
<path d="M15 32.8571H38.5714V35.7143H15V32.8571Z" fill="url(#paint4_linear_57641_62)"/>
<path d="M5.71429 40C6.84447 40 7.94926 39.6649 8.88897 39.037C9.82868 38.4091 10.5611 37.5166 10.9936 36.4725C11.4261 35.4283 11.5393 34.2794 11.3188 33.1709C11.0983 32.0624 10.5541 31.0443 9.7549 30.2451C8.95574 29.4459 7.93755 28.9017 6.82909 28.6812C5.72062 28.4607 4.57167 28.5739 3.52752 29.0064C2.48337 29.4389 1.59092 30.1713 0.963031 31.111C0.335137 32.0507 0 33.1555 0 34.2857C0.00170151 35.8007 0.604287 37.2532 1.67555 38.3244C2.74682 39.3957 4.19929 39.9983 5.71429 40ZM5.71429 31.4286C6.27938 31.4286 6.83177 31.5961 7.30163 31.9101C7.77148 32.224 8.13769 32.6703 8.35394 33.1923C8.57019 33.7144 8.62677 34.2889 8.51653 34.8431C8.40629 35.3973 8.13417 35.9064 7.73459 36.306C7.33501 36.7056 6.82592 36.9777 6.27169 37.088C5.71746 37.1982 5.14298 37.1416 4.6209 36.9254C4.09883 36.7091 3.65261 36.3429 3.33866 35.8731C3.02471 35.4032 2.85714 34.8508 2.85714 34.2857C2.85799 33.5282 3.15929 32.802 3.69492 32.2663C4.23055 31.7307 4.95679 31.4294 5.71429 31.4286Z" fill="url(#paint5_linear_57641_62)"/>
<defs>
<linearGradient id="paint0_linear_57641_62" x1="0" y1="20" x2="41.4076" y2="20" gradientUnits="userSpaceOnUse">
<stop stop-color="#FF27A4"/>
<stop offset="1" stop-color="#8BC1FF"/>
</linearGradient>
<linearGradient id="paint1_linear_57641_62" x1="0" y1="20" x2="41.4076" y2="20" gradientUnits="userSpaceOnUse">
<stop stop-color="#FF27A4"/>
<stop offset="1" stop-color="#8BC1FF"/>
</linearGradient>
<linearGradient id="paint2_linear_57641_62" x1="0" y1="20" x2="41.4076" y2="20" gradientUnits="userSpaceOnUse">
<stop stop-color="#FF27A4"/>
<stop offset="1" stop-color="#8BC1FF"/>
</linearGradient>
<linearGradient id="paint3_linear_57641_62" x1="0" y1="20" x2="41.4076" y2="20" gradientUnits="userSpaceOnUse">
<stop stop-color="#FF27A4"/>
<stop offset="1" stop-color="#8BC1FF"/>
</linearGradient>
<linearGradient id="paint4_linear_57641_62" x1="0" y1="20" x2="41.4076" y2="20" gradientUnits="userSpaceOnUse">
<stop stop-color="#FF27A4"/>
<stop offset="1" stop-color="#8BC1FF"/>
</linearGradient>
<linearGradient id="paint5_linear_57641_62" x1="0" y1="20" x2="41.4076" y2="20" gradientUnits="userSpaceOnUse">
<stop stop-color="#FF27A4"/>
<stop offset="1" stop-color="#8BC1FF"/>
</linearGradient>
</defs>
</svg>
