<svg width="37" height="37" viewBox="0 0 37 37" fill="none" xmlns="http://www.w3.org/2000/svg">
<path d="M20.8257 21.1429H13.4962C13.32 19.98 13.2143 18.8171 13.2143 17.619C13.2143 16.421 13.32 15.2405 13.4962 14.0952H21.7419C21.9005 15.2405 22.0238 16.421 22.0238 17.619C22.0238 18.5 21.9533 19.381 21.8476 20.1914C22.9048 19.3105 24.1733 18.6233 25.5476 18.1829V17.619C25.5476 16.421 25.4419 15.2581 25.301 14.0952H31.2562C31.5381 15.2229 31.7143 16.4033 31.7143 17.619V17.9362C32.9476 18.2357 34.0929 18.729 35.15 19.381C35.2381 18.8171 35.2381 18.2181 35.2381 17.619C35.2381 7.92857 27.3095 0 17.619 0C7.87571 0 0 7.92857 0 17.619C0 27.3095 7.92857 35.2381 17.619 35.2381C18.2181 35.2381 18.8171 35.2381 19.381 35.15C18.6586 33.9871 18.13 32.6833 17.8481 31.2738C17.7776 31.3971 17.7071 31.5205 17.619 31.6438C16.1567 29.5295 14.9762 27.1862 14.2538 24.6667H18.5C19.0462 23.3452 19.839 22.1648 20.8257 21.1429ZM29.8114 10.5714H24.6138C24.0624 8.38923 23.2458 6.28277 22.1824 4.29905C25.4243 5.40905 28.12 7.64667 29.8114 10.5714ZM17.619 3.57667C19.0814 5.69095 20.2619 8.0519 20.9843 10.5714H14.2538C14.9762 8.0519 16.1567 5.69095 17.619 3.57667ZM3.9819 21.1429C3.7 20.0152 3.52381 18.8348 3.52381 17.619C3.52381 16.4033 3.7 15.2229 3.9819 14.0952H9.93714C9.79619 15.2581 9.69048 16.421 9.69048 17.619C9.69048 18.8171 9.79619 19.98 9.93714 21.1429H3.9819ZM5.42667 24.6667H10.5714C11.1881 26.869 11.981 28.9833 13.0381 30.939C9.829 29.832 7.12663 27.605 5.42667 24.6667ZM10.5714 10.5714H5.42667C7.11608 7.62414 9.82226 5.39405 13.0381 4.29905C11.981 6.25476 11.1881 8.36905 10.5714 10.5714ZM29.0714 21.1429C24.6667 21.1429 21.1429 24.6667 21.1429 29.0714C21.1429 33.4762 24.6667 37 29.0714 37C33.4762 37 37 33.4762 37 29.0714C37 24.6667 33.4762 21.1429 29.0714 21.1429ZM29.0714 34.3571C26.1467 34.3571 23.7857 31.9962 23.7857 29.0714C23.7857 28.0848 24.05 27.1686 24.5257 26.4286L31.7143 33.6171C30.9743 34.0929 30.0581 34.3571 29.0714 34.3571ZM33.6171 31.7143L26.4286 24.5257C27.1686 24.05 28.0848 23.7857 29.0714 23.7857C31.9962 23.7857 34.3571 26.1467 34.3571 29.0714C34.3571 30.0581 34.0929 30.9743 33.6171 31.7143Z" fill="url(#paint0_linear_57641_66)"/>
<defs>
<linearGradient id="paint0_linear_57641_66" x1="0" y1="18.5" x2="39.7206" y2="18.5" gradientUnits="userSpaceOnUse">
<stop stop-color="#FF27A4"/>
<stop offset="1" stop-color="#8BC1FF"/>
</linearGradient>
</defs>
</svg>
