<svg width="10" height="11" viewBox="0 0 10 11" fill="none" xmlns="http://www.w3.org/2000/svg">
<path fill-rule="evenodd" clip-rule="evenodd" d="M5 8.9405e-07C4.81059 8.91791e-07 4.62894 0.0724248 4.49501 0.201342C4.36108 0.330258 4.28584 0.505108 4.28584 0.687424L4.28584 8.65191L1.22068 5.70011C1.15428 5.6362 1.07545 5.5855 0.9887 5.55091C0.901945 5.51632 0.808962 5.49852 0.715058 5.49852C0.621156 5.49852 0.528173 5.51632 0.441418 5.55091C0.354663 5.5855 0.275835 5.6362 0.209436 5.70011C0.143036 5.76403 0.0903645 5.8399 0.0544301 5.92341C0.0184947 6.00692 -8.952e-07 6.09642 -8.96278e-07 6.18681C-8.97355e-07 6.2772 0.0184947 6.3667 0.0544301 6.45021C0.0903645 6.53371 0.143036 6.60959 0.209436 6.6735L4.49438 10.798C4.56072 10.8621 4.63952 10.9129 4.72629 10.9475C4.81305 10.9822 4.90606 11 5 11C5.09394 11 5.18695 10.9822 5.27371 10.9475C5.36048 10.9129 5.43928 10.8621 5.50562 10.798L9.79056 6.6735C9.92466 6.54443 10 6.36936 10 6.18681C10 6.00426 9.92466 5.82919 9.79056 5.70011C9.65646 5.57103 9.47459 5.49852 9.28494 5.49852C9.0953 5.49852 8.91342 5.57103 8.77932 5.70011L5.71416 8.65191L5.71416 0.687424C5.71416 0.505108 5.63891 0.330258 5.50498 0.201342C5.37105 0.0724248 5.18941 8.96309e-07 5 8.9405e-07Z" fill="#99CCFF"/>
</svg>
