<svg width="16" height="16" viewBox="0 0 16 16" fill="none" xmlns="http://www.w3.org/2000/svg">
<path d="M8 15C6.14348 15 4.36301 14.2625 3.05025 12.9497C1.7375 11.637 1 9.85652 1 8C1 6.14348 1.7375 4.36301 3.05025 3.05025C4.36301 1.7375 6.14348 1 8 1C9.85652 1 11.637 1.7375 12.9497 3.05025C14.2625 4.36301 15 6.14348 15 8C15 9.85652 14.2625 11.637 12.9497 12.9497C11.637 14.2625 9.85652 15 8 15ZM8 16C10.1217 16 12.1566 15.1571 13.6569 13.6569C15.1571 12.1566 16 10.1217 16 8C16 5.87827 15.1571 3.84344 13.6569 2.34315C12.1566 0.842855 10.1217 0 8 0C5.87827 0 3.84344 0.842855 2.34315 2.34315C0.842855 3.84344 0 5.87827 0 8C0 10.1217 0.842855 12.1566 2.34315 13.6569C3.84344 15.1571 5.87827 16 8 16Z" fill="#99CCFF"/>
<path fill-rule="evenodd" clip-rule="evenodd" d="M8 4C7.87373 4 7.75263 4.04828 7.66334 4.13423C7.57406 4.22017 7.5239 4.33674 7.5239 4.45828V9.76794L5.48045 7.80008C5.43619 7.75747 5.38364 7.72367 5.3258 7.70061C5.26796 7.67755 5.20597 7.66568 5.14337 7.66568C5.08077 7.66568 5.01878 7.67755 4.96095 7.70061C4.90311 7.72367 4.85056 7.75747 4.80629 7.80008C4.76202 7.84268 4.72691 7.89327 4.70295 7.94894C4.679 8.00461 4.66667 8.06428 4.66667 8.12454C4.66667 8.1848 4.679 8.24447 4.70295 8.30014C4.72691 8.35581 4.76202 8.40639 4.80629 8.449L7.66292 11.1987C7.70714 11.2414 7.75968 11.2752 7.81752 11.2983C7.87537 11.3214 7.93738 11.3333 8 11.3333C8.06262 11.3333 8.12463 11.3214 8.18248 11.2983C8.24032 11.2752 8.29286 11.2414 8.33708 11.1987L11.1937 8.449C11.2831 8.36295 11.3333 8.24624 11.3333 8.12454C11.3333 8.00284 11.2831 7.88613 11.1937 7.80008C11.1043 7.71402 10.9831 7.66568 10.8566 7.66568C10.7302 7.66568 10.6089 7.71402 10.5195 7.80008L8.4761 9.76794V4.45828C8.4761 4.33674 8.42594 4.22017 8.33666 4.13423C8.24737 4.04828 8.12627 4 8 4Z" fill="#99CCFF"/>
</svg>
