<svg width="35" height="34" viewBox="0 0 35 34" fill="none" xmlns="http://www.w3.org/2000/svg">
<path d="M32.8836 19.8401C33.0583 18.8813 33.1521 17.9012 33.1521 16.9212C33.1521 14.748 32.7259 12.6387 31.8865 10.6572C31.0769 8.73969 29.9136 7.01817 28.4349 5.53954C26.9687 4.06953 25.2305 2.89869 23.3172 2.09224C21.3315 1.25279 19.2265 0.82667 17.0533 0.82667C16.0306 0.82667 15.0037 0.924677 14.0066 1.11643C12.6268 0.38531 11.0895 0.00207176 9.52804 0C6.98411 0 4.58933 0.992856 2.79111 2.79108C1.90377 3.67386 1.20022 4.72378 0.721149 5.88014C0.242076 7.03649 -0.00302106 8.27635 2.81038e-05 9.52801C2.81038e-05 11.1473 0.417625 12.7409 1.19742 14.1471C1.03976 15.059 0.954534 15.9922 0.954534 16.9212C0.954534 19.0944 1.38065 21.2037 2.22011 23.1851C3.02973 25.1026 4.18878 26.8242 5.66741 28.3028C7.14604 29.7814 8.86756 30.9405 10.7851 31.7501C12.7708 32.5895 14.8758 33.0157 17.049 33.0157C17.995 33.0157 18.941 32.9304 19.8699 32.7643C21.2974 33.5696 22.9082 34 24.5573 34C27.1012 34 29.496 33.0114 31.2942 31.2089C33.0967 29.4107 34.0853 27.0159 34.0853 24.472C34.0895 22.8527 33.6719 21.2548 32.8836 19.8401ZM29.1295 29.0442C27.9065 30.2715 26.2916 30.9362 24.5615 30.9362C23.4493 30.9362 22.3542 30.6464 21.3827 30.0968L20.4239 29.5556L19.3373 29.7473C18.5788 29.8837 17.8118 29.9519 17.0533 29.9519C15.2892 29.9519 13.589 29.6067 11.9782 28.9249C10.4314 28.273 9.03801 27.3355 7.83635 26.1339C6.64683 24.9484 5.69891 23.5432 5.04527 21.9962C4.36348 20.3898 4.02259 18.6896 4.02259 16.9254C4.02259 16.184 4.09077 15.4255 4.2186 14.6755L4.4061 13.606L3.87771 12.6557C3.34477 11.6994 3.06464 10.6228 3.06382 9.52801C3.06382 7.79797 3.73283 6.18298 4.95579 4.96002C6.18301 3.73706 7.798 3.06805 9.52804 3.06805C10.5892 3.07092 11.6336 3.33275 12.5705 3.83081L13.525 4.33363L14.5818 4.12909C15.3872 3.97569 16.2181 3.89472 17.0533 3.89472C18.8174 3.89472 20.5176 4.23988 22.1241 4.91741C23.6794 5.57363 25.0686 6.51109 26.266 7.70848C27.4676 8.90588 28.4051 10.2993 29.0613 11.8504C29.7431 13.4568 30.084 15.157 30.084 16.9212C30.084 17.7052 30.0116 18.4978 29.8667 19.2861L29.6664 20.3727L30.2033 21.3358C30.7402 22.2945 31.0215 23.3811 31.0215 24.4763C31.0215 26.2106 30.3525 27.8213 29.1295 29.0442ZM20.0873 15.0505L16.3204 14.2153C14.8886 13.8872 13.2395 13.4568 13.2395 12.106C13.2395 10.7552 14.3943 9.80925 16.4823 9.80925C20.6881 9.80925 20.3046 12.6983 22.3926 12.6983C23.492 12.6983 24.455 12.0506 24.455 10.9427C24.455 8.35192 20.3046 6.40456 16.7848 6.40456C12.9626 6.40456 8.89313 8.02807 8.89313 12.3489C8.89313 14.4284 9.63457 16.6442 13.7338 17.6711L18.8217 18.941C20.36 19.3202 20.7478 20.1852 20.7478 20.9693C20.7478 22.269 19.4566 23.5388 17.1172 23.5388C12.5492 23.5388 13.1841 20.0233 10.7382 20.0233C9.63883 20.0233 8.84199 20.7818 8.84199 21.8599C8.84199 23.9649 11.3987 26.7773 17.1172 26.7773C22.5588 26.7773 25.2561 24.1567 25.2561 20.6412C25.2561 18.3785 24.2121 15.9709 20.0873 15.0505Z" fill="url(#paint0_linear_57469_506)"/>
<defs>
<linearGradient id="paint0_linear_57469_506" x1="0" y1="17" x2="36.5916" y2="17" gradientUnits="userSpaceOnUse">
<stop stop-color="#FF27A4"/>
<stop offset="1" stop-color="#8BC1FF"/>
</linearGradient>
</defs>
</svg>
