<svg width="54" height="54" viewBox="0 0 54 54" fill="none" xmlns="http://www.w3.org/2000/svg">
<path fill-rule="evenodd" clip-rule="evenodd" d="M36 27C36 27.3409 35.8716 27.6679 35.6431 27.909C35.4145 28.15 35.1046 28.2855 34.7814 28.2855H20.6625L25.8953 33.8028C26.0086 33.9223 26.0984 34.0642 26.1598 34.2203C26.2211 34.3765 26.2526 34.5439 26.2526 34.7129C26.2526 34.8819 26.2211 35.0493 26.1598 35.2054C26.0984 35.3616 26.0086 35.5035 25.8953 35.623C25.782 35.7425 25.6474 35.8373 25.4994 35.902C25.3514 35.9667 25.1927 36 25.0325 36C24.8722 36 24.7136 35.9667 24.5655 35.902C24.4175 35.8373 24.283 35.7425 24.1697 35.623L16.858 27.9101C16.7445 27.7907 16.6545 27.6489 16.5931 27.4927C16.5316 27.3365 16.5 27.1691 16.5 27C16.5 26.8309 16.5316 26.6635 16.5931 26.5073C16.6545 26.3511 16.7445 26.2093 16.858 26.0899L24.1697 18.377C24.3985 18.1356 24.7089 18 25.0325 18C25.3561 18 25.6664 18.1356 25.8953 18.377C26.1241 18.6184 26.2526 18.9457 26.2526 19.2871C26.2526 19.6285 26.1241 19.9558 25.8953 20.1972L20.6625 25.7145H34.7814C35.1046 25.7145 35.4145 25.85 35.6431 26.091C35.8716 26.3321 36 26.6591 36 27Z" fill="#99CCFF"/>
<path d="M27 0C23.4543 4.22819e-08 19.9433 0.698376 16.6675 2.05525C13.3918 3.41213 10.4153 5.40094 7.90812 7.90812C5.40093 10.4153 3.41213 13.3918 2.05525 16.6676C0.698376 19.9433 0 23.4543 0 27C0 30.5457 0.698376 34.0567 2.05526 37.3325C3.41213 40.6082 5.40094 43.5847 7.90812 46.0919C10.4153 48.5991 13.3918 50.5879 16.6676 51.9448C19.9433 53.3016 23.4543 54 27 54L27 51.719C23.7539 51.719 20.5395 51.0796 17.5405 49.8374C14.5414 48.5951 11.8164 46.7743 9.52103 44.479C7.22567 42.1836 5.40488 39.4586 4.16263 36.4596C2.92038 33.4605 2.28101 30.2461 2.28101 27C2.28101 23.7539 2.92038 20.5395 4.16262 17.5405C5.40487 14.5414 7.22566 11.8164 9.52103 9.52103C11.8164 7.22566 14.5414 5.40487 17.5405 4.16263C20.5395 2.92038 23.7539 2.28101 27 2.28101V0Z" fill="#99CCFF"/>
</svg>
