<svg width="40" height="40" viewBox="0 0 40 40" fill="none" xmlns="http://www.w3.org/2000/svg">
<path d="M36.0171 31.3756C38.5603 29.1089 40.0004 26.0877 40.0004 22.9524C40.0004 19.6204 38.4406 16.5042 35.6082 14.1774C32.8515 11.9136 29.2027 10.6667 25.3333 10.6667C21.464 10.6667 17.8152 11.9136 15.0589 14.1776C12.2265 16.5042 10.6667 19.6204 10.6667 22.9524C10.6667 26.2844 12.2265 29.4006 15.0589 31.7274C17.8152 33.9914 21.464 35.2383 25.3333 35.2383C25.8489 35.2383 26.3677 35.2155 26.8821 35.1702L27.7609 35.932C30.7886 38.5556 34.6605 39.9999 38.6667 40H40V37.1619L39.6095 36.7715C38.069 35.2265 36.8483 33.3929 36.0171 31.3756ZM29.5074 33.9167L27.744 32.3883L27.156 32.4603C26.5513 32.5343 25.9426 32.5714 25.3333 32.5714C18.7167 32.5714 13.3333 28.2563 13.3333 22.9524C13.3333 17.6485 18.7167 13.3333 25.3333 13.3333C31.95 13.3333 37.3333 17.6484 37.3333 22.9524C37.3333 25.5949 36.015 28.0619 33.6212 29.8989L32.8532 30.4882L33.2076 31.4911C33.9337 33.5394 35.001 35.4501 36.3644 37.1425C33.8255 36.7187 31.4527 35.6024 29.5074 33.9167Z" fill="url(#paint0_linear_57641_45)"/>
<path d="M3.68208 25.123C4.93019 23.5431 5.91014 21.7688 6.58275 19.8711L6.93442 18.8732L6.16717 18.2843C3.90983 16.5522 2.66667 14.2273 2.66667 11.7381C2.66667 6.73608 7.75075 2.66667 14 2.66667C18.5973 2.66667 22.5639 4.86917 24.3397 8.025C24.6695 8.009 25.0007 8 25.3333 8C26.0015 8 26.6636 8.03242 27.3195 8.09725C26.6333 6.31933 25.4414 4.69633 23.8028 3.3505C21.1727 1.18992 17.6917 0 14 0C10.3083 0 6.82733 1.18992 4.197 3.3505C1.4905 5.57375 0 8.5525 0 11.7381C0 14.7214 1.36267 17.596 3.77083 19.7583C2.98495 21.6496 1.83663 23.3688 0.390583 24.8191L0 25.2096V28H1.33333C3.79892 27.9997 6.2306 27.4255 8.43592 26.3229C8.19409 25.4064 8.0524 24.4663 8.01333 23.5192C6.67481 24.3037 5.20872 24.8465 3.68208 25.123Z" fill="url(#paint1_linear_57641_45)"/>
<defs>
<linearGradient id="paint0_linear_57641_45" x1="0" y1="20" x2="42.9416" y2="20" gradientUnits="userSpaceOnUse">
<stop stop-color="#FF27A4"/>
<stop offset="1" stop-color="#8BC1FF"/>
</linearGradient>
<linearGradient id="paint1_linear_57641_45" x1="0" y1="20" x2="42.9416" y2="20" gradientUnits="userSpaceOnUse">
<stop stop-color="#FF27A4"/>
<stop offset="1" stop-color="#8BC1FF"/>
</linearGradient>
</defs>
</svg>
