<svg width="40" height="35" viewBox="0 0 40 35" fill="none" xmlns="http://www.w3.org/2000/svg">
<path d="M2.5 2.53623C2.5 1.86358 2.76339 1.21848 3.23223 0.742845C3.70107 0.267209 4.33696 0 5 0H35C35.663 0 36.2989 0.267209 36.7678 0.742845C37.2366 1.21848 37.5 1.86358 37.5 2.53623H2.5Z" fill="url(#paint0_linear_57641_54)"/>
<path d="M0 7.6087C0 6.93605 0.263392 6.29094 0.732233 5.81531C1.20107 5.33967 1.83696 5.07246 2.5 5.07246H37.5C38.163 5.07246 38.7989 5.33967 39.2678 5.81531C39.7366 6.29094 40 6.93605 40 7.6087V31.8986C40 32.5712 39.7366 33.2163 39.2678 33.6919C38.7989 34.1676 38.163 34.4348 37.5 34.4348H2.5C1.83696 34.4348 1.20107 34.1676 0.732233 33.6919C0.263392 33.2163 0 32.5712 0 31.8986V7.6087ZM7.5 7.6087C7.5 8.954 6.97322 10.2442 6.03553 11.1955C5.09785 12.1467 3.82608 12.6812 2.5 12.6812V26.8261C3.82608 26.8261 5.09785 27.3605 6.03553 28.3118C6.97322 29.263 7.5 30.5533 7.5 31.8986H32.5C32.5 30.5533 33.0268 29.263 33.9645 28.3118C34.9021 27.3605 36.1739 26.8261 37.5 26.8261V12.6812C36.1739 12.6812 34.9021 12.1467 33.9645 11.1955C33.0268 10.2442 32.5 8.954 32.5 7.6087H7.5Z" fill="url(#paint1_linear_57641_54)"/>
<path d="M20.5479 25.0504C20.5832 25.8455 20.6363 26.5231 20.707 27.083C20.4242 27.1726 20.1826 27.2174 19.9823 27.2174C19.4521 27.2174 19.187 26.999 19.187 26.5623C19.187 26.1031 19.2047 25.6215 19.24 25.1176C18.2385 25.084 17.3901 24.8432 16.6949 24.3953C15.9998 23.9361 15.6522 23.2978 15.6522 22.4802C15.6522 22.0323 15.8053 21.6683 16.1117 21.3883C16.4181 21.1084 16.7833 20.9684 17.2075 20.9684C17.6435 20.9684 17.9498 21.0132 18.1265 21.1028C18.0323 21.5171 17.9852 21.7915 17.9852 21.9259C17.9852 22.4858 18.1737 22.9226 18.5507 23.2362C18.9278 23.5385 19.4226 23.6897 20.0353 23.6897C20.648 23.6897 21.1488 23.5609 21.5376 23.3034C21.9265 23.0346 22.1209 22.6762 22.1209 22.2283C22.1209 21.7803 21.9618 21.4163 21.6437 21.1364C21.3373 20.8452 20.9485 20.6268 20.4772 20.4812C20.0177 20.3356 19.5169 20.1733 18.9749 19.9941C18.4329 19.8037 17.9262 19.6133 17.4549 19.4229C16.9954 19.2325 16.6066 18.9526 16.2884 18.583C15.9821 18.2022 15.8289 17.7543 15.8289 17.2391C15.8289 16.4328 16.1706 15.7441 16.854 15.1729C17.5492 14.5906 18.4034 14.2098 19.4168 14.0306L19.293 12.5692C19.5051 12.4796 19.729 12.4348 19.9647 12.4348C20.2121 12.4348 20.4124 12.5244 20.5656 12.7036C20.7305 12.8715 20.813 13.0899 20.813 13.3587C20.813 13.6163 20.8071 13.8011 20.7953 13.913C21.6437 13.9466 22.3801 14.1146 23.0046 14.417C23.6291 14.7194 23.9413 15.1785 23.9413 15.7945C23.9413 16.2648 23.7646 16.6624 23.4111 16.9872C23.0694 17.3007 22.6452 17.4575 22.1386 17.4575C21.9854 17.4575 21.8204 17.4407 21.6437 17.4071C21.7026 17.2167 21.7321 17.0096 21.7321 16.7856C21.7321 16.2928 21.5907 15.9457 21.3079 15.7441C21.0251 15.5313 20.6127 15.4249 20.0707 15.4249C19.5405 15.4249 19.0809 15.5089 18.6921 15.6769C18.3622 15.9681 18.1972 16.304 18.1972 16.6848C18.1972 17.0655 18.4093 17.3791 18.8335 17.6255C19.2577 17.8607 19.7702 18.0623 20.3712 18.2302C20.9721 18.3982 22.1739 18.8182 22.1739 18.8182C22.1739 18.8182 23.2874 19.3613 23.7116 19.8093C24.1357 20.2572 24.3478 20.8116 24.3478 21.4723C24.3478 22.4018 23.9885 23.1914 23.2697 23.8409C22.551 24.4792 21.6437 24.8824 20.5479 25.0504Z" fill="url(#paint2_linear_57641_54)"/>
<defs>
<linearGradient id="paint0_linear_57641_54" x1="0" y1="17.2174" x2="42.9412" y2="17.2174" gradientUnits="userSpaceOnUse">
<stop stop-color="#FF27A4"/>
<stop offset="1" stop-color="#8BC1FF"/>
</linearGradient>
<linearGradient id="paint1_linear_57641_54" x1="0" y1="17.2174" x2="42.9412" y2="17.2174" gradientUnits="userSpaceOnUse">
<stop stop-color="#FF27A4"/>
<stop offset="1" stop-color="#8BC1FF"/>
</linearGradient>
<linearGradient id="paint2_linear_57641_54" x1="0" y1="17.2174" x2="42.9412" y2="17.2174" gradientUnits="userSpaceOnUse">
<stop stop-color="#FF27A4"/>
<stop offset="1" stop-color="#8BC1FF"/>
</linearGradient>
</defs>
</svg>
