<svg width="55" height="20" fill="none" xmlns="http://www.w3.org/2000/svg"><path d="M2.483 19.695v-5.774H.789v-1.787h5.449v1.787H4.544v5.774H2.483zm4.762 0v-7.56h2.154c.843 0 1.43.038 1.763.115.332.078.62.208.86.39.272.207.481.47.628.79.146.32.22.674.22 1.059 0 .585-.144 1.061-.432 1.428-.288.367-.707.61-1.258.731l2.061 3.047h-2.33l-1.735-2.96v2.96H7.245zm1.931-3.987h.383c.444 0 .768-.076.973-.227.205-.152.308-.39.308-.713 0-.379-.096-.648-.287-.808-.191-.16-.512-.24-.963-.24h-.413v1.988z" fill="#fff"/><path d="M13.138 19.695l2.608-7.56h2.582l2.614 7.56h-2.05l-.383-1.353h-2.928l-.393 1.353h-2.05zm2.887-2.825h2.05l-.77-2.495a6.3 6.3 0 01-.098-.366c-.04-.169-.094-.386-.16-.651-.045.186-.088.363-.131.532-.043.168-.087.33-.132.485l-.76 2.495zm5.64 2.825v-7.56h1.988l2.856 3.888c.055.08.145.238.271.478.126.24.265.524.416.854a15.688 15.688 0 01-.09-.836 8.506 8.506 0 01-.029-.65v-3.735h1.978v7.561h-1.978l-2.856-3.905a4.367 4.367 0 01-.276-.477c-.126-.24-.263-.52-.41-.845.04.317.07.598.09.842.018.245.028.462.028.651v3.734h-1.988zm9.348-2.443c.306.348.608.608.906.78.298.172.595.258.891.258.275 0 .502-.074.68-.222a.702.702 0 00.265-.563c0-.251-.077-.445-.23-.58-.153-.137-.5-.277-1.04-.422-.74-.2-1.264-.46-1.57-.78-.307-.32-.46-.759-.46-1.316 0-.723.242-1.313.726-1.77.483-.456 1.11-.684 1.882-.684a4.1 4.1 0 011.185.168 3.83 3.83 0 011.062.509l-.646 1.482c-.234-.2-.474-.35-.72-.451a1.905 1.905 0 00-.732-.153c-.247 0-.449.06-.604.178a.551.551 0 00-.232.457c0 .19.068.341.204.455.136.113.398.222.787.325l.093.026c.84.227 1.393.477 1.658.749.18.186.315.409.408.668.093.26.14.549.14.866 0 .802-.264 1.447-.79 1.934-.527.487-1.23.73-2.108.73a3.725 3.725 0 01-1.438-.268 4.073 4.073 0 01-1.247-.842l.93-1.534zm5.81 2.443v-7.56h4.633v1.657h-2.624v1.312h2.474v1.622h-2.474v2.97h-2.009zm5.754 0v-7.56h4.632v1.657h-2.623v1.312h2.473v1.622h-2.473V18h2.623v1.694h-4.632zm5.996 0v-7.56h2.153c.844 0 1.432.038 1.764.115.332.078.62.208.86.39.272.207.481.47.627.79.147.32.22.674.22 1.059 0 .585-.144 1.061-.431 1.428-.288.367-.707.61-1.258.731l2.061 3.047h-2.33l-1.735-2.96v2.96h-1.931zm1.931-3.987h.383c.444 0 .768-.076.973-.227.205-.152.307-.39.307-.713 0-.379-.095-.648-.286-.808-.191-.16-.512-.24-.963-.24h-.414v1.988zM13.37.682h2.76c1.14 0 1.935.037 2.387.11.452.073.841.2 1.167.379.372.206.655.483.85.83.196.346.293.747.293 1.201 0 .574-.146 1.03-.437 1.367-.292.338-.756.593-1.395.768.717.055 1.277.306 1.68.754.405.448.607 1.045.607 1.794 0 .537-.114 1.01-.341 1.418a2.356 2.356 0 01-.974.95c-.345.184-.77.315-1.274.393-.506.078-1.332.117-2.48.117H13.37V.682zm2.547 4.028h.551c.68 0 1.146-.074 1.398-.224.252-.149.379-.407.379-.774 0-.381-.118-.649-.355-.803-.236-.153-.696-.23-1.38-.23h-.593V4.71zm0 3.994h.964c.652 0 1.113-.081 1.384-.244.271-.163.407-.435.407-.816 0-.423-.124-.718-.372-.885-.248-.168-.707-.252-1.377-.252h-1.006v2.197zm5.833 2.059L25.227.682h3.444l3.484 10.081h-2.734l-.51-1.804h-3.904l-.523 1.804H21.75zm3.85-3.767h2.733L27.307 3.67a8.35 8.35 0 01-.13-.489l-.214-.867c-.06.248-.119.484-.176.709-.057.225-.116.44-.175.647l-1.013 3.326zm7.52 3.767V.682h2.65l3.808 5.185c.074.106.194.318.362.637.168.32.352.699.555 1.14-.056-.418-.096-.79-.121-1.116a11.392 11.392 0 01-.038-.868V.682h2.637v10.081h-2.637l-3.808-5.206a5.772 5.772 0 01-.368-.637 23.04 23.04 0 01-.548-1.126c.055.423.096.797.12 1.123.026.326.039.615.039.867v4.98h-2.652zm12.016 0V.682h2.72V5.26L51.044.68h3.202l-3.725 4.917 4.049 5.165h-3.43L47.857 6.24v4.524h-2.72zM11.165.656H0v1.998h11.165V.656zm0 3.878H0v1.998h11.165V4.534zm0 4.231H0v1.998h11.165V8.765z" fill="#fff"/></svg>