<svg id="logo-17" width="127" height="39" fill="none" xmlns="http://www.w3.org/2000/svg"><path d="M19.5 2A17.501 17.501 0 007.126 31.874 17.502 17.502 0 0019.5 37v-8.75a8.749 8.749 0 01-3.349-16.834 8.749 8.749 0 013.349-.666V2z" class="ccustom" fill="#0F52FF"/><path d="M19.5 25.333a5.833 5.833 0 100-11.666 5.833 5.833 0 000 11.666z" class="ccustom" fill="#0F52FF"/><path d="M2 19.5a17.501 17.501 0 0029.874 12.374A17.502 17.502 0 0037 19.5h-8.75a8.749 8.749 0 01-16.834 3.349 8.749 8.749 0 01-.666-3.349H2zm23.333 0a5.834 5.834 0 00-11.666 0h11.666z" class="ccompli1" fill="#5BD0F4"/><path d="M46.14 12.925h-2.174V25h2.174V12.925zm1.419 7.797c0 2.794 1.932 4.52 4.485 4.52 2.553 0 4.485-1.726 4.485-4.52 0-2.795-1.932-4.52-4.485-4.52-2.553 0-4.485 1.725-4.485 4.52zm2.173 0c0-1.656.966-2.622 2.312-2.622 1.345 0 2.311.966 2.311 2.622s-.966 2.622-2.311 2.622c-1.346 0-2.312-.966-2.312-2.622zm14.564-4.278V17.6h-.172c-.518-.742-1.346-1.398-2.83-1.398-2.035 0-3.863 1.725-3.863 4.382 0 2.657 1.828 4.381 3.864 4.381 1.483 0 2.311-.672 2.794-1.345h.172v.828c0 1.656-.965 2.415-2.38 2.415-1.414 0-2.139-.759-2.432-1.742l-1.95.845c.449 1.294 1.76 2.726 4.416 2.726 2.726 0 4.52-1.432 4.52-4.192v-8.056h-2.139zm-2.346 6.659c-1.346 0-2.346-.966-2.346-2.519 0-1.552 1-2.518 2.346-2.518 1.345 0 2.346.966 2.346 2.518 0 1.553-1 2.518-2.346 2.518zm5.891-2.381c0 2.794 1.932 4.52 4.485 4.52 2.553 0 4.485-1.726 4.485-4.52 0-2.795-1.932-4.52-4.485-4.52-2.553 0-4.485 1.725-4.485 4.52zm2.174 0c0-1.656.966-2.622 2.311-2.622 1.346 0 2.312.966 2.312 2.622s-.966 2.622-2.312 2.622c-1.345 0-2.311-.966-2.311-2.622z" class="ccustom" fill="#0F52FF"/><path d="M78.517 13.96c0 .88.673 1.483 1.536 1.483.862 0 1.535-.603 1.535-1.483 0-.88-.673-1.484-1.535-1.484-.863 0-1.536.604-1.536 1.484zm2.622 2.484h-2.173V25h2.173v-8.556zm1.937 12.006h2.174v-4.554h.172c.483.69 1.311 1.345 2.795 1.345 2.035 0 3.864-1.724 3.864-4.519s-1.829-4.52-3.864-4.52c-1.484 0-2.312.656-2.829 1.398h-.173v-1.156h-2.139V28.45zm4.485-5.072c-1.345 0-2.346-.965-2.346-2.656 0-1.69 1.001-2.657 2.346-2.657 1.346 0 2.346.966 2.346 2.657 0 1.69-1 2.656-2.346 2.656zm5.788-4.536c0 1.69 1.414 2.311 3.208 2.656l.449.086c1.069.207 1.552.466 1.552 1.018s-.483.983-1.483.983c-1.001 0-1.811-.413-2.036-1.655l-2.001.517c.294 1.794 1.794 2.794 4.037 2.794 2.173 0 3.588-1.017 3.588-2.811s-1.449-2.277-3.381-2.657l-.449-.086c-.897-.172-1.38-.414-1.38-.983 0-.518.449-.846 1.277-.846.828 0 1.414.345 1.621 1.277l1.967-.604c-.414-1.38-1.673-2.328-3.588-2.328-2.036 0-3.381.948-3.381 2.639zM110.426 25v-8.556h-2.173v4.416c0 1.587-.776 2.518-2.105 2.518-1.173 0-1.828-.638-1.828-1.931v-5.003h-2.174v5.106c0 2.122 1.329 3.588 3.33 3.588 1.569 0 2.294-.69 2.639-1.415h.172V25h2.139zm1.928-8.556V25h2.174v-5.106c0-1.173.552-1.828 1.552-1.828.863 0 1.38.483 1.38 1.414V25h2.174v-5.106c0-1.173.552-1.828 1.552-1.828.863 0 1.38.483 1.38 1.414V25h2.174v-5.623c0-2.07-1.277-3.071-2.864-3.071-1.397 0-2.035.621-2.449 1.345h-.173c-.397-.81-1.104-1.345-2.346-1.345s-1.915.552-2.242 1.207h-.173v-1.069h-2.139z" class="ccompli1" fill="#5BD0F4"/></svg>