<svg id="logo-31" width="104" height="74" fill="none" xmlns="http://www.w3.org/2000/svg"><path d="M8.472 67.076V52H6v15.076h2.472zm1.512-5.026c0 3.08 2.067 5.27 5.207 5.27 3.14 0 5.207-2.19 5.207-5.27 0-3.08-2.067-5.268-5.207-5.268-3.14 0-5.207 2.189-5.207 5.269zm2.492 0c0-1.803 1.074-3.06 2.715-3.06 1.641 0 2.715 1.257 2.715 3.06 0 1.784-1.074 3.06-2.715 3.06-1.64 0-2.715-1.276-2.715-3.06zm8.754-.202c0 2.918 1.883 5.025 4.7 5.025 1.458 0 2.714-.587 3.342-1.56v1.702c0 1.641-1.033 2.736-2.755 2.736-1.54 0-2.593-.75-2.735-2.067H21.29C21.614 70.298 23.62 72 26.375 72c3.242 0 5.308-2.128 5.308-5.43v-9.504h-2.188l-.142 1.357c-.608-1.053-1.864-1.681-3.343-1.681-2.856 0-4.78 2.168-4.78 5.106zm2.511-.06c0-1.662 1.054-2.878 2.614-2.878 1.702 0 2.836 1.236 2.836 2.877 0 1.662-1.134 2.938-2.836 2.938-1.54 0-2.614-1.256-2.614-2.938zm9.165.262c0 3.08 2.067 5.27 5.207 5.27 3.14 0 5.207-2.19 5.207-5.27 0-3.08-2.067-5.268-5.207-5.268-3.14 0-5.207 2.189-5.207 5.269zm2.492 0c0-1.803 1.074-3.06 2.715-3.06 1.641 0 2.715 1.257 2.715 3.06 0 1.784-1.074 3.06-2.715 3.06-1.641 0-2.715-1.276-2.715-3.06z" class="cneutral" fill="#FFAE04"/><path d="M45.995 55.02c.81 0 1.479-.65 1.479-1.48a1.47 1.47 0 00-1.48-1.459 1.44 1.44 0 00-1.458 1.459c0 .83.628 1.48 1.459 1.48zm-1.236 12.056h2.471v-10.01h-2.47v10.01zm4.637 4.64h2.41v-6.018c.629 1.034 1.986 1.641 3.485 1.641 2.958 0 4.72-2.27 4.68-5.39-.06-3.14-1.863-5.187-4.7-5.187-1.52 0-2.897.669-3.505 1.824l-.142-1.52h-2.228v14.65zm2.512-9.645c0-1.803 1.094-3.06 2.816-3.06 1.722 0 2.755 1.277 2.755 3.06 0 1.783-1.033 3.04-2.755 3.04s-2.816-1.237-2.816-3.04zm8.691 2.006c.081 1.986 1.62 3.262 4.011 3.262 2.35 0 3.95-1.256 3.95-3.201 0-1.439-.89-2.412-2.532-2.817l-1.762-.425c-.75-.203-1.256-.466-1.256-1.115 0-.689.547-1.175 1.438-1.175.932 0 1.54.527 1.54 1.398h2.249c-.081-1.986-1.56-3.242-3.728-3.242-2.148 0-3.748 1.256-3.748 3.161 0 1.297.75 2.37 2.674 2.877l1.743.446c.648.183 1.053.486 1.053 1.054 0 .79-.75 1.155-1.661 1.155-1.094 0-1.722-.507-1.722-1.378h-2.25zm13.089 3.263c1.357 0 2.654-.629 3.241-1.56l.162 1.296h2.31v-10.01h-2.472v5.248c0 1.804-.689 2.817-2.31 2.817-1.255 0-2.127-.608-2.127-2.675v-5.39h-2.471v6.261c0 2.391 1.296 4.012 3.667 4.012zm10.366-.264v-5.755c0-1.62.952-2.39 2.127-2.39 1.175 0 1.945.749 1.945 2.167v5.978h2.411v-5.735c0-1.64.932-2.41 2.107-2.41 1.195 0 1.965.749 1.965 2.167v5.978H97v-6.545c0-2.31-1.276-3.77-3.707-3.77-1.52 0-2.715.73-3.202 1.906-.546-1.176-1.64-1.905-3.302-1.905-1.175 0-2.228.547-2.816 1.439l-.121-1.135h-2.27v10.01h2.472z" class="cneutral" fill="#F64C16"/><path d="M45.487 38.352C42.231 44.212 35.601 47 28.897 47H2c28-3.5 47.5-17.5 50-37 2.5 19.5 22 33.5 50 37H75.103c-6.704 0-13.334-2.788-16.59-8.648C54.989 32.01 52.743 24.833 52 17c-.743 7.833-2.989 15.01-6.513 21.352z" class="ccustom" fill="#F64C16"/><path d="M30.105 36.281a60.144 60.144 0 01-4.953 2.489 29.261 29.261 0 01-1.056-10.504 29.075 29.075 0 014.389-13.174 28.266 28.266 0 019.941-9.502 27.518 27.518 0 0113.148-3.587A27.49 27.49 0 0164.822 5.18a28.206 28.206 0 0110.22 9.188 29.04 29.04 0 014.778 13.031 29.266 29.266 0 01-.972 11.372 60.144 60.144 0 01-4.953-2.489 23.62 23.62 0 00.54-8.255 23.418 23.418 0 00-3.854-10.509 22.747 22.747 0 00-8.242-7.409 22.169 22.169 0 00-10.683-2.56 22.19 22.19 0 00-10.602 2.892 22.793 22.793 0 00-8.017 7.662A23.446 23.446 0 0029.5 28.725c-.207 2.544 0 5.097.606 7.556z" class="ccompli1" fill="#FFAE04"/></svg>