<svg width="55" height="12" fill="none" xmlns="http://www.w3.org/2000/svg"><path d="M11.223 7.076A5.696 5.696 0 11.17 4.32a5.696 5.696 0 0111.053 2.756z" fill="#fff"/><path d="M8.208 4.886c.114-.758-.463-1.166-1.253-1.438l.256-1.027-.625-.155-.249 1a26.14 26.14 0 00-.5-.118l.25-1.007-.624-.156-.257 1.027a21.72 21.72 0 01-.399-.094v-.003l-.86-.215-.166.667s.463.107.454.113c.253.063.299.23.29.364l-.29 1.17a.52.52 0 01.064.02l-.066-.016-.409 1.639c-.03.077-.11.192-.286.148.006.01-.454-.113-.454-.113l-.31.716.813.202.445.115-.258 1.039.624.156.256-1.028c.17.046.336.09.498.13l-.255 1.022.625.156.259-1.037c1.066.202 1.867.12 2.205-.843.272-.777-.014-1.224-.575-1.516.409-.095.716-.363.798-.918zM6.78 6.889c-.193.776-1.5.356-1.924.25L5.2 5.765c.423.106 1.782.315 1.58 1.125zm.194-2.014c-.177.706-1.264.347-1.617.259l.31-1.248c.354.088 1.49.252 1.307.989z" fill="#031B44"/><path d="M16.696 3.447c.462 0 .86.083 1.196.245.337.165.615.386.838.664.22.28.384.606.49.98.105.376.158.78.158 1.212 0 .663-.122 1.29-.367 1.882a4.713 4.713 0 01-2.502 2.58 4.578 4.578 0 01-1.874.382c-.087 0-.24-.002-.455-.006a6.66 6.66 0 01-.742-.065 8.725 8.725 0 01-.887-.174 4.453 4.453 0 01-.887-.317L14.159.348l2.234-.346-.893 3.72c.19-.087.383-.153.576-.202a2.56 2.56 0 01.62-.073zM14.82 9.62c.337 0 .654-.083.952-.245.299-.163.556-.383.772-.657.216-.274.387-.584.512-.93a3.17 3.17 0 00.188-1.082c0-.462-.078-.821-.231-1.081-.154-.26-.438-.39-.851-.39-.135 0-.31.026-.526.072-.217.049-.41.15-.585.304l-.95 3.95.15.029a1.565 1.565 0 00.31.03h.26zm6.875 1.572H19.56l1.802-7.584h2.149l-1.817 7.584zm1.038-8.508a1.33 1.33 0 01-.807-.266c-.242-.177-.361-.449-.361-.815 0-.202.04-.39.122-.57a1.52 1.52 0 01.793-.771 1.43 1.43 0 01.57-.115c.298 0 .567.089.807.266.24.179.36.45.36.815 0 .202-.04.392-.122.57a1.502 1.502 0 01-.792.771 1.405 1.405 0 01-.57.115zm2.649-.779l2.235-.346-.548 2.236h2.393l-.432 1.758h-2.38l-.633 2.653a3.003 3.003 0 00-.1.62c-.011.192.013.358.07.497a.63.63 0 00.31.324c.15.078.363.117.642.117.23 0 .455-.022.671-.066a4.76 4.76 0 00.656-.18l.159 1.645a7.68 7.68 0 01-.937.273 5.4 5.4 0 01-1.197.115c-.663 0-1.178-.099-1.544-.295a1.714 1.714 0 01-.779-.808 2.569 2.569 0 01-.201-1.175c.02-.443.086-.908.201-1.398l1.414-5.97zm3.986 6.258c0-.653.106-1.269.317-1.846a4.541 4.541 0 01.91-1.515A4.256 4.256 0 0132.03 3.78a4.586 4.586 0 011.88-.375c.434 0 .82.041 1.161.123a4.7 4.7 0 01.93.324l-.735 1.674a6.892 6.892 0 00-.599-.21 2.603 2.603 0 00-.756-.093c-.713 0-1.276.245-1.695.735-.417.49-.628 1.149-.628 1.976 0 .49.106.886.318 1.19.212.302.602.453 1.168.453a3.981 3.981 0 001.5-.302l.16 1.715c-.27.105-.568.2-.895.282-.327.08-.716.122-1.168.122-.596 0-1.101-.087-1.514-.26a2.882 2.882 0 01-1.023-.699 2.636 2.636 0 01-.585-1.031 4.232 4.232 0 01-.18-1.24zm9.481 3.23c-.51 0-.952-.078-1.327-.231a2.45 2.45 0 01-.93-.65 2.802 2.802 0 01-.554-.987c-.126-.38-.187-.8-.187-1.26 0-.578.093-1.155.28-1.731a4.902 4.902 0 01.83-1.557c.364-.462.812-.84 1.34-1.133.528-.293 1.134-.44 1.816-.44.5 0 .94.078 1.32.232.38.153.691.37.938.648.244.28.43.608.554.988a4 4 0 01.187 1.262 5.75 5.75 0 01-.273 1.73 4.999 4.999 0 01-.807 1.558c-.356.46-.8.838-1.334 1.13-.533.294-1.151.44-1.853.44zm1.067-6.171c-.317 0-.596.092-.836.273-.24.184-.442.414-.605.693-.164.28-.286.584-.369.915a3.943 3.943 0 00-.122.944c0 .482.078.856.23 1.126.155.268.433.403.837.403.318 0 .596-.09.837-.274.239-.182.44-.413.605-.692.163-.278.286-.584.369-.916.08-.33.121-.646.121-.944 0-.48-.077-.856-.23-1.125-.155-.268-.434-.403-.837-.403zm5.526 5.97h-2.136l1.802-7.584h2.15l-1.816 7.584zm1.036-8.508c-.297 0-.567-.089-.806-.266-.24-.177-.361-.449-.361-.815 0-.202.041-.39.122-.57a1.503 1.503 0 01.794-.771 1.42 1.42 0 01.568-.115c.299 0 .568.089.808.266.24.179.362.45.362.815 0 .202-.043.392-.124.57a1.494 1.494 0 01-.792.771 1.41 1.41 0 01-.57.115zm2.318 1.269c.162-.048.343-.105.54-.166a7.951 7.951 0 011.486-.302 9.23 9.23 0 011.03-.052c1.125 0 1.9.328 2.33.981.427.654.501 1.549.223 2.682l-.981 4.095h-2.148l.951-4.009c.058-.25.104-.492.137-.728a1.747 1.747 0 00-.007-.62.742.742 0 00-.266-.433c-.141-.11-.354-.166-.643-.166-.278 0-.561.03-.85.088L49.2 11.191h-2.15l1.746-7.238z" fill="#fff"/></svg>