<svg width="70" height="70" fill="none" xmlns="http://www.w3.org/2000/svg"><circle cx="35" cy="35" r="33.5" stroke="url(#paint0_linear_58473_3)" stroke-width="3"/><path d="M19 42h32.667v2.333H19V42z" fill="url(#paint1_linear_58473_3)"/><path d="M19 46.667h32.667V49H19v-2.333z" fill="url(#paint2_linear_58473_3)"/><path d="M49.333 39.667h-28A2.34 2.34 0 0119 37.333v-14A2.34 2.34 0 0121.333 21h28a2.339 2.339 0 012.334 2.333v14a2.337 2.337 0 01-2.334 2.334zm0-16.334h-28v14h28v-14z" fill="url(#paint3_linear_58473_3)"/><path d="M35.523 34.284c.027.628.067 1.163.12 1.606a1.77 1.77 0 01-.544.106c-.399 0-.598-.172-.598-.518 0-.362.014-.743.04-1.14-.752-.027-1.389-.218-1.91-.572-.523-.362-.784-.866-.784-1.512 0-.354.115-.642.345-.863.23-.221.505-.332.823-.332.327 0 .557.036.69.107-.07.327-.106.544-.106.65 0 .442.142.787.425 1.035.283.239.654.358 1.114.358.46 0 .836-.102 1.128-.305a1 1 0 00.438-.85c0-.353-.12-.64-.358-.862a2.158 2.158 0 00-.876-.518 93.35 93.35 0 01-1.128-.384c-.407-.15-.787-.301-1.141-.452a2.308 2.308 0 01-.876-.663 1.7 1.7 0 01-.345-1.062c0-.637.256-1.18.77-1.632.522-.46 1.163-.761 1.924-.903l-.093-1.154c.16-.07.327-.106.504-.106a.55.55 0 01.451.212.728.728 0 01.186.518c0 .203-.004.35-.013.438.637.026 1.19.159 1.659.398.469.238.703.601.703 1.088 0 .371-.133.685-.398.942a1.322 1.322 0 01-.955.372c-.115 0-.24-.014-.372-.04a1.74 1.74 0 00.066-.491c0-.39-.106-.664-.318-.823-.212-.168-.522-.252-.93-.252-.397 0-.742.066-1.034.199-.248.23-.372.495-.372.796 0 .301.16.549.478.743.318.186.703.345 1.155.478.45.133.902.288 1.353.465a2.89 2.89 0 011.155.783c.318.354.477.791.477 1.313 0 .735-.27 1.358-.81 1.872-.539.504-1.22.822-2.043.955z" fill="url(#paint4_linear_58473_3)"/><path d="M28.188 30.188a2.042 2.042 0 11-4.084 0 2.042 2.042 0 014.084 0z" fill="url(#paint5_linear_58473_3)"/><path d="M46.563 30.188a2.042 2.042 0 11-4.084 0 2.042 2.042 0 014.084 0z" fill="url(#paint6_linear_58473_3)"/><defs><linearGradient id="paint0_linear_58473_3" x1="0" y1="35" x2="75.147" y2="35" gradientUnits="userSpaceOnUse"><stop stop-color="#FF27A4"/><stop offset="1" stop-color="#8BC1FF"/></linearGradient><linearGradient id="paint1_linear_58473_3" x1="19" y1="35" x2="54.069" y2="35" gradientUnits="userSpaceOnUse"><stop stop-color="#FF27A4"/><stop offset="1" stop-color="#8BC1FF"/></linearGradient><linearGradient id="paint2_linear_58473_3" x1="19" y1="35" x2="54.069" y2="35" gradientUnits="userSpaceOnUse"><stop stop-color="#FF27A4"/><stop offset="1" stop-color="#8BC1FF"/></linearGradient><linearGradient id="paint3_linear_58473_3" x1="19" y1="35" x2="54.069" y2="35" gradientUnits="userSpaceOnUse"><stop stop-color="#FF27A4"/><stop offset="1" stop-color="#8BC1FF"/></linearGradient><linearGradient id="paint4_linear_58473_3" x1="19" y1="35" x2="54.069" y2="35" gradientUnits="userSpaceOnUse"><stop stop-color="#FF27A4"/><stop offset="1" stop-color="#8BC1FF"/></linearGradient><linearGradient id="paint5_linear_58473_3" x1="19" y1="35" x2="54.069" y2="35" gradientUnits="userSpaceOnUse"><stop stop-color="#FF27A4"/><stop offset="1" stop-color="#8BC1FF"/></linearGradient><linearGradient id="paint6_linear_58473_3" x1="19" y1="35" x2="54.069" y2="35" gradientUnits="userSpaceOnUse"><stop stop-color="#FF27A4"/><stop offset="1" stop-color="#8BC1FF"/></linearGradient></defs></svg>