<svg width="70" height="70" fill="none" xmlns="http://www.w3.org/2000/svg"><circle cx="35" cy="35" r="33.5" stroke="url(#paint0_linear_58473_4)" stroke-width="3"/><path d="M23.571 34.714h6.858V37H23.57v-2.286z" fill="url(#paint1_linear_58473_4)"/><path d="M23.571 30.143H35v2.286H23.571v-2.286z" fill="url(#paint2_linear_58473_4)"/><path d="M23.571 25.571H35v2.286H23.571v-2.286z" fill="url(#paint3_linear_58473_4)"/><path d="M32.714 46.143H21.286V23.286h27.428v11.428H51V23.286A2.285 2.285 0 0048.714 21H21.286A2.285 2.285 0 0019 23.286v22.857a2.286 2.286 0 002.286 2.286h11.428v-2.286z" fill="url(#paint4_linear_58473_4)"/><path d="M41.857 45.674l-2.96-2.96-1.611 1.612 4.571 4.571L51 39.754l-1.611-1.611-7.532 7.531z" fill="url(#paint5_linear_58473_4)"/><defs><linearGradient id="paint0_linear_58473_4" x1="0" y1="35" x2="75.147" y2="35" gradientUnits="userSpaceOnUse"><stop stop-color="#FF27A4"/><stop offset="1" stop-color="#8BC1FF"/></linearGradient><linearGradient id="paint1_linear_58473_4" x1="19" y1="34.949" x2="53.353" y2="34.949" gradientUnits="userSpaceOnUse"><stop stop-color="#FF27A4"/><stop offset="1" stop-color="#8BC1FF"/></linearGradient><linearGradient id="paint2_linear_58473_4" x1="19" y1="34.949" x2="53.353" y2="34.949" gradientUnits="userSpaceOnUse"><stop stop-color="#FF27A4"/><stop offset="1" stop-color="#8BC1FF"/></linearGradient><linearGradient id="paint3_linear_58473_4" x1="19" y1="34.949" x2="53.353" y2="34.949" gradientUnits="userSpaceOnUse"><stop stop-color="#FF27A4"/><stop offset="1" stop-color="#8BC1FF"/></linearGradient><linearGradient id="paint4_linear_58473_4" x1="19" y1="34.949" x2="53.353" y2="34.949" gradientUnits="userSpaceOnUse"><stop stop-color="#FF27A4"/><stop offset="1" stop-color="#8BC1FF"/></linearGradient><linearGradient id="paint5_linear_58473_4" x1="19" y1="34.949" x2="53.353" y2="34.949" gradientUnits="userSpaceOnUse"><stop stop-color="#FF27A4"/><stop offset="1" stop-color="#8BC1FF"/></linearGradient></defs></svg>