<svg width="55" height="10" fill="none" xmlns="http://www.w3.org/2000/svg"><path d="M53.573.91c-.696-.48-1.748-.72-3.128-.72h-3.612l-1.344 7.32h-4.733l.304-1.661h2.852l.337-1.865-2.85.004.306-1.653h2.937l.39-2.145H39.07l-1.276 6.944h-2.188L36.889.19H33.77l-1.275 6.943h-2.132L31.649.19h-3.116l-1.345 7.32h-4.767l.301-1.661h2.863l.338-1.855-2.86-.003.304-1.656h2.97L26.724.19H8.14l-1.058 5.8L4.975.19H1.741L0 9.656h3.089l1.054-5.96 2.044 5.96h11.07l1.347-7.322h1.731L18.99 9.656h29.13l.844-4.622 1.367 4.622h3.09l-1.416-3.777.324-.07c.714-.153 1.27-.483 1.658-.977.387-.499.584-1.14.584-1.909 0-.895-.327-1.554-.998-2.014zM14.57 7.51H9.84l.306-1.661h2.966l.336-1.87H10.51l.283-1.644h4.722l-.947 5.175zm36.456-3.19c-.31.218-.761.324-1.377.324h-.611l.468-2.54h.45c.511 0 .884.082 1.142.25.2.132.44.393.44.885 0 .596-.279.916-.513 1.081h.001z" fill="#fff"/></svg>