<svg width="61" height="11" fill="none" xmlns="http://www.w3.org/2000/svg"><path d="M59.725.798C58.952.268 57.782 0 56.248 0H52.23l-1.493 8.12h-5.262l.338-1.843h3.17l.376-2.069-3.168.005.339-1.834h3.265L50.23.001H43.6l-1.418 7.701H39.75L41.176 0h-3.465l-1.418 7.702h-2.37L35.35 0h-3.464l-1.495 8.12h-5.3l.335-1.843h3.183l.376-2.057-3.18-.003.338-1.838h3.301L29.877 0H9.216L8.04 6.434 5.698 0H2.102L.167 10.5H3.6l1.171-6.611L7.045 10.5h12.307l1.497-8.122h1.925L21.277 10.5h32.384l.94-5.127 1.518 5.127h3.436l-1.574-4.19.36-.077c.793-.17 1.412-.536 1.843-1.084.43-.553.65-1.264.65-2.117 0-.993-.364-1.724-1.11-2.234zM16.364 8.12h-5.257l.34-1.842h3.297l.374-2.075h-3.266l.315-1.822h5.249l-1.053 5.74h.001zm40.53-3.536c-.346.242-.847.36-1.532.36h-.68l.522-2.818h.5c.568 0 .983.09 1.27.277.223.146.488.435.488.982 0 .66-.31 1.016-.57 1.198h.002z" fill="#B6ED87"/></svg>