<svg width="62" height="20" fill="none" xmlns="http://www.w3.org/2000/svg"><path fill-rule="evenodd" clip-rule="evenodd" d="M44.077 4.932c1.375 0 2.49-1.066 2.49-2.382 0-1.315-1.115-2.383-2.49-2.383-1.374 0-2.488 1.067-2.488 2.383s1.114 2.382 2.488 2.382zM25.006 6.218c-.113.27-.921 2.457-2.877 4.723V1.25l-5.212.986V19.8h5.212v-5.43c1.51 2.167 2.254 5.43 2.254 5.43h6.242c-.617-2.457-3.318-6.987-3.318-6.987 2.424-2.942 3.489-6.077 3.658-6.596h-5.96zm13.7-.183c-4.668.143-7.037 2.148-7.037 6.132v7.634h5.092v-6.225c0-2.386.326-3.409 3.284-3.506V6.105c-.497-.101-1.339-.07-1.339-.07zM8.177 8.152c-.638-.04-2.116-.131-2.116-1.405 0-1.536 2.128-1.536 2.926-1.536 1.403 0 3.22.396 4.518.768 0 0 .724.244 1.34.494l.057.015V2.28l-.078-.022C13.292 1.745 11.51 1.25 8.21 1.25 2.517 1.251.5 4.426.5 7.145c0 1.568.701 5.257 7.221 5.683.553.032 2.02.113 2.02 1.429 0 1.086-1.201 1.727-3.22 1.727-2.214 0-4.362-.54-5.666-1.053v4.335c1.953.49 4.154.734 6.733.734 5.566 0 8.06-3.003 8.06-5.98 0-3.375-2.79-5.568-7.47-5.868zm33.375 11.649h5.051V6.234h-5.05V19.8zM56.114 2.116v17.685h5.052V1.25l-5.052.865zm-7.371 0l5.047-.865v18.55h-5.047V2.116z" fill="#C483EC"/></svg>