<svg width="61" height="21" fill="none" xmlns="http://www.w3.org/2000/svg"><path d="M2.76 20.78v-6.302H.877v-1.95h6.058v1.95H5.05v6.302H2.76zm5.294 0v-8.252h2.395c.937 0 1.59.042 1.96.126.37.085.688.227.956.426.303.225.535.513.698.862.163.35.244.735.244 1.156 0 .639-.16 1.158-.48 1.558-.32.4-.785.667-1.398.798l2.291 3.326h-2.59l-1.928-3.23v3.23H8.054zm2.148-4.352h.425c.493 0 .854-.083 1.082-.248.228-.165.342-.424.342-.778 0-.413-.107-.707-.32-.882-.211-.175-.568-.262-1.07-.262h-.46v2.17z" fill="#9AC9FF"/><path d="M14.605 20.78l2.9-8.252h2.87l2.906 8.252h-2.28l-.424-1.477H17.32l-.436 1.477h-2.28zm3.21-3.083h2.28l-.856-2.723a6.812 6.812 0 01-.11-.4l-.177-.71c-.05.202-.099.396-.147.58-.047.184-.096.36-.146.53l-.844 2.723zm6.27 3.083v-8.252h2.21l3.176 4.244c.061.087.161.26.301.522.14.26.294.572.463.932a15.75 15.75 0 01-.1-.913 9.13 9.13 0 01-.033-.71v-4.076h2.2v8.253h-2.2l-3.175-4.262a4.732 4.732 0 01-.307-.521c-.14-.261-.292-.568-.456-.922.046.346.079.652.1.92.02.266.032.503.032.71v4.075h-2.21zm10.393-2.666c.34.38.676.663 1.007.85.331.189.662.283.99.283.307 0 .559-.081.756-.243a.761.761 0 00.295-.614c0-.274-.085-.486-.255-.634-.17-.149-.556-.302-1.157-.46-.823-.218-1.405-.501-1.745-.85-.341-.35-.511-.83-.511-1.438 0-.79.268-1.433.806-1.93.538-.499 1.236-.747 2.093-.747.463 0 .902.06 1.318.183.415.122.808.307 1.18.555l-.718 1.618a3.019 3.019 0 00-.801-.493 2.151 2.151 0 00-.813-.167c-.276 0-.5.065-.672.195a.599.599 0 00-.258.498c0 .207.075.372.227.496.15.124.443.243.875.356l.104.028c.934.248 1.548.52 1.843.817.199.203.35.446.453.73.104.284.156.598.156.944 0 .876-.293 1.58-.879 2.111-.585.532-1.366.798-2.343.798a4.211 4.211 0 01-1.599-.293c-.48-.195-.942-.502-1.386-.919l1.034-1.674zm6.459 2.666v-8.252h5.15v1.81H43.17v1.43h2.75v1.77h-2.75v3.242h-2.233zm6.396 0v-8.252h5.15v1.81h-2.916v1.43h2.75v1.77h-2.75v1.393h2.917v1.849h-5.15zm6.667 0v-8.252h2.394c.938 0 1.591.042 1.96.126.37.085.689.227.956.426.303.225.535.513.698.862.163.35.244.735.244 1.156 0 .639-.16 1.158-.48 1.558-.319.4-.785.667-1.397.798l2.29 3.326h-2.589l-1.93-3.23v3.23H54zm2.147-4.352h.425c.494 0 .854-.083 1.082-.248.228-.165.342-.424.342-.778 0-.413-.106-.707-.319-.882-.212-.175-.57-.262-1.07-.262h-.46v2.17zM14.863.028h3.07c1.266 0 2.15.04 2.653.12.502.08.935.218 1.297.414.414.225.729.527.946.905.217.379.325.816.325 1.312 0 .626-.162 1.124-.486 1.492-.324.368-.841.647-1.55.838.796.06 1.419.334 1.868.823.449.489.673 1.141.673 1.958 0 .586-.126 1.102-.378 1.548a2.597 2.597 0 01-1.084 1.037c-.383.2-.855.343-1.416.429-.561.085-1.48.127-2.756.127h-3.162V.028zm2.833 4.397h.612c.755 0 1.273-.081 1.554-.244.28-.163.421-.445.421-.846 0-.416-.131-.708-.394-.876-.263-.167-.774-.251-1.535-.251h-.658v2.217zm0 4.359h1.071c.725 0 1.238-.089 1.54-.267.3-.178.45-.475.45-.89 0-.461-.137-.783-.413-.966-.275-.183-.786-.274-1.53-.274h-1.119v2.397zm6.484 2.247L28.046.028h3.828l3.874 11.003h-3.04l-.566-1.969h-4.34l-.583 1.97h-3.04zm4.28-4.11h3.039L30.358 3.29a8.91 8.91 0 01-.146-.534c-.06-.245-.14-.56-.237-.947-.066.27-.131.53-.195.774-.064.246-.13.481-.195.707l-1.126 3.63zm8.36 4.11V.028h2.947L44 5.688c.082.115.216.347.402.695.187.348.392.763.617 1.244a22.304 22.304 0 01-.134-1.218 12.219 12.219 0 01-.042-.947V.028h2.932v11.003h-2.932L40.609 5.35a6.278 6.278 0 01-.41-.695 24.994 24.994 0 01-.608-1.229c.061.461.106.87.134 1.225.028.356.042.672.042.947v5.434h-2.948zm13.358 0V.028h3.024v4.998L56.747.028h3.56l-4.142 5.366 4.502 5.637h-3.813l-3.652-4.938v4.938h-3.024zM12.412 0H0v2.18h12.412V0zm0 4.233H0v2.18h12.412v-2.18zm0 4.617H0v2.181h12.412v-2.18z" fill="#9AC9FF"/></svg>