<svg width="61" height="13" fill="none" xmlns="http://www.w3.org/2000/svg"><path d="M12.443 7.657c-.844 3.303-4.271 5.313-7.655 4.49-3.383-.824-5.443-4.17-4.599-7.472C1.032 1.37 4.46-.64 7.843.185c3.384.823 5.444 4.169 4.6 7.472z" fill="#E27D43"/><path d="M9.101 5.287c.126-.82-.514-1.261-1.39-1.555l.285-1.112-.693-.168-.277 1.082c-.182-.045-.37-.086-.555-.128l.278-1.089-.692-.169-.284 1.111c-.151-.033-.3-.066-.443-.101v-.004l-.955-.233-.184.723s.514.115.503.122c.28.068.331.25.323.394l-.323 1.266a.46.46 0 01.072.022l-.074-.018-.453 1.774c-.034.083-.121.208-.317.16.006.01-.504-.122-.504-.122l-.344.774.902.22c.167.04.332.084.494.124l-.287 1.124.692.169.284-1.112c.19.05.373.096.553.14l-.284 1.106.694.169.286-1.122c1.182.218 2.07.13 2.445-.913.301-.84-.015-1.325-.637-1.64.453-.102.794-.393.885-.994zM7.518 7.455c-.215.84-1.664.385-2.134.272l.381-1.49c.47.115 1.976.342 1.753 1.218zm.214-2.18c-.196.764-1.402.376-1.793.28l.345-1.35c.391.095 1.651.273 1.448 1.07zm10.78-1.545c.512 0 .954.09 1.326.266.374.178.682.417.93.718.244.302.425.656.542 1.061.117.406.175.843.175 1.31 0 .72-.135 1.398-.407 2.037a5.27 5.27 0 01-1.111 1.67 5.23 5.23 0 01-3.74 1.537c-.096 0-.266-.003-.505-.008a7.543 7.543 0 01-.822-.07 9.87 9.87 0 01-.984-.188 5.006 5.006 0 01-.983-.343L15.698.377l2.478-.375-.99 4.025c.212-.093.425-.165.638-.218.214-.052.443-.078.688-.078zm-2.079 6.68c.373 0 .725-.089 1.055-.265a2.76 2.76 0 00.857-.71c.24-.297.429-.632.567-1.007a3.36 3.36 0 00.208-1.171c0-.5-.085-.889-.256-1.17-.17-.28-.485-.422-.943-.422-.15 0-.343.028-.583.078-.24.053-.456.163-.649.329l-1.054 4.275c.064.01.12.021.168.031a1.77 1.77 0 00.343.032h.287zm7.621 1.7h-2.366l1.998-8.206h2.382l-2.014 8.207zm1.151-9.206c-.33 0-.63-.096-.895-.288-.268-.192-.4-.486-.4-.882 0-.218.045-.423.135-.616.091-.193.21-.359.36-.5.15-.14.323-.251.52-.336.197-.082.407-.124.632-.124.33 0 .628.096.894.288.266.194.4.488.4.882 0 .22-.046.425-.136.617-.09.193-.21.359-.36.5-.148.14-.323.251-.519.335a1.592 1.592 0 01-.63.124zm2.937-.842l2.479-.374-.609 2.419h2.654l-.479 1.903h-2.638l-.703 2.87a3.18 3.18 0 00-.112.671c-.011.209.016.388.08.539a.684.684 0 00.343.35c.165.084.402.126.712.126.255 0 .503-.024.744-.07.239-.047.481-.111.726-.195l.177 1.78a8.65 8.65 0 01-1.04.295 6.126 6.126 0 01-1.327.124c-.735 0-1.305-.106-1.71-.318-.406-.214-.693-.506-.864-.875-.17-.369-.245-.793-.224-1.271.022-.48.096-.983.224-1.514l1.567-6.46zm4.42 6.772c0-.707.117-1.374.351-1.998a4.918 4.918 0 011.008-1.64 4.72 4.72 0 011.591-1.107c.622-.27 1.318-.405 2.086-.405.48 0 .909.044 1.286.133.38.09.722.205 1.032.35L39.1 5.978a7.78 7.78 0 00-.663-.226 2.953 2.953 0 00-.84-.102c-.789 0-1.413.266-1.878.796-.463.53-.696 1.243-.696 2.138 0 .53.117.96.353 1.288.234.328.666.49 1.294.49.31 0 .61-.03.896-.092.288-.063.543-.141.767-.234l.177 1.856c-.3.114-.63.216-.991.306a5.642 5.642 0 01-1.296.13c-.66 0-1.22-.093-1.678-.28a3.2 3.2 0 01-1.135-.756c-.3-.319-.514-.69-.647-1.117a4.476 4.476 0 01-.201-1.341zm10.511 3.495c-.565 0-1.055-.084-1.471-.25a2.718 2.718 0 01-1.03-.703 3.016 3.016 0 01-.616-1.068 4.22 4.22 0 01-.207-1.364c0-.625.103-1.25.31-1.874a5.264 5.264 0 01.92-1.684c.404-.5.901-.908 1.487-1.227.584-.316 1.257-.475 2.013-.475.554 0 1.042.084 1.464.25.42.166.766.401 1.04.702.27.303.475.658.613 1.07.14.41.208.865.208 1.364 0 .623-.101 1.248-.303 1.874a5.364 5.364 0 01-.895 1.684 4.665 4.665 0 01-1.479 1.225c-.59.317-1.276.476-2.054.476zm1.183-6.678c-.351 0-.661.099-.927.295-.266.199-.49.449-.67.75a3.65 3.65 0 00-.41.99c-.09.36-.135.7-.135 1.022 0 .521.087.927.256 1.219.171.29.48.436.927.436.352 0 .66-.099.928-.297.265-.197.489-.447.67-.749a3.66 3.66 0 00.41-.99c.089-.359.135-.7.135-1.023 0-.519-.086-.926-.257-1.217-.17-.29-.48-.436-.927-.436zm6.127 6.459h-2.368l1.998-8.206h2.384l-2.014 8.207zm1.15-9.206c-.33 0-.63-.096-.895-.288-.267-.192-.4-.486-.4-.882 0-.218.045-.423.136-.616.09-.193.21-.359.36-.5a1.77 1.77 0 01.52-.336c.196-.082.406-.124.63-.124.33 0 .63.096.896.288.266.194.4.488.4.882 0 .22-.047.425-.137.617-.09.193-.21.359-.358.5a1.76 1.76 0 01-.52.335 1.597 1.597 0 01-.633.124zm2.569 1.373c.18-.051.38-.113.598-.18a9.018 9.018 0 011.647-.327 10.54 10.54 0 011.142-.055c1.248 0 2.108.355 2.583 1.062.475.707.557 1.675.25 2.902l-1.09 4.431h-2.381l1.055-4.338a9.05 9.05 0 00.152-.788 1.823 1.823 0 00-.009-.67.8.8 0 00-.294-.47c-.157-.119-.393-.179-.713-.179a4.95 4.95 0 00-.942.095l-1.551 6.35h-2.383l1.936-7.833z" fill="#fff"/></svg>