<svg width="55" height="20" fill="none" xmlns="http://www.w3.org/2000/svg"><path fill-rule="evenodd" clip-rule="evenodd" d="M39.198 5.029A2.24 2.24 0 1039.199.55a2.24 2.24 0 00-.001 4.478zM22.043 6.238c-.1.254-.828 2.308-2.587 4.438V1.57l-4.688.926v16.506h4.688V13.9c1.357 2.036 2.028 5.102 2.028 5.102h5.614c-.555-2.309-2.984-6.566-2.984-6.566 2.18-2.765 3.138-5.71 3.29-6.198h-5.36zm12.324-.173c-4.199.135-6.33 2.019-6.33 5.763v7.174h4.58v-5.85c0-2.242.294-3.203 2.955-3.295V6.131c-.448-.095-1.205-.066-1.205-.066zm-27.46 1.99c-.575-.038-1.904-.123-1.904-1.32 0-1.444 1.914-1.444 2.631-1.444 1.263 0 2.897.373 4.065.722 0 0 .65.23 1.205.465l.051.014V2.537l-.07-.021c-1.378-.482-2.98-.946-5.95-.946C1.815 1.57 0 4.553 0 7.109c0 1.473.631 4.94 6.496 5.34.497.03 1.817.107 1.817 1.343 0 1.021-1.08 1.623-2.897 1.623-1.991 0-3.923-.507-5.096-.989V18.5c1.756.46 3.736.69 6.056.69 5.007 0 7.25-2.822 7.25-5.62 0-3.171-2.51-5.232-6.72-5.514zm30.02 10.947h4.544V6.252h-4.544v12.75zm13.099-16.62v16.62h4.544V1.57l-4.544.813zm-6.63 0l4.539-.812v17.432h-4.54V2.382z" fill="#fff"/></svg>