<svg width="40" height="31" fill="none" xmlns="http://www.w3.org/2000/svg"><path d="M24.733 0c-.793.006-1.58.045-2.412.268a8.61 8.61 0 00-2.544 1.161C18.683.786 17.623.258 16.607.134 15.346-.022 14.174.062 12.813.09c-1.614.033-2.667.857-4.376 1.517-1.707.657-3.906 1.294-7.008 1.294H0v13.75l.804.401 2.633 1.296 9.376 10.446.044.044c1.072 1.06 2.517 1.323 3.794 1.25 1.279-.071 2.479-.445 3.438-1.025 2.11-1.273 7.857-5.27 7.857-5.27l.134-.09.09-.088c.68-.675 1.021-1.5 1.25-2.365l5.49-2.769 4.107-1.383.983-.314V2.902h-1.429a18.342 18.342 0 01-7.008-1.34C29.854.895 28.817.08 27.186.045 26.314.028 25.523-.005 24.73 0h.002zm.043 2.858c.643-.006 1.385.028 2.323.044.15.006 1.522.592 3.437 1.34 1.618.636 3.867 1.2 6.607 1.383v9.107l-3.304 1.117h-.089l-.09.043-4.329 2.189a5.071 5.071 0 00-1.071-1.786l-.09-.134-6.071-7.455-.893-1.117-1.117.893-3.839 3.126c-1.289.893-2.333.635-3.393.134-.307-.146-.29-.19-.536-.357l6.519-5.403.089-.088c1.935-1.92 3.125-2.585 4.151-2.858.514-.14 1.056-.172 1.697-.178h-.001zm-9.953.044c.476-.018.954-.003 1.428.044.375.045.799.363 1.162.492-.146.134-.252.211-.403.357l-.089.09-7.812 6.471-1.206.983 1.071 1.116s1.033 1.117 2.635 1.876c1.601.758 4.074 1.188 6.294-.357l.09-.09 2.767-2.276 5.269 6.473.044.09.044.043c.943.932.922 2.4 0 3.35-.011.01.012.032 0 .042-.011.007-.2.119-.223.136l-1.875-2.546-2.322 1.697 1.832 2.455c-.743.503-1.078.765-1.876 1.296l-1.919-2.59-2.323 1.697 1.832 2.454c-.163.1-.497.324-.626.403-.451.273-1.323.58-2.098.624-.73.04-1.289-.128-1.562-.357l-.044-.044-9.554-10.58-.179-.225-2.323-1.16V5.625c2.729-.179 4.994-.72 6.607-1.339 1.909-.731 3.272-1.334 3.437-1.34l1.92-.044h.002z" fill="url(#paint0_linear_57641_68)"/><defs><linearGradient id="paint0_linear_57641_68" x1="0" y1="15.05" x2="42.941" y2="15.05" gradientUnits="userSpaceOnUse"><stop stop-color="#FF27A4"/><stop offset="1" stop-color="#8BC1FF"/></linearGradient></defs></svg>