<svg width="16" height="15" fill="none" xmlns="http://www.w3.org/2000/svg"><path d="M14.816.001a1.83 1.83 0 00-.575.138h-.002c-.176.07-1.01.42-2.278.952L7.417 3.005C4.157 4.377.952 5.729.952 5.729l.038-.015s-.22.073-.452.231a1.25 1.25 0 00-.36.349 1.01 1.01 0 00-.17.683c.055.445.343.711.55.858.209.15.408.219.408.219h.005l3.006 1.012c.134.433.916 3.001 1.103 3.592.111.354.219.575.354.744a.877.877 0 00.233.216c.048.027.098.05.151.065l-.03-.008c.009.003.016.01.023.013a.797.797 0 00.073.014c.475.144.858-.152.858-.152l.021-.017 1.775-1.616 2.974 2.282.068.03c.62.271 1.247.12 1.58-.147.333-.27.463-.613.463-.613l.022-.056L15.943 1.64c.065-.29.082-.563.01-.827a1.112 1.112 0 00-.48-.644A1.152 1.152 0 0014.814 0zm-.063 1.262c-.002.04.005.035-.012.11v.006l-2.277 11.652c-.01.016-.026.053-.072.09-.048.037-.086.061-.286-.018l-3.638-2.789-2.197 2.003.461-2.948 5.944-5.54c.245-.228.163-.276.163-.276.017-.28-.37-.082-.37-.082L4.974 8.114l-.002-.012-3.592-1.21V6.89l-.01-.002a.165.165 0 00.019-.007l.02-.01.019-.007S4.635 5.512 7.896 4.14c1.632-.688 3.277-1.38 4.542-1.915.75-.315 1.5-.63 2.252-.941.051-.02.027-.02.063-.02z" fill="#fff"/></svg>