<svg width="16" height="16" fill="none" xmlns="http://www.w3.org/2000/svg"><path d="M15.436 9.313c.082-.45.126-.91.126-1.37A7.525 7.525 0 0013.348 2.6 7.517 7.517 0 0010.945.982a7.599 7.599 0 00-4.37-.458A4.503 4.503 0 004.473 0 4.446 4.446 0 001.31 1.31 4.446 4.446 0 000 4.473c0 .76.196 1.508.562 2.168a7.666 7.666 0 00-.114 1.302c0 1.02.2 2.01.594 2.94.38.9.924 1.709 1.618 2.403a7.516 7.516 0 002.403 1.618 7.505 7.505 0 004.264.476c.67.378 1.426.58 2.2.58a4.437 4.437 0 003.163-1.31A4.437 4.437 0 0016 11.487a4.449 4.449 0 00-.564-2.174zm-1.762 4.32a3.03 3.03 0 01-3.636.494l-.45-.253-.51.09a6.067 6.067 0 01-3.454-.386 6.074 6.074 0 01-1.946-1.31 6.086 6.086 0 01-1.698-5.38l.088-.501-.248-.446a3.02 3.02 0 01.506-3.613 3.014 3.014 0 012.147-.888 3.06 3.06 0 011.428.358l.448.236.496-.096c.378-.072.768-.11 1.16-.11a6.083 6.083 0 014.324 1.79 6.067 6.067 0 011.313 1.945 6.145 6.145 0 01.378 3.49l-.094.51.252.452c.252.45.384.96.384 1.474 0 .814-.314 1.57-.888 2.145zM9.429 7.066l-1.768-.392c-.672-.154-1.446-.356-1.446-.99s.542-1.078 1.522-1.078c1.974 0 1.794 1.356 2.774 1.356.516 0 .968-.304.968-.824 0-1.217-1.948-2.13-3.6-2.13-1.794 0-3.704.761-3.704 2.79 0 .976.348 2.016 2.272 2.498l2.388.596c.722.178.904.584.904.952 0 .61-.606 1.206-1.704 1.206-2.144 0-1.846-1.65-2.994-1.65-.516 0-.89.356-.89.862 0 .988 1.2 2.309 3.884 2.309 2.554 0 3.82-1.23 3.82-2.88 0-1.063-.49-2.193-2.426-2.625z" fill="#fff"/></svg>