<svg width="16" height="16" fill="none" xmlns="http://www.w3.org/2000/svg"><path d="M5.501 3.75a2.25 2.25 0 014.5 0 .75.75 0 001.5 0 3.75 3.75 0 10-6.14 2.89L3.09 10.898a.75.75 0 001.324.706L7.001 6.75a.75.75 0 00-.309-1.015 2.25 2.25 0 01-1.19-1.985z" fill="#fff"/><path d="M7.365 3.108a.75.75 0 011.03.257l2.609 4.349a3.75 3.75 0 11-.628 6.785.75.75 0 11.752-1.3 2.25 2.25 0 10-.034-3.88.75.75 0 01-1.03-.255L7.109 4.137a.75.75 0 01.257-1.03z" fill="#fff"/><path d="M2.901 8.277A.75.75 0 012.626 9.3a2.25 2.25 0 103.375 1.95.75.75 0 01.75-.751h5.5a.75.75 0 010 1.5H7.426a3.75 3.75 0 11-5.55-3.998.75.75 0 011.024.274h.001z" fill="#fff"/></svg>