<svg width="20" height="20" fill="none" xmlns="http://www.w3.org/2000/svg"><path d="M10 16.707c.946 0 1.81-.103 2.598-.281l-1.757-1.757c-.273.021-.55.038-.841.038-5.351 0-7.424-3.846-7.926-5A8.642 8.642 0 013.582 7.41L2.184 6.012C.646 7.679.063 9.358.052 9.391a.994.994 0 000 .633c.02.066 2.315 6.683 9.948 6.683zm0-14c-1.837 0-3.346.396-4.604.981L1.706 0 .294 1.414l18 18L19.707 18l-3.32-3.319c2.615-1.951 3.548-4.615 3.562-4.657a.994.994 0 000-.633c-.022-.067-2.316-6.684-9.95-6.684zm4.972 10.558l-2.28-2.28c.19-.39.308-.819.308-1.278 0-1.641-1.36-3-3-3-.46 0-.888.118-1.277.309L6.915 5.208A9.26 9.26 0 0110 4.707c5.35 0 7.424 3.846 7.926 5-.302.692-1.166 2.342-2.954 3.558z" fill="#74B5FF"/></svg>