<svg width="20" height="20" viewBox="0 0 20 15" fill="none" xmlns="http://www.w3.org/2000/svg"><ellipse cx="10" cy="7.5" rx="3" ry="2.5" fill="#74B5FF"/><path d="M10 14.707c.946 0 1.81-.103 2.598-.281l-1.757-1.757c-.273.021-.55.038-.841.038-5.351 0-7.424-3.846-7.926-5A8.642 8.642 0 013.582 5.41L2.184 4.012C.646 5.679.063 7.358.052 7.391a.994.994 0 000 .633c.02.066 2.315 6.683 9.948 6.683zm0-14c-1.837 0-3.346.396-4.604.981l10.992 10.993c2.614-1.951 3.547-4.615 3.56-4.657a.994.994 0 000-.633C19.928 7.324 17.634.707 10 .707zm4.972 10.558L7 3.292c.993-.34 1.95-.594 3-.585 5.35 0 7.424 3.846 7.926 5-.302.692-1.166 2.342-2.954 3.558z" fill="#74B5FF"/></svg>