<svg width="12" height="14" fill="none" xmlns="http://www.w3.org/2000/svg"><path d="M11.29 10.931a5.843 5.843 0 00-1.26-1.867 5.869 5.869 0 00-1.867-1.26l-.02-.007a3.874 3.874 0 10-4.537.002l-.018.007c-.7.296-1.329.719-1.868 1.26A5.87 5.87 0 000 13.09a.125.125 0 00.125.128h.938a.125.125 0 00.125-.122 4.658 4.658 0 011.371-3.192A4.657 4.657 0 015.875 8.53c1.253 0 2.43.488 3.316 1.374a4.658 4.658 0 011.371 3.192.124.124 0 00.126.122h.937a.125.125 0 00.125-.128 5.823 5.823 0 00-.46-2.16zM5.874 7.344a2.67 2.67 0 01-1.9-.788 2.67 2.67 0 01-.787-1.9c0-.717.28-1.392.787-1.9a2.67 2.67 0 011.9-.787c.717 0 1.392.28 1.9.787a2.67 2.67 0 01.788 1.9 2.67 2.67 0 01-.788 1.9 2.67 2.67 0 01-1.9.788z" fill="#fff"/></svg>