<svg width="16" height="9" fill="none" xmlns="http://www.w3.org/2000/svg"><path d="M1.455 7.077h13.09c.4 0 .728.327.728.727a.73.73 0 01-.727.728H1.455a.73.73 0 01-.728-.728c0-.4.328-.727.728-.727zM1.09 3.855a.549.549 0 00.749-.203l.342-.597.349.604c.153.262.487.35.749.204a.547.547 0 00.204-.742l-.357-.611h.691a.55.55 0 00.546-.546.55.55 0 00-.546-.545h-.69l.341-.596a.547.547 0 00-.196-.75.556.556 0 00-.75.204l-.341.597L1.84.277a.556.556 0 00-.75-.203.547.547 0 00-.195.749l.341.596h-.69A.55.55 0 000 1.964a.55.55 0 00.545.546h.691l-.349.604a.545.545 0 00.204.741zm5.818 0a.549.549 0 00.75-.203L8 3.055l.35.604c.152.262.486.35.748.204a.547.547 0 00.204-.742l-.35-.604h.692a.55.55 0 00.545-.545.55.55 0 00-.545-.546h-.699L9.287.83a.553.553 0 00-.196-.75.543.543 0 00-.742.197L8 .874 7.658.277a.54.54 0 00-.742-.196.547.547 0 00-.196.749l.342.596h-.698a.538.538 0 00-.546.538.55.55 0 00.546.546h.69l-.349.604a.545.545 0 00.204.741zM16 1.965a.55.55 0 00-.546-.546h-.69l.341-.596a.553.553 0 00-.196-.75.543.543 0 00-.742.197l-.349.604-.342-.597a.54.54 0 00-.742-.196.547.547 0 00-.196.749l.342.596h-.69a.54.54 0 10-.008 1.084h.69l-.348.604a.538.538 0 00.203.741.549.549 0 00.75-.203l.341-.597.35.604c.152.262.487.35.748.204a.547.547 0 00.204-.742l-.35-.604h.692A.56.56 0 0016 1.964z" fill="#fff"/></svg>