<svg width="37" height="40" fill="none" xmlns="http://www.w3.org/2000/svg"><path d="M33.208 10.358h-4.17A6.553 6.553 0 0030.087 5.5a6.636 6.636 0 00-2.673-4.217A6.868 6.868 0 0022.511.06a6.803 6.803 0 00-4.398 2.454A6.803 6.803 0 0013.715.06a6.867 6.867 0 00-4.903 1.222A6.636 6.636 0 006.14 5.5a6.553 6.553 0 001.049 4.86h-4.17c-.8 0-1.567.313-2.133.868A2.94 2.94 0 000 13.322v5.929c0 .786.32 1.54.885 2.095a3.05 3.05 0 002.134.869v14.82c0 .787.319 1.54.885 2.096A3.05 3.05 0 006.038 40h24.15a3.04 3.04 0 002.134-.87 2.94 2.94 0 00.886-2.094V22.215c.8 0 1.567-.313 2.133-.87a2.94 2.94 0 00.885-2.094v-5.929c0-.785-.319-1.539-.885-2.095a3.05 3.05 0 00-2.133-.869zM19.623 6.653c0-.733.221-1.45.636-2.058a3.76 3.76 0 011.693-1.365 3.838 3.838 0 012.18-.21 3.796 3.796 0 011.933 1.013 3.685 3.685 0 011.032 1.897 3.645 3.645 0 01-.214 2.141 3.72 3.72 0 01-1.39 1.663c-.62.407-1.35.624-2.097.624h-3.773V6.653zM12.83 2.948c1 .001 1.96.392 2.667 1.086a3.676 3.676 0 011.107 2.62v3.704H12.83c-1 0-1.96-.39-2.668-1.085a3.671 3.671 0 01-1.105-2.62 3.67 3.67 0 011.105-2.62 3.809 3.809 0 012.668-1.085zM3.02 13.323h13.585v5.928H3.019v-5.929zm3.019 8.892h10.566v14.82H6.038v-14.82zm24.152 14.82H19.623v-14.82h10.566l.001 14.82zM19.623 19.252v-5.929h13.585l.001 5.929H19.623z" fill="url(#paint0_linear_57639_14)"/><defs><linearGradient id="paint0_linear_57639_14" x1="0" y1="20" x2="38.89" y2="20" gradientUnits="userSpaceOnUse"><stop stop-color="#FF27A4"/><stop offset="1" stop-color="#8BC1FF"/></linearGradient></defs></svg>