<svg width="16" height="16" fill="none" xmlns="http://www.w3.org/2000/svg"><path d="M13.111 0A2.889 2.889 0 0116 2.889V13.11A2.89 2.89 0 0113.111 16H2.89A2.89 2.89 0 010 13.111V2.89A2.889 2.889 0 012.889 0H13.11zm1.556 4.889H1.333v8.222c0 .859.697 1.556 1.556 1.556H13.11a1.556 1.556 0 001.556-1.556V4.89zM4.222 10.222a1.111 1.111 0 110 2.222 1.111 1.111 0 010-2.222zm3.778 0a1.111 1.111 0 110 2.222 1.111 1.111 0 010-2.222zM4.222 6.667a1.111 1.111 0 110 2.222 1.111 1.111 0 010-2.222zm3.778 0a1.111 1.111 0 110 2.222 1.111 1.111 0 010-2.222zm3.778 0a1.111 1.111 0 110 2.222 1.111 1.111 0 010-2.222zm1.333-5.334H2.89A1.556 1.556 0 001.333 2.89v.667h13.334V2.89a1.556 1.556 0 00-1.556-1.556z" fill="#fff"/></svg>