<svg width="42" height="40" fill="none" xmlns="http://www.w3.org/2000/svg"><path d="M8.698 0a1.78 1.78 0 00-1.23.488c-.326.313-.51.736-.51 1.178v1.077C2.95 3.776 0 7.275 0 11.44v.313c0 3.672 2.251 6.998 5.748 8.5l1.21.52v12.914c-2.052-.89-3.479-2.866-3.479-5.165v-2.41a1.63 1.63 0 00-.51-1.178 1.78 1.78 0 00-1.23-.488 1.78 1.78 0 00-1.23.488A1.634 1.634 0 000 26.112v2.407c0 4.165 2.954 7.664 6.958 8.697v1.117c0 .442.184.865.51 1.178a1.78 1.78 0 001.23.488 1.78 1.78 0 001.23-.488c.326-.313.51-.736.51-1.178v-.867c2.298-.246 4.42-1.294 5.962-2.945 1.542-1.65 2.395-3.788 2.395-6.002v-.294a9.018 9.018 0 00-1.558-5.053 9.604 9.604 0 00-4.176-3.431l-2.623-1.127V5.86a5.983 5.983 0 013.498 1.943 5.53 5.53 0 011.38 3.642v2.446c0 .442.183.866.51 1.178a1.78 1.78 0 001.23.488c.46 0 .903-.175 1.23-.488a1.63 1.63 0 00.509-1.178v-2.446c0-2.216-.852-4.353-2.394-6.005-1.541-1.651-3.665-2.7-5.963-2.946v-.827c0-.442-.184-.865-.51-1.178A1.78 1.78 0 008.698 0zM3.48 11.44c0-2.299 1.427-4.275 3.48-5.165V17.12c-2.123-1.006-3.48-3.082-3.48-5.365v-.313zm6.959 22.662v-11.83l1.2.512a6.162 6.162 0 012.678 2.201c.652.966 1 2.091 1 3.241v.294c0 2.792-2.105 5.112-4.878 5.585v-.003zm14.16-10.781a22.594 22.594 0 01-.25-3.333H22.6a1.78 1.78 0 01-1.23-.488 1.632 1.632 0 01-.51-1.178c0-.442.184-.866.51-1.178a1.78 1.78 0 011.23-.488h1.99c.466-3.133 1.583-5.972 3.184-8.225 2.143-3.016 5.288-5.122 8.976-5.122 1.395 0 2.958.38 4.22 1.193.384.248.648.63.736 1.065.088.434-.007.885-.266 1.251-.258.367-.658.62-1.111.705a1.804 1.804 0 01-1.307-.255 4.383 4.383 0 00-2.272-.626c-2.199 0-4.384 1.253-6.102 3.665-1.197 1.683-2.102 3.866-2.537 6.349h1.451c.462 0 .904.175 1.23.488.326.312.51.736.51 1.178 0 .442-.184.866-.51 1.178a1.78 1.78 0 01-1.23.488h-1.736c0 1.153.104 2.27.289 3.333h1.447c.462 0 .904.175 1.23.488.326.312.51.736.51 1.178 0 .442-.184.866-.51 1.178a1.78 1.78 0 01-1.23.488h-.518c.441 1.113.984 2.12 1.604 2.996 1.715 2.413 3.903 3.666 6.102 3.666.85 0 1.684-.213 2.244-.593.376-.24.835-.33 1.28-.252.444.078.839.32 1.101.672.262.352.371.789.303 1.217a1.655 1.655 0 01-.666 1.075c-1.308.894-2.915 1.214-4.262 1.214-3.688 0-6.833-2.107-8.976-5.123a17.845 17.845 0 01-2.4-4.872H22.6a1.78 1.78 0 01-1.23-.488 1.632 1.632 0 01-.51-1.178c0-.442.184-.866.51-1.178a1.78 1.78 0 011.23-.488h1.998z" fill="url(#paint0_linear_57641_29)"/><defs><linearGradient id="paint0_linear_57641_29" x1="0" y1="20" x2="44.808" y2="20" gradientUnits="userSpaceOnUse"><stop stop-color="#FF27A4"/><stop offset="1" stop-color="#8BC1FF"/></linearGradient></defs></svg>