<svg width="33" height="40" fill="none" xmlns="http://www.w3.org/2000/svg"><path d="M29.338 27.305l-6.443-3.945 1.174-2.027h2.072c.703 0 1.395-.164 2.014-.478a4.165 4.165 0 001.532-1.32 3.851 3.851 0 00.684-1.846 3.792 3.792 0 00-.326-1.931L25.62 6.214c-.685-1.818-1.95-3.391-3.623-4.504A10.337 10.337 0 0016.28 0c-2.048 0-4.045.597-5.718 1.71S7.623 4.396 6.938 6.214l-4.424 9.544a3.792 3.792 0 00.358 3.777 4.165 4.165 0 001.532 1.32 4.45 4.45 0 002.013.478H8.49l1.173 2.027-6.443 3.945a6.816 6.816 0 00-2.366 2.408A6.34 6.34 0 000 32.894V40h32.558v-7.106a6.34 6.34 0 00-.854-3.181 6.817 6.817 0 00-2.366-2.408zm.389 10.028H2.831v-4.439a3.804 3.804 0 01.513-1.909 4.09 4.09 0 011.42-1.444l8.64-5.29-3.234-5.584H6.417c-.234 0-.464-.055-.67-.16a1.39 1.39 0 01-.511-.438 1.264 1.264 0 01-.121-1.258l4.438-9.575.04-.095a6.723 6.723 0 012.585-3.242 7.384 7.384 0 014.101-1.233c1.47 0 2.903.431 4.1 1.233a6.724 6.724 0 012.586 3.242l.018.048 4.46 9.622a1.263 1.263 0 01-.12 1.258 1.39 1.39 0 01-.511.439 1.487 1.487 0 01-.67.159h-3.754l-3.234 5.584 8.64 5.29a4.09 4.09 0 011.42 1.444c.338.586.514 1.243.513 1.91v4.438z" fill="url(#paint0_linear_57641_41)"/><defs><linearGradient id="paint0_linear_57641_41" x1="0" y1="20" x2="34.952" y2="20" gradientUnits="userSpaceOnUse"><stop stop-color="#FF27A4"/><stop offset="1" stop-color="#8BC1FF"/></linearGradient></defs></svg>