<svg width="40" height="35" fill="none" xmlns="http://www.w3.org/2000/svg"><path d="M35.757 0H3.973C1.768 0 .02 1.772.02 3.981L0 27.87a3.963 3.963 0 003.973 3.98h7.946a1.994 1.994 0 001.986-1.99c0-1.095-.893-1.99-1.986-1.99H3.973V15.925H39.73V3.98c0-2.189-1.788-3.98-3.973-3.98zm0 10.8H3.973V3.981h31.784v6.82zM25.685 30.198l-4.211-4.22a1.98 1.98 0 00-3.381 1.403 1.989 1.989 0 00.58 1.403l5.622 5.634a1.975 1.975 0 002.8 0L38.34 23.15a1.987 1.987 0 00-1.4-3.388c-.526 0-1.03.209-1.4.581l-9.854 9.854z" fill="url(#paint0_linear_57641_47)"/><defs><linearGradient id="paint0_linear_57641_47" x1="0" y1="17.5" x2="42.651" y2="17.5" gradientUnits="userSpaceOnUse"><stop stop-color="#FF27A4"/><stop offset="1" stop-color="#8BC1FF"/></linearGradient></defs></svg>