<svg width="22" height="24" fill="none" xmlns="http://www.w3.org/2000/svg"><path fill-rule="evenodd" clip-rule="evenodd" d="M20.29 6.75v9.748h-1.561V6.75h-3.122a2.39 2.39 0 01-1.655-.659 2.206 2.206 0 01-.686-1.59v-3H4.682c-.414 0-.81.158-1.103.44A1.47 1.47 0 003.12 3v13.498H1.56V3c0-.796.329-1.559.914-2.121A3.187 3.187 0 014.682 0h8.584l7.023 6.75zM9.615 21.28v-.783a2.23 2.23 0 00-.183-.962 1.304 1.304 0 00-.503-.58 1.386 1.386 0 00-.732-.193 1.396 1.396 0 00-.735.195 1.315 1.315 0 00-.499.578 2.23 2.23 0 00-.183.962v.783c0 .384.063.705.183.961.103.237.277.439.5.58.221.129.476.194.734.19.258.004.512-.061.732-.19.224-.14.4-.342.503-.578.131-.305.194-.633.183-.963zm1.253-.774v.77c0 .562-.106 1.05-.32 1.459a2.244 2.244 0 01-.92.94c-.396.216-.873.324-1.43.324a3 3 0 01-1.436-.324 2.233 2.233 0 01-.92-.94 3.12 3.12 0 01-.32-1.46v-.77c0-.567.108-1.055.32-1.461.214-.411.52-.725.921-.94.401-.221.88-.33 1.436-.33.557 0 1.033.109 1.43.33.4.218.705.533.92.944.213.407.319.893.319 1.458zM0 23.886v-5.999h2.277c.634 0 1.157.117 1.569.353.412.234.718.573.919 1.02.203.443.306.982.306 1.61 0 .633-.102 1.176-.306 1.626a2.216 2.216 0 01-.929 1.034c-.412.237-.931.355-1.559.355H0zm2.113-5.031h-.88v4.06h.879c.288 0 .54-.042.753-.123.206-.08.386-.21.522-.378.137-.171.239-.381.306-.633.075-.29.11-.589.106-.888 0-.45-.063-.828-.184-1.13-.1-.28-.295-.519-.553-.68-.246-.153-.563-.228-.952-.228h.003zm10.545 1.673c0-.372.053-.69.16-.949a1.31 1.31 0 01.47-.597c.219-.141.478-.213.741-.207.235 0 .442.048.621.146.177.09.324.224.427.39.108.173.173.369.187.571h1.194v-.11a1.933 1.933 0 00-.206-.796 2.008 2.008 0 00-.521-.65 2.274 2.274 0 00-.765-.407 2.969 2.969 0 00-.946-.146c-.554 0-1.03.111-1.422.335-.39.222-.687.538-.891.949-.204.41-.308.9-.308 1.467v.747c0 .568.102 1.056.303 1.464.203.406.501.72.892.94.39.216.866.324 1.426.324.457 0 .866-.081 1.225-.246.36-.165.646-.39.86-.68.215-.299.338-.65.353-1.012v-.114h-1.194a1.164 1.164 0 01-.183.546 1.077 1.077 0 01-.426.372 1.41 1.41 0 01-.626.132 1.36 1.36 0 01-.746-.196 1.258 1.258 0 01-.465-.59 2.46 2.46 0 01-.16-.94v-.743zm7.947-2.64H22l-1.99 3.01 1.957 2.987H20.55l-1.326-2.122h-.055l-1.33 2.122h-1.345l1.935-3.022-1.916-2.976h1.454l1.299 2.158h.054l1.285-2.158v.002z" fill="#fff"/></svg>