<svg width="34" height="34" fill="none" xmlns="http://www.w3.org/2000/svg"><path d="M17 34h8.5v-3.4H17C9.622 30.6 3.4 24.378 3.4 17 3.4 9.622 9.622 3.4 17 3.4c7.378 0 13.6 6.222 13.6 13.6v2.431c0 1.343-1.207 2.669-2.55 2.669-1.343 0-2.55-1.326-2.55-2.669V17c0-4.692-3.808-8.5-8.5-8.5A8.503 8.503 0 008.5 17c0 4.692 3.808 8.5 8.5 8.5a8.45 8.45 0 006.018-2.499c1.105 1.513 3.009 2.499 5.032 2.499 3.349 0 5.95-2.72 5.95-6.069V17c0-9.384-7.616-17-17-17S0 7.616 0 17s7.616 17 17 17zm0-11.9a5.093 5.093 0 01-5.1-5.1c0-2.822 2.278-5.1 5.1-5.1 2.822 0 5.1 2.278 5.1 5.1 0 2.822-2.278 5.1-5.1 5.1z" fill="url(#paint0_linear_57469_508)"/><defs><linearGradient id="paint0_linear_57469_508" x1="0" y1="17" x2="36.5" y2="17" gradientUnits="userSpaceOnUse"><stop stop-color="#FF27A4"/><stop offset="1" stop-color="#8BC1FF"/></linearGradient></defs></svg>