<svg width="30" height="30" fill="none" xmlns="http://www.w3.org/2000/svg"><circle cx="15" cy="15" r="14.5" stroke="#9CF"/><path fill-rule="evenodd" clip-rule="evenodd" d="M15 9a.881.881 0 00-.606.238.792.792 0 00-.251.574v9.413l-3.678-3.489a.899.899 0 00-1.213 0 .811.811 0 00-.187.264.777.777 0 00.186.887l5.142 4.874c.08.076.174.136.278.177a.9.9 0 00.936-.177l5.142-4.874a.793.793 0 00.251-.575.792.792 0 00-.251-.576.882.882 0 00-.607-.238.882.882 0 00-.607.239l-3.678 3.488V9.812a.792.792 0 00-.251-.574A.881.881 0 0015 9z" fill="#9CF"/></svg>