<svg width="24" height="15" fill="none" xmlns="http://www.w3.org/2000/svg"><path d="M24 12.445H0v1.557h24v-1.557z" fill="#2A2874"/><path d="M24 10.889H0v1.556h24v-1.556z" fill="#fff"/><path d="M24 9.333H0v1.556h24V9.333z" fill="#2A2874"/><path d="M24 7.776H0v1.557h24V7.776z" fill="#fff"/><path d="M24 6.22H0v1.557h24V6.221z" fill="#2A2874"/><path d="M24 4.664H0V6.22h24V4.664z" fill="#fff"/><path d="M24 3.107H0v1.557h24V3.107z" fill="#2A2874"/><path d="M24 1.552H0v1.556h24V1.552z" fill="#fff"/><path d="M24 0H0v1.556h24V0z" fill="#2A2874"/><path d="M7.777 0H0v7.777h7.777V0z" fill="#2A2874"/><path d="M7.777 3.107H0v1.557h7.777V3.107z" fill="#fff"/><path d="M4.67 0H3.112v7.777h1.556V0z" fill="#fff"/></svg>