<svg width="40" height="40" fill="none" xmlns="http://www.w3.org/2000/svg"><path d="M19.343 0a1.874 1.874 0 00-1.739 2.588 1.876 1.876 0 001.729 1.163l6.898.02v3.126c0 1.39-.475 2.463-1.195 3.183-.72.72-1.79 1.2-3.176 1.2a1.874 1.874 0 00-1.326 3.202c.352.351.828.549 1.326.549 2.287 0 4.341-.81 5.828-2.3 1.487-1.489 2.295-3.546 2.295-5.837V1.9a1.876 1.876 0 00-1.87-1.875L19.343 0zm-3.874 8.687a1.875 1.875 0 00-3.464 0L3.765 28.63a1.94 1.94 0 00-.033.08L.13 37.438a1.876 1.876 0 002.448 2.425c.456-.185.82-.54 1.016-.992l3.144-7.607h13.997l3.14 7.6a1.874 1.874 0 003.463-1.433L15.468 8.687zm3.719 18.829h-10.9l5.449-13.203 5.45 13.203zM34.364.025A1.874 1.874 0 0136.239 1.9v8.137h1.887a1.874 1.874 0 010 3.751h-1.887v14.37a1.876 1.876 0 11-3.75 0V1.9A1.876 1.876 0 0134.364.025z" fill="url(#paint0_linear_57641_23)"/><defs><linearGradient id="paint0_linear_57641_23" x1="0" y1="20" x2="42.941" y2="20" gradientUnits="userSpaceOnUse"><stop stop-color="#FF27A4"/><stop offset="1" stop-color="#8BC1FF"/></linearGradient></defs></svg>