<svg width="39" height="35" fill="none" xmlns="http://www.w3.org/2000/svg"><path d="M24.5 17.5h2.625v4.935l4.27 2.468-1.313 2.274-5.582-3.22V17.5zm14 5.25A12.25 12.25 0 0126.25 35c-4.883 0-9.1-2.87-11.078-7H3.5A3.5 3.5 0 010 24.5v-21C0 1.558 1.558 0 3.5 0h28A3.5 3.5 0 0135 3.5v10.675a12.177 12.177 0 013.5 8.575zm-24.5 0c0-3.43 1.418-6.527 3.675-8.75H3.5v10.5h10.623C14 23.922 14 23.345 14 22.75zM26.25 14a8.75 8.75 0 100 17.5 8.75 8.75 0 000-17.5zm5.25-5.108V3.5h-28v5.392h28z" fill="url(#paint0_linear_57641_64)"/><defs><linearGradient id="paint0_linear_57641_64" x1="0" y1="17.5" x2="41.331" y2="17.5" gradientUnits="userSpaceOnUse"><stop stop-color="#FF27A4"/><stop offset="1" stop-color="#8BC1FF"/></linearGradient></defs></svg>