<svg width="30" height="30" fill="none" xmlns="http://www.w3.org/2000/svg"><path d="M13.585 15l-2.807-2.799a.989.989 0 01.706-1.677c.26-.002.51.098.698.278l2.806 2.799 2.806-2.799a.993.993 0 011.625 1.078.99.99 0 01-.222.321L16.391 15l2.806 2.799a.99.99 0 01.012 1.411.992.992 0 01-1.415-.012l-2.806-2.799-2.806 2.799a.993.993 0 01-1.682-.703.989.989 0 01.278-.696L13.585 15z" fill="#74B5FF"/><path d="M15 27.857a12.856 12.856 0 100-25.714 12.857 12.857 0 000 25.714zM15 30a15 15 0 110-30 15 15 0 010 30z" fill="#74B5FF"/></svg>