<svg width="39" height="40" fill="none" xmlns="http://www.w3.org/2000/svg"><path d="M15 4.286h23.571v2.857H15V4.286z" fill="url(#paint0_linear_57641_62)"/><path d="M0 5.714A5.714 5.714 0 105.714 0 5.72 5.72 0 000 5.714zm5.714-2.857a2.857 2.857 0 110 5.714 2.857 2.857 0 010-5.714z" fill="url(#paint1_linear_57641_62)"/><path d="M15 18.571h23.571v2.858H15V18.57z" fill="url(#paint2_linear_57641_62)"/><path d="M5.714 25.714A5.715 5.715 0 100 20a5.72 5.72 0 005.714 5.714zm0-8.571a2.857 2.857 0 110 5.713 2.857 2.857 0 010-5.713z" fill="url(#paint3_linear_57641_62)"/><path d="M15 32.857h23.571v2.857H15v-2.857z" fill="url(#paint4_linear_57641_62)"/><path d="M5.714 40A5.714 5.714 0 100 34.286 5.72 5.72 0 005.714 40zm0-8.571a2.857 2.857 0 110 5.713 2.857 2.857 0 010-5.713z" fill="url(#paint5_linear_57641_62)"/><defs><linearGradient id="paint0_linear_57641_62" x1="0" y1="20" x2="41.408" y2="20" gradientUnits="userSpaceOnUse"><stop stop-color="#FF27A4"/><stop offset="1" stop-color="#8BC1FF"/></linearGradient><linearGradient id="paint1_linear_57641_62" x1="0" y1="20" x2="41.408" y2="20" gradientUnits="userSpaceOnUse"><stop stop-color="#FF27A4"/><stop offset="1" stop-color="#8BC1FF"/></linearGradient><linearGradient id="paint2_linear_57641_62" x1="0" y1="20" x2="41.408" y2="20" gradientUnits="userSpaceOnUse"><stop stop-color="#FF27A4"/><stop offset="1" stop-color="#8BC1FF"/></linearGradient><linearGradient id="paint3_linear_57641_62" x1="0" y1="20" x2="41.408" y2="20" gradientUnits="userSpaceOnUse"><stop stop-color="#FF27A4"/><stop offset="1" stop-color="#8BC1FF"/></linearGradient><linearGradient id="paint4_linear_57641_62" x1="0" y1="20" x2="41.408" y2="20" gradientUnits="userSpaceOnUse"><stop stop-color="#FF27A4"/><stop offset="1" stop-color="#8BC1FF"/></linearGradient><linearGradient id="paint5_linear_57641_62" x1="0" y1="20" x2="41.408" y2="20" gradientUnits="userSpaceOnUse"><stop stop-color="#FF27A4"/><stop offset="1" stop-color="#8BC1FF"/></linearGradient></defs></svg>