<svg width="37" height="37" fill="none" xmlns="http://www.w3.org/2000/svg"><path d="M20.826 21.143h-7.33a23.378 23.378 0 01-.282-3.524c0-1.198.106-2.378.282-3.524h8.246c.159 1.146.282 2.326.282 3.524 0 .881-.07 1.762-.176 2.572a11.072 11.072 0 013.7-2.008v-.564c0-1.198-.106-2.36-.247-3.524h5.955c.282 1.128.458 2.308.458 3.524v.317c1.234.3 2.379.793 3.436 1.445.088-.564.088-1.163.088-1.762C35.238 7.929 27.31 0 17.62 0 7.876 0 0 7.929 0 17.619s7.929 17.62 17.619 17.62c.6 0 1.198 0 1.762-.089a11.668 11.668 0 01-1.533-3.876c-.07.123-.14.246-.229.37-1.462-2.114-2.643-4.458-3.365-6.977H18.5a11.255 11.255 0 012.326-3.524zM29.81 10.57h-5.197a27.574 27.574 0 00-2.431-6.27 14.072 14.072 0 017.63 6.272zM17.62 3.577c1.462 2.114 2.643 4.475 3.365 6.994h-6.73c.722-2.52 1.903-4.88 3.365-6.994zM3.982 21.143a14.522 14.522 0 01-.458-3.524c0-1.216.176-2.396.458-3.524h5.955c-.14 1.163-.247 2.326-.247 3.524s.106 2.361.247 3.524H3.982zm1.445 3.524h5.144c.617 2.202 1.41 4.316 2.467 6.272a14.11 14.11 0 01-7.611-6.272zM10.57 10.57H5.427a13.96 13.96 0 017.611-6.27c-1.057 1.956-1.85 4.07-2.467 6.272zm18.5 10.572a7.896 7.896 0 00-7.928 7.928A7.896 7.896 0 0029.07 37 7.896 7.896 0 0037 29.071a7.896 7.896 0 00-7.929-7.928zm0 13.214a5.279 5.279 0 01-5.285-5.286c0-.986.264-1.902.74-2.642l7.188 7.188c-.74.476-1.656.74-2.643.74zm4.546-2.643l-7.188-7.188c.74-.476 1.656-.74 2.642-.74a5.279 5.279 0 015.286 5.285c0 .987-.264 1.903-.74 2.643z" fill="url(#paint0_linear_57641_66)"/><defs><linearGradient id="paint0_linear_57641_66" x1="0" y1="18.5" x2="39.721" y2="18.5" gradientUnits="userSpaceOnUse"><stop stop-color="#FF27A4"/><stop offset="1" stop-color="#8BC1FF"/></linearGradient></defs></svg>