<svg width="16" height="16" fill="none" xmlns="http://www.w3.org/2000/svg"><path d="M8 15A7 7 0 118 1a7 7 0 010 14zm0 1A8 8 0 108-.001 8 8 0 008 16z" fill="#9CF"/><path fill-rule="evenodd" clip-rule="evenodd" d="M8 4a.486.486 0 00-.337.134.45.45 0 00-.14.324v5.31L5.48 7.8a.478.478 0 00-.337-.134.493.493 0 00-.337.134.458.458 0 00-.14.325.444.444 0 00.14.324l2.857 2.75a.477.477 0 00.337.134.492.492 0 00.337-.134l2.857-2.75a.45.45 0 000-.649.486.486 0 00-.675 0L8.477 9.768v-5.31a.45.45 0 00-.14-.324A.486.486 0 008 4z" fill="#9CF"/></svg>