<svg width="35" height="34" fill="none" xmlns="http://www.w3.org/2000/svg"><path d="M32.884 19.84c.174-.959.268-1.939.268-2.919 0-2.173-.426-4.282-1.265-6.264a16.024 16.024 0 00-3.452-5.117 16.012 16.012 0 00-5.118-3.448A15.99 15.99 0 0017.053.827c-1.022 0-2.05.098-3.046.29A9.592 9.592 0 009.528 0a9.47 9.47 0 00-6.737 2.791A9.47 9.47 0 000 9.528c0 1.62.418 3.213 1.197 4.62a16.333 16.333 0 00-.242 2.773c0 2.173.426 4.283 1.265 6.264a16.013 16.013 0 003.447 5.118 16.013 16.013 0 005.118 3.447 15.98 15.98 0 006.264 1.266c.946 0 1.892-.086 2.82-.252A9.535 9.535 0 0024.558 34a9.453 9.453 0 006.737-2.791 9.453 9.453 0 002.791-6.737 9.48 9.48 0 00-1.201-4.632zm-3.755 9.204a6.385 6.385 0 01-4.568 1.892 6.458 6.458 0 01-3.178-.84l-.96-.54-1.086.191c-.758.137-1.525.205-2.284.205a12.92 12.92 0 01-5.075-1.027 12.939 12.939 0 01-4.142-2.791 12.967 12.967 0 01-3.813-9.209c0-.741.068-1.5.196-2.25l.187-1.069-.528-.95a6.435 6.435 0 01-.814-3.128c0-1.73.669-3.345 1.892-4.568a6.42 6.42 0 014.572-1.892 6.52 6.52 0 013.042.763l.955.503 1.057-.205a13.238 13.238 0 012.471-.234c1.764 0 3.465.345 5.071 1.022a12.938 12.938 0 014.142 2.791 12.928 12.928 0 012.795 4.142 12.882 12.882 0 011.023 5.071c0 .784-.072 1.577-.217 2.365l-.2 1.087.536.963a6.44 6.44 0 01.819 3.14 6.396 6.396 0 01-1.892 4.568zM20.087 15.05l-3.767-.835c-1.431-.328-3.08-.758-3.08-2.109 0-1.35 1.154-2.297 3.242-2.297 4.206 0 3.823 2.89 5.91 2.89 1.1 0 2.063-.648 2.063-1.756 0-2.591-4.15-4.538-7.67-4.538-3.822 0-7.892 1.623-7.892 5.944 0 2.08.742 4.295 4.84 5.322l5.089 1.27c1.538.38 1.926 1.244 1.926 2.028 0 1.3-1.291 2.57-3.63 2.57-4.569 0-3.934-3.516-6.38-3.516-1.1 0-1.896.759-1.896 1.837 0 2.105 2.557 4.917 8.275 4.917 5.442 0 8.14-2.62 8.14-6.136 0-2.262-1.045-4.67-5.17-5.59z" fill="url(#paint0_linear_57469_506)"/><defs><linearGradient id="paint0_linear_57469_506" x1="0" y1="17" x2="36.592" y2="17" gradientUnits="userSpaceOnUse"><stop stop-color="#FF27A4"/><stop offset="1" stop-color="#8BC1FF"/></linearGradient></defs></svg>