<svg width="54" height="54" fill="none" xmlns="http://www.w3.org/2000/svg"><g filter="url(#filter0_b_57631_1515)"><circle cx="27" cy="27" r="27" transform="matrix(-1 0 0 1 54 0)" fill="#fff" fill-opacity=".1"/></g><path fill-rule="evenodd" clip-rule="evenodd" d="M36.5 27c0 .34-.128.668-.357.909a1.188 1.188 0 01-.862.377H21.163l5.232 5.517a1.3 1.3 0 01.265.417 1.35 1.35 0 010 .985 1.295 1.295 0 01-.265.418 1.22 1.22 0 01-.396.279 1.165 1.165 0 01-.933 0 1.219 1.219 0 01-.396-.279l-7.312-7.713a1.29 1.29 0 01-.265-.417 1.346 1.346 0 01.265-1.403l7.312-7.713c.228-.241.539-.377.862-.377.324 0 .634.136.863.377.23.241.358.569.358.91 0 .341-.129.669-.358.91l-5.232 5.518H35.28c.324 0 .633.135.862.376.229.241.357.568.357.909z" fill="#fff" fill-opacity=".5"/><defs><filter id="filter0_b_57631_1515" x="-10" y="-10" width="74" height="74" filterUnits="userSpaceOnUse" color-interpolation-filters="sRGB"><feFlood flood-opacity="0" result="BackgroundImageFix"/><feGaussianBlur in="BackgroundImageFix" stdDeviation="5"/><feComposite in2="SourceAlpha" operator="in" result="effect1_backgroundBlur_57631_1515"/><feBlend in="SourceGraphic" in2="effect1_backgroundBlur_57631_1515" result="shape"/></filter></defs></svg>