<svg width="54" height="54" fill="none" xmlns="http://www.w3.org/2000/svg"><path fill-rule="evenodd" clip-rule="evenodd" d="M36 27c0 .34-.128.668-.357.909a1.188 1.188 0 01-.862.377H20.663l5.232 5.517a1.3 1.3 0 01.265.417 1.35 1.35 0 010 .985 1.295 1.295 0 01-.265.418 1.22 1.22 0 01-.396.279 1.165 1.165 0 01-.933 0 1.219 1.219 0 01-.396-.279l-7.312-7.713a1.29 1.29 0 01-.265-.417 1.346 1.346 0 01.265-1.403l7.312-7.713c.228-.241.539-.377.862-.377.324 0 .634.136.863.377.23.241.358.569.358.91 0 .341-.129.669-.358.91l-5.232 5.518H34.78c.324 0 .633.135.862.376.229.241.357.568.357.909z" fill="#9CF"/><path d="M27 0a27 27 0 000 54v-2.281a24.72 24.72 0 010-49.438V0z" fill="#9CF"/></svg>