<svg width="40" height="40" fill="none" xmlns="http://www.w3.org/2000/svg"><path d="M36.017 31.376C38.56 29.109 40 26.088 40 22.952c0-3.332-1.56-6.448-4.392-8.775-2.756-2.263-6.405-3.51-10.275-3.51-3.869 0-7.518 1.247-10.274 3.51-2.832 2.327-4.392 5.443-4.392 8.775 0 3.332 1.56 6.449 4.392 8.775 2.756 2.264 6.405 3.511 10.274 3.511.516 0 1.035-.023 1.55-.068l.878.762A16.654 16.654 0 0038.667 40H40v-2.838l-.39-.39a16.597 16.597 0 01-3.593-5.396zm-6.51 2.54l-1.763-1.528-.588.072c-.605.074-1.213.111-1.823.111-6.616 0-12-4.315-12-9.619 0-5.304 5.384-9.619 12-9.619 6.617 0 12 4.315 12 9.62 0 2.642-1.318 5.109-3.712 6.946l-.768.59.355 1.002a19.272 19.272 0 003.156 5.651 13.987 13.987 0 01-6.857-3.225z" fill="url(#paint0_linear_57641_45)"/><path d="M3.682 25.123a18.375 18.375 0 002.9-5.252l.352-.998-.767-.589c-2.257-1.732-3.5-4.057-3.5-6.546C2.667 6.736 7.75 2.667 14 2.667c4.597 0 8.564 2.202 10.34 5.358a20.181 20.181 0 012.98.072c-.687-1.778-1.879-3.4-3.517-4.746C21.173 1.19 17.692 0 14 0c-3.692 0-7.173 1.19-9.803 3.35C1.49 5.575 0 8.553 0 11.739c0 2.983 1.363 5.858 3.77 8.02A15.7 15.7 0 01.39 24.82l-.39.39V28h1.333a15.89 15.89 0 007.103-1.677 13.107 13.107 0 01-.423-2.804 13.228 13.228 0 01-4.33 1.604z" fill="url(#paint1_linear_57641_45)"/><defs><linearGradient id="paint0_linear_57641_45" x1="0" y1="20" x2="42.942" y2="20" gradientUnits="userSpaceOnUse"><stop stop-color="#FF27A4"/><stop offset="1" stop-color="#8BC1FF"/></linearGradient><linearGradient id="paint1_linear_57641_45" x1="0" y1="20" x2="42.942" y2="20" gradientUnits="userSpaceOnUse"><stop stop-color="#FF27A4"/><stop offset="1" stop-color="#8BC1FF"/></linearGradient></defs></svg>