<svg width="40" height="35" fill="none" xmlns="http://www.w3.org/2000/svg"><path d="M2.5 2.536c0-.672.263-1.318.732-1.793A2.482 2.482 0 015 0h30c.663 0 1.299.267 1.768.743.469.475.732 1.12.732 1.793h-35z" fill="url(#paint0_linear_57641_54)"/><path d="M0 7.609c0-.673.263-1.318.732-1.794A2.482 2.482 0 012.5 5.072h35c.663 0 1.299.268 1.768.743.469.476.732 1.121.732 1.794v24.29c0 .672-.263 1.317-.732 1.793a2.482 2.482 0 01-1.768.743h-35a2.482 2.482 0 01-1.768-.743A2.555 2.555 0 010 31.899V7.609zm7.5 0a5.11 5.11 0 01-1.464 3.586A4.964 4.964 0 012.5 12.681v14.145c1.326 0 2.598.534 3.536 1.486A5.11 5.11 0 017.5 31.899h25a5.11 5.11 0 011.465-3.587 4.964 4.964 0 013.535-1.486V12.681a4.964 4.964 0 01-3.535-1.486A5.11 5.11 0 0132.5 7.61h-25z" fill="url(#paint1_linear_57641_54)"/><path d="M20.548 25.05c.035.796.088 1.473.159 2.033-.283.09-.524.134-.725.134-.53 0-.795-.218-.795-.655 0-.459.018-.94.053-1.444-1.002-.034-1.85-.275-2.545-.723-.695-.459-1.043-1.097-1.043-1.915 0-.448.153-.812.46-1.092a1.57 1.57 0 011.096-.42c.436 0 .742.045.919.135-.095.414-.142.688-.142.823 0 .56.189.997.566 1.31.377.302.872.454 1.484.454.613 0 1.114-.13 1.503-.387.389-.268.583-.627.583-1.075 0-.448-.16-.812-.477-1.092a2.915 2.915 0 00-1.167-.655c-.46-.145-.96-.308-1.502-.487a35.31 35.31 0 01-1.52-.571 3.06 3.06 0 01-1.167-.84 2.08 2.08 0 01-.46-1.344c0-.806.343-1.495 1.026-2.066.695-.582 1.55-.963 2.563-1.142l-.124-1.462c.212-.09.436-.134.672-.134.247 0 .447.09.6.269.165.167.248.386.248.655a5.9 5.9 0 01-.018.554c.849.034 1.585.202 2.21.504.624.302.936.761.936 1.377 0 .47-.176.868-.53 1.193-.342.314-.766.47-1.272.47-.154 0-.319-.016-.495-.05.059-.19.088-.397.088-.621 0-.493-.141-.84-.424-1.042-.283-.213-.695-.32-1.237-.32-.53 0-.99.085-1.379.253-.33.291-.495.627-.495 1.008 0 .38.212.694.637.94.424.236.936.437 1.537.605.601.168 1.803.588 1.803.588s1.113.543 1.538.991c.424.448.636 1.003.636 1.663 0 .93-.36 1.72-1.078 2.369-.719.638-1.626 1.041-2.722 1.21z" fill="url(#paint2_linear_57641_54)"/><defs><linearGradient id="paint0_linear_57641_54" x1="0" y1="17.217" x2="42.941" y2="17.217" gradientUnits="userSpaceOnUse"><stop stop-color="#FF27A4"/><stop offset="1" stop-color="#8BC1FF"/></linearGradient><linearGradient id="paint1_linear_57641_54" x1="0" y1="17.217" x2="42.941" y2="17.217" gradientUnits="userSpaceOnUse"><stop stop-color="#FF27A4"/><stop offset="1" stop-color="#8BC1FF"/></linearGradient><linearGradient id="paint2_linear_57641_54" x1="0" y1="17.217" x2="42.941" y2="17.217" gradientUnits="userSpaceOnUse"><stop stop-color="#FF27A4"/><stop offset="1" stop-color="#8BC1FF"/></linearGradient></defs></svg>