<svg width="2000" height="438" viewBox="0 0 2000 438" fill="none" xmlns="http://www.w3.org/2000/svg">
<path d="M1169 234.5C827.8 317.3 425.5 246 -2.5 336V438H2002V43C1653 42.9999 1608.5 127.845 1169 234.5Z" fill="url(#paint0_linear_58513_2)" fill-opacity="0.16"/>
<path d="M0.5 333C421 249.5 807.502 317.342 1166.79 236.016C1526.08 154.689 1570 62 2000 42" stroke="url(#paint1_linear_58513_2)" stroke-width="14" stroke-linecap="round"/>
<circle cx="433.5" cy="288.5" r="15.5" fill="#000616" stroke="#5540B2" stroke-width="6"/>
<circle cx="767.5" cy="283.5" r="15.5" fill="#000616" stroke="#8546C1" stroke-width="6"/>
<circle cx="1167.5" cy="235.5" r="15.5" fill="#000616" stroke="#AD48C0" stroke-width="6"/>
<circle cx="1568.5" cy="110.5" r="15.5" fill="#000616" stroke="#C747B1" stroke-width="6"/>
<path d="M438.424 233.28C439.224 233.28 439.856 233.504 440.32 233.952C440.784 234.384 441.016 234.96 441.016 235.68V240H416.44V237.6C416.44 237.136 416.536 236.64 416.728 236.112C416.92 235.584 417.256 235.104 417.736 234.672L427.816 224.52C428.68 223.656 429.432 222.832 430.072 222.048C430.712 221.264 431.24 220.496 431.656 219.744C432.072 218.976 432.384 218.216 432.592 217.464C432.8 216.696 432.904 215.888 432.904 215.04C432.904 213.648 432.568 212.584 431.896 211.848C431.24 211.096 430.232 210.72 428.872 210.72C427.768 210.72 426.832 211.016 426.064 211.608C425.312 212.184 424.792 212.904 424.504 213.768C424.168 214.648 423.728 215.232 423.184 215.52C422.64 215.808 421.864 215.872 420.856 215.712L416.92 215.016C417.176 213.272 417.664 211.752 418.384 210.456C419.12 209.16 420.024 208.08 421.096 207.216C422.184 206.352 423.424 205.712 424.816 205.296C426.208 204.864 427.704 204.648 429.304 204.648C431.032 204.648 432.584 204.904 433.96 205.416C435.352 205.912 436.536 206.608 437.512 207.504C438.488 208.4 439.232 209.472 439.744 210.72C440.272 211.952 440.536 213.312 440.536 214.8C440.536 216.08 440.352 217.264 439.984 218.352C439.632 219.44 439.144 220.48 438.52 221.472C437.896 222.448 437.168 223.4 436.336 224.328C435.52 225.24 434.648 226.168 433.72 227.112L426.88 234.12C427.76 233.848 428.632 233.64 429.496 233.496C430.36 233.352 431.16 233.28 431.896 233.28H438.424ZM452.06 217.344C452.716 217.216 453.348 217.128 453.956 217.08C454.564 217.032 455.156 217.008 455.732 217.008C457.572 217.008 459.196 217.288 460.604 217.848C462.012 218.408 463.196 219.176 464.156 220.152C465.116 221.112 465.836 222.248 466.316 223.56C466.812 224.856 467.06 226.248 467.06 227.736C467.06 229.608 466.724 231.32 466.052 232.872C465.396 234.408 464.476 235.736 463.292 236.856C462.108 237.976 460.692 238.848 459.044 239.472C457.412 240.08 455.62 240.384 453.668 240.384C452.532 240.384 451.444 240.264 450.404 240.024C449.38 239.784 448.412 239.464 447.5 239.064C446.604 238.648 445.772 238.176 445.004 237.648C444.236 237.104 443.54 236.528 442.916 235.92L445.22 232.848C445.46 232.528 445.74 232.288 446.06 232.128C446.38 231.952 446.724 231.864 447.092 231.864C447.572 231.864 448.02 232 448.436 232.272C448.868 232.528 449.332 232.816 449.828 233.136C450.34 233.44 450.932 233.72 451.604 233.976C452.276 234.232 453.108 234.36 454.1 234.36C455.092 234.36 455.94 234.2 456.644 233.88C457.348 233.544 457.916 233.096 458.348 232.536C458.796 231.96 459.116 231.296 459.308 230.544C459.516 229.776 459.62 228.96 459.62 228.096C459.62 226.4 459.14 225.112 458.18 224.232C457.22 223.336 455.86 222.888 454.1 222.888C452.532 222.888 450.996 223.184 449.492 223.776L444.884 222.528L447.86 205.032H465.764V208.104C465.764 208.616 465.684 209.08 465.524 209.496C465.364 209.912 465.108 210.28 464.756 210.6C464.42 210.904 463.972 211.144 463.412 211.32C462.852 211.48 462.18 211.56 461.396 211.56H453.044L452.06 217.344ZM486.191 213.504C486.191 214.784 485.959 215.952 485.496 217.008C485.031 218.064 484.415 218.976 483.647 219.744C482.879 220.496 481.984 221.08 480.959 221.496C479.951 221.912 478.895 222.12 477.791 222.12C476.575 222.12 475.455 221.912 474.431 221.496C473.423 221.08 472.543 220.496 471.791 219.744C471.055 218.976 470.479 218.064 470.063 217.008C469.647 215.952 469.439 214.784 469.439 213.504C469.439 212.176 469.647 210.976 470.063 209.904C470.479 208.816 471.055 207.888 471.791 207.12C472.543 206.352 473.423 205.76 474.431 205.344C475.455 204.912 476.575 204.696 477.791 204.696C479.007 204.696 480.127 204.912 481.152 205.344C482.192 205.76 483.08 206.352 483.816 207.12C484.568 207.888 485.151 208.816 485.567 209.904C485.983 210.976 486.191 212.176 486.191 213.504ZM480.479 213.504C480.479 212.688 480.407 212.016 480.264 211.488C480.135 210.944 479.951 210.512 479.711 210.192C479.471 209.872 479.183 209.648 478.847 209.52C478.527 209.392 478.175 209.328 477.791 209.328C477.407 209.328 477.055 209.392 476.735 209.52C476.415 209.648 476.143 209.872 475.919 210.192C475.695 210.512 475.519 210.944 475.391 211.488C475.263 212.016 475.199 212.688 475.199 213.504C475.199 214.272 475.263 214.912 475.391 215.424C475.519 215.936 475.695 216.344 475.919 216.648C476.143 216.952 476.415 217.168 476.735 217.296C477.055 217.424 477.407 217.488 477.791 217.488C478.175 217.488 478.527 217.424 478.847 217.296C479.183 217.168 479.471 216.952 479.711 216.648C479.951 216.344 480.135 215.936 480.264 215.424C480.407 214.912 480.479 214.272 480.479 213.504ZM497.184 206.136C497.424 205.864 497.72 205.616 498.071 205.392C498.424 205.152 498.912 205.032 499.535 205.032H504.96L478.607 238.944C478.367 239.248 478.063 239.504 477.695 239.712C477.343 239.904 476.911 240 476.399 240H470.831L497.184 206.136ZM506.304 231.792C506.304 233.072 506.072 234.248 505.608 235.32C505.144 236.376 504.528 237.288 503.759 238.056C502.991 238.808 502.095 239.392 501.071 239.808C500.064 240.224 499.008 240.432 497.904 240.432C496.688 240.432 495.568 240.224 494.544 239.808C493.535 239.392 492.655 238.808 491.904 238.056C491.168 237.288 490.592 236.376 490.175 235.32C489.759 234.248 489.551 233.072 489.551 231.792C489.551 230.464 489.759 229.264 490.175 228.192C490.592 227.104 491.168 226.176 491.904 225.408C492.655 224.64 493.535 224.048 494.544 223.632C495.568 223.2 496.688 222.984 497.904 222.984C499.12 222.984 500.24 223.2 501.264 223.632C502.304 224.048 503.192 224.64 503.928 225.408C504.68 226.176 505.264 227.104 505.68 228.192C506.096 229.264 506.304 230.464 506.304 231.792ZM500.592 231.792C500.592 230.992 500.52 230.328 500.376 229.8C500.248 229.256 500.064 228.824 499.824 228.504C499.583 228.184 499.295 227.96 498.96 227.832C498.64 227.704 498.288 227.64 497.904 227.64C497.519 227.64 497.167 227.704 496.847 227.832C496.528 227.96 496.255 228.184 496.031 228.504C495.807 228.824 495.632 229.256 495.503 229.8C495.375 230.328 495.311 230.992 495.311 231.792C495.311 232.56 495.375 233.2 495.503 233.712C495.632 234.224 495.807 234.632 496.031 234.936C496.255 235.24 496.528 235.456 496.847 235.584C497.167 235.712 497.519 235.776 497.904 235.776C498.288 235.776 498.64 235.712 498.96 235.584C499.295 235.456 499.583 235.24 499.824 234.936C500.064 234.632 500.248 234.224 500.376 233.712C500.52 233.2 500.592 232.56 500.592 231.792Z" fill="white"/>
<path d="M420.562 190.565C420.256 190.715 419.908 190.835 419.518 190.925C419.908 191.015 420.256 191.135 420.562 191.285L423.118 192.671C423.28 192.749 423.394 192.848 423.46 192.968C423.532 193.082 423.568 193.208 423.568 193.346V195.281L416.278 191.474V190.385L423.568 186.569V188.504C423.568 188.642 423.532 188.771 423.46 188.891C423.394 189.005 423.28 189.104 423.118 189.188L420.562 190.565ZM428.788 188.45H429.868C430.018 187.742 430.249 187.1 430.561 186.524C430.873 185.942 431.248 185.447 431.686 185.039C432.124 184.631 432.619 184.316 433.171 184.094C433.723 183.872 434.314 183.761 434.944 183.761C435.796 183.761 436.531 183.932 437.149 184.274C437.773 184.61 438.274 185.057 438.652 185.615L437.662 186.641C437.59 186.725 437.512 186.8 437.428 186.866C437.344 186.926 437.23 186.956 437.086 186.956C436.942 186.956 436.819 186.911 436.717 186.821C436.621 186.731 436.507 186.632 436.375 186.524C436.243 186.41 436.078 186.308 435.88 186.218C435.682 186.128 435.412 186.083 435.07 186.083C434.506 186.083 434.023 186.284 433.621 186.686C433.225 187.082 432.934 187.67 432.748 188.45H436.888V189.278C436.888 189.356 436.87 189.434 436.834 189.512C436.798 189.59 436.747 189.662 436.681 189.728C436.615 189.788 436.534 189.839 436.438 189.881C436.348 189.917 436.246 189.935 436.132 189.935H432.559C432.553 190.019 432.55 190.103 432.55 190.187C432.55 190.271 432.55 190.355 432.55 190.439V190.754H436.024V191.582C436.024 191.66 436.006 191.738 435.97 191.816C435.934 191.894 435.883 191.966 435.817 192.032C435.751 192.092 435.67 192.143 435.574 192.185C435.484 192.221 435.382 192.239 435.268 192.239H432.694C432.85 193.109 433.123 193.754 433.513 194.174C433.903 194.594 434.38 194.804 434.944 194.804C435.196 194.804 435.412 194.78 435.592 194.732C435.772 194.678 435.925 194.615 436.051 194.543C436.177 194.471 436.282 194.39 436.366 194.3C436.456 194.21 436.537 194.129 436.609 194.057C436.687 193.985 436.762 193.925 436.834 193.877C436.912 193.823 437.002 193.796 437.104 193.796C437.188 193.796 437.257 193.808 437.311 193.832C437.371 193.856 437.434 193.901 437.5 193.967L438.724 195.056C438.31 195.734 437.767 196.25 437.095 196.604C436.423 196.952 435.658 197.126 434.8 197.126C434.086 197.126 433.444 197.009 432.874 196.775C432.31 196.535 431.818 196.202 431.398 195.776C430.984 195.35 430.642 194.837 430.372 194.237C430.108 193.637 429.919 192.971 429.805 192.239H428.788V190.754H429.67V190.439C429.67 190.355 429.67 190.271 429.67 190.187C429.67 190.103 429.673 190.019 429.679 189.935H428.788V188.45ZM442.425 188.504C442.671 188.456 442.908 188.423 443.136 188.405C443.364 188.387 443.586 188.378 443.802 188.378C444.492 188.378 445.101 188.483 445.629 188.693C446.157 188.903 446.601 189.191 446.961 189.557C447.321 189.917 447.591 190.343 447.771 190.835C447.957 191.321 448.05 191.843 448.05 192.401C448.05 193.103 447.924 193.745 447.672 194.327C447.426 194.903 447.081 195.401 446.637 195.821C446.193 196.241 445.662 196.568 445.044 196.802C444.432 197.03 443.76 197.144 443.028 197.144C442.602 197.144 442.194 197.099 441.804 197.009C441.42 196.919 441.057 196.799 440.715 196.649C440.379 196.493 440.067 196.316 439.779 196.118C439.491 195.914 439.23 195.698 438.996 195.47L439.86 194.318C439.95 194.198 440.055 194.108 440.175 194.048C440.295 193.982 440.424 193.949 440.562 193.949C440.742 193.949 440.91 194 441.066 194.102C441.228 194.198 441.402 194.306 441.588 194.426C441.78 194.54 442.002 194.645 442.254 194.741C442.506 194.837 442.818 194.885 443.19 194.885C443.562 194.885 443.88 194.825 444.144 194.705C444.408 194.579 444.621 194.411 444.783 194.201C444.951 193.985 445.071 193.736 445.143 193.454C445.221 193.166 445.26 192.86 445.26 192.536C445.26 191.9 445.08 191.417 444.72 191.087C444.36 190.751 443.85 190.583 443.19 190.583C442.602 190.583 442.026 190.694 441.462 190.916L439.734 190.448L440.85 183.887H447.564V185.039C447.564 185.231 447.534 185.405 447.474 185.561C447.414 185.717 447.318 185.855 447.186 185.975C447.06 186.089 446.892 186.179 446.682 186.245C446.472 186.305 446.22 186.335 445.926 186.335H442.794L442.425 188.504ZM449.293 199.223C449.161 199.115 449.095 198.983 449.095 198.827C449.095 198.767 449.116 198.701 449.158 198.629C449.2 198.563 449.251 198.503 449.311 198.449C449.383 198.377 449.467 198.287 449.563 198.179C449.659 198.077 449.755 197.963 449.851 197.837C449.947 197.711 450.034 197.573 450.112 197.423C450.196 197.273 450.259 197.114 450.301 196.946C450.097 196.928 449.911 196.877 449.743 196.793C449.575 196.709 449.431 196.601 449.311 196.469C449.191 196.331 449.098 196.175 449.032 196.001C448.966 195.821 448.933 195.626 448.933 195.416C448.933 195.224 448.969 195.047 449.041 194.885C449.113 194.717 449.215 194.573 449.347 194.453C449.485 194.327 449.644 194.228 449.824 194.156C450.01 194.084 450.217 194.048 450.445 194.048C450.715 194.048 450.949 194.096 451.147 194.192C451.345 194.282 451.51 194.408 451.642 194.57C451.774 194.726 451.87 194.909 451.93 195.119C451.996 195.323 452.029 195.539 452.029 195.767C452.029 196.067 451.981 196.388 451.885 196.73C451.789 197.066 451.645 197.405 451.453 197.747C451.267 198.089 451.033 198.425 450.751 198.755C450.469 199.085 450.145 199.385 449.779 199.655L449.293 199.223ZM462.194 190.439C462.194 191.585 462.071 192.578 461.825 193.418C461.579 194.258 461.237 194.954 460.799 195.506C460.367 196.058 459.851 196.469 459.251 196.739C458.657 197.009 458.012 197.144 457.316 197.144C456.62 197.144 455.975 197.009 455.381 196.739C454.793 196.469 454.283 196.058 453.851 195.506C453.419 194.954 453.08 194.258 452.834 193.418C452.594 192.578 452.474 191.585 452.474 190.439C452.474 189.293 452.594 188.3 452.834 187.46C453.08 186.62 453.419 185.924 453.851 185.372C454.283 184.82 454.793 184.412 455.381 184.148C455.975 183.878 456.62 183.743 457.316 183.743C458.012 183.743 458.657 183.878 459.251 184.148C459.851 184.412 460.367 184.82 460.799 185.372C461.237 185.924 461.579 186.62 461.825 187.46C462.071 188.3 462.194 189.293 462.194 190.439ZM459.314 190.439C459.314 189.533 459.257 188.792 459.143 188.216C459.029 187.634 458.876 187.178 458.684 186.848C458.498 186.518 458.285 186.293 458.045 186.173C457.805 186.047 457.562 185.984 457.316 185.984C457.07 185.984 456.827 186.047 456.587 186.173C456.353 186.293 456.143 186.518 455.957 186.848C455.777 187.178 455.63 187.634 455.516 188.216C455.408 188.792 455.354 189.533 455.354 190.439C455.354 191.351 455.408 192.095 455.516 192.671C455.63 193.247 455.777 193.703 455.957 194.039C456.143 194.369 456.353 194.597 456.587 194.723C456.827 194.843 457.07 194.903 457.316 194.903C457.562 194.903 457.805 194.843 458.045 194.723C458.285 194.597 458.498 194.369 458.684 194.039C458.876 193.703 459.029 193.247 459.143 192.671C459.257 192.095 459.314 191.351 459.314 190.439ZM472.096 190.439C472.096 191.585 471.973 192.578 471.727 193.418C471.481 194.258 471.139 194.954 470.701 195.506C470.269 196.058 469.753 196.469 469.153 196.739C468.559 197.009 467.914 197.144 467.218 197.144C466.522 197.144 465.877 197.009 465.283 196.739C464.695 196.469 464.185 196.058 463.753 195.506C463.321 194.954 462.982 194.258 462.736 193.418C462.496 192.578 462.376 191.585 462.376 190.439C462.376 189.293 462.496 188.3 462.736 187.46C462.982 186.62 463.321 185.924 463.753 185.372C464.185 184.82 464.695 184.412 465.283 184.148C465.877 183.878 466.522 183.743 467.218 183.743C467.914 183.743 468.559 183.878 469.153 184.148C469.753 184.412 470.269 184.82 470.701 185.372C471.139 185.924 471.481 186.62 471.727 187.46C471.973 188.3 472.096 189.293 472.096 190.439ZM469.216 190.439C469.216 189.533 469.159 188.792 469.045 188.216C468.931 187.634 468.778 187.178 468.586 186.848C468.4 186.518 468.187 186.293 467.947 186.173C467.707 186.047 467.464 185.984 467.218 185.984C466.972 185.984 466.729 186.047 466.489 186.173C466.255 186.293 466.045 186.518 465.859 186.848C465.679 187.178 465.532 187.634 465.418 188.216C465.31 188.792 465.256 189.533 465.256 190.439C465.256 191.351 465.31 192.095 465.418 192.671C465.532 193.247 465.679 193.703 465.859 194.039C466.045 194.369 466.255 194.597 466.489 194.723C466.729 194.843 466.972 194.903 467.218 194.903C467.464 194.903 467.707 194.843 467.947 194.723C468.187 194.597 468.4 194.369 468.586 194.039C468.778 193.703 468.931 193.247 469.045 192.671C469.159 192.095 469.216 191.351 469.216 190.439ZM481.997 190.439C481.997 191.585 481.874 192.578 481.628 193.418C481.382 194.258 481.04 194.954 480.602 195.506C480.17 196.058 479.654 196.469 479.054 196.739C478.46 197.009 477.815 197.144 477.119 197.144C476.423 197.144 475.778 197.009 475.184 196.739C474.596 196.469 474.086 196.058 473.654 195.506C473.222 194.954 472.883 194.258 472.637 193.418C472.397 192.578 472.277 191.585 472.277 190.439C472.277 189.293 472.397 188.3 472.637 187.46C472.883 186.62 473.222 185.924 473.654 185.372C474.086 184.82 474.596 184.412 475.184 184.148C475.778 183.878 476.423 183.743 477.119 183.743C477.815 183.743 478.46 183.878 479.054 184.148C479.654 184.412 480.17 184.82 480.602 185.372C481.04 185.924 481.382 186.62 481.628 187.46C481.874 188.3 481.997 189.293 481.997 190.439ZM479.117 190.439C479.117 189.533 479.06 188.792 478.946 188.216C478.832 187.634 478.679 187.178 478.487 186.848C478.301 186.518 478.088 186.293 477.848 186.173C477.608 186.047 477.365 185.984 477.119 185.984C476.873 185.984 476.63 186.047 476.39 186.173C476.156 186.293 475.946 186.518 475.76 186.848C475.58 187.178 475.433 187.634 475.319 188.216C475.211 188.792 475.157 189.533 475.157 190.439C475.157 191.351 475.211 192.095 475.319 192.671C475.433 193.247 475.58 193.703 475.76 194.039C475.946 194.369 476.156 194.597 476.39 194.723C476.63 194.843 476.873 194.903 477.119 194.903C477.365 194.903 477.608 194.843 477.848 194.723C478.088 194.597 478.301 194.369 478.487 194.039C478.679 193.703 478.832 193.247 478.946 192.671C479.06 192.095 479.117 191.351 479.117 190.439Z" fill="#99CCFF"/>
<path d="M751.112 211.016C751.368 209.272 751.856 207.752 752.576 206.456C753.312 205.16 754.216 204.08 755.288 203.216C756.376 202.352 757.616 201.712 759.008 201.296C760.4 200.864 761.896 200.648 763.496 200.648C765.224 200.648 766.76 200.896 768.104 201.392C769.448 201.872 770.584 202.528 771.512 203.36C772.44 204.192 773.144 205.16 773.624 206.264C774.104 207.352 774.344 208.504 774.344 209.72C774.344 210.824 774.232 211.8 774.008 212.648C773.784 213.48 773.448 214.208 773 214.832C772.568 215.44 772.024 215.96 771.368 216.392C770.728 216.808 769.992 217.16 769.16 217.448C773.032 218.808 774.968 221.448 774.968 225.368C774.968 227.224 774.632 228.84 773.96 230.216C773.288 231.592 772.384 232.736 771.248 233.648C770.128 234.56 768.824 235.248 767.336 235.712C765.848 236.16 764.296 236.384 762.68 236.384C761.016 236.384 759.536 236.208 758.24 235.856C756.944 235.488 755.792 234.928 754.784 234.176C753.776 233.408 752.888 232.432 752.12 231.248C751.368 230.064 750.712 228.656 750.152 227.024L753.464 225.68C754.328 225.344 755.128 225.256 755.864 225.416C756.6 225.576 757.128 225.944 757.448 226.52C758.168 227.848 758.928 228.816 759.728 229.424C760.544 230.016 761.496 230.312 762.584 230.312C763.416 230.312 764.136 230.176 764.744 229.904C765.368 229.616 765.88 229.256 766.28 228.824C766.696 228.376 767.008 227.872 767.216 227.312C767.424 226.752 767.528 226.184 767.528 225.608C767.528 224.856 767.472 224.184 767.36 223.592C767.264 222.984 766.976 222.464 766.496 222.032C766.016 221.6 765.288 221.272 764.312 221.048C763.352 220.808 762.008 220.688 760.28 220.688V215.552C761.736 215.552 762.912 215.44 763.808 215.216C764.704 214.992 765.392 214.688 765.872 214.304C766.368 213.904 766.696 213.424 766.856 212.864C767.016 212.304 767.096 211.688 767.096 211.016C767.096 209.64 766.76 208.584 766.088 207.848C765.432 207.096 764.424 206.72 763.064 206.72C761.96 206.72 761.024 207.016 760.256 207.608C759.504 208.184 758.984 208.904 758.696 209.768C758.36 210.648 757.92 211.232 757.376 211.52C756.832 211.808 756.056 211.872 755.048 211.712L751.112 211.016ZM802.284 218.504C802.284 221.56 801.956 224.208 801.3 226.448C800.644 228.688 799.732 230.544 798.564 232.016C797.412 233.488 796.036 234.584 794.436 235.304C792.852 236.024 791.132 236.384 789.276 236.384C787.42 236.384 785.7 236.024 784.116 235.304C782.548 234.584 781.188 233.488 780.036 232.016C778.884 230.544 777.98 228.688 777.324 226.448C776.684 224.208 776.364 221.56 776.364 218.504C776.364 215.448 776.684 212.8 777.324 210.56C777.98 208.32 778.884 206.464 780.036 204.992C781.188 203.52 782.548 202.432 784.116 201.728C785.7 201.008 787.42 200.648 789.276 200.648C791.132 200.648 792.852 201.008 794.436 201.728C796.036 202.432 797.412 203.52 798.564 204.992C799.732 206.464 800.644 208.32 801.3 210.56C801.956 212.8 802.284 215.448 802.284 218.504ZM794.604 218.504C794.604 216.088 794.452 214.112 794.148 212.576C793.844 211.024 793.436 209.808 792.924 208.928C792.428 208.048 791.86 207.448 791.22 207.128C790.58 206.792 789.932 206.624 789.276 206.624C788.62 206.624 787.972 206.792 787.332 207.128C786.708 207.448 786.148 208.048 785.652 208.928C785.172 209.808 784.78 211.024 784.476 212.576C784.188 214.112 784.044 216.088 784.044 218.504C784.044 220.936 784.188 222.92 784.476 224.456C784.78 225.992 785.172 227.208 785.652 228.104C786.148 228.984 786.708 229.592 787.332 229.928C787.972 230.248 788.62 230.408 789.276 230.408C789.932 230.408 790.58 230.248 791.22 229.928C791.86 229.592 792.428 228.984 792.924 228.104C793.436 227.208 793.844 225.992 794.148 224.456C794.452 222.92 794.604 220.936 794.604 218.504ZM820.191 209.504C820.191 210.784 819.959 211.952 819.496 213.008C819.031 214.064 818.415 214.976 817.647 215.744C816.879 216.496 815.984 217.08 814.959 217.496C813.951 217.912 812.895 218.12 811.791 218.12C810.575 218.12 809.455 217.912 808.431 217.496C807.423 217.08 806.543 216.496 805.791 215.744C805.055 214.976 804.479 214.064 804.063 213.008C803.647 211.952 803.439 210.784 803.439 209.504C803.439 208.176 803.647 206.976 804.063 205.904C804.479 204.816 805.055 203.888 805.791 203.12C806.543 202.352 807.423 201.76 808.431 201.344C809.455 200.912 810.575 200.696 811.791 200.696C813.007 200.696 814.127 200.912 815.152 201.344C816.192 201.76 817.08 202.352 817.816 203.12C818.568 203.888 819.151 204.816 819.567 205.904C819.983 206.976 820.191 208.176 820.191 209.504ZM814.479 209.504C814.479 208.688 814.407 208.016 814.264 207.488C814.135 206.944 813.951 206.512 813.711 206.192C813.471 205.872 813.183 205.648 812.847 205.52C812.527 205.392 812.175 205.328 811.791 205.328C811.407 205.328 811.055 205.392 810.735 205.52C810.415 205.648 810.143 205.872 809.919 206.192C809.695 206.512 809.519 206.944 809.391 207.488C809.263 208.016 809.199 208.688 809.199 209.504C809.199 210.272 809.263 210.912 809.391 211.424C809.519 211.936 809.695 212.344 809.919 212.648C810.143 212.952 810.415 213.168 810.735 213.296C811.055 213.424 811.407 213.488 811.791 213.488C812.175 213.488 812.527 213.424 812.847 213.296C813.183 213.168 813.471 212.952 813.711 212.648C813.951 212.344 814.135 211.936 814.264 211.424C814.407 210.912 814.479 210.272 814.479 209.504ZM831.184 202.136C831.424 201.864 831.72 201.616 832.071 201.392C832.424 201.152 832.912 201.032 833.535 201.032H838.96L812.607 234.944C812.367 235.248 812.063 235.504 811.695 235.712C811.343 235.904 810.911 236 810.399 236H804.831L831.184 202.136ZM840.304 227.792C840.304 229.072 840.072 230.248 839.608 231.32C839.144 232.376 838.528 233.288 837.759 234.056C836.991 234.808 836.095 235.392 835.071 235.808C834.064 236.224 833.008 236.432 831.904 236.432C830.688 236.432 829.568 236.224 828.544 235.808C827.535 235.392 826.655 234.808 825.904 234.056C825.168 233.288 824.592 232.376 824.175 231.32C823.759 230.248 823.551 229.072 823.551 227.792C823.551 226.464 823.759 225.264 824.175 224.192C824.592 223.104 825.168 222.176 825.904 221.408C826.655 220.64 827.535 220.048 828.544 219.632C829.568 219.2 830.688 218.984 831.904 218.984C833.12 218.984 834.24 219.2 835.264 219.632C836.304 220.048 837.192 220.64 837.928 221.408C838.68 222.176 839.264 223.104 839.68 224.192C840.096 225.264 840.304 226.464 840.304 227.792ZM834.592 227.792C834.592 226.992 834.52 226.328 834.376 225.8C834.248 225.256 834.064 224.824 833.824 224.504C833.583 224.184 833.295 223.96 832.96 223.832C832.64 223.704 832.288 223.64 831.904 223.64C831.519 223.64 831.167 223.704 830.847 223.832C830.528 223.96 830.255 224.184 830.031 224.504C829.807 224.824 829.632 225.256 829.503 225.8C829.375 226.328 829.311 226.992 829.311 227.792C829.311 228.56 829.375 229.2 829.503 229.712C829.632 230.224 829.807 230.632 830.031 230.936C830.255 231.24 830.528 231.456 830.847 231.584C831.167 231.712 831.519 231.776 831.904 231.776C832.288 231.776 832.64 231.712 832.96 231.584C833.295 231.456 833.583 231.24 833.824 230.936C834.064 230.632 834.248 230.224 834.376 229.712C834.52 229.2 834.592 228.56 834.592 227.792Z" fill="white"/>
<path d="M749.261 184.45H750.341C750.491 183.742 750.722 183.1 751.034 182.524C751.346 181.942 751.721 181.447 752.159 181.039C752.597 180.631 753.092 180.316 753.644 180.094C754.196 179.872 754.787 179.761 755.417 179.761C756.269 179.761 757.004 179.932 757.622 180.274C758.246 180.61 758.747 181.057 759.125 181.615L758.135 182.641C758.063 182.725 757.985 182.8 757.901 182.866C757.817 182.926 757.703 182.956 757.559 182.956C757.415 182.956 757.292 182.911 757.19 182.821C757.094 182.731 756.98 182.632 756.848 182.524C756.716 182.41 756.551 182.308 756.353 182.218C756.155 182.128 755.885 182.083 755.543 182.083C754.979 182.083 754.496 182.284 754.094 182.686C753.698 183.082 753.407 183.67 753.221 184.45H757.361V185.278C757.361 185.356 757.343 185.434 757.307 185.512C757.271 185.59 757.22 185.662 757.154 185.728C757.088 185.788 757.007 185.839 756.911 185.881C756.821 185.917 756.719 185.935 756.605 185.935H753.032C753.026 186.019 753.023 186.103 753.023 186.187C753.023 186.271 753.023 186.355 753.023 186.439V186.754H756.497V187.582C756.497 187.66 756.479 187.738 756.443 187.816C756.407 187.894 756.356 187.966 756.29 188.032C756.224 188.092 756.143 188.143 756.047 188.185C755.957 188.221 755.855 188.239 755.741 188.239H753.167C753.323 189.109 753.596 189.754 753.986 190.174C754.376 190.594 754.853 190.804 755.417 190.804C755.669 190.804 755.885 190.78 756.065 190.732C756.245 190.678 756.398 190.615 756.524 190.543C756.65 190.471 756.755 190.39 756.839 190.3C756.929 190.21 757.01 190.129 757.082 190.057C757.16 189.985 757.235 189.925 757.307 189.877C757.385 189.823 757.475 189.796 757.577 189.796C757.661 189.796 757.73 189.808 757.784 189.832C757.844 189.856 757.907 189.901 757.973 189.967L759.197 191.056C758.783 191.734 758.24 192.25 757.568 192.604C756.896 192.952 756.131 193.126 755.273 193.126C754.559 193.126 753.917 193.009 753.347 192.775C752.783 192.535 752.291 192.202 751.871 191.776C751.457 191.35 751.115 190.837 750.845 190.237C750.581 189.637 750.392 188.971 750.278 188.239H749.261V186.754H750.143V186.439C750.143 186.355 750.143 186.271 750.143 186.187C750.143 186.103 750.146 186.019 750.152 185.935H749.261V184.45ZM762.897 184.504C763.143 184.456 763.38 184.423 763.608 184.405C763.836 184.387 764.058 184.378 764.274 184.378C764.964 184.378 765.573 184.483 766.101 184.693C766.629 184.903 767.073 185.191 767.433 185.557C767.793 185.917 768.063 186.343 768.243 186.835C768.429 187.321 768.522 187.843 768.522 188.401C768.522 189.103 768.396 189.745 768.144 190.327C767.898 190.903 767.553 191.401 767.109 191.821C766.665 192.241 766.134 192.568 765.516 192.802C764.904 193.03 764.232 193.144 763.5 193.144C763.074 193.144 762.666 193.099 762.276 193.009C761.892 192.919 761.529 192.799 761.187 192.649C760.851 192.493 760.539 192.316 760.251 192.118C759.963 191.914 759.702 191.698 759.468 191.47L760.332 190.318C760.422 190.198 760.527 190.108 760.647 190.048C760.767 189.982 760.896 189.949 761.034 189.949C761.214 189.949 761.382 190 761.538 190.102C761.7 190.198 761.874 190.306 762.06 190.426C762.252 190.54 762.474 190.645 762.726 190.741C762.978 190.837 763.29 190.885 763.662 190.885C764.034 190.885 764.352 190.825 764.616 190.705C764.88 190.579 765.093 190.411 765.255 190.201C765.423 189.985 765.543 189.736 765.615 189.454C765.693 189.166 765.732 188.86 765.732 188.536C765.732 187.9 765.552 187.417 765.192 187.087C764.832 186.751 764.322 186.583 763.662 186.583C763.074 186.583 762.498 186.694 761.934 186.916L760.206 186.448L761.322 179.887H768.036V181.039C768.036 181.231 768.006 181.405 767.946 181.561C767.886 181.717 767.79 181.855 767.658 181.975C767.532 182.089 767.364 182.179 767.154 182.245C766.944 182.305 766.692 182.335 766.398 182.335H763.266L762.897 184.504ZM769.766 195.223C769.634 195.115 769.568 194.983 769.568 194.827C769.568 194.767 769.589 194.701 769.631 194.629C769.673 194.563 769.724 194.503 769.784 194.449C769.856 194.377 769.94 194.287 770.036 194.179C770.132 194.077 770.228 193.963 770.324 193.837C770.42 193.711 770.507 193.573 770.585 193.423C770.669 193.273 770.732 193.114 770.774 192.946C770.57 192.928 770.384 192.877 770.216 192.793C770.048 192.709 769.904 192.601 769.784 192.469C769.664 192.331 769.571 192.175 769.505 192.001C769.439 191.821 769.406 191.626 769.406 191.416C769.406 191.224 769.442 191.047 769.514 190.885C769.586 190.717 769.688 190.573 769.82 190.453C769.958 190.327 770.117 190.228 770.297 190.156C770.483 190.084 770.69 190.048 770.918 190.048C771.188 190.048 771.422 190.096 771.62 190.192C771.818 190.282 771.983 190.408 772.115 190.57C772.247 190.726 772.343 190.909 772.403 191.119C772.469 191.323 772.502 191.539 772.502 191.767C772.502 192.067 772.454 192.388 772.358 192.73C772.262 193.066 772.118 193.405 771.926 193.747C771.74 194.089 771.506 194.425 771.224 194.755C770.942 195.085 770.618 195.385 770.252 195.655L769.766 195.223ZM782.667 186.439C782.667 187.585 782.544 188.578 782.298 189.418C782.052 190.258 781.71 190.954 781.272 191.506C780.84 192.058 780.324 192.469 779.724 192.739C779.13 193.009 778.485 193.144 777.789 193.144C777.093 193.144 776.448 193.009 775.854 192.739C775.266 192.469 774.756 192.058 774.324 191.506C773.892 190.954 773.553 190.258 773.307 189.418C773.067 188.578 772.947 187.585 772.947 186.439C772.947 185.293 773.067 184.3 773.307 183.46C773.553 182.62 773.892 181.924 774.324 181.372C774.756 180.82 775.266 180.412 775.854 180.148C776.448 179.878 777.093 179.743 777.789 179.743C778.485 179.743 779.13 179.878 779.724 180.148C780.324 180.412 780.84 180.82 781.272 181.372C781.71 181.924 782.052 182.62 782.298 183.46C782.544 184.3 782.667 185.293 782.667 186.439ZM779.787 186.439C779.787 185.533 779.73 184.792 779.616 184.216C779.502 183.634 779.349 183.178 779.157 182.848C778.971 182.518 778.758 182.293 778.518 182.173C778.278 182.047 778.035 181.984 777.789 181.984C777.543 181.984 777.3 182.047 777.06 182.173C776.826 182.293 776.616 182.518 776.43 182.848C776.25 183.178 776.103 183.634 775.989 184.216C775.881 184.792 775.827 185.533 775.827 186.439C775.827 187.351 775.881 188.095 775.989 188.671C776.103 189.247 776.25 189.703 776.43 190.039C776.616 190.369 776.826 190.597 777.06 190.723C777.3 190.843 777.543 190.903 777.789 190.903C778.035 190.903 778.278 190.843 778.518 190.723C778.758 190.597 778.971 190.369 779.157 190.039C779.349 189.703 779.502 189.247 779.616 188.671C779.73 188.095 779.787 187.351 779.787 186.439ZM792.568 186.439C792.568 187.585 792.445 188.578 792.199 189.418C791.953 190.258 791.611 190.954 791.173 191.506C790.741 192.058 790.225 192.469 789.625 192.739C789.031 193.009 788.386 193.144 787.69 193.144C786.994 193.144 786.349 193.009 785.755 192.739C785.167 192.469 784.657 192.058 784.225 191.506C783.793 190.954 783.454 190.258 783.208 189.418C782.968 188.578 782.848 187.585 782.848 186.439C782.848 185.293 782.968 184.3 783.208 183.46C783.454 182.62 783.793 181.924 784.225 181.372C784.657 180.82 785.167 180.412 785.755 180.148C786.349 179.878 786.994 179.743 787.69 179.743C788.386 179.743 789.031 179.878 789.625 180.148C790.225 180.412 790.741 180.82 791.173 181.372C791.611 181.924 791.953 182.62 792.199 183.46C792.445 184.3 792.568 185.293 792.568 186.439ZM789.688 186.439C789.688 185.533 789.631 184.792 789.517 184.216C789.403 183.634 789.25 183.178 789.058 182.848C788.872 182.518 788.659 182.293 788.419 182.173C788.179 182.047 787.936 181.984 787.69 181.984C787.444 181.984 787.201 182.047 786.961 182.173C786.727 182.293 786.517 182.518 786.331 182.848C786.151 183.178 786.004 183.634 785.89 184.216C785.782 184.792 785.728 185.533 785.728 186.439C785.728 187.351 785.782 188.095 785.89 188.671C786.004 189.247 786.151 189.703 786.331 190.039C786.517 190.369 786.727 190.597 786.961 190.723C787.201 190.843 787.444 190.903 787.69 190.903C787.936 190.903 788.179 190.843 788.419 190.723C788.659 190.597 788.872 190.369 789.058 190.039C789.25 189.703 789.403 189.247 789.517 188.671C789.631 188.095 789.688 187.351 789.688 186.439ZM802.47 186.439C802.47 187.585 802.347 188.578 802.101 189.418C801.855 190.258 801.513 190.954 801.075 191.506C800.643 192.058 800.127 192.469 799.527 192.739C798.933 193.009 798.288 193.144 797.592 193.144C796.896 193.144 796.251 193.009 795.657 192.739C795.069 192.469 794.559 192.058 794.127 191.506C793.695 190.954 793.356 190.258 793.11 189.418C792.87 188.578 792.75 187.585 792.75 186.439C792.75 185.293 792.87 184.3 793.11 183.46C793.356 182.62 793.695 181.924 794.127 181.372C794.559 180.82 795.069 180.412 795.657 180.148C796.251 179.878 796.896 179.743 797.592 179.743C798.288 179.743 798.933 179.878 799.527 180.148C800.127 180.412 800.643 180.82 801.075 181.372C801.513 181.924 801.855 182.62 802.101 183.46C802.347 184.3 802.47 185.293 802.47 186.439ZM799.59 186.439C799.59 185.533 799.533 184.792 799.419 184.216C799.305 183.634 799.152 183.178 798.96 182.848C798.774 182.518 798.561 182.293 798.321 182.173C798.081 182.047 797.838 181.984 797.592 181.984C797.346 181.984 797.103 182.047 796.863 182.173C796.629 182.293 796.419 182.518 796.233 182.848C796.053 183.178 795.906 183.634 795.792 184.216C795.684 184.792 795.63 185.533 795.63 186.439C795.63 187.351 795.684 188.095 795.792 188.671C795.906 189.247 796.053 189.703 796.233 190.039C796.419 190.369 796.629 190.597 796.863 190.723C797.103 190.843 797.346 190.903 797.592 190.903C797.838 190.903 798.081 190.843 798.321 190.723C798.561 190.597 798.774 190.369 798.96 190.039C799.152 189.703 799.305 189.247 799.419 188.671C799.533 188.095 799.59 187.351 799.59 186.439ZM810.201 193.144C809.757 193.144 809.364 193.081 809.022 192.955C808.686 192.823 808.401 192.64 808.167 192.406C807.939 192.166 807.765 191.878 807.645 191.542C807.525 191.206 807.465 190.831 807.465 190.417V185.593H806.673C806.529 185.593 806.406 185.548 806.304 185.458C806.202 185.362 806.151 185.224 806.151 185.044V183.955L807.636 183.667L808.185 181.39C808.257 181.102 808.461 180.958 808.797 180.958H810.255V183.685H812.568V185.593H810.255V190.228C810.255 190.444 810.306 190.624 810.408 190.768C810.516 190.906 810.669 190.975 810.867 190.975C810.969 190.975 811.053 190.966 811.119 190.948C811.191 190.924 811.251 190.9 811.299 190.876C811.353 190.846 811.401 190.822 811.443 190.804C811.491 190.78 811.545 190.768 811.605 190.768C811.689 190.768 811.755 190.789 811.803 190.831C811.857 190.867 811.911 190.927 811.965 191.011L812.811 192.334C812.451 192.604 812.046 192.808 811.596 192.946C811.146 193.078 810.681 193.144 810.201 193.144ZM817.445 183.523C818.153 183.523 818.798 183.634 819.38 183.856C819.962 184.078 820.46 184.396 820.874 184.81C821.294 185.224 821.618 185.728 821.846 186.322C822.08 186.91 822.197 187.573 822.197 188.311C822.197 189.055 822.08 189.727 821.846 190.327C821.618 190.921 821.294 191.428 820.874 191.848C820.46 192.262 819.962 192.583 819.38 192.811C818.798 193.033 818.153 193.144 817.445 193.144C816.731 193.144 816.08 193.033 815.492 192.811C814.91 192.583 814.406 192.262 813.98 191.848C813.56 191.428 813.233 190.921 812.999 190.327C812.771 189.727 812.657 189.055 812.657 188.311C812.657 187.573 812.771 186.91 812.999 186.322C813.233 185.728 813.56 185.224 813.98 184.81C814.406 184.396 814.91 184.078 815.492 183.856C816.08 183.634 816.731 183.523 817.445 183.523ZM817.445 191.074C818.087 191.074 818.558 190.849 818.858 190.399C819.164 189.943 819.317 189.253 819.317 188.329C819.317 187.405 819.164 186.718 818.858 186.268C818.558 185.818 818.087 185.593 817.445 185.593C816.785 185.593 816.302 185.818 815.996 186.268C815.69 186.718 815.537 187.405 815.537 188.329C815.537 189.253 815.69 189.943 815.996 190.399C816.302 190.849 816.785 191.074 817.445 191.074ZM826.004 184.45H827.084C827.234 183.742 827.465 183.1 827.777 182.524C828.089 181.942 828.464 181.447 828.902 181.039C829.34 180.631 829.835 180.316 830.387 180.094C830.939 179.872 831.53 179.761 832.16 179.761C833.012 179.761 833.747 179.932 834.365 180.274C834.989 180.61 835.49 181.057 835.868 181.615L834.878 182.641C834.806 182.725 834.728 182.8 834.644 182.866C834.56 182.926 834.446 182.956 834.302 182.956C834.158 182.956 834.035 182.911 833.933 182.821C833.837 182.731 833.723 182.632 833.591 182.524C833.459 182.41 833.294 182.308 833.096 182.218C832.898 182.128 832.628 182.083 832.286 182.083C831.722 182.083 831.239 182.284 830.837 182.686C830.441 183.082 830.15 183.67 829.964 184.45H834.104V185.278C834.104 185.356 834.086 185.434 834.05 185.512C834.014 185.59 833.963 185.662 833.897 185.728C833.831 185.788 833.75 185.839 833.654 185.881C833.564 185.917 833.462 185.935 833.348 185.935H829.775C829.769 186.019 829.766 186.103 829.766 186.187C829.766 186.271 829.766 186.355 829.766 186.439V186.754H833.24V187.582C833.24 187.66 833.222 187.738 833.186 187.816C833.15 187.894 833.099 187.966 833.033 188.032C832.967 188.092 832.886 188.143 832.79 188.185C832.7 188.221 832.598 188.239 832.484 188.239H829.91C830.066 189.109 830.339 189.754 830.729 190.174C831.119 190.594 831.596 190.804 832.16 190.804C832.412 190.804 832.628 190.78 832.808 190.732C832.988 190.678 833.141 190.615 833.267 190.543C833.393 190.471 833.498 190.39 833.582 190.3C833.672 190.21 833.753 190.129 833.825 190.057C833.903 189.985 833.978 189.925 834.05 189.877C834.128 189.823 834.218 189.796 834.32 189.796C834.404 189.796 834.473 189.808 834.527 189.832C834.587 189.856 834.65 189.901 834.716 189.967L835.94 191.056C835.526 191.734 834.983 192.25 834.311 192.604C833.639 192.952 832.874 193.126 832.016 193.126C831.302 193.126 830.66 193.009 830.09 192.775C829.526 192.535 829.034 192.202 828.614 191.776C828.2 191.35 827.858 190.837 827.588 190.237C827.324 189.637 827.135 188.971 827.021 188.239H826.004V186.754H826.886V186.439C826.886 186.355 826.886 186.271 826.886 186.187C826.886 186.103 826.889 186.019 826.895 185.935H826.004V184.45ZM845.103 190.984V193H837.633V190.984H840.153V184.369C840.153 184.201 840.156 184.033 840.162 183.865C840.168 183.691 840.177 183.517 840.189 183.343L838.695 184.585C838.563 184.687 838.431 184.75 838.299 184.774C838.173 184.792 838.053 184.792 837.939 184.774C837.825 184.75 837.723 184.711 837.633 184.657C837.543 184.597 837.477 184.537 837.435 184.477L836.553 183.307L840.639 179.878H842.943V190.984H845.103ZM855.625 186.439C855.625 187.585 855.502 188.578 855.256 189.418C855.01 190.258 854.668 190.954 854.23 191.506C853.798 192.058 853.282 192.469 852.682 192.739C852.088 193.009 851.443 193.144 850.747 193.144C850.051 193.144 849.406 193.009 848.812 192.739C848.224 192.469 847.714 192.058 847.282 191.506C846.85 190.954 846.511 190.258 846.265 189.418C846.025 188.578 845.905 187.585 845.905 186.439C845.905 185.293 846.025 184.3 846.265 183.46C846.511 182.62 846.85 181.924 847.282 181.372C847.714 180.82 848.224 180.412 848.812 180.148C849.406 179.878 850.051 179.743 850.747 179.743C851.443 179.743 852.088 179.878 852.682 180.148C853.282 180.412 853.798 180.82 854.23 181.372C854.668 181.924 855.01 182.62 855.256 183.46C855.502 184.3 855.625 185.293 855.625 186.439ZM852.745 186.439C852.745 185.533 852.688 184.792 852.574 184.216C852.46 183.634 852.307 183.178 852.115 182.848C851.929 182.518 851.716 182.293 851.476 182.173C851.236 182.047 850.993 181.984 850.747 181.984C850.501 181.984 850.258 182.047 850.018 182.173C849.784 182.293 849.574 182.518 849.388 182.848C849.208 183.178 849.061 183.634 848.947 184.216C848.839 184.792 848.785 185.533 848.785 186.439C848.785 187.351 848.839 188.095 848.947 188.671C849.061 189.247 849.208 189.703 849.388 190.039C849.574 190.369 849.784 190.597 850.018 190.723C850.258 190.843 850.501 190.903 850.747 190.903C850.993 190.903 851.236 190.843 851.476 190.723C851.716 190.597 851.929 190.369 852.115 190.039C852.307 189.703 852.46 189.247 852.574 188.671C852.688 188.095 852.745 187.351 852.745 186.439ZM856.41 195.223C856.278 195.115 856.212 194.983 856.212 194.827C856.212 194.767 856.233 194.701 856.275 194.629C856.317 194.563 856.368 194.503 856.428 194.449C856.5 194.377 856.584 194.287 856.68 194.179C856.776 194.077 856.872 193.963 856.968 193.837C857.064 193.711 857.151 193.573 857.229 193.423C857.313 193.273 857.376 193.114 857.418 192.946C857.214 192.928 857.028 192.877 856.86 192.793C856.692 192.709 856.548 192.601 856.428 192.469C856.308 192.331 856.215 192.175 856.149 192.001C856.083 191.821 856.05 191.626 856.05 191.416C856.05 191.224 856.086 191.047 856.158 190.885C856.23 190.717 856.332 190.573 856.464 190.453C856.602 190.327 856.761 190.228 856.941 190.156C857.127 190.084 857.334 190.048 857.562 190.048C857.832 190.048 858.066 190.096 858.264 190.192C858.462 190.282 858.627 190.408 858.759 190.57C858.891 190.726 858.987 190.909 859.047 191.119C859.113 191.323 859.146 191.539 859.146 191.767C859.146 192.067 859.098 192.388 859.002 192.73C858.906 193.066 858.762 193.405 858.57 193.747C858.384 194.089 858.15 194.425 857.868 194.755C857.586 195.085 857.262 195.385 856.896 195.655L856.41 195.223ZM869.311 186.439C869.311 187.585 869.188 188.578 868.942 189.418C868.696 190.258 868.354 190.954 867.916 191.506C867.484 192.058 866.968 192.469 866.368 192.739C865.774 193.009 865.129 193.144 864.433 193.144C863.737 193.144 863.092 193.009 862.498 192.739C861.91 192.469 861.4 192.058 860.968 191.506C860.536 190.954 860.197 190.258 859.951 189.418C859.711 188.578 859.591 187.585 859.591 186.439C859.591 185.293 859.711 184.3 859.951 183.46C860.197 182.62 860.536 181.924 860.968 181.372C861.4 180.82 861.91 180.412 862.498 180.148C863.092 179.878 863.737 179.743 864.433 179.743C865.129 179.743 865.774 179.878 866.368 180.148C866.968 180.412 867.484 180.82 867.916 181.372C868.354 181.924 868.696 182.62 868.942 183.46C869.188 184.3 869.311 185.293 869.311 186.439ZM866.431 186.439C866.431 185.533 866.374 184.792 866.26 184.216C866.146 183.634 865.993 183.178 865.801 182.848C865.615 182.518 865.402 182.293 865.162 182.173C864.922 182.047 864.679 181.984 864.433 181.984C864.187 181.984 863.944 182.047 863.704 182.173C863.47 182.293 863.26 182.518 863.074 182.848C862.894 183.178 862.747 183.634 862.633 184.216C862.525 184.792 862.471 185.533 862.471 186.439C862.471 187.351 862.525 188.095 862.633 188.671C862.747 189.247 862.894 189.703 863.074 190.039C863.26 190.369 863.47 190.597 863.704 190.723C863.944 190.843 864.187 190.903 864.433 190.903C864.679 190.903 864.922 190.843 865.162 190.723C865.402 190.597 865.615 190.369 865.801 190.039C865.993 189.703 866.146 189.247 866.26 188.671C866.374 188.095 866.431 187.351 866.431 186.439ZM879.212 186.439C879.212 187.585 879.089 188.578 878.843 189.418C878.597 190.258 878.255 190.954 877.817 191.506C877.385 192.058 876.869 192.469 876.269 192.739C875.675 193.009 875.03 193.144 874.334 193.144C873.638 193.144 872.993 193.009 872.399 192.739C871.811 192.469 871.301 192.058 870.869 191.506C870.437 190.954 870.098 190.258 869.852 189.418C869.612 188.578 869.492 187.585 869.492 186.439C869.492 185.293 869.612 184.3 869.852 183.46C870.098 182.62 870.437 181.924 870.869 181.372C871.301 180.82 871.811 180.412 872.399 180.148C872.993 179.878 873.638 179.743 874.334 179.743C875.03 179.743 875.675 179.878 876.269 180.148C876.869 180.412 877.385 180.82 877.817 181.372C878.255 181.924 878.597 182.62 878.843 183.46C879.089 184.3 879.212 185.293 879.212 186.439ZM876.332 186.439C876.332 185.533 876.275 184.792 876.161 184.216C876.047 183.634 875.894 183.178 875.702 182.848C875.516 182.518 875.303 182.293 875.063 182.173C874.823 182.047 874.58 181.984 874.334 181.984C874.088 181.984 873.845 182.047 873.605 182.173C873.371 182.293 873.161 182.518 872.975 182.848C872.795 183.178 872.648 183.634 872.534 184.216C872.426 184.792 872.372 185.533 872.372 186.439C872.372 187.351 872.426 188.095 872.534 188.671C872.648 189.247 872.795 189.703 872.975 190.039C873.161 190.369 873.371 190.597 873.605 190.723C873.845 190.843 874.088 190.903 874.334 190.903C874.58 190.903 874.823 190.843 875.063 190.723C875.303 190.597 875.516 190.369 875.702 190.039C875.894 189.703 876.047 189.247 876.161 188.671C876.275 188.095 876.332 187.351 876.332 186.439ZM889.114 186.439C889.114 187.585 888.991 188.578 888.745 189.418C888.499 190.258 888.157 190.954 887.719 191.506C887.287 192.058 886.771 192.469 886.171 192.739C885.577 193.009 884.932 193.144 884.236 193.144C883.54 193.144 882.895 193.009 882.301 192.739C881.713 192.469 881.203 192.058 880.771 191.506C880.339 190.954 880 190.258 879.754 189.418C879.514 188.578 879.394 187.585 879.394 186.439C879.394 185.293 879.514 184.3 879.754 183.46C880 182.62 880.339 181.924 880.771 181.372C881.203 180.82 881.713 180.412 882.301 180.148C882.895 179.878 883.54 179.743 884.236 179.743C884.932 179.743 885.577 179.878 886.171 180.148C886.771 180.412 887.287 180.82 887.719 181.372C888.157 181.924 888.499 182.62 888.745 183.46C888.991 184.3 889.114 185.293 889.114 186.439ZM886.234 186.439C886.234 185.533 886.177 184.792 886.063 184.216C885.949 183.634 885.796 183.178 885.604 182.848C885.418 182.518 885.205 182.293 884.965 182.173C884.725 182.047 884.482 181.984 884.236 181.984C883.99 181.984 883.747 182.047 883.507 182.173C883.273 182.293 883.063 182.518 882.877 182.848C882.697 183.178 882.55 183.634 882.436 184.216C882.328 184.792 882.274 185.533 882.274 186.439C882.274 187.351 882.328 188.095 882.436 188.671C882.55 189.247 882.697 189.703 882.877 190.039C883.063 190.369 883.273 190.597 883.507 190.723C883.747 190.843 883.99 190.903 884.236 190.903C884.482 190.903 884.725 190.843 884.965 190.723C885.205 190.597 885.418 190.369 885.604 190.039C885.796 189.703 885.949 189.247 886.063 188.671C886.177 188.095 886.234 187.351 886.234 186.439Z" fill="#99CCFF"/>
<path d="M1151.11 162.016C1151.37 160.272 1151.86 158.752 1152.58 157.456C1153.31 156.16 1154.22 155.08 1155.29 154.216C1156.38 153.352 1157.62 152.712 1159.01 152.296C1160.4 151.864 1161.9 151.648 1163.5 151.648C1165.22 151.648 1166.76 151.896 1168.1 152.392C1169.45 152.872 1170.58 153.528 1171.51 154.36C1172.44 155.192 1173.14 156.16 1173.62 157.264C1174.1 158.352 1174.34 159.504 1174.34 160.72C1174.34 161.824 1174.23 162.8 1174.01 163.648C1173.78 164.48 1173.45 165.208 1173 165.832C1172.57 166.44 1172.02 166.96 1171.37 167.392C1170.73 167.808 1169.99 168.16 1169.16 168.448C1173.03 169.808 1174.97 172.448 1174.97 176.368C1174.97 178.224 1174.63 179.84 1173.96 181.216C1173.29 182.592 1172.38 183.736 1171.25 184.648C1170.13 185.56 1168.82 186.248 1167.34 186.712C1165.85 187.16 1164.3 187.384 1162.68 187.384C1161.02 187.384 1159.54 187.208 1158.24 186.856C1156.94 186.488 1155.79 185.928 1154.78 185.176C1153.78 184.408 1152.89 183.432 1152.12 182.248C1151.37 181.064 1150.71 179.656 1150.15 178.024L1153.46 176.68C1154.33 176.344 1155.13 176.256 1155.86 176.416C1156.6 176.576 1157.13 176.944 1157.45 177.52C1158.17 178.848 1158.93 179.816 1159.73 180.424C1160.54 181.016 1161.5 181.312 1162.58 181.312C1163.42 181.312 1164.14 181.176 1164.74 180.904C1165.37 180.616 1165.88 180.256 1166.28 179.824C1166.7 179.376 1167.01 178.872 1167.22 178.312C1167.42 177.752 1167.53 177.184 1167.53 176.608C1167.53 175.856 1167.47 175.184 1167.36 174.592C1167.26 173.984 1166.98 173.464 1166.5 173.032C1166.02 172.6 1165.29 172.272 1164.31 172.048C1163.35 171.808 1162.01 171.688 1160.28 171.688V166.552C1161.74 166.552 1162.91 166.44 1163.81 166.216C1164.7 165.992 1165.39 165.688 1165.87 165.304C1166.37 164.904 1166.7 164.424 1166.86 163.864C1167.02 163.304 1167.1 162.688 1167.1 162.016C1167.1 160.64 1166.76 159.584 1166.09 158.848C1165.43 158.096 1164.42 157.72 1163.06 157.72C1161.96 157.72 1161.02 158.016 1160.26 158.608C1159.5 159.184 1158.98 159.904 1158.7 160.768C1158.36 161.648 1157.92 162.232 1157.38 162.52C1156.83 162.808 1156.06 162.872 1155.05 162.712L1151.11 162.016ZM1186.06 164.344C1186.72 164.216 1187.35 164.128 1187.96 164.08C1188.56 164.032 1189.16 164.008 1189.73 164.008C1191.57 164.008 1193.2 164.288 1194.6 164.848C1196.01 165.408 1197.2 166.176 1198.16 167.152C1199.12 168.112 1199.84 169.248 1200.32 170.56C1200.81 171.856 1201.06 173.248 1201.06 174.736C1201.06 176.608 1200.72 178.32 1200.05 179.872C1199.4 181.408 1198.48 182.736 1197.29 183.856C1196.11 184.976 1194.69 185.848 1193.04 186.472C1191.41 187.08 1189.62 187.384 1187.67 187.384C1186.53 187.384 1185.44 187.264 1184.4 187.024C1183.38 186.784 1182.41 186.464 1181.5 186.064C1180.6 185.648 1179.77 185.176 1179 184.648C1178.24 184.104 1177.54 183.528 1176.92 182.92L1179.22 179.848C1179.46 179.528 1179.74 179.288 1180.06 179.128C1180.38 178.952 1180.72 178.864 1181.09 178.864C1181.57 178.864 1182.02 179 1182.44 179.272C1182.87 179.528 1183.33 179.816 1183.83 180.136C1184.34 180.44 1184.93 180.72 1185.6 180.976C1186.28 181.232 1187.11 181.36 1188.1 181.36C1189.09 181.36 1189.94 181.2 1190.64 180.88C1191.35 180.544 1191.92 180.096 1192.35 179.536C1192.8 178.96 1193.12 178.296 1193.31 177.544C1193.52 176.776 1193.62 175.96 1193.62 175.096C1193.62 173.4 1193.14 172.112 1192.18 171.232C1191.22 170.336 1189.86 169.888 1188.1 169.888C1186.53 169.888 1185 170.184 1183.49 170.776L1178.88 169.528L1181.86 152.032H1199.76V155.104C1199.76 155.616 1199.68 156.08 1199.52 156.496C1199.36 156.912 1199.11 157.28 1198.76 157.6C1198.42 157.904 1197.97 158.144 1197.41 158.32C1196.85 158.48 1196.18 158.56 1195.4 158.56H1187.04L1186.06 164.344ZM1220.19 160.504C1220.19 161.784 1219.96 162.952 1219.5 164.008C1219.03 165.064 1218.42 165.976 1217.65 166.744C1216.88 167.496 1215.98 168.08 1214.96 168.496C1213.95 168.912 1212.9 169.12 1211.79 169.12C1210.58 169.12 1209.46 168.912 1208.43 168.496C1207.42 168.08 1206.54 167.496 1205.79 166.744C1205.06 165.976 1204.48 165.064 1204.06 164.008C1203.65 162.952 1203.44 161.784 1203.44 160.504C1203.44 159.176 1203.65 157.976 1204.06 156.904C1204.48 155.816 1205.06 154.888 1205.79 154.12C1206.54 153.352 1207.42 152.76 1208.43 152.344C1209.46 151.912 1210.58 151.696 1211.79 151.696C1213.01 151.696 1214.13 151.912 1215.15 152.344C1216.19 152.76 1217.08 153.352 1217.82 154.12C1218.57 154.888 1219.15 155.816 1219.57 156.904C1219.98 157.976 1220.19 159.176 1220.19 160.504ZM1214.48 160.504C1214.48 159.688 1214.41 159.016 1214.26 158.488C1214.14 157.944 1213.95 157.512 1213.71 157.192C1213.47 156.872 1213.18 156.648 1212.85 156.52C1212.53 156.392 1212.18 156.328 1211.79 156.328C1211.41 156.328 1211.06 156.392 1210.74 156.52C1210.42 156.648 1210.14 156.872 1209.92 157.192C1209.7 157.512 1209.52 157.944 1209.39 158.488C1209.26 159.016 1209.2 159.688 1209.2 160.504C1209.2 161.272 1209.26 161.912 1209.39 162.424C1209.52 162.936 1209.7 163.344 1209.92 163.648C1210.14 163.952 1210.42 164.168 1210.74 164.296C1211.06 164.424 1211.41 164.488 1211.79 164.488C1212.18 164.488 1212.53 164.424 1212.85 164.296C1213.18 164.168 1213.47 163.952 1213.71 163.648C1213.95 163.344 1214.14 162.936 1214.26 162.424C1214.41 161.912 1214.48 161.272 1214.48 160.504ZM1231.18 153.136C1231.42 152.864 1231.72 152.616 1232.07 152.392C1232.42 152.152 1232.91 152.032 1233.54 152.032H1238.96L1212.61 185.944C1212.37 186.248 1212.06 186.504 1211.7 186.712C1211.34 186.904 1210.91 187 1210.4 187H1204.83L1231.18 153.136ZM1240.3 178.792C1240.3 180.072 1240.07 181.248 1239.61 182.32C1239.14 183.376 1238.53 184.288 1237.76 185.056C1236.99 185.808 1236.1 186.392 1235.07 186.808C1234.06 187.224 1233.01 187.432 1231.9 187.432C1230.69 187.432 1229.57 187.224 1228.54 186.808C1227.54 186.392 1226.66 185.808 1225.9 185.056C1225.17 184.288 1224.59 183.376 1224.18 182.32C1223.76 181.248 1223.55 180.072 1223.55 178.792C1223.55 177.464 1223.76 176.264 1224.18 175.192C1224.59 174.104 1225.17 173.176 1225.9 172.408C1226.66 171.64 1227.54 171.048 1228.54 170.632C1229.57 170.2 1230.69 169.984 1231.9 169.984C1233.12 169.984 1234.24 170.2 1235.26 170.632C1236.3 171.048 1237.19 171.64 1237.93 172.408C1238.68 173.176 1239.26 174.104 1239.68 175.192C1240.1 176.264 1240.3 177.464 1240.3 178.792ZM1234.59 178.792C1234.59 177.992 1234.52 177.328 1234.38 176.8C1234.25 176.256 1234.06 175.824 1233.82 175.504C1233.58 175.184 1233.3 174.96 1232.96 174.832C1232.64 174.704 1232.29 174.64 1231.9 174.64C1231.52 174.64 1231.17 174.704 1230.85 174.832C1230.53 174.96 1230.26 175.184 1230.03 175.504C1229.81 175.824 1229.63 176.256 1229.5 176.8C1229.38 177.328 1229.31 177.992 1229.31 178.792C1229.31 179.56 1229.38 180.2 1229.5 180.712C1229.63 181.224 1229.81 181.632 1230.03 181.936C1230.26 182.24 1230.53 182.456 1230.85 182.584C1231.17 182.712 1231.52 182.776 1231.9 182.776C1232.29 182.776 1232.64 182.712 1232.96 182.584C1233.3 182.456 1233.58 182.24 1233.82 181.936C1234.06 181.632 1234.25 181.224 1234.38 180.712C1234.52 180.2 1234.59 179.56 1234.59 178.792Z" fill="white"/>
<path d="M1149.26 135.45H1150.34C1150.49 134.742 1150.72 134.1 1151.03 133.524C1151.35 132.942 1151.72 132.447 1152.16 132.039C1152.6 131.631 1153.09 131.316 1153.64 131.094C1154.2 130.872 1154.79 130.761 1155.42 130.761C1156.27 130.761 1157 130.932 1157.62 131.274C1158.25 131.61 1158.75 132.057 1159.12 132.615L1158.14 133.641C1158.06 133.725 1157.99 133.8 1157.9 133.866C1157.82 133.926 1157.7 133.956 1157.56 133.956C1157.42 133.956 1157.29 133.911 1157.19 133.821C1157.09 133.731 1156.98 133.632 1156.85 133.524C1156.72 133.41 1156.55 133.308 1156.35 133.218C1156.16 133.128 1155.89 133.083 1155.54 133.083C1154.98 133.083 1154.5 133.284 1154.09 133.686C1153.7 134.082 1153.41 134.67 1153.22 135.45H1157.36V136.278C1157.36 136.356 1157.34 136.434 1157.31 136.512C1157.27 136.59 1157.22 136.662 1157.15 136.728C1157.09 136.788 1157.01 136.839 1156.91 136.881C1156.82 136.917 1156.72 136.935 1156.61 136.935H1153.03C1153.03 137.019 1153.02 137.103 1153.02 137.187C1153.02 137.271 1153.02 137.355 1153.02 137.439V137.754H1156.5V138.582C1156.5 138.66 1156.48 138.738 1156.44 138.816C1156.41 138.894 1156.36 138.966 1156.29 139.032C1156.22 139.092 1156.14 139.143 1156.05 139.185C1155.96 139.221 1155.86 139.239 1155.74 139.239H1153.17C1153.32 140.109 1153.6 140.754 1153.99 141.174C1154.38 141.594 1154.85 141.804 1155.42 141.804C1155.67 141.804 1155.89 141.78 1156.07 141.732C1156.25 141.678 1156.4 141.615 1156.52 141.543C1156.65 141.471 1156.76 141.39 1156.84 141.3C1156.93 141.21 1157.01 141.129 1157.08 141.057C1157.16 140.985 1157.24 140.925 1157.31 140.877C1157.39 140.823 1157.48 140.796 1157.58 140.796C1157.66 140.796 1157.73 140.808 1157.78 140.832C1157.84 140.856 1157.91 140.901 1157.97 140.967L1159.2 142.056C1158.78 142.734 1158.24 143.25 1157.57 143.604C1156.9 143.952 1156.13 144.126 1155.27 144.126C1154.56 144.126 1153.92 144.009 1153.35 143.775C1152.78 143.535 1152.29 143.202 1151.87 142.776C1151.46 142.35 1151.12 141.837 1150.85 141.237C1150.58 140.637 1150.39 139.971 1150.28 139.239H1149.26V137.754H1150.14V137.439C1150.14 137.355 1150.14 137.271 1150.14 137.187C1150.14 137.103 1150.15 137.019 1150.15 136.935H1149.26V135.45ZM1168.36 141.984V144H1160.89V141.984H1163.41V135.369C1163.41 135.201 1163.41 135.033 1163.42 134.865C1163.43 134.691 1163.43 134.517 1163.45 134.343L1161.95 135.585C1161.82 135.687 1161.69 135.75 1161.56 135.774C1161.43 135.792 1161.31 135.792 1161.2 135.774C1161.08 135.75 1160.98 135.711 1160.89 135.657C1160.8 135.597 1160.73 135.537 1160.69 135.477L1159.81 134.307L1163.9 130.878H1166.2V141.984H1168.36ZM1178.88 137.439C1178.88 138.585 1178.76 139.578 1178.51 140.418C1178.27 141.258 1177.93 141.954 1177.49 142.506C1177.06 143.058 1176.54 143.469 1175.94 143.739C1175.35 144.009 1174.7 144.144 1174 144.144C1173.31 144.144 1172.66 144.009 1172.07 143.739C1171.48 143.469 1170.97 143.058 1170.54 142.506C1170.11 141.954 1169.77 141.258 1169.52 140.418C1169.28 139.578 1169.16 138.585 1169.16 137.439C1169.16 136.293 1169.28 135.3 1169.52 134.46C1169.77 133.62 1170.11 132.924 1170.54 132.372C1170.97 131.82 1171.48 131.412 1172.07 131.148C1172.66 130.878 1173.31 130.743 1174 130.743C1174.7 130.743 1175.35 130.878 1175.94 131.148C1176.54 131.412 1177.06 131.82 1177.49 132.372C1177.93 132.924 1178.27 133.62 1178.51 134.46C1178.76 135.3 1178.88 136.293 1178.88 137.439ZM1176 137.439C1176 136.533 1175.95 135.792 1175.83 135.216C1175.72 134.634 1175.56 134.178 1175.37 133.848C1175.19 133.518 1174.97 133.293 1174.73 133.173C1174.49 133.047 1174.25 132.984 1174 132.984C1173.76 132.984 1173.52 133.047 1173.28 133.173C1173.04 133.293 1172.83 133.518 1172.65 133.848C1172.47 134.178 1172.32 134.634 1172.2 135.216C1172.1 135.792 1172.04 136.533 1172.04 137.439C1172.04 138.351 1172.1 139.095 1172.2 139.671C1172.32 140.247 1172.47 140.703 1172.65 141.039C1172.83 141.369 1173.04 141.597 1173.28 141.723C1173.52 141.843 1173.76 141.903 1174 141.903C1174.25 141.903 1174.49 141.843 1174.73 141.723C1174.97 141.597 1175.19 141.369 1175.37 141.039C1175.56 140.703 1175.72 140.247 1175.83 139.671C1175.95 139.095 1176 138.351 1176 137.439ZM1179.67 146.223C1179.54 146.115 1179.47 145.983 1179.47 145.827C1179.47 145.767 1179.49 145.701 1179.53 145.629C1179.57 145.563 1179.63 145.503 1179.69 145.449C1179.76 145.377 1179.84 145.287 1179.94 145.179C1180.03 145.077 1180.13 144.963 1180.23 144.837C1180.32 144.711 1180.41 144.573 1180.49 144.423C1180.57 144.273 1180.63 144.114 1180.68 143.946C1180.47 143.928 1180.29 143.877 1180.12 143.793C1179.95 143.709 1179.81 143.601 1179.69 143.469C1179.57 143.331 1179.47 143.175 1179.41 143.001C1179.34 142.821 1179.31 142.626 1179.31 142.416C1179.31 142.224 1179.34 142.047 1179.42 141.885C1179.49 141.717 1179.59 141.573 1179.72 141.453C1179.86 141.327 1180.02 141.228 1180.2 141.156C1180.38 141.084 1180.59 141.048 1180.82 141.048C1181.09 141.048 1181.32 141.096 1181.52 141.192C1181.72 141.282 1181.88 141.408 1182.02 141.57C1182.15 141.726 1182.24 141.909 1182.3 142.119C1182.37 142.323 1182.4 142.539 1182.4 142.767C1182.4 143.067 1182.36 143.388 1182.26 143.73C1182.16 144.066 1182.02 144.405 1181.83 144.747C1181.64 145.089 1181.41 145.425 1181.13 145.755C1180.84 146.085 1180.52 146.385 1180.15 146.655L1179.67 146.223ZM1192.57 137.439C1192.57 138.585 1192.45 139.578 1192.2 140.418C1191.95 141.258 1191.61 141.954 1191.17 142.506C1190.74 143.058 1190.23 143.469 1189.63 143.739C1189.03 144.009 1188.39 144.144 1187.69 144.144C1186.99 144.144 1186.35 144.009 1185.76 143.739C1185.17 143.469 1184.66 143.058 1184.23 142.506C1183.79 141.954 1183.45 141.258 1183.21 140.418C1182.97 139.578 1182.85 138.585 1182.85 137.439C1182.85 136.293 1182.97 135.3 1183.21 134.46C1183.45 133.62 1183.79 132.924 1184.23 132.372C1184.66 131.82 1185.17 131.412 1185.76 131.148C1186.35 130.878 1186.99 130.743 1187.69 130.743C1188.39 130.743 1189.03 130.878 1189.63 131.148C1190.23 131.412 1190.74 131.82 1191.17 132.372C1191.61 132.924 1191.95 133.62 1192.2 134.46C1192.45 135.3 1192.57 136.293 1192.57 137.439ZM1189.69 137.439C1189.69 136.533 1189.63 135.792 1189.52 135.216C1189.4 134.634 1189.25 134.178 1189.06 133.848C1188.87 133.518 1188.66 133.293 1188.42 133.173C1188.18 133.047 1187.94 132.984 1187.69 132.984C1187.44 132.984 1187.2 133.047 1186.96 133.173C1186.73 133.293 1186.52 133.518 1186.33 133.848C1186.15 134.178 1186 134.634 1185.89 135.216C1185.78 135.792 1185.73 136.533 1185.73 137.439C1185.73 138.351 1185.78 139.095 1185.89 139.671C1186 140.247 1186.15 140.703 1186.33 141.039C1186.52 141.369 1186.73 141.597 1186.96 141.723C1187.2 141.843 1187.44 141.903 1187.69 141.903C1187.94 141.903 1188.18 141.843 1188.42 141.723C1188.66 141.597 1188.87 141.369 1189.06 141.039C1189.25 140.703 1189.4 140.247 1189.52 139.671C1189.63 139.095 1189.69 138.351 1189.69 137.439ZM1202.47 137.439C1202.47 138.585 1202.35 139.578 1202.1 140.418C1201.85 141.258 1201.51 141.954 1201.07 142.506C1200.64 143.058 1200.13 143.469 1199.53 143.739C1198.93 144.009 1198.29 144.144 1197.59 144.144C1196.9 144.144 1196.25 144.009 1195.66 143.739C1195.07 143.469 1194.56 143.058 1194.13 142.506C1193.69 141.954 1193.36 141.258 1193.11 140.418C1192.87 139.578 1192.75 138.585 1192.75 137.439C1192.75 136.293 1192.87 135.3 1193.11 134.46C1193.36 133.62 1193.69 132.924 1194.13 132.372C1194.56 131.82 1195.07 131.412 1195.66 131.148C1196.25 130.878 1196.9 130.743 1197.59 130.743C1198.29 130.743 1198.93 130.878 1199.53 131.148C1200.13 131.412 1200.64 131.82 1201.07 132.372C1201.51 132.924 1201.85 133.62 1202.1 134.46C1202.35 135.3 1202.47 136.293 1202.47 137.439ZM1199.59 137.439C1199.59 136.533 1199.53 135.792 1199.42 135.216C1199.3 134.634 1199.15 134.178 1198.96 133.848C1198.77 133.518 1198.56 133.293 1198.32 133.173C1198.08 133.047 1197.84 132.984 1197.59 132.984C1197.35 132.984 1197.1 133.047 1196.86 133.173C1196.63 133.293 1196.42 133.518 1196.23 133.848C1196.05 134.178 1195.91 134.634 1195.79 135.216C1195.68 135.792 1195.63 136.533 1195.63 137.439C1195.63 138.351 1195.68 139.095 1195.79 139.671C1195.91 140.247 1196.05 140.703 1196.23 141.039C1196.42 141.369 1196.63 141.597 1196.86 141.723C1197.1 141.843 1197.35 141.903 1197.59 141.903C1197.84 141.903 1198.08 141.843 1198.32 141.723C1198.56 141.597 1198.77 141.369 1198.96 141.039C1199.15 140.703 1199.3 140.247 1199.42 139.671C1199.53 139.095 1199.59 138.351 1199.59 137.439ZM1212.37 137.439C1212.37 138.585 1212.25 139.578 1212 140.418C1211.76 141.258 1211.41 141.954 1210.98 142.506C1210.54 143.058 1210.03 143.469 1209.43 143.739C1208.83 144.009 1208.19 144.144 1207.49 144.144C1206.8 144.144 1206.15 144.009 1205.56 143.739C1204.97 143.469 1204.46 143.058 1204.03 142.506C1203.6 141.954 1203.26 141.258 1203.01 140.418C1202.77 139.578 1202.65 138.585 1202.65 137.439C1202.65 136.293 1202.77 135.3 1203.01 134.46C1203.26 133.62 1203.6 132.924 1204.03 132.372C1204.46 131.82 1204.97 131.412 1205.56 131.148C1206.15 130.878 1206.8 130.743 1207.49 130.743C1208.19 130.743 1208.83 130.878 1209.43 131.148C1210.03 131.412 1210.54 131.82 1210.98 132.372C1211.41 132.924 1211.76 133.62 1212 134.46C1212.25 135.3 1212.37 136.293 1212.37 137.439ZM1209.49 137.439C1209.49 136.533 1209.43 135.792 1209.32 135.216C1209.21 134.634 1209.05 134.178 1208.86 133.848C1208.68 133.518 1208.46 133.293 1208.22 133.173C1207.98 133.047 1207.74 132.984 1207.49 132.984C1207.25 132.984 1207 133.047 1206.76 133.173C1206.53 133.293 1206.32 133.518 1206.13 133.848C1205.95 134.178 1205.81 134.634 1205.69 135.216C1205.59 135.792 1205.53 136.533 1205.53 137.439C1205.53 138.351 1205.59 139.095 1205.69 139.671C1205.81 140.247 1205.95 140.703 1206.13 141.039C1206.32 141.369 1206.53 141.597 1206.76 141.723C1207 141.843 1207.25 141.903 1207.49 141.903C1207.74 141.903 1207.98 141.843 1208.22 141.723C1208.46 141.597 1208.68 141.369 1208.86 141.039C1209.05 140.703 1209.21 140.247 1209.32 139.671C1209.43 139.095 1209.49 138.351 1209.49 137.439ZM1220.1 144.144C1219.66 144.144 1219.27 144.081 1218.92 143.955C1218.59 143.823 1218.3 143.64 1218.07 143.406C1217.84 143.166 1217.67 142.878 1217.55 142.542C1217.43 142.206 1217.37 141.831 1217.37 141.417V136.593H1216.57C1216.43 136.593 1216.31 136.548 1216.21 136.458C1216.1 136.362 1216.05 136.224 1216.05 136.044V134.955L1217.54 134.667L1218.09 132.39C1218.16 132.102 1218.36 131.958 1218.7 131.958H1220.16V134.685H1222.47V136.593H1220.16V141.228C1220.16 141.444 1220.21 141.624 1220.31 141.768C1220.42 141.906 1220.57 141.975 1220.77 141.975C1220.87 141.975 1220.95 141.966 1221.02 141.948C1221.09 141.924 1221.15 141.9 1221.2 141.876C1221.25 141.846 1221.3 141.822 1221.34 141.804C1221.39 141.78 1221.45 141.768 1221.51 141.768C1221.59 141.768 1221.66 141.789 1221.7 141.831C1221.76 141.867 1221.81 141.927 1221.87 142.011L1222.71 143.334C1222.35 143.604 1221.95 143.808 1221.5 143.946C1221.05 144.078 1220.58 144.144 1220.1 144.144ZM1227.35 134.523C1228.05 134.523 1228.7 134.634 1229.28 134.856C1229.86 135.078 1230.36 135.396 1230.77 135.81C1231.19 136.224 1231.52 136.728 1231.75 137.322C1231.98 137.91 1232.1 138.573 1232.1 139.311C1232.1 140.055 1231.98 140.727 1231.75 141.327C1231.52 141.921 1231.19 142.428 1230.77 142.848C1230.36 143.262 1229.86 143.583 1229.28 143.811C1228.7 144.033 1228.05 144.144 1227.35 144.144C1226.63 144.144 1225.98 144.033 1225.39 143.811C1224.81 143.583 1224.31 143.262 1223.88 142.848C1223.46 142.428 1223.13 141.921 1222.9 141.327C1222.67 140.727 1222.56 140.055 1222.56 139.311C1222.56 138.573 1222.67 137.91 1222.9 137.322C1223.13 136.728 1223.46 136.224 1223.88 135.81C1224.31 135.396 1224.81 135.078 1225.39 134.856C1225.98 134.634 1226.63 134.523 1227.35 134.523ZM1227.35 142.074C1227.99 142.074 1228.46 141.849 1228.76 141.399C1229.06 140.943 1229.22 140.253 1229.22 139.329C1229.22 138.405 1229.06 137.718 1228.76 137.268C1228.46 136.818 1227.99 136.593 1227.35 136.593C1226.69 136.593 1226.2 136.818 1225.9 137.268C1225.59 137.718 1225.44 138.405 1225.44 139.329C1225.44 140.253 1225.59 140.943 1225.9 141.399C1226.2 141.849 1226.69 142.074 1227.35 142.074ZM1235.9 135.45H1236.98C1237.13 134.742 1237.37 134.1 1237.68 133.524C1237.99 132.942 1238.36 132.447 1238.8 132.039C1239.24 131.631 1239.74 131.316 1240.29 131.094C1240.84 130.872 1241.43 130.761 1242.06 130.761C1242.91 130.761 1243.65 130.932 1244.27 131.274C1244.89 131.61 1245.39 132.057 1245.77 132.615L1244.78 133.641C1244.71 133.725 1244.63 133.8 1244.54 133.866C1244.46 133.926 1244.35 133.956 1244.2 133.956C1244.06 133.956 1243.94 133.911 1243.83 133.821C1243.74 133.731 1243.62 133.632 1243.49 133.524C1243.36 133.41 1243.19 133.308 1243 133.218C1242.8 133.128 1242.53 133.083 1242.19 133.083C1241.62 133.083 1241.14 133.284 1240.74 133.686C1240.34 134.082 1240.05 134.67 1239.86 135.45H1244V136.278C1244 136.356 1243.99 136.434 1243.95 136.512C1243.91 136.59 1243.86 136.662 1243.8 136.728C1243.73 136.788 1243.65 136.839 1243.55 136.881C1243.46 136.917 1243.36 136.935 1243.25 136.935H1239.68C1239.67 137.019 1239.67 137.103 1239.67 137.187C1239.67 137.271 1239.67 137.355 1239.67 137.439V137.754H1243.14V138.582C1243.14 138.66 1243.12 138.738 1243.09 138.816C1243.05 138.894 1243 138.966 1242.93 139.032C1242.87 139.092 1242.79 139.143 1242.69 139.185C1242.6 139.221 1242.5 139.239 1242.38 139.239H1239.81C1239.97 140.109 1240.24 140.754 1240.63 141.174C1241.02 141.594 1241.5 141.804 1242.06 141.804C1242.31 141.804 1242.53 141.78 1242.71 141.732C1242.89 141.678 1243.04 141.615 1243.17 141.543C1243.29 141.471 1243.4 141.39 1243.48 141.3C1243.57 141.21 1243.65 141.129 1243.73 141.057C1243.8 140.985 1243.88 140.925 1243.95 140.877C1244.03 140.823 1244.12 140.796 1244.22 140.796C1244.3 140.796 1244.37 140.808 1244.43 140.832C1244.49 140.856 1244.55 140.901 1244.62 140.967L1245.84 142.056C1245.43 142.734 1244.88 143.25 1244.21 143.604C1243.54 143.952 1242.77 144.126 1241.92 144.126C1241.2 144.126 1240.56 144.009 1239.99 143.775C1239.43 143.535 1238.93 143.202 1238.51 142.776C1238.1 142.35 1237.76 141.837 1237.49 141.237C1237.22 140.637 1237.04 139.971 1236.92 139.239H1235.9V137.754H1236.79V137.439C1236.79 137.355 1236.79 137.271 1236.79 137.187C1236.79 137.103 1236.79 137.019 1236.8 136.935H1235.9V135.45ZM1254.33 141.48C1254.63 141.48 1254.87 141.564 1255.04 141.732C1255.21 141.894 1255.3 142.11 1255.3 142.38V144H1246.09V143.1C1246.09 142.926 1246.12 142.74 1246.19 142.542C1246.27 142.344 1246.39 142.164 1246.57 142.002L1250.35 138.195C1250.68 137.871 1250.96 137.562 1251.2 137.268C1251.44 136.974 1251.64 136.686 1251.79 136.404C1251.95 136.116 1252.06 135.831 1252.14 135.549C1252.22 135.261 1252.26 134.958 1252.26 134.64C1252.26 134.118 1252.13 133.719 1251.88 133.443C1251.64 133.161 1251.26 133.02 1250.75 133.02C1250.33 133.02 1249.98 133.131 1249.69 133.353C1249.41 133.569 1249.22 133.839 1249.11 134.163C1248.98 134.493 1248.82 134.712 1248.61 134.82C1248.41 134.928 1248.12 134.952 1247.74 134.892L1246.27 134.631C1246.36 133.977 1246.54 133.407 1246.81 132.921C1247.09 132.435 1247.43 132.03 1247.83 131.706C1248.24 131.382 1248.7 131.142 1249.23 130.986C1249.75 130.824 1250.31 130.743 1250.91 130.743C1251.56 130.743 1252.14 130.839 1252.66 131.031C1253.18 131.217 1253.62 131.478 1253.99 131.814C1254.35 132.15 1254.63 132.552 1254.82 133.02C1255.02 133.482 1255.12 133.992 1255.12 134.55C1255.12 135.03 1255.05 135.474 1254.91 135.882C1254.78 136.29 1254.6 136.68 1254.37 137.052C1254.13 137.418 1253.86 137.775 1253.55 138.123C1253.24 138.465 1252.91 138.813 1252.57 139.167L1250 141.795C1250.33 141.693 1250.66 141.615 1250.98 141.561C1251.31 141.507 1251.61 141.48 1251.88 141.48H1254.33ZM1265.53 137.439C1265.53 138.585 1265.4 139.578 1265.16 140.418C1264.91 141.258 1264.57 141.954 1264.13 142.506C1263.7 143.058 1263.18 143.469 1262.58 143.739C1261.99 144.009 1261.34 144.144 1260.65 144.144C1259.95 144.144 1259.31 144.009 1258.71 143.739C1258.13 143.469 1257.62 143.058 1257.18 142.506C1256.75 141.954 1256.41 141.258 1256.17 140.418C1255.93 139.578 1255.81 138.585 1255.81 137.439C1255.81 136.293 1255.93 135.3 1256.17 134.46C1256.41 133.62 1256.75 132.924 1257.18 132.372C1257.62 131.82 1258.13 131.412 1258.71 131.148C1259.31 130.878 1259.95 130.743 1260.65 130.743C1261.34 130.743 1261.99 130.878 1262.58 131.148C1263.18 131.412 1263.7 131.82 1264.13 132.372C1264.57 132.924 1264.91 133.62 1265.16 134.46C1265.4 135.3 1265.53 136.293 1265.53 137.439ZM1262.65 137.439C1262.65 136.533 1262.59 135.792 1262.48 135.216C1262.36 134.634 1262.21 134.178 1262.02 133.848C1261.83 133.518 1261.62 133.293 1261.38 133.173C1261.14 133.047 1260.89 132.984 1260.65 132.984C1260.4 132.984 1260.16 133.047 1259.92 133.173C1259.69 133.293 1259.48 133.518 1259.29 133.848C1259.11 134.178 1258.96 134.634 1258.85 135.216C1258.74 135.792 1258.69 136.533 1258.69 137.439C1258.69 138.351 1258.74 139.095 1258.85 139.671C1258.96 140.247 1259.11 140.703 1259.29 141.039C1259.48 141.369 1259.69 141.597 1259.92 141.723C1260.16 141.843 1260.4 141.903 1260.65 141.903C1260.89 141.903 1261.14 141.843 1261.38 141.723C1261.62 141.597 1261.83 141.369 1262.02 141.039C1262.21 140.703 1262.36 140.247 1262.48 139.671C1262.59 139.095 1262.65 138.351 1262.65 137.439ZM1266.31 146.223C1266.18 146.115 1266.11 145.983 1266.11 145.827C1266.11 145.767 1266.13 145.701 1266.18 145.629C1266.22 145.563 1266.27 145.503 1266.33 145.449C1266.4 145.377 1266.49 145.287 1266.58 145.179C1266.68 145.077 1266.77 144.963 1266.87 144.837C1266.97 144.711 1267.05 144.573 1267.13 144.423C1267.21 144.273 1267.28 144.114 1267.32 143.946C1267.12 143.928 1266.93 143.877 1266.76 143.793C1266.59 143.709 1266.45 143.601 1266.33 143.469C1266.21 143.331 1266.12 143.175 1266.05 143.001C1265.98 142.821 1265.95 142.626 1265.95 142.416C1265.95 142.224 1265.99 142.047 1266.06 141.885C1266.13 141.717 1266.23 141.573 1266.37 141.453C1266.5 141.327 1266.66 141.228 1266.84 141.156C1267.03 141.084 1267.24 141.048 1267.46 141.048C1267.73 141.048 1267.97 141.096 1268.17 141.192C1268.36 141.282 1268.53 141.408 1268.66 141.57C1268.79 141.726 1268.89 141.909 1268.95 142.119C1269.01 142.323 1269.05 142.539 1269.05 142.767C1269.05 143.067 1269 143.388 1268.9 143.73C1268.81 144.066 1268.66 144.405 1268.47 144.747C1268.29 145.089 1268.05 145.425 1267.77 145.755C1267.49 146.085 1267.16 146.385 1266.8 146.655L1266.31 146.223ZM1279.21 137.439C1279.21 138.585 1279.09 139.578 1278.84 140.418C1278.6 141.258 1278.26 141.954 1277.82 142.506C1277.39 143.058 1276.87 143.469 1276.27 143.739C1275.68 144.009 1275.03 144.144 1274.33 144.144C1273.64 144.144 1272.99 144.009 1272.4 143.739C1271.81 143.469 1271.3 143.058 1270.87 142.506C1270.44 141.954 1270.1 141.258 1269.85 140.418C1269.61 139.578 1269.49 138.585 1269.49 137.439C1269.49 136.293 1269.61 135.3 1269.85 134.46C1270.1 133.62 1270.44 132.924 1270.87 132.372C1271.3 131.82 1271.81 131.412 1272.4 131.148C1272.99 130.878 1273.64 130.743 1274.33 130.743C1275.03 130.743 1275.68 130.878 1276.27 131.148C1276.87 131.412 1277.39 131.82 1277.82 132.372C1278.26 132.924 1278.6 133.62 1278.84 134.46C1279.09 135.3 1279.21 136.293 1279.21 137.439ZM1276.33 137.439C1276.33 136.533 1276.28 135.792 1276.16 135.216C1276.05 134.634 1275.89 134.178 1275.7 133.848C1275.52 133.518 1275.3 133.293 1275.06 133.173C1274.82 133.047 1274.58 132.984 1274.33 132.984C1274.09 132.984 1273.85 133.047 1273.61 133.173C1273.37 133.293 1273.16 133.518 1272.98 133.848C1272.8 134.178 1272.65 134.634 1272.53 135.216C1272.43 135.792 1272.37 136.533 1272.37 137.439C1272.37 138.351 1272.43 139.095 1272.53 139.671C1272.65 140.247 1272.8 140.703 1272.98 141.039C1273.16 141.369 1273.37 141.597 1273.61 141.723C1273.85 141.843 1274.09 141.903 1274.33 141.903C1274.58 141.903 1274.82 141.843 1275.06 141.723C1275.3 141.597 1275.52 141.369 1275.7 141.039C1275.89 140.703 1276.05 140.247 1276.16 139.671C1276.28 139.095 1276.33 138.351 1276.33 137.439ZM1289.11 137.439C1289.11 138.585 1288.99 139.578 1288.74 140.418C1288.5 141.258 1288.16 141.954 1287.72 142.506C1287.29 143.058 1286.77 143.469 1286.17 143.739C1285.58 144.009 1284.93 144.144 1284.24 144.144C1283.54 144.144 1282.89 144.009 1282.3 143.739C1281.71 143.469 1281.2 143.058 1280.77 142.506C1280.34 141.954 1280 141.258 1279.75 140.418C1279.51 139.578 1279.39 138.585 1279.39 137.439C1279.39 136.293 1279.51 135.3 1279.75 134.46C1280 133.62 1280.34 132.924 1280.77 132.372C1281.2 131.82 1281.71 131.412 1282.3 131.148C1282.89 130.878 1283.54 130.743 1284.24 130.743C1284.93 130.743 1285.58 130.878 1286.17 131.148C1286.77 131.412 1287.29 131.82 1287.72 132.372C1288.16 132.924 1288.5 133.62 1288.74 134.46C1288.99 135.3 1289.11 136.293 1289.11 137.439ZM1286.23 137.439C1286.23 136.533 1286.18 135.792 1286.06 135.216C1285.95 134.634 1285.8 134.178 1285.6 133.848C1285.42 133.518 1285.2 133.293 1284.96 133.173C1284.72 133.047 1284.48 132.984 1284.24 132.984C1283.99 132.984 1283.75 133.047 1283.51 133.173C1283.27 133.293 1283.06 133.518 1282.88 133.848C1282.7 134.178 1282.55 134.634 1282.44 135.216C1282.33 135.792 1282.27 136.533 1282.27 137.439C1282.27 138.351 1282.33 139.095 1282.44 139.671C1282.55 140.247 1282.7 140.703 1282.88 141.039C1283.06 141.369 1283.27 141.597 1283.51 141.723C1283.75 141.843 1283.99 141.903 1284.24 141.903C1284.48 141.903 1284.72 141.843 1284.96 141.723C1285.2 141.597 1285.42 141.369 1285.6 141.039C1285.8 140.703 1285.95 140.247 1286.06 139.671C1286.18 139.095 1286.23 138.351 1286.23 137.439ZM1299.02 137.439C1299.02 138.585 1298.89 139.578 1298.65 140.418C1298.4 141.258 1298.06 141.954 1297.62 142.506C1297.19 143.058 1296.67 143.469 1296.07 143.739C1295.48 144.009 1294.83 144.144 1294.14 144.144C1293.44 144.144 1292.8 144.009 1292.2 143.739C1291.61 143.469 1291.1 143.058 1290.67 142.506C1290.24 141.954 1289.9 141.258 1289.66 140.418C1289.42 139.578 1289.3 138.585 1289.3 137.439C1289.3 136.293 1289.42 135.3 1289.66 134.46C1289.9 133.62 1290.24 132.924 1290.67 132.372C1291.1 131.82 1291.61 131.412 1292.2 131.148C1292.8 130.878 1293.44 130.743 1294.14 130.743C1294.83 130.743 1295.48 130.878 1296.07 131.148C1296.67 131.412 1297.19 131.82 1297.62 132.372C1298.06 132.924 1298.4 133.62 1298.65 134.46C1298.89 135.3 1299.02 136.293 1299.02 137.439ZM1296.14 137.439C1296.14 136.533 1296.08 135.792 1295.96 135.216C1295.85 134.634 1295.7 134.178 1295.51 133.848C1295.32 133.518 1295.11 133.293 1294.87 133.173C1294.63 133.047 1294.38 132.984 1294.14 132.984C1293.89 132.984 1293.65 133.047 1293.41 133.173C1293.17 133.293 1292.96 133.518 1292.78 133.848C1292.6 134.178 1292.45 134.634 1292.34 135.216C1292.23 135.792 1292.18 136.533 1292.18 137.439C1292.18 138.351 1292.23 139.095 1292.34 139.671C1292.45 140.247 1292.6 140.703 1292.78 141.039C1292.96 141.369 1293.17 141.597 1293.41 141.723C1293.65 141.843 1293.89 141.903 1294.14 141.903C1294.38 141.903 1294.63 141.843 1294.87 141.723C1295.11 141.597 1295.32 141.369 1295.51 141.039C1295.7 140.703 1295.85 140.247 1295.96 139.671C1296.08 139.095 1296.14 138.351 1296.14 137.439Z" fill="#99CCFF"/>
<path d="M1509.75 47.416V38.296C1509.75 37.736 1509.76 37.136 1509.8 36.496C1509.84 35.84 1509.91 35.16 1509.99 34.456L1500.75 47.416H1509.75ZM1519.83 47.416V51.592C1519.83 51.96 1519.7 52.28 1519.44 52.552C1519.2 52.824 1518.85 52.96 1518.39 52.96H1516.23V61H1509.75V52.96H1495.68C1495.22 52.96 1494.8 52.816 1494.41 52.528C1494.04 52.24 1493.81 51.88 1493.72 51.448L1492.95 47.776L1509.12 26.032H1516.23V47.416H1519.83ZM1546.35 43.504C1546.35 46.56 1546.02 49.208 1545.37 51.448C1544.71 53.688 1543.8 55.544 1542.63 57.016C1541.48 58.488 1540.1 59.584 1538.5 60.304C1536.92 61.024 1535.2 61.384 1533.34 61.384C1531.49 61.384 1529.77 61.024 1528.18 60.304C1526.62 59.584 1525.26 58.488 1524.1 57.016C1522.95 55.544 1522.05 53.688 1521.39 51.448C1520.75 49.208 1520.43 46.56 1520.43 43.504C1520.43 40.448 1520.75 37.8 1521.39 35.56C1522.05 33.32 1522.95 31.464 1524.1 29.992C1525.26 28.52 1526.62 27.432 1528.18 26.728C1529.77 26.008 1531.49 25.648 1533.34 25.648C1535.2 25.648 1536.92 26.008 1538.5 26.728C1540.1 27.432 1541.48 28.52 1542.63 29.992C1543.8 31.464 1544.71 33.32 1545.37 35.56C1546.02 37.8 1546.35 40.448 1546.35 43.504ZM1538.67 43.504C1538.67 41.088 1538.52 39.112 1538.22 37.576C1537.91 36.024 1537.5 34.808 1536.99 33.928C1536.5 33.048 1535.93 32.448 1535.29 32.128C1534.65 31.792 1534 31.624 1533.34 31.624C1532.69 31.624 1532.04 31.792 1531.4 32.128C1530.78 32.448 1530.22 33.048 1529.72 33.928C1529.24 34.808 1528.85 36.024 1528.54 37.576C1528.26 39.112 1528.11 41.088 1528.11 43.504C1528.11 45.936 1528.26 47.92 1528.54 49.456C1528.85 50.992 1529.24 52.208 1529.72 53.104C1530.22 53.984 1530.78 54.592 1531.4 54.928C1532.04 55.248 1532.69 55.408 1533.34 55.408C1534 55.408 1534.65 55.248 1535.29 54.928C1535.93 54.592 1536.5 53.984 1536.99 53.104C1537.5 52.208 1537.91 50.992 1538.22 49.456C1538.52 47.92 1538.67 45.936 1538.67 43.504ZM1564.26 34.504C1564.26 35.784 1564.03 36.952 1563.56 38.008C1563.1 39.064 1562.48 39.976 1561.71 40.744C1560.95 41.496 1560.05 42.08 1559.03 42.496C1558.02 42.912 1556.96 43.12 1555.86 43.12C1554.64 43.12 1553.52 42.912 1552.5 42.496C1551.49 42.08 1550.61 41.496 1549.86 40.744C1549.12 39.976 1548.55 39.064 1548.13 38.008C1547.71 36.952 1547.51 35.784 1547.51 34.504C1547.51 33.176 1547.71 31.976 1548.13 30.904C1548.55 29.816 1549.12 28.888 1549.86 28.12C1550.61 27.352 1551.49 26.76 1552.5 26.344C1553.52 25.912 1554.64 25.696 1555.86 25.696C1557.07 25.696 1558.19 25.912 1559.22 26.344C1560.26 26.76 1561.15 27.352 1561.88 28.12C1562.63 28.888 1563.22 29.816 1563.63 30.904C1564.05 31.976 1564.26 33.176 1564.26 34.504ZM1558.55 34.504C1558.55 33.688 1558.47 33.016 1558.33 32.488C1558.2 31.944 1558.02 31.512 1557.78 31.192C1557.54 30.872 1557.25 30.648 1556.91 30.52C1556.59 30.392 1556.24 30.328 1555.86 30.328C1555.47 30.328 1555.12 30.392 1554.8 30.52C1554.48 30.648 1554.21 30.872 1553.99 31.192C1553.76 31.512 1553.59 31.944 1553.46 32.488C1553.33 33.016 1553.27 33.688 1553.27 34.504C1553.27 35.272 1553.33 35.912 1553.46 36.424C1553.59 36.936 1553.76 37.344 1553.99 37.648C1554.21 37.952 1554.48 38.168 1554.8 38.296C1555.12 38.424 1555.47 38.488 1555.86 38.488C1556.24 38.488 1556.59 38.424 1556.91 38.296C1557.25 38.168 1557.54 37.952 1557.78 37.648C1558.02 37.344 1558.2 36.936 1558.33 36.424C1558.47 35.912 1558.55 35.272 1558.55 34.504ZM1575.25 27.136C1575.49 26.864 1575.79 26.616 1576.14 26.392C1576.49 26.152 1576.98 26.032 1577.6 26.032H1583.03L1556.67 59.944C1556.43 60.248 1556.13 60.504 1555.76 60.712C1555.41 60.904 1554.98 61 1554.47 61H1548.9L1575.25 27.136ZM1584.37 52.792C1584.37 54.072 1584.14 55.248 1583.67 56.32C1583.21 57.376 1582.59 58.288 1581.83 59.056C1581.06 59.808 1580.16 60.392 1579.14 60.808C1578.13 61.224 1577.07 61.432 1575.97 61.432C1574.75 61.432 1573.63 61.224 1572.61 60.808C1571.6 60.392 1570.72 59.808 1569.97 59.056C1569.23 58.288 1568.66 57.376 1568.24 56.32C1567.83 55.248 1567.62 54.072 1567.62 52.792C1567.62 51.464 1567.83 50.264 1568.24 49.192C1568.66 48.104 1569.23 47.176 1569.97 46.408C1570.72 45.64 1571.6 45.048 1572.61 44.632C1573.63 44.2 1574.75 43.984 1575.97 43.984C1577.19 43.984 1578.31 44.2 1579.33 44.632C1580.37 45.048 1581.26 45.64 1581.99 46.408C1582.75 47.176 1583.33 48.104 1583.75 49.192C1584.16 50.264 1584.37 51.464 1584.37 52.792ZM1578.66 52.792C1578.66 51.992 1578.59 51.328 1578.44 50.8C1578.31 50.256 1578.13 49.824 1577.89 49.504C1577.65 49.184 1577.36 48.96 1577.03 48.832C1576.71 48.704 1576.35 48.64 1575.97 48.64C1575.59 48.64 1575.23 48.704 1574.91 48.832C1574.59 48.96 1574.32 49.184 1574.1 49.504C1573.87 49.824 1573.7 50.256 1573.57 50.8C1573.44 51.328 1573.38 51.992 1573.38 52.792C1573.38 53.56 1573.44 54.2 1573.57 54.712C1573.7 55.224 1573.87 55.632 1574.1 55.936C1574.32 56.24 1574.59 56.456 1574.91 56.584C1575.23 56.712 1575.59 56.776 1575.97 56.776C1576.35 56.776 1576.71 56.712 1577.03 56.584C1577.36 56.456 1577.65 56.24 1577.89 55.936C1578.13 55.632 1578.31 55.224 1578.44 54.712C1578.59 54.2 1578.66 53.56 1578.66 52.792Z" fill="white"/>
<path d="M1509 9.45H1510.08C1510.23 8.742 1510.46 8.1 1510.77 7.524C1511.09 6.942 1511.46 6.447 1511.9 6.039C1512.34 5.631 1512.83 5.316 1513.38 5.094C1513.94 4.872 1514.53 4.761 1515.16 4.761C1516.01 4.761 1516.74 4.932 1517.36 5.274C1517.99 5.61 1518.49 6.057 1518.86 6.615L1517.87 7.641C1517.8 7.725 1517.72 7.8 1517.64 7.866C1517.56 7.926 1517.44 7.956 1517.3 7.956C1517.15 7.956 1517.03 7.911 1516.93 7.821C1516.83 7.731 1516.72 7.632 1516.59 7.524C1516.46 7.41 1516.29 7.308 1516.09 7.218C1515.89 7.128 1515.62 7.083 1515.28 7.083C1514.72 7.083 1514.24 7.284 1513.83 7.686C1513.44 8.082 1513.15 8.67 1512.96 9.45H1517.1V10.278C1517.1 10.356 1517.08 10.434 1517.05 10.512C1517.01 10.59 1516.96 10.662 1516.89 10.728C1516.83 10.788 1516.75 10.839 1516.65 10.881C1516.56 10.917 1516.46 10.935 1516.34 10.935H1512.77C1512.77 11.019 1512.76 11.103 1512.76 11.187C1512.76 11.271 1512.76 11.355 1512.76 11.439V11.754H1516.24V12.582C1516.24 12.66 1516.22 12.738 1516.18 12.816C1516.15 12.894 1516.1 12.966 1516.03 13.032C1515.96 13.092 1515.88 13.143 1515.79 13.185C1515.7 13.221 1515.59 13.239 1515.48 13.239H1512.91C1513.06 14.109 1513.34 14.754 1513.73 15.174C1514.12 15.594 1514.59 15.804 1515.16 15.804C1515.41 15.804 1515.62 15.78 1515.8 15.732C1515.98 15.678 1516.14 15.615 1516.26 15.543C1516.39 15.471 1516.49 15.39 1516.58 15.3C1516.67 15.21 1516.75 15.129 1516.82 15.057C1516.9 14.985 1516.97 14.925 1517.05 14.877C1517.12 14.823 1517.21 14.796 1517.32 14.796C1517.4 14.796 1517.47 14.808 1517.52 14.832C1517.58 14.856 1517.65 14.901 1517.71 14.967L1518.94 16.056C1518.52 16.734 1517.98 17.25 1517.31 17.604C1516.64 17.952 1515.87 18.126 1515.01 18.126C1514.3 18.126 1513.66 18.009 1513.09 17.775C1512.52 17.535 1512.03 17.202 1511.61 16.776C1511.2 16.35 1510.85 15.837 1510.58 15.237C1510.32 14.637 1510.13 13.971 1510.02 13.239H1509V11.754H1509.88V11.439C1509.88 11.355 1509.88 11.271 1509.88 11.187C1509.88 11.103 1509.89 11.019 1509.89 10.935H1509V9.45ZM1527.43 15.48C1527.73 15.48 1527.96 15.564 1528.14 15.732C1528.31 15.894 1528.4 16.11 1528.4 16.38V18H1519.18V17.1C1519.18 16.926 1519.22 16.74 1519.29 16.542C1519.36 16.344 1519.49 16.164 1519.67 16.002L1523.45 12.195C1523.77 11.871 1524.05 11.562 1524.29 11.268C1524.53 10.974 1524.73 10.686 1524.89 10.404C1525.04 10.116 1525.16 9.831 1525.24 9.549C1525.32 9.261 1525.36 8.958 1525.36 8.64C1525.36 8.118 1525.23 7.719 1524.98 7.443C1524.73 7.161 1524.35 7.02 1523.84 7.02C1523.43 7.02 1523.08 7.131 1522.79 7.353C1522.51 7.569 1522.31 7.839 1522.21 8.163C1522.08 8.493 1521.91 8.712 1521.71 8.82C1521.51 8.928 1521.22 8.952 1520.84 8.892L1519.36 8.631C1519.46 7.977 1519.64 7.407 1519.91 6.921C1520.19 6.435 1520.53 6.03 1520.93 5.706C1521.34 5.382 1521.8 5.142 1522.32 4.986C1522.84 4.824 1523.41 4.743 1524.01 4.743C1524.65 4.743 1525.24 4.839 1525.75 5.031C1526.27 5.217 1526.72 5.478 1527.08 5.814C1527.45 6.15 1527.73 6.552 1527.92 7.02C1528.12 7.482 1528.22 7.992 1528.22 8.55C1528.22 9.03 1528.15 9.474 1528.01 9.882C1527.88 10.29 1527.7 10.68 1527.46 11.052C1527.23 11.418 1526.95 11.775 1526.64 12.123C1526.34 12.465 1526.01 12.813 1525.66 13.167L1523.1 15.795C1523.43 15.693 1523.75 15.615 1524.08 15.561C1524.4 15.507 1524.7 15.48 1524.98 15.48H1527.43ZM1538.62 11.439C1538.62 12.585 1538.5 13.578 1538.25 14.418C1538.01 15.258 1537.67 15.954 1537.23 16.506C1536.8 17.058 1536.28 17.469 1535.68 17.739C1535.09 18.009 1534.44 18.144 1533.74 18.144C1533.05 18.144 1532.4 18.009 1531.81 17.739C1531.22 17.469 1530.71 17.058 1530.28 16.506C1529.85 15.954 1529.51 15.258 1529.26 14.418C1529.02 13.578 1528.9 12.585 1528.9 11.439C1528.9 10.293 1529.02 9.3 1529.26 8.46C1529.51 7.62 1529.85 6.924 1530.28 6.372C1530.71 5.82 1531.22 5.412 1531.81 5.148C1532.4 4.878 1533.05 4.743 1533.74 4.743C1534.44 4.743 1535.09 4.878 1535.68 5.148C1536.28 5.412 1536.8 5.82 1537.23 6.372C1537.67 6.924 1538.01 7.62 1538.25 8.46C1538.5 9.3 1538.62 10.293 1538.62 11.439ZM1535.74 11.439C1535.74 10.533 1535.69 9.792 1535.57 9.216C1535.46 8.634 1535.3 8.178 1535.11 7.848C1534.93 7.518 1534.71 7.293 1534.47 7.173C1534.23 7.047 1533.99 6.984 1533.74 6.984C1533.5 6.984 1533.26 7.047 1533.02 7.173C1532.78 7.293 1532.57 7.518 1532.39 7.848C1532.21 8.178 1532.06 8.634 1531.94 9.216C1531.84 9.792 1531.78 10.533 1531.78 11.439C1531.78 12.351 1531.84 13.095 1531.94 13.671C1532.06 14.247 1532.21 14.703 1532.39 15.039C1532.57 15.369 1532.78 15.597 1533.02 15.723C1533.26 15.843 1533.5 15.903 1533.74 15.903C1533.99 15.903 1534.23 15.843 1534.47 15.723C1534.71 15.597 1534.93 15.369 1535.11 15.039C1535.3 14.703 1535.46 14.247 1535.57 13.671C1535.69 13.095 1535.74 12.351 1535.74 11.439ZM1539.41 20.223C1539.28 20.115 1539.21 19.983 1539.21 19.827C1539.21 19.767 1539.23 19.701 1539.27 19.629C1539.31 19.563 1539.37 19.503 1539.43 19.449C1539.5 19.377 1539.58 19.287 1539.68 19.179C1539.77 19.077 1539.87 18.963 1539.97 18.837C1540.06 18.711 1540.15 18.573 1540.23 18.423C1540.31 18.273 1540.37 18.114 1540.42 17.946C1540.21 17.928 1540.03 17.877 1539.86 17.793C1539.69 17.709 1539.55 17.601 1539.43 17.469C1539.31 17.331 1539.21 17.175 1539.15 17.001C1539.08 16.821 1539.05 16.626 1539.05 16.416C1539.05 16.224 1539.08 16.047 1539.16 15.885C1539.23 15.717 1539.33 15.573 1539.46 15.453C1539.6 15.327 1539.76 15.228 1539.94 15.156C1540.12 15.084 1540.33 15.048 1540.56 15.048C1540.83 15.048 1541.06 15.096 1541.26 15.192C1541.46 15.282 1541.62 15.408 1541.76 15.57C1541.89 15.726 1541.98 15.909 1542.04 16.119C1542.11 16.323 1542.14 16.539 1542.14 16.767C1542.14 17.067 1542.1 17.388 1542 17.73C1541.9 18.066 1541.76 18.405 1541.57 18.747C1541.38 19.089 1541.15 19.425 1540.87 19.755C1540.58 20.085 1540.26 20.385 1539.89 20.655L1539.41 20.223ZM1552.31 11.439C1552.31 12.585 1552.19 13.578 1551.94 14.418C1551.69 15.258 1551.35 15.954 1550.91 16.506C1550.48 17.058 1549.97 17.469 1549.37 17.739C1548.77 18.009 1548.13 18.144 1547.43 18.144C1546.73 18.144 1546.09 18.009 1545.5 17.739C1544.91 17.469 1544.4 17.058 1543.97 16.506C1543.53 15.954 1543.19 15.258 1542.95 14.418C1542.71 13.578 1542.59 12.585 1542.59 11.439C1542.59 10.293 1542.71 9.3 1542.95 8.46C1543.19 7.62 1543.53 6.924 1543.97 6.372C1544.4 5.82 1544.91 5.412 1545.5 5.148C1546.09 4.878 1546.73 4.743 1547.43 4.743C1548.13 4.743 1548.77 4.878 1549.37 5.148C1549.97 5.412 1550.48 5.82 1550.91 6.372C1551.35 6.924 1551.69 7.62 1551.94 8.46C1552.19 9.3 1552.31 10.293 1552.31 11.439ZM1549.43 11.439C1549.43 10.533 1549.37 9.792 1549.26 9.216C1549.14 8.634 1548.99 8.178 1548.8 7.848C1548.61 7.518 1548.4 7.293 1548.16 7.173C1547.92 7.047 1547.68 6.984 1547.43 6.984C1547.18 6.984 1546.94 7.047 1546.7 7.173C1546.47 7.293 1546.26 7.518 1546.07 7.848C1545.89 8.178 1545.74 8.634 1545.63 9.216C1545.52 9.792 1545.47 10.533 1545.47 11.439C1545.47 12.351 1545.52 13.095 1545.63 13.671C1545.74 14.247 1545.89 14.703 1546.07 15.039C1546.26 15.369 1546.47 15.597 1546.7 15.723C1546.94 15.843 1547.18 15.903 1547.43 15.903C1547.68 15.903 1547.92 15.843 1548.16 15.723C1548.4 15.597 1548.61 15.369 1548.8 15.039C1548.99 14.703 1549.14 14.247 1549.26 13.671C1549.37 13.095 1549.43 12.351 1549.43 11.439ZM1562.21 11.439C1562.21 12.585 1562.09 13.578 1561.84 14.418C1561.59 15.258 1561.25 15.954 1560.81 16.506C1560.38 17.058 1559.87 17.469 1559.27 17.739C1558.67 18.009 1558.03 18.144 1557.33 18.144C1556.64 18.144 1555.99 18.009 1555.4 17.739C1554.81 17.469 1554.3 17.058 1553.87 16.506C1553.43 15.954 1553.1 15.258 1552.85 14.418C1552.61 13.578 1552.49 12.585 1552.49 11.439C1552.49 10.293 1552.61 9.3 1552.85 8.46C1553.1 7.62 1553.43 6.924 1553.87 6.372C1554.3 5.82 1554.81 5.412 1555.4 5.148C1555.99 4.878 1556.64 4.743 1557.33 4.743C1558.03 4.743 1558.67 4.878 1559.27 5.148C1559.87 5.412 1560.38 5.82 1560.81 6.372C1561.25 6.924 1561.59 7.62 1561.84 8.46C1562.09 9.3 1562.21 10.293 1562.21 11.439ZM1559.33 11.439C1559.33 10.533 1559.27 9.792 1559.16 9.216C1559.04 8.634 1558.89 8.178 1558.7 7.848C1558.51 7.518 1558.3 7.293 1558.06 7.173C1557.82 7.047 1557.58 6.984 1557.33 6.984C1557.09 6.984 1556.84 7.047 1556.6 7.173C1556.37 7.293 1556.16 7.518 1555.97 7.848C1555.79 8.178 1555.65 8.634 1555.53 9.216C1555.42 9.792 1555.37 10.533 1555.37 11.439C1555.37 12.351 1555.42 13.095 1555.53 13.671C1555.65 14.247 1555.79 14.703 1555.97 15.039C1556.16 15.369 1556.37 15.597 1556.6 15.723C1556.84 15.843 1557.09 15.903 1557.33 15.903C1557.58 15.903 1557.82 15.843 1558.06 15.723C1558.3 15.597 1558.51 15.369 1558.7 15.039C1558.89 14.703 1559.04 14.247 1559.16 13.671C1559.27 13.095 1559.33 12.351 1559.33 11.439ZM1572.11 11.439C1572.11 12.585 1571.99 13.578 1571.74 14.418C1571.5 15.258 1571.15 15.954 1570.72 16.506C1570.28 17.058 1569.77 17.469 1569.17 17.739C1568.57 18.009 1567.93 18.144 1567.23 18.144C1566.54 18.144 1565.89 18.009 1565.3 17.739C1564.71 17.469 1564.2 17.058 1563.77 16.506C1563.34 15.954 1563 15.258 1562.75 14.418C1562.51 13.578 1562.39 12.585 1562.39 11.439C1562.39 10.293 1562.51 9.3 1562.75 8.46C1563 7.62 1563.34 6.924 1563.77 6.372C1564.2 5.82 1564.71 5.412 1565.3 5.148C1565.89 4.878 1566.54 4.743 1567.23 4.743C1567.93 4.743 1568.57 4.878 1569.17 5.148C1569.77 5.412 1570.28 5.82 1570.72 6.372C1571.15 6.924 1571.5 7.62 1571.74 8.46C1571.99 9.3 1572.11 10.293 1572.11 11.439ZM1569.23 11.439C1569.23 10.533 1569.17 9.792 1569.06 9.216C1568.95 8.634 1568.79 8.178 1568.6 7.848C1568.42 7.518 1568.2 7.293 1567.96 7.173C1567.72 7.047 1567.48 6.984 1567.23 6.984C1566.99 6.984 1566.74 7.047 1566.5 7.173C1566.27 7.293 1566.06 7.518 1565.87 7.848C1565.69 8.178 1565.55 8.634 1565.43 9.216C1565.33 9.792 1565.27 10.533 1565.27 11.439C1565.27 12.351 1565.33 13.095 1565.43 13.671C1565.55 14.247 1565.69 14.703 1565.87 15.039C1566.06 15.369 1566.27 15.597 1566.5 15.723C1566.74 15.843 1566.99 15.903 1567.23 15.903C1567.48 15.903 1567.72 15.843 1567.96 15.723C1568.2 15.597 1568.42 15.369 1568.6 15.039C1568.79 14.703 1568.95 14.247 1569.06 13.671C1569.17 13.095 1569.23 12.351 1569.23 11.439ZM1585.23 12.951H1581.9V16.533H1579.64V12.951H1576.32V10.953H1579.64V7.389H1581.9V10.953H1585.23V12.951Z" fill="#99CCFF"/>
<defs>
<linearGradient id="paint0_linear_58513_2" x1="-3.00001" y1="192.002" x2="2002" y2="183.002" gradientUnits="userSpaceOnUse">
<stop stop-color="#0E399B"/>
<stop offset="0.5" stop-color="#8748CD"/>
<stop offset="1" stop-color="#D81887"/>
</linearGradient>
<linearGradient id="paint1_linear_58513_2" x1="-1" y1="252.501" x2="2000" y2="252.501" gradientUnits="userSpaceOnUse">
<stop stop-color="#11399D"/>
<stop offset="0.484375" stop-color="#9F48C8"/>
<stop offset="1" stop-color="#DF46A1"/>
</linearGradient>
</defs>
</svg>
